<svg width="27" height="27" viewBox="0 0 27 27" fill="none" xmlns="http://www.w3.org/2000/svg">
<path d="M26.7089 7.92189C26.6938 6.79495 26.4829 5.6792 26.0854 4.62457C25.7407 3.735 25.2143 2.92711 24.5397 2.25252C23.8651 1.57792 23.0572 1.05147 22.1676 0.70678C21.1265 0.315979 20.0267 0.104665 18.9149 0.0818378C17.4835 0.0178556 17.0297 0 13.3961 0C9.7625 0 9.29676 9.97754e-08 7.87576 0.0818378C6.76449 0.104833 5.66518 0.316144 4.62457 0.70678C3.73486 1.05123 2.92685 1.5776 2.25222 2.25222C1.5776 2.92685 1.05123 3.73486 0.70678 4.62457C0.315196 5.66485 0.10434 6.76442 0.0833257 7.87576C0.0193434 9.30867 0 9.7625 0 13.3961C0 17.0297 -1.10862e-08 17.4939 0.0833257 18.9164C0.105645 20.0294 0.315447 21.1275 0.70678 22.1706C1.0518 23.06 1.57857 23.8677 2.25342 24.542C2.92827 25.2164 3.73636 25.7425 4.62606 26.0869C5.66381 26.4934 6.76332 26.7198 7.87725 26.7565C9.31016 26.8204 9.76398 26.8398 13.3976 26.8398C17.0312 26.8398 17.4969 26.8398 18.9179 26.7565C20.0296 26.7346 21.1295 26.5238 22.1706 26.133C23.0599 25.7879 23.8676 25.2613 24.5421 24.5868C25.2167 23.9122 25.7433 23.1046 26.0884 22.2152C26.4797 21.1736 26.6895 20.0755 26.7118 18.9611C26.7758 17.5296 26.7952 17.0758 26.7952 13.4407C26.7922 9.80713 26.7922 9.34587 26.7089 7.92189V7.92189ZM13.3872 20.2675C9.58692 20.2675 6.50833 17.1889 6.50833 13.3886C6.50833 9.5884 9.58692 6.50982 13.3872 6.50982C15.2115 6.50982 16.9612 7.23455 18.2512 8.52458C19.5413 9.81461 20.266 11.5643 20.266 13.3886C20.266 15.213 19.5413 16.9627 18.2512 18.2527C16.9612 19.5427 15.2115 20.2675 13.3872 20.2675V20.2675ZM20.5398 7.8594C20.3291 7.85959 20.1204 7.81824 19.9257 7.7377C19.731 7.65716 19.5541 7.53901 19.4051 7.39003C19.2561 7.24104 19.138 7.06414 19.0575 6.86944C18.9769 6.67474 18.9356 6.46607 18.9358 6.25538C18.9358 6.04483 18.9772 5.83635 19.0578 5.64183C19.1384 5.44731 19.2565 5.27057 19.4053 5.12169C19.5542 4.97281 19.731 4.85472 19.9255 4.77414C20.12 4.69357 20.3285 4.6521 20.539 4.6521C20.7496 4.6521 20.9581 4.69357 21.1526 4.77414C21.3471 4.85472 21.5238 4.97281 21.6727 5.12169C21.8216 5.27057 21.9397 5.44731 22.0203 5.64183C22.1008 5.83635 22.1423 6.04483 22.1423 6.25538C22.1423 7.1422 21.4251 7.8594 20.5398 7.8594Z" fill="white" fillOpacity="0.8"/>
<path d="M13.4683 17.9367C15.9361 17.9367 17.9367 15.9361 17.9367 13.4683C17.9367 11.0005 15.9361 9 13.4683 9C11.0005 9 9 11.0005 9 13.4683C9 15.9361 11.0005 17.9367 13.4683 17.9367Z" fill="white" fillOpacity="0.8"/>
</svg>