<svg width="325" height="38" viewBox="0 0 325 38" fill="none" xmlns="http://www.w3.org/2000/svg">
<path d="M79.76 7.69C79.98 7.95 80.09 8.22 80.09 8.5C80.09 8.62 80.08 8.75 80.06 8.89C80.06 9.01 80.05 9.12 80.03 9.22C79.97 9.44 79.84 9.65 79.64 9.85C79.48 9.97 79.26 10.06 78.98 10.12C78.84 10.16 78.7 10.19 78.56 10.21C78.42 10.23 78.27 10.26 78.11 10.3C77.97 10.32 77.83 10.33 77.69 10.33C77.55 10.33 77.4 10.33 77.24 10.33H75.71C75.35 10.35 74.99 10.36 74.63 10.36C74.29 10.36 73.95 10.36 73.61 10.36C73.63 10.98 73.64 11.65 73.64 12.37C73.64 13.07 73.63 13.89 73.61 14.83C73.61 15.77 73.6 16.86 73.58 18.1C73.58 19.34 73.58 20.78 73.58 22.42V24.7C73.58 24.9 73.59 25.05 73.61 25.15C73.61 25.23 73.61 25.31 73.61 25.39C73.61 25.45 73.6 25.53 73.58 25.63C73.54 25.81 73.51 26.02 73.49 26.26C73.49 26.36 73.48 26.46 73.46 26.56C73.44 26.64 73.41 26.73 73.37 26.83C73.29 26.91 73.25 26.97 73.25 27.01L73.16 27.19C73.06 27.39 72.87 27.58 72.59 27.76C72.15 27.98 71.66 28.03 71.12 27.91C70.78 27.87 70.52 27.78 70.34 27.64C70.16 27.46 70.03 27.28 69.95 27.1C69.83 26.88 69.76 26.67 69.74 26.47C69.68 26.29 69.65 26.1 69.65 25.9V10.48C69.53 10.48 69.28 10.48 68.9 10.48C68.52 10.48 68.11 10.48 67.67 10.48C67.25 10.46 66.85 10.44 66.47 10.42C66.09 10.4 65.83 10.38 65.69 10.36C65.57 10.34 65.38 10.31 65.12 10.27C64.88 10.23 64.68 10.19 64.52 10.15C64.1 10.03 63.77 9.84 63.53 9.58C63.31 9.32 63.2 9.03 63.2 8.71C63.2 8.59 63.2 8.47 63.2 8.35C63.2 8.23 63.22 8.12 63.26 8.02C63.32 7.78 63.48 7.58 63.74 7.42C63.82 7.36 63.94 7.29 64.1 7.21C64.28 7.11 64.45 7.04 64.61 7C64.85 6.92 65.15 6.86 65.51 6.82C65.67 6.8 65.83 6.79 65.99 6.79C66.15 6.79 66.32 6.79 66.5 6.79C67.2 6.79 67.86 6.79 68.48 6.79C69.12 6.79 69.79 6.78 70.49 6.76C71.65 6.74 72.8 6.74 73.94 6.76C75.1 6.76 76.25 6.78 77.39 6.82C77.65 6.84 77.9 6.87 78.14 6.91C78.38 6.95 78.62 7.02 78.86 7.12C79.04 7.18 79.21 7.26 79.37 7.36C79.53 7.44 79.66 7.55 79.76 7.69ZM98.7409 25.96C98.7609 26.08 98.7709 26.2 98.7709 26.32C98.7909 26.42 98.8009 26.54 98.8009 26.68C98.8009 26.92 98.7309 27.14 98.5909 27.34C98.5309 27.44 98.4509 27.54 98.3509 27.64C98.2509 27.72 98.1309 27.79 97.9909 27.85C97.4909 28.13 96.9609 28.23 96.4009 28.15C96.1209 28.07 95.8709 27.94 95.6509 27.76C95.6109 27.72 95.5809 27.7 95.5609 27.7C95.5409 27.68 95.5209 27.65 95.5009 27.61C95.4809 27.59 95.4609 27.57 95.4409 27.55C95.4209 27.51 95.3909 27.48 95.3509 27.46C95.2509 27.36 95.1709 27.27 95.1109 27.19C95.0509 27.09 94.9909 26.99 94.9309 26.89C94.8909 26.79 94.8409 26.7 94.7809 26.62C94.7409 26.52 94.6909 26.42 94.6309 26.32C94.5909 26.24 94.5509 26.17 94.5109 26.11C94.4709 26.03 94.4409 25.95 94.4209 25.87C94.3409 25.69 94.2909 25.53 94.2709 25.39L93.6409 23.92C92.2609 23.92 90.8809 23.93 89.5009 23.95C88.1409 23.95 86.7709 23.94 85.3909 23.92L84.7609 25.39C84.7209 25.47 84.6909 25.55 84.6709 25.63C84.6709 25.71 84.6509 25.79 84.6109 25.87C84.5709 25.95 84.5309 26.03 84.4909 26.11C84.4709 26.17 84.4409 26.24 84.4009 26.32C84.3409 26.42 84.2809 26.52 84.2209 26.62C84.1809 26.7 84.1309 26.79 84.0709 26.89C84.0309 26.99 83.9809 27.09 83.9209 27.19C83.8609 27.27 83.7809 27.36 83.6809 27.46C83.6409 27.48 83.6109 27.51 83.5909 27.55C83.5709 27.57 83.5509 27.59 83.5309 27.61C83.5109 27.65 83.4909 27.68 83.4709 27.7C83.4509 27.7 83.4209 27.72 83.3809 27.76C83.1609 27.94 82.9109 28.07 82.6309 28.15C82.0709 28.23 81.5409 28.13 81.0409 27.85C80.9009 27.79 80.7809 27.72 80.6809 27.64C80.5809 27.54 80.5009 27.44 80.4409 27.34C80.3009 27.14 80.2309 26.92 80.2309 26.68C80.2309 26.54 80.2309 26.42 80.2309 26.32C80.2509 26.2 80.2709 26.08 80.2909 25.96C80.3309 25.78 80.3809 25.6 80.4409 25.42C80.5009 25.24 80.5309 25.15 80.5309 25.15L86.7709 9.79L86.9509 9.31C86.9909 9.19 87.0409 9.08 87.1009 8.98C87.1609 8.88 87.2109 8.76 87.2509 8.62C87.3509 8.36 87.4609 8.13 87.5809 7.93C87.6409 7.81 87.7109 7.7 87.7909 7.6C87.8709 7.5 87.9509 7.4 88.0309 7.3C88.1509 7.14 88.3209 7.01 88.5409 6.91C88.8209 6.81 89.1409 6.76 89.5009 6.76C89.8809 6.76 90.2109 6.81 90.4909 6.91C90.7109 7.01 90.8809 7.14 91.0009 7.3C91.1409 7.48 91.2909 7.69 91.4509 7.93C91.5709 8.13 91.6809 8.36 91.7809 8.62C91.8209 8.76 91.8709 8.88 91.9309 8.98C91.9909 9.08 92.0409 9.19 92.0809 9.31L92.2609 9.79L98.5009 25.15C98.5009 25.15 98.5309 25.24 98.5909 25.42C98.6509 25.6 98.7009 25.78 98.7409 25.96ZM91.6309 18.61C91.3709 18.03 91.1009 17.43 90.8209 16.81C90.5609 16.19 90.2809 15.56 89.9809 14.92C89.9009 14.74 89.8209 14.56 89.7409 14.38C89.6609 14.18 89.5809 13.99 89.5009 13.81C89.4409 13.99 89.3709 14.18 89.2909 14.38C89.2109 14.56 89.1309 14.74 89.0509 14.92C88.7509 15.56 88.4609 16.19 88.1809 16.81C87.9209 17.43 87.6609 18.03 87.4009 18.61L86.8609 19.93H92.1709L91.6309 18.61ZM103.787 24.82L103.817 22.45L103.847 18.04C103.867 17.4 103.877 16.74 103.877 16.06C103.877 15.38 103.877 14.68 103.877 13.96C103.877 13.24 103.877 12.6 103.877 12.04C103.877 11.48 103.897 10.85 103.937 10.15V10.03C103.957 9.83 103.967 9.63 103.967 9.43C103.987 9.21 103.997 8.99 103.997 8.77C104.017 8.41 104.127 8.02 104.327 7.6C104.467 7.32 104.677 7.08 104.957 6.88C105.277 6.72 105.587 6.64 105.887 6.64C106.047 6.64 106.187 6.65 106.307 6.67C106.447 6.67 106.577 6.68 106.697 6.7C106.957 6.74 107.187 6.86 107.387 7.06C107.507 7.16 107.617 7.32 107.717 7.54C107.757 7.66 107.787 7.78 107.807 7.9C107.847 8 107.877 8.11 107.897 8.23C107.917 8.37 107.927 8.5 107.927 8.62C107.947 8.74 107.957 8.86 107.957 8.98C107.957 9.12 107.947 9.25 107.927 9.37C107.927 9.47 107.927 9.58 107.927 9.7V10.21L107.747 25.78V26.08C107.747 26.14 107.737 26.22 107.717 26.32C107.717 26.4 107.707 26.5 107.687 26.62C107.647 26.72 107.607 26.83 107.567 26.95C107.547 27.05 107.517 27.16 107.477 27.28C107.417 27.38 107.347 27.48 107.267 27.58C107.207 27.66 107.127 27.74 107.027 27.82C106.867 27.98 106.607 28.09 106.247 28.15C105.707 28.27 105.197 28.22 104.717 28C104.477 27.84 104.307 27.64 104.207 27.4C104.147 27.34 104.117 27.28 104.117 27.22C104.097 27.18 104.077 27.15 104.057 27.13C104.037 27.11 104.017 27.08 103.997 27.04C103.957 26.94 103.927 26.84 103.907 26.74C103.887 26.62 103.877 26.5 103.877 26.38C103.857 26.28 103.837 26.18 103.817 26.08C103.817 25.98 103.807 25.88 103.787 25.78C103.767 25.62 103.767 25.45 103.787 25.27V24.82ZM126.776 25.72C126.816 25.82 126.836 25.97 126.836 26.17C126.836 26.35 126.836 26.5 126.836 26.62C126.836 26.78 126.806 26.93 126.746 27.07C126.686 27.21 126.606 27.34 126.506 27.46C126.326 27.7 126.066 27.88 125.726 28C125.246 28.16 124.796 28.24 124.376 28.24C124.156 28.26 123.926 28.27 123.686 28.27C123.446 28.27 123.206 28.29 122.966 28.33H122.846C121.306 28.35 119.716 28.35 118.076 28.33C117.676 28.31 117.226 28.31 116.726 28.33C116.226 28.37 115.736 28.36 115.256 28.3C114.776 28.26 114.336 28.15 113.936 27.97C113.556 27.77 113.286 27.46 113.126 27.04C113.086 26.94 113.056 26.85 113.036 26.77C113.016 26.67 113.006 26.57 113.006 26.47C112.926 25.79 112.896 25.12 112.916 24.46C112.936 23.8 112.946 23.15 112.946 22.51L113.006 18.16V14.14C113.006 13.42 113.006 12.78 113.006 12.22C113.026 11.66 113.046 11.04 113.066 10.36V10.21C113.086 10.01 113.096 9.81 113.096 9.61C113.116 9.41 113.126 9.21 113.126 9.01C113.166 8.55 113.276 8.16 113.456 7.84C113.576 7.54 113.786 7.3 114.086 7.12C114.346 6.94 114.656 6.85 115.016 6.85C115.156 6.85 115.286 6.86 115.406 6.88C115.546 6.88 115.676 6.89 115.796 6.91C115.916 6.93 116.026 6.97 116.126 7.03C116.246 7.09 116.366 7.17 116.486 7.27C116.606 7.41 116.716 7.58 116.816 7.78C116.896 8 116.946 8.22 116.966 8.44C116.986 8.58 117.006 8.71 117.026 8.83C117.046 8.95 117.056 9.07 117.056 9.19C117.016 9.31 116.996 9.43 116.996 9.55C116.996 9.67 116.996 9.78 116.996 9.88V10.42L116.876 24.55L122.816 24.61H124.226C124.346 24.61 124.476 24.62 124.616 24.64C124.756 24.64 124.896 24.65 125.036 24.67C125.196 24.69 125.336 24.71 125.456 24.73C125.576 24.75 125.696 24.78 125.816 24.82C126.036 24.88 126.216 24.98 126.356 25.12C126.576 25.32 126.716 25.52 126.776 25.72ZM149.316 7.96C149.396 8.34 149.396 8.74 149.316 9.16C149.276 9.36 149.236 9.56 149.196 9.76C149.176 9.94 149.146 10.13 149.106 10.33L149.076 10.45C148.796 11.69 148.476 13 148.116 14.38C147.776 15.74 147.466 17.03 147.186 18.25C146.946 19.25 146.696 20.35 146.436 21.55C146.176 22.75 145.906 23.85 145.626 24.85C145.526 25.19 145.416 25.53 145.296 25.87C145.196 26.21 145.066 26.55 144.906 26.89C144.766 27.19 144.596 27.46 144.396 27.7C144.216 27.92 144.006 28.08 143.766 28.18C143.526 28.3 143.266 28.34 142.986 28.3C142.726 28.28 142.436 28.16 142.116 27.94C141.636 27.6 141.276 27.13 141.036 26.53C140.816 25.93 140.586 25.38 140.346 24.88C140.266 24.74 140.146 24.43 139.986 23.95C139.826 23.47 139.656 22.95 139.476 22.39C139.296 21.81 139.116 21.26 138.936 20.74C138.776 20.2 138.636 19.8 138.516 19.54C138.336 19.98 138.156 20.48 137.976 21.04C137.796 21.6 137.626 22.15 137.466 22.69C137.306 23.23 137.156 23.72 137.016 24.16C136.896 24.58 136.806 24.89 136.746 25.09C136.586 25.49 136.406 25.93 136.206 26.41C136.026 26.89 135.796 27.3 135.516 27.64C135.256 27.98 134.936 28.2 134.556 28.3C134.176 28.42 133.726 28.31 133.206 27.97C132.806 27.73 132.526 27.39 132.366 26.95C132.266 26.67 132.166 26.4 132.066 26.14C131.966 25.88 131.886 25.61 131.826 25.33L131.226 23.08L129.996 18.25C129.836 17.63 129.676 17 129.516 16.36C129.376 15.7 129.206 15.02 129.006 14.32C128.906 13.98 128.816 13.65 128.736 13.33C128.676 12.99 128.606 12.63 128.526 12.25C128.466 11.85 128.386 11.4 128.286 10.9C128.206 10.4 128.106 9.82 127.986 9.16C127.946 8.94 127.916 8.74 127.896 8.56C127.896 8.36 127.916 8.16 127.956 7.96C127.996 7.66 128.136 7.4 128.376 7.18C128.476 7.08 128.596 7 128.736 6.94C128.876 6.88 129.026 6.83 129.186 6.79C129.426 6.71 129.676 6.67 129.936 6.67C130.176 6.67 130.426 6.75 130.686 6.91C130.866 7.01 131.006 7.14 131.106 7.3L131.466 7.93C131.506 8.07 131.546 8.2 131.586 8.32C131.626 8.42 131.666 8.53 131.706 8.65C131.746 8.79 131.776 8.92 131.796 9.04C131.816 9.14 131.836 9.24 131.856 9.34C132.036 10.38 132.256 11.39 132.516 12.37C132.776 13.35 133.016 14.29 133.236 15.19C133.316 15.55 133.416 16 133.536 16.54C133.656 17.06 133.776 17.61 133.896 18.19C134.016 18.75 134.136 19.29 134.256 19.81C134.376 20.33 134.496 20.74 134.616 21.04C134.876 20.14 135.136 19.24 135.396 18.34C135.676 17.44 135.976 16.53 136.296 15.61C136.456 15.13 136.616 14.7 136.776 14.32C136.956 13.92 137.156 13.59 137.376 13.33C137.596 13.07 137.846 12.9 138.126 12.82C138.406 12.74 138.736 12.77 139.116 12.91C139.456 13.05 139.756 13.35 140.016 13.81C140.276 14.27 140.506 14.74 140.706 15.22C140.886 15.66 141.056 16.13 141.216 16.63C141.396 17.11 141.566 17.59 141.726 18.07C141.906 18.53 142.076 18.97 142.236 19.39C142.396 19.81 142.556 20.17 142.716 20.47C142.776 20.25 142.846 19.97 142.926 19.63C143.006 19.29 143.086 18.93 143.166 18.55C143.266 18.15 143.356 17.76 143.436 17.38C143.516 17 143.596 16.65 143.676 16.33C143.936 15.25 144.206 14.17 144.486 13.09C144.766 11.99 145.036 10.91 145.296 9.85L145.446 9.34C145.486 9.24 145.506 9.14 145.506 9.04C145.526 8.92 145.556 8.79 145.596 8.65C145.636 8.53 145.676 8.42 145.716 8.32C145.756 8.2 145.796 8.07 145.836 7.93C145.876 7.83 145.916 7.73 145.956 7.63C146.016 7.51 146.086 7.4 146.166 7.3C146.226 7.2 146.296 7.12 146.376 7.06C146.456 7 146.536 6.95 146.616 6.91C146.896 6.75 147.136 6.67 147.336 6.67C147.596 6.67 147.846 6.71 148.086 6.79C148.406 6.85 148.696 6.98 148.956 7.18C149.156 7.38 149.276 7.64 149.316 7.96ZM154.382 24.82L154.412 22.45L154.442 18.04C154.462 17.4 154.472 16.74 154.472 16.06C154.472 15.38 154.472 14.68 154.472 13.96C154.472 13.24 154.472 12.6 154.472 12.04C154.472 11.48 154.492 10.85 154.532 10.15V10.03C154.552 9.83 154.562 9.63 154.562 9.43C154.582 9.21 154.592 8.99 154.592 8.77C154.612 8.41 154.722 8.02 154.922 7.6C155.062 7.32 155.272 7.08 155.552 6.88C155.872 6.72 156.182 6.64 156.482 6.64C156.642 6.64 156.782 6.65 156.902 6.67C157.042 6.67 157.172 6.68 157.292 6.7C157.552 6.74 157.782 6.86 157.982 7.06C158.102 7.16 158.212 7.32 158.312 7.54C158.352 7.66 158.382 7.78 158.402 7.9C158.442 8 158.472 8.11 158.492 8.23C158.512 8.37 158.522 8.5 158.522 8.62C158.542 8.74 158.552 8.86 158.552 8.98C158.552 9.12 158.542 9.25 158.522 9.37C158.522 9.47 158.522 9.58 158.522 9.7V10.21L158.342 25.78V26.08C158.342 26.14 158.332 26.22 158.312 26.32C158.312 26.4 158.302 26.5 158.282 26.62C158.242 26.72 158.202 26.83 158.162 26.95C158.142 27.05 158.112 27.16 158.072 27.28C158.012 27.38 157.942 27.48 157.862 27.58C157.802 27.66 157.722 27.74 157.622 27.82C157.462 27.98 157.202 28.09 156.842 28.15C156.302 28.27 155.792 28.22 155.312 28C155.072 27.84 154.902 27.64 154.802 27.4C154.742 27.34 154.712 27.28 154.712 27.22C154.692 27.18 154.672 27.15 154.652 27.13C154.632 27.11 154.612 27.08 154.592 27.04C154.552 26.94 154.522 26.84 154.502 26.74C154.482 26.62 154.472 26.5 154.472 26.38C154.452 26.28 154.432 26.18 154.412 26.08C154.412 25.98 154.402 25.88 154.382 25.78C154.362 25.62 154.362 25.45 154.382 25.27V24.82ZM179.83 25.72C179.81 26.06 179.76 26.42 179.68 26.8C179.62 27.18 179.43 27.49 179.11 27.73C178.87 27.93 178.6 28.05 178.3 28.09C178 28.13 177.7 28.11 177.4 28.03C177.12 27.97 176.85 27.87 176.59 27.73C176.33 27.57 176.12 27.38 175.96 27.16C175.28 26.32 174.65 25.46 174.07 24.58C173.51 23.68 172.94 22.78 172.36 21.88L169.84 18.07C169.5 17.53 169.14 16.93 168.76 16.27C168.38 15.59 167.99 14.96 167.59 14.38L167.5 25.84V26.11C167.5 26.43 167.44 26.75 167.32 27.07C167.22 27.37 167.04 27.63 166.78 27.85C166.58 28.01 166.32 28.12 166 28.18C165.5 28.28 165.08 28.25 164.74 28.09C164.42 27.93 164.16 27.71 163.96 27.43C163.78 27.15 163.65 26.83 163.57 26.47C163.51 26.09 163.5 25.72 163.54 25.36V24.85L163.6 22.51L163.63 18.16C163.65 17.52 163.66 16.87 163.66 16.21C163.66 15.53 163.66 14.84 163.66 14.14C163.64 13.28 163.64 12.37 163.66 11.41C163.7 10.45 163.74 9.55 163.78 8.71C163.82 8.25 163.93 7.86 164.11 7.54C164.19 7.26 164.4 7.02 164.74 6.82C164.96 6.68 165.24 6.59 165.58 6.55C165.94 6.51 166.25 6.52 166.51 6.58C166.61 6.62 166.71 6.67 166.81 6.73C166.91 6.77 167.01 6.82 167.11 6.88C167.21 6.96 167.3 7.04 167.38 7.12C167.48 7.2 167.57 7.29 167.65 7.39C167.75 7.49 167.84 7.6 167.92 7.72C168 7.82 168.08 7.92 168.16 8.02C168.22 8.14 168.28 8.25 168.34 8.35C168.4 8.45 168.47 8.55 168.55 8.65L168.88 9.13L175.81 20.05V18.07C175.81 17.43 175.8 16.78 175.78 16.12C175.78 15.44 175.77 14.74 175.75 14.02C175.75 13.18 175.75 12.28 175.75 11.32C175.77 10.36 175.8 9.46 175.84 8.62C175.84 8.28 175.94 7.89 176.14 7.45C176.24 7.19 176.41 6.98 176.65 6.82C176.89 6.66 177.16 6.55 177.46 6.49C177.76 6.43 178.06 6.43 178.36 6.49C178.66 6.55 178.92 6.67 179.14 6.85C179.2 6.91 179.26 6.98 179.32 7.06C179.38 7.14 179.43 7.23 179.47 7.33C179.57 7.59 179.63 7.82 179.65 8.02C179.71 8.3 179.74 8.55 179.74 8.77C179.74 11.27 179.74 13.82 179.74 16.42C179.76 19.02 179.78 21.57 179.8 24.07C179.8 24.35 179.81 24.63 179.83 24.91C179.85 25.17 179.85 25.44 179.83 25.72ZM199.69 15.94C199.73 16.6 199.72 17.28 199.66 17.98C199.62 18.68 199.55 19.36 199.45 20.02C199.25 21.16 198.88 22.27 198.34 23.35C197.8 24.43 197.01 25.35 195.97 26.11C194.89 26.91 193.66 27.46 192.28 27.76C190.9 28.04 189.53 28.21 188.17 28.27C187.71 28.31 187.24 28.32 186.76 28.3C186.3 28.3 185.85 28.25 185.41 28.15C185.05 28.09 184.78 27.98 184.6 27.82C184.5 27.76 184.42 27.68 184.36 27.58C184.3 27.48 184.25 27.38 184.21 27.28C184.15 27.18 184.1 27.08 184.06 26.98C184.04 26.86 184.01 26.74 183.97 26.62C183.95 26.52 183.93 26.43 183.91 26.35C183.91 26.25 183.91 26.16 183.91 26.08V8.95C183.91 8.81 183.91 8.68 183.91 8.56C183.91 8.44 183.93 8.32 183.97 8.2C184.01 7.92 184.07 7.69 184.15 7.51C184.23 7.27 184.34 7.1 184.48 7C184.6 6.9 184.72 6.83 184.84 6.79C184.96 6.73 185.07 6.68 185.17 6.64C185.29 6.6 185.41 6.6 185.53 6.64C185.67 6.66 185.82 6.63 185.98 6.55L190.99 6.67C192.31 6.71 193.49 7.02 194.53 7.6C195.57 8.16 196.46 8.88 197.2 9.76C197.94 10.64 198.52 11.63 198.94 12.73C199.36 13.81 199.61 14.88 199.69 15.94ZM194.11 21.64C194.49 21.04 194.77 20.35 194.95 19.57C195.13 18.79 195.21 18 195.19 17.2C195.17 16.38 195.06 15.59 194.86 14.83C194.66 14.05 194.38 13.36 194.02 12.76C193.74 12.32 193.38 11.96 192.94 11.68C192.5 11.4 192.01 11.19 191.47 11.05C190.93 10.89 190.35 10.78 189.73 10.72C189.13 10.66 188.54 10.63 187.96 10.63C187.98 11.21 187.99 11.77 187.99 12.31C187.99 12.85 187.99 13.42 187.99 14.02C187.97 14.74 187.96 15.44 187.96 16.12C187.96 16.8 187.96 17.46 187.96 18.1V24.22C188.58 24.2 189.17 24.17 189.73 24.13C190.31 24.07 190.86 23.95 191.38 23.77C191.92 23.59 192.41 23.34 192.85 23.02C193.31 22.68 193.73 22.22 194.11 21.64ZM225.075 16.93C225.655 17.31 226.145 17.76 226.545 18.28C226.965 18.78 227.295 19.4 227.535 20.14C227.795 20.96 227.925 21.79 227.925 22.63C227.945 23.45 227.795 24.22 227.475 24.94C227.175 25.64 226.685 26.26 226.005 26.8C225.345 27.32 224.475 27.69 223.395 27.91C222.815 28.05 222.135 28.16 221.355 28.24C220.575 28.32 219.875 28.36 219.255 28.36C218.475 28.38 217.665 28.38 216.825 28.36C216.005 28.36 215.205 28.28 214.425 28.12C214.085 28.02 213.835 27.85 213.675 27.61C213.535 27.35 213.435 27.06 213.375 26.74C213.295 26.56 213.255 26.38 213.255 26.2V9.16C213.255 8.6 213.365 8.17 213.585 7.87C213.825 7.55 214.135 7.32 214.515 7.18C214.895 7.02 215.325 6.93 215.805 6.91C216.285 6.87 216.785 6.85 217.305 6.85C217.705 6.85 218.105 6.85 218.505 6.85C218.925 6.83 219.345 6.83 219.765 6.85C220.425 6.87 221.105 6.93 221.805 7.03C222.525 7.11 223.205 7.27 223.845 7.51C224.145 7.61 224.465 7.75 224.805 7.93C225.145 8.09 225.415 8.29 225.615 8.53C226.255 9.11 226.725 9.79 227.025 10.57C227.345 11.33 227.485 12.11 227.445 12.91C227.405 13.69 227.185 14.44 226.785 15.16C226.405 15.88 225.835 16.47 225.075 16.93ZM219.825 24.88C220.445 24.84 221.075 24.77 221.715 24.67C222.355 24.57 222.795 24.38 223.035 24.1C223.295 23.78 223.475 23.41 223.575 22.99C223.695 22.55 223.725 22.11 223.665 21.67C223.625 21.21 223.495 20.78 223.275 20.38C223.075 19.96 222.805 19.63 222.465 19.39C222.005 19.03 221.475 18.8 220.875 18.7C220.275 18.58 219.685 18.52 219.105 18.52C218.825 18.52 218.565 18.53 218.325 18.55C218.105 18.55 217.905 18.58 217.725 18.64C217.565 18.68 217.445 18.77 217.365 18.91C217.285 19.05 217.245 19.26 217.245 19.54C217.285 20.06 217.285 20.58 217.245 21.1C217.205 21.62 217.185 22.12 217.185 22.6C217.185 22.88 217.175 23.19 217.155 23.53C217.155 23.85 217.265 24.12 217.485 24.34C217.705 24.56 218.025 24.71 218.445 24.79C218.865 24.87 219.325 24.9 219.825 24.88ZM220.425 10.48C219.805 10.46 219.285 10.45 218.865 10.45C218.465 10.43 218.145 10.46 217.905 10.54C217.685 10.6 217.525 10.75 217.425 10.99C217.345 11.21 217.315 11.55 217.335 12.01C217.335 12.39 217.325 12.77 217.305 13.15C217.305 13.51 217.305 13.87 217.305 14.23C217.305 14.63 217.435 14.93 217.695 15.13C217.955 15.31 218.275 15.42 218.655 15.46C219.055 15.5 219.465 15.5 219.885 15.46C220.325 15.42 220.705 15.37 221.025 15.31C221.745 15.19 222.295 14.95 222.675 14.59C223.075 14.21 223.305 13.66 223.365 12.94C223.445 12.04 223.205 11.42 222.645 11.08C222.105 10.72 221.365 10.52 220.425 10.48ZM245.464 25.72C245.504 25.82 245.524 25.97 245.524 26.17C245.524 26.35 245.524 26.5 245.524 26.62C245.524 26.78 245.494 26.93 245.434 27.07C245.374 27.21 245.294 27.34 245.194 27.46C245.014 27.7 244.754 27.88 244.414 28C243.934 28.16 243.484 28.24 243.064 28.24C242.844 28.26 242.614 28.27 242.374 28.27C242.134 28.27 241.894 28.29 241.654 28.33H241.534C239.994 28.35 238.404 28.35 236.764 28.33C236.364 28.31 235.914 28.31 235.414 28.33C234.914 28.37 234.424 28.36 233.944 28.3C233.464 28.26 233.024 28.15 232.624 27.97C232.244 27.77 231.974 27.46 231.814 27.04C231.774 26.94 231.744 26.85 231.724 26.77C231.704 26.67 231.694 26.57 231.694 26.47C231.614 25.79 231.584 25.12 231.604 24.46C231.624 23.8 231.634 23.15 231.634 22.51L231.694 18.16V14.14C231.694 13.42 231.694 12.78 231.694 12.22C231.714 11.66 231.734 11.04 231.754 10.36V10.21C231.774 10.01 231.784 9.81 231.784 9.61C231.804 9.41 231.814 9.21 231.814 9.01C231.854 8.55 231.964 8.16 232.144 7.84C232.264 7.54 232.474 7.3 232.774 7.12C233.034 6.94 233.344 6.85 233.704 6.85C233.844 6.85 233.974 6.86 234.094 6.88C234.234 6.88 234.364 6.89 234.484 6.91C234.604 6.93 234.714 6.97 234.814 7.03C234.934 7.09 235.054 7.17 235.174 7.27C235.294 7.41 235.404 7.58 235.504 7.78C235.584 8 235.634 8.22 235.654 8.44C235.674 8.58 235.694 8.71 235.714 8.83C235.734 8.95 235.744 9.07 235.744 9.19C235.704 9.31 235.684 9.43 235.684 9.55C235.684 9.67 235.684 9.78 235.684 9.88V10.42L235.564 24.55L241.504 24.61H242.914C243.034 24.61 243.164 24.62 243.304 24.64C243.444 24.64 243.584 24.65 243.724 24.67C243.884 24.69 244.024 24.71 244.144 24.73C244.264 24.75 244.384 24.78 244.504 24.82C244.724 24.88 244.904 24.98 245.044 25.12C245.264 25.32 245.404 25.52 245.464 25.72ZM252.773 7.48C254.113 6.98 255.323 6.76 256.403 6.82C257.503 6.88 258.483 7.16 259.343 7.66C260.203 8.14 260.933 8.79 261.533 9.61C262.153 10.43 262.653 11.35 263.033 12.37C263.333 13.13 263.563 13.93 263.723 14.77C263.883 15.61 263.973 16.45 263.993 17.29C264.033 18.11 264.003 18.92 263.903 19.72C263.823 20.52 263.683 21.26 263.483 21.94C263.363 22.4 263.223 22.82 263.063 23.2C262.903 23.58 262.713 23.96 262.493 24.34C261.993 25.2 261.343 25.9 260.543 26.44C259.763 26.98 258.903 27.36 257.963 27.58C257.323 27.74 256.663 27.82 255.983 27.82C255.303 27.8 254.633 27.71 253.973 27.55C253.313 27.37 252.673 27.12 252.053 26.8C251.453 26.46 250.903 26.04 250.403 25.54C249.783 24.94 249.273 24.25 248.873 23.47C248.473 22.67 248.163 21.84 247.943 20.98C247.723 20.1 247.583 19.22 247.523 18.34C247.463 17.46 247.463 16.62 247.523 15.82C247.583 15.08 247.723 14.29 247.943 13.45C248.183 12.61 248.523 11.8 248.963 11.02C249.403 10.24 249.933 9.54 250.553 8.92C251.193 8.28 251.933 7.8 252.773 7.48ZM259.793 20.32C260.033 19.38 260.133 18.32 260.093 17.14C260.053 15.96 259.863 14.85 259.523 13.81C259.303 13.17 259.023 12.61 258.683 12.13C258.363 11.63 257.973 11.25 257.513 10.99C257.073 10.73 256.553 10.6 255.953 10.6C255.353 10.6 254.683 10.78 253.943 11.14C253.503 11.36 253.123 11.66 252.803 12.04C252.503 12.42 252.253 12.85 252.053 13.33C251.873 13.81 251.723 14.31 251.603 14.83C251.503 15.35 251.443 15.85 251.423 16.33C251.383 16.85 251.373 17.4 251.393 17.98C251.413 18.54 251.473 19.11 251.573 19.69C251.693 20.25 251.853 20.79 252.053 21.31C252.253 21.81 252.523 22.26 252.863 22.66C253.383 23.26 253.983 23.68 254.663 23.92C255.363 24.14 256.053 24.17 256.733 24.01C257.833 23.77 258.673 23.04 259.253 21.82C259.493 21.38 259.673 20.88 259.793 20.32ZM284.028 22.96C284.288 23.54 284.298 24.11 284.058 24.67C283.818 25.21 283.438 25.71 282.918 26.17C282.398 26.63 281.798 27.03 281.118 27.37C280.458 27.71 279.828 27.95 279.228 28.09C278.568 28.23 277.868 28.29 277.128 28.27C276.408 28.27 275.678 28.18 274.938 28C274.218 27.84 273.508 27.6 272.808 27.28C272.128 26.94 271.498 26.53 270.918 26.05C270.218 25.47 269.668 24.78 269.268 23.98C268.888 23.16 268.608 22.29 268.428 21.37C268.248 20.45 268.148 19.53 268.128 18.61C268.128 17.67 268.158 16.79 268.218 15.97C268.278 15.23 268.428 14.46 268.668 13.66C268.908 12.86 269.238 12.08 269.658 11.32C270.098 10.54 270.618 9.82 271.218 9.16C271.838 8.5 272.558 7.94 273.378 7.48C273.998 7.12 274.688 6.88 275.448 6.76C276.228 6.62 277.008 6.59 277.788 6.67C278.588 6.73 279.338 6.9 280.038 7.18C280.758 7.44 281.368 7.8 281.868 8.26C282.188 8.54 282.518 8.93 282.858 9.43C283.218 9.93 283.478 10.44 283.638 10.96C283.798 11.48 283.798 11.97 283.638 12.43C283.498 12.87 283.098 13.17 282.438 13.33C282.158 13.41 281.908 13.43 281.688 13.39C281.468 13.33 281.268 13.24 281.088 13.12C280.908 12.98 280.738 12.82 280.578 12.64C280.418 12.46 280.268 12.28 280.128 12.1C279.648 11.52 279.088 11.13 278.448 10.93C277.808 10.71 277.168 10.66 276.528 10.78C275.908 10.88 275.318 11.14 274.758 11.56C274.218 11.96 273.798 12.48 273.498 13.12C273.178 13.8 272.918 14.55 272.718 15.37C272.538 16.17 272.438 16.99 272.418 17.83C272.398 18.65 272.468 19.45 272.628 20.23C272.808 21.01 273.108 21.7 273.528 22.3C273.848 22.78 274.238 23.17 274.698 23.47C275.178 23.77 275.688 23.98 276.228 24.1C276.768 24.22 277.308 24.24 277.848 24.16C278.408 24.08 278.948 23.9 279.468 23.62C279.628 23.54 279.798 23.43 279.978 23.29C280.178 23.13 280.378 22.97 280.578 22.81C280.778 22.65 280.978 22.5 281.178 22.36C281.398 22.22 281.628 22.12 281.868 22.06C282.228 21.94 282.618 21.95 283.038 22.09C283.478 22.23 283.808 22.52 284.028 22.96ZM302.813 25.84C302.973 26.14 302.983 26.44 302.843 26.74C302.743 27.06 302.573 27.3 302.333 27.46C302.213 27.56 302.103 27.65 302.003 27.73C301.903 27.79 301.793 27.84 301.673 27.88C301.453 28 301.193 28.04 300.893 28C300.773 28 300.663 27.98 300.563 27.94C300.463 27.9 300.363 27.85 300.263 27.79C300.163 27.73 300.053 27.67 299.933 27.61C299.833 27.53 299.733 27.45 299.633 27.37C299.513 27.27 299.403 27.18 299.303 27.1C299.203 27.02 299.113 26.93 299.033 26.83C298.933 26.73 298.843 26.63 298.763 26.53C298.683 26.43 298.603 26.34 298.523 26.26L298.163 25.87L292.403 19.84L292.493 25.87V26.14C292.493 26.22 292.483 26.31 292.463 26.41C292.443 26.49 292.423 26.58 292.403 26.68C292.343 26.94 292.273 27.17 292.193 27.37C292.153 27.49 292.093 27.59 292.013 27.67C291.953 27.75 291.883 27.83 291.803 27.91C291.583 28.11 291.323 28.22 291.023 28.24C290.723 28.34 290.443 28.37 290.183 28.33C289.943 28.31 289.693 28.24 289.433 28.12C289.233 28 289.053 27.8 288.893 27.52C288.853 27.44 288.823 27.39 288.803 27.37C288.803 27.35 288.783 27.28 288.743 27.16C288.623 26.96 288.563 26.76 288.563 26.56C288.543 26.44 288.523 26.33 288.503 26.23C288.503 26.13 288.493 26.02 288.473 25.9C288.453 25.82 288.443 25.74 288.443 25.66C288.443 25.58 288.443 25.5 288.443 25.42C288.463 25.32 288.473 25.24 288.473 25.18C288.473 25.1 288.473 25.01 288.473 24.91L288.443 22.54L288.413 18.13C288.413 16.85 288.383 15.47 288.323 13.99C288.303 13.27 288.293 12.63 288.293 12.07C288.293 11.51 288.303 10.88 288.323 10.18V10.06C288.363 9.84 288.383 9.63 288.383 9.43C288.383 9.21 288.393 9 288.413 8.8C288.413 8.4 288.503 8 288.683 7.6C288.803 7.3 289.013 7.06 289.313 6.88C289.473 6.78 289.623 6.72 289.763 6.7C289.923 6.66 290.093 6.62 290.273 6.58C290.413 6.58 290.543 6.59 290.663 6.61C290.803 6.63 290.933 6.65 291.053 6.67C291.313 6.71 291.553 6.82 291.773 7C291.833 7.06 291.883 7.13 291.923 7.21C291.983 7.29 292.033 7.39 292.073 7.51C292.173 7.67 292.243 7.9 292.283 8.2C292.303 8.32 292.313 8.44 292.313 8.56C292.333 8.68 292.343 8.81 292.343 8.95V10.18L292.373 13.84C292.693 13.56 293.003 13.27 293.303 12.97C293.623 12.67 293.933 12.35 294.233 12.01C294.773 11.45 295.303 10.91 295.823 10.39C296.363 9.85 296.903 9.32 297.443 8.8L297.533 8.71C297.693 8.55 297.853 8.4 298.013 8.26C298.193 8.1 298.363 7.95 298.523 7.81C298.823 7.47 299.193 7.23 299.633 7.09C299.913 6.91 300.243 6.84 300.623 6.88C300.803 6.9 300.963 6.94 301.103 7C301.263 7.06 301.413 7.14 301.553 7.24C301.653 7.34 301.753 7.43 301.853 7.51C301.953 7.57 302.033 7.65 302.093 7.75C302.253 7.89 302.353 8.1 302.393 8.38C302.393 8.6 302.353 8.8 302.273 8.98C302.213 9.08 302.153 9.18 302.093 9.28C302.033 9.38 301.963 9.48 301.883 9.58C301.783 9.7 301.693 9.81 301.613 9.91C301.533 10.01 301.443 10.11 301.343 10.21C301.263 10.31 301.173 10.4 301.073 10.48C300.993 10.56 300.913 10.65 300.833 10.75L300.443 11.14L294.833 16.87C295.133 17.17 295.443 17.49 295.763 17.83C296.103 18.15 296.423 18.47 296.723 18.79C297.023 19.09 297.303 19.38 297.563 19.66C297.823 19.92 298.043 20.14 298.223 20.32C298.763 20.88 299.283 21.44 299.783 22C300.283 22.54 300.773 23.09 301.253 23.65L301.343 23.74C301.503 23.9 301.653 24.07 301.793 24.25C301.933 24.41 302.063 24.57 302.183 24.73C302.483 25.07 302.693 25.44 302.813 25.84ZM322.563 19.27C322.663 19.55 322.733 19.87 322.773 20.23C322.833 20.57 322.863 20.92 322.863 21.28C322.863 21.64 322.833 22 322.773 22.36C322.733 22.7 322.673 23 322.593 23.26C322.273 24.38 321.633 25.32 320.673 26.08C319.713 26.82 318.613 27.36 317.373 27.7C316.153 28.04 314.883 28.16 313.563 28.06C312.263 27.96 311.103 27.63 310.083 27.07C309.443 26.71 308.893 26.27 308.433 25.75C307.973 25.23 307.583 24.65 307.263 24.01C307.143 23.79 307.063 23.54 307.023 23.26C307.003 22.96 307.033 22.68 307.113 22.42C307.193 22.14 307.323 21.9 307.503 21.7C307.683 21.48 307.933 21.33 308.253 21.25C308.453 21.21 308.673 21.19 308.913 21.19C309.173 21.19 309.423 21.23 309.663 21.31C309.903 21.37 310.123 21.48 310.323 21.64C310.523 21.78 310.683 21.98 310.803 22.24C311.023 22.66 311.333 23.05 311.733 23.41C312.153 23.75 312.593 24.03 313.053 24.25C313.713 24.47 314.373 24.56 315.033 24.52C315.713 24.48 316.323 24.33 316.863 24.07C317.423 23.81 317.873 23.46 318.213 23.02C318.553 22.56 318.723 22.04 318.723 21.46C318.723 20.98 318.653 20.59 318.513 20.29C318.373 19.97 318.173 19.71 317.913 19.51C317.673 19.29 317.373 19.11 317.013 18.97C316.673 18.83 316.293 18.71 315.873 18.61C315.393 18.51 314.903 18.44 314.403 18.4C313.923 18.36 313.433 18.31 312.933 18.25C312.433 18.19 311.943 18.11 311.463 18.01C310.983 17.91 310.513 17.76 310.053 17.56C309.133 17.18 308.433 16.6 307.953 15.82C307.473 15.04 307.183 14.2 307.083 13.3C307.003 12.4 307.113 11.51 307.413 10.63C307.713 9.73 308.193 8.96 308.853 8.32C309.493 7.74 310.253 7.33 311.133 7.09C312.033 6.83 313.023 6.68 314.103 6.64C314.703 6.62 315.303 6.64 315.903 6.7C316.523 6.76 317.113 6.86 317.673 7C318.253 7.14 318.783 7.32 319.263 7.54C319.763 7.76 320.193 8.02 320.553 8.32C320.813 8.52 321.073 8.79 321.333 9.13C321.593 9.45 321.793 9.8 321.933 10.18C322.073 10.54 322.113 10.89 322.053 11.23C322.013 11.57 321.803 11.86 321.423 12.1C321.103 12.3 320.793 12.39 320.493 12.37C320.213 12.33 319.943 12.24 319.683 12.1C319.423 11.94 319.173 11.76 318.933 11.56C318.693 11.36 318.473 11.18 318.273 11.02C317.733 10.62 317.063 10.35 316.263 10.21C315.463 10.07 314.713 10.04 314.013 10.12C313.573 10.18 313.163 10.28 312.783 10.42C312.403 10.56 312.073 10.75 311.793 10.99C311.533 11.23 311.323 11.53 311.163 11.89C311.023 12.23 310.973 12.62 311.013 13.06C311.033 13.38 311.123 13.65 311.283 13.87C311.463 14.09 311.673 14.27 311.913 14.41C312.173 14.55 312.453 14.66 312.753 14.74C313.053 14.82 313.353 14.88 313.653 14.92C314.553 15.04 315.453 15.13 316.353 15.19C317.253 15.25 318.133 15.45 318.993 15.79C319.873 16.13 320.623 16.59 321.243 17.17C321.863 17.75 322.303 18.45 322.563 19.27Z" fill="white"/>
<path d="M45.4482 11.0324C44.7119 11.0324 43.8569 11.5983 43.8569 12.327V22.7921C43.8569 23.7999 43.6115 24.2572 42.8593 24.6371C41.9409 25.0712 40.9117 24.9627 40.12 24.327L30.271 16.4976L39.6608 8.69911C40.0566 8.38903 40.7692 7.73012 40.9196 7.29601C41.2205 6.42004 40.215 5.10221 38.9086 5.51306C38.6474 5.59833 38.1407 5.90841 37.9269 6.04795C37.8952 6.06345 37.8715 6.08671 37.8398 6.10996L27.5 14.1875L16.5505 6.15647C14.9513 4.88516 12.8216 4.64485 10.9848 5.52081C9.14007 6.39678 8 8.19523 8 10.2185V22.7921C8 24.8154 9.14007 26.6061 10.9848 27.4821C12.8216 28.3503 14.9592 28.11 16.5505 26.8541L27.5 18.6603L38.4415 26.8541C39.3995 27.6138 40.5554 28.0014 41.7272 28.0014C42.4951 28.0014 43.2789 27.8309 44.0152 27.4821C45.8599 26.6061 47 24.8076 47 22.7921V12.327C47 11.5983 46.1845 11.0324 45.4482 11.0324ZM14.88 24.3193C14.0804 24.9549 13.0591 25.0634 12.1407 24.6293C11.349 24.203 11.1431 23.6914 11.1431 22.7844V10.2185C11.1431 9.21074 11.8161 8.54407 12.4495 8.31151C12.7503 8.21074 13.1699 8.22624 13.4629 8.2805C13.835 8.34252 14.3971 8.46655 14.88 8.83864L24.729 16.5053L14.88 24.3193ZM46.9683 6.62934C46.9683 7.51306 46.2399 8.22624 45.3532 8.22624C44.4586 8.22624 43.7381 7.51306 43.7381 6.62934C43.7381 5.74562 44.4665 5.03244 45.3532 5.03244C46.2399 5.03244 46.9683 5.74562 46.9683 6.62934Z" fill="white"/>
<path d="M5 14.3314C5 14.3314 6.78394 11.7219 9.20243 13.7536C9.20243 13.7536 10.359 15.0308 11.3934 15.5215C12.0826 15.8292 12.8324 15.9922 13.5927 15.9997C14.353 16.0072 15.1062 15.859 15.8018 15.5651C17.4205 14.8772 17.9306 12.951 18 12.6712C18 12.6712 16.6327 14.6203 14.674 13.8017C14.1381 13.5536 13.665 13.1968 13.2875 12.7561C12.6051 11.9902 11.4749 11.2129 10.2034 11.0661C9.38887 10.9434 8.55625 10.9919 7.76331 11.2083C7.47117 11.316 5.78062 11.6669 5 14.3314Z" fill="white"/>
<path d="M0 19.9933C0 19.9933 1.92339 16.8637 4.52486 19.3003C4.52486 19.3003 5.77017 20.832 6.88656 21.4206C7.62738 21.7912 8.43394 21.9886 9.25215 21.9995C10.0704 22.0104 10.8813 21.8346 11.6306 21.4838C13.3761 20.6368 13.9227 18.3378 14 18.0023C14 18.0023 12.5252 20.3398 10.4162 19.358C9.83967 19.0597 9.33043 18.6319 8.92339 18.104C8.19116 17.1855 6.97164 16.2532 5.60258 16.0772C4.72608 15.932 3.83045 15.9921 2.9779 16.2532C2.66077 16.377 0.840516 16.8032 0 19.9933Z" fill="white"/>
</svg>
