<svg width="46" height="37" viewBox="0 0 46 37" fill="none" xmlns="http://www.w3.org/2000/svg">
<path d="M11.995 36.85C9.86833 36.85 8.12833 36.415 6.775 35.545C5.42167 34.675 4.31 33.5633 3.44 32.21C2.47333 30.5667 1.79667 28.875 1.41 27.135C1.12 25.2983 0.975 23.8 0.975 22.64C0.975 17.9033 2.18333 13.6017 4.6 9.735C7.01667 5.86833 10.7867 2.72666 15.91 0.309991L17.215 2.91999C14.2183 4.17666 11.6083 6.15833 9.385 8.86499C7.25833 11.5717 6.195 14.3267 6.195 17.13C6.195 18.29 6.34 19.305 6.63 20.175C8.17667 18.9183 9.965 18.29 11.995 18.29C14.5083 18.29 16.6833 19.1117 18.52 20.755C20.3567 22.3983 21.275 24.67 21.275 27.57C21.275 30.2767 20.3567 32.5 18.52 34.24C16.6833 35.98 14.5083 36.85 11.995 36.85ZM36.645 36.85C34.5183 36.85 32.7783 36.415 31.425 35.545C30.0717 34.675 28.96 33.5633 28.09 32.21C27.1233 30.5667 26.4467 28.875 26.06 27.135C25.77 25.2983 25.625 23.8 25.625 22.64C25.625 17.9033 26.8333 13.6017 29.25 9.735C31.6667 5.86833 35.4367 2.72666 40.56 0.309991L41.865 2.91999C38.8683 4.17666 36.2583 6.15833 34.035 8.86499C31.9083 11.5717 30.845 14.3267 30.845 17.13C30.845 18.29 30.99 19.305 31.28 20.175C32.8267 18.9183 34.615 18.29 36.645 18.29C39.1583 18.29 41.3333 19.1117 43.17 20.755C45.0067 22.3983 45.925 24.67 45.925 27.57C45.925 30.2767 45.0067 32.5 43.17 34.24C41.3333 35.98 39.1583 36.85 36.645 36.85Z" fill="#EB8015"/>
</svg>
