<svg width="100" height="50" viewBox="0 0 100 50" fill="none" xmlns="http://www.w3.org/2000/svg">
<path d="M9.5 25C9.5 16.45 16.45 9.5 25 9.5H45V0H25C18.3696 0 12.0107 2.63392 7.32233 7.32233C2.63392 12.0107 0 18.3696 0 25C0 31.6304 2.63392 37.9893 7.32233 42.6777C12.0107 47.3661 18.3696 50 25 50H45V40.5H25C16.45 40.5 9.5 33.55 9.5 25ZM30 30H70V20H30V30ZM75 0H55V9.5H75C83.55 9.5 90.5 16.45 90.5 25C90.5 33.55 83.55 40.5 75 40.5H55V50H75C81.6304 50 87.9893 47.3661 92.6777 42.6777C97.3661 37.9893 100 31.6304 100 25C100 18.3696 97.3661 12.0107 92.6777 7.32233C87.9893 2.63392 81.6304 0 75 0Z" fill="white"/>
</svg>
