<svg width="39" height="33" viewBox="0 0 39 33" fill="none" xmlns="http://www.w3.org/2000/svg">
<path d="M5.68 33V4.96H0.52V0.599998H16.68V4.96H11.6V33H5.68Z" fill="#09051B"/>
<path d="M19.6275 33V0.599998H27.5875C29.0275 0.599998 30.3208 0.733332 31.4675 1C32.6408 1.26667 33.6408 1.72 34.4675 2.36C35.3208 2.97333 35.9742 3.81333 36.4275 4.88C36.8808 5.94667 37.1075 7.29333 37.1075 8.92C37.1075 10.2267 36.9208 11.3467 36.5475 12.28C36.2008 13.2133 35.6808 13.96 34.9875 14.52C34.2942 15.0533 33.4275 15.4133 32.3875 15.6C33.6675 15.8133 34.7208 16.2667 35.5475 16.96C36.4008 17.6267 37.0275 18.5067 37.4275 19.6C37.8542 20.6933 38.0675 22.0133 38.0675 23.56C38.0675 25.1067 37.8675 26.48 37.4675 27.68C37.0942 28.8533 36.5208 29.84 35.7475 30.64C35.0008 31.4133 34.0542 32 32.9075 32.4C31.7875 32.8 30.4675 33 28.9475 33H19.6275ZM25.5475 28.84H27.7875C29.5742 28.84 30.7875 28.4133 31.4275 27.56C32.0675 26.68 32.3875 25.3333 32.3875 23.52C32.3875 22.2133 32.2275 21.16 31.9075 20.36C31.6142 19.5333 31.1075 18.92 30.3875 18.52C29.6942 18.12 28.7608 17.92 27.5875 17.92H25.5475V28.84ZM25.5475 13.84H27.5475C28.7208 13.84 29.6275 13.6667 30.2675 13.32C30.9075 12.9733 31.3475 12.44 31.5875 11.72C31.8542 11 31.9875 10.0933 31.9875 9C31.9875 7.85333 31.7875 6.97333 31.3875 6.36C31.0142 5.72 30.4408 5.29333 29.6675 5.08C28.8942 4.84 27.9075 4.72 26.7075 4.72H25.5475V13.84Z" fill="#EB8015"/>
</svg>
