<svg width="1926" height="1756" viewBox="0 0 1926 1756" fill="none" xmlns="http://www.w3.org/2000/svg">
<g filter="url(#filter0_f_321_5703)">
<path fill-rule="evenodd" clip-rule="evenodd" d="M1724.83 1015.33L1041.78 459.325L1051.38 419.6L1734.43 975.6L1724.83 1015.33Z" fill="#05AFAF"/>
</g>
<g filter="url(#filter1_f_321_5703)">
<path fill-rule="evenodd" clip-rule="evenodd" d="M1023.77 1289.58L340.719 733.583L347.457 705.682L1030.51 1261.68L1023.77 1289.58Z" fill="#05AFAF"/>
</g>
<g filter="url(#filter2_f_321_5703)">
<path fill-rule="evenodd" clip-rule="evenodd" d="M1732.09 761.301L1049.04 205.301L1052.73 190L1735.78 746L1732.09 761.301Z" fill="#0827C4"/>
</g>
<g filter="url(#filter3_f_321_5703)">
<path fill-rule="evenodd" clip-rule="evenodd" d="M1023.77 1065.58L340.719 509.583L348.685 476.6L1031.74 1032.6L1023.77 1065.58Z" fill="#0827C4"/>
</g>
<g filter="url(#filter4_f_321_5703)">
<path fill-rule="evenodd" clip-rule="evenodd" d="M1720.17 1206.59L1037.12 650.591L1048.68 602.702L1731.73 1158.7L1720.17 1206.59Z" fill="#7A22AF"/>
</g>
<g filter="url(#filter5_f_321_5703)">
<path fill-rule="evenodd" clip-rule="evenodd" d="M873.051 1565.32L190 1009.32L193.796 993.6L876.847 1549.6L873.051 1565.32Z" fill="#D9D9D9"/>
</g>
<g opacity="0.2">
<path opacity="0.2" d="M919.281 246.1C964.925 300.494 988.781 346.6 1064.28 572.6C1087.4 641.816 1164.44 736.047 1253.77 635.535C1365.44 509.894 1416.47 346.712 1733.28 442.319" stroke="url(#paint0_linear_321_5703)" strokeWidth="3"/>
<path opacity="0.2" d="M1079.28 248.6C1106.11 286.266 1163.28 384.7 1177.28 477.1C1191.28 569.5 1228.11 515.6 1244.78 477.1C1289.28 394.1 1409.88 232.2 1536.28 248.6" stroke="url(#paint1_linear_321_5703)" strokeWidth="3"/>
<path opacity="0.2" d="M1202.3 245.1C1201.47 336.409 1225.9 464.242 1330.28 245.1" stroke="url(#paint2_linear_321_5703)" strokeWidth="3"/>
<path opacity="0.2" d="M299.281 494.6C372.781 506.1 530.881 533 659.281 924.6C680.281 924.6 760.781 1298.1 1190.28 1204.1C1459.78 1067.6 1582.28 980.6 1728.78 1204.1" stroke="url(#paint3_linear_321_5703)" strokeWidth="3"/>
<path opacity="0.2" d="M459.281 243.6C469.281 253.6 750.281 283.6 823.281 635.1C896.281 986.6 1302.28 899.1 1392.78 788.6C1483.28 678.1 1706.78 720.1 1734.28 883.6M740.281 243.6C796.281 315.988 938.781 384.6 938.781 585.1C938.781 785.6 1209.78 861.1 1342.78 668.1C1443.28 560.1 1563.48 482.7 1734.28 605.1" stroke="url(#paint4_linear_321_5703)" strokeWidth="3"/>
<path opacity="0.2" d="M288.781 336.6C517.281 336.6 622.281 462.1 778.281 873.6C855.781 991.6 1039.28 1087.1 1327.78 991.6C1495.78 893.6 1638.78 854.1 1736.78 1049.6" stroke="url(#paint5_linear_321_5703)" strokeWidth="3"/>
</g>
<defs>
<filter id="filter0_f_321_5703" x="851.784" y="229.6" width="1072.64" height="975.726" filterUnits="userSpaceOnUse" color-interpolation-filters="sRGB">
<feFlood flood-opacity="0" result="BackgroundImageFix"/>
<feBlend mode="normal" in="SourceGraphic" in2="BackgroundImageFix" result="shape"/>
<feGaussianBlur stdDeviation="95" result="effect1_foregroundBlur_321_5703"/>
</filter>
<filter id="filter1_f_321_5703" x="150.719" y="515.682" width="1069.79" height="963.901" filterUnits="userSpaceOnUse" color-interpolation-filters="sRGB">
<feFlood flood-opacity="0" result="BackgroundImageFix"/>
<feBlend mode="normal" in="SourceGraphic" in2="BackgroundImageFix" result="shape"/>
<feGaussianBlur stdDeviation="95" result="effect1_foregroundBlur_321_5703"/>
</filter>
<filter id="filter2_f_321_5703" x="859.035" y="0" width="1066.75" height="951.301" filterUnits="userSpaceOnUse" color-interpolation-filters="sRGB">
<feFlood flood-opacity="0" result="BackgroundImageFix"/>
<feBlend mode="normal" in="SourceGraphic" in2="BackgroundImageFix" result="shape"/>
<feGaussianBlur stdDeviation="95" result="effect1_foregroundBlur_321_5703"/>
</filter>
<filter id="filter3_f_321_5703" x="150.719" y="286.6" width="1071.02" height="968.984" filterUnits="userSpaceOnUse" color-interpolation-filters="sRGB">
<feFlood flood-opacity="0" result="BackgroundImageFix"/>
<feBlend mode="normal" in="SourceGraphic" in2="BackgroundImageFix" result="shape"/>
<feGaussianBlur stdDeviation="95" result="effect1_foregroundBlur_321_5703"/>
</filter>
<filter id="filter4_f_321_5703" x="847.115" y="412.702" width="1074.62" height="983.889" filterUnits="userSpaceOnUse" color-interpolation-filters="sRGB">
<feFlood flood-opacity="0" result="BackgroundImageFix"/>
<feBlend mode="normal" in="SourceGraphic" in2="BackgroundImageFix" result="shape"/>
<feGaussianBlur stdDeviation="95" result="effect1_foregroundBlur_321_5703"/>
</filter>
<filter id="filter5_f_321_5703" x="0" y="803.6" width="1066.85" height="951.719" filterUnits="userSpaceOnUse" color-interpolation-filters="sRGB">
<feFlood flood-opacity="0" result="BackgroundImageFix"/>
<feBlend mode="normal" in="SourceGraphic" in2="BackgroundImageFix" result="shape"/>
<feGaussianBlur stdDeviation="95" result="effect1_foregroundBlur_321_5703"/>
</filter>
<linearGradient id="paint0_linear_321_5703" x1="1594.78" y1="540.1" x2="778.781" y2="277.6" gradientUnits="userSpaceOnUse">
<stop stop-color="#365CCE"/>
<stop offset="0.480781" stop-color="#32439B"/>
<stop offset="1" stop-color="#2D3C7B"/>
</linearGradient>
<linearGradient id="paint1_linear_321_5703" x1="1307.78" y1="247.442" x2="1307.78" y2="528.118" gradientUnits="userSpaceOnUse">
<stop stop-color="#365CCE"/>
<stop offset="0.4875" stop-color="#32439B"/>
<stop offset="1" stop-color="#2D3C7B"/>
</linearGradient>
<linearGradient id="paint2_linear_321_5703" x1="1330.28" y1="298.6" x2="1186.78" y2="286.6" gradientUnits="userSpaceOnUse">
<stop stop-color="#365CCE"/>
<stop offset="0.4875" stop-color="#32439B"/>
<stop offset="1" stop-color="#2D3C7B"/>
</linearGradient>
<linearGradient id="paint3_linear_321_5703" x1="1577.78" y1="1078.1" x2="234.781" y2="479.1" gradientUnits="userSpaceOnUse">
<stop stop-color="#365CCE"/>
<stop offset="0.4875" stop-color="#32439B"/>
<stop offset="1" stop-color="#2D3C7B"/>
</linearGradient>
<linearGradient id="paint4_linear_321_5703" x1="1641.78" y1="703.1" x2="762.781" y2="289.6" gradientUnits="userSpaceOnUse">
<stop stop-color="#365CCE"/>
<stop offset="0.4875" stop-color="#32439B"/>
<stop offset="1" stop-color="#2D3C7B"/>
</linearGradient>
<linearGradient id="paint5_linear_321_5703" x1="1466.78" y1="906.1" x2="431.781" y2="359.6" gradientUnits="userSpaceOnUse">
<stop stop-color="#365CCE"/>
<stop offset="0.4875" stop-color="#32439B"/>
<stop offset="1" stop-color="#2D3C7B"/>
</linearGradient>
</defs>
</svg>
