<svg width="1280" height="4662" viewBox="0 0 1280 4662" fill="none" xmlns="http://www.w3.org/2000/svg">
<g filter="url(#filter0_f_6_95)">
<path fill-rule="evenodd" clip-rule="evenodd" d="M1290.83 4575.33L607.784 4019.33L617.378 3979.6L1300.43 4535.6L1290.83 4575.33Z" fill="#05AFAF"/>
</g>
<g filter="url(#filter1_f_6_95)">
<path fill-rule="evenodd" clip-rule="evenodd" d="M589.77 4849.58L-93.2813 4293.58L-86.543 4265.68L596.508 4821.68L589.77 4849.58Z" fill="#05AFAF"/>
</g>
<g filter="url(#filter2_f_6_95)">
<path fill-rule="evenodd" clip-rule="evenodd" d="M1298.09 4321.3L615.035 3765.3L618.73 3750L1301.78 4306L1298.09 4321.3Z" fill="#0827C4"/>
</g>
<g filter="url(#filter3_f_6_95)">
<path fill-rule="evenodd" clip-rule="evenodd" d="M589.77 4625.58L-93.2813 4069.58L-85.3154 4036.6L597.735 4592.6L589.77 4625.58Z" fill="#0827C4"/>
</g>
<g filter="url(#filter4_f_6_95)">
<path fill-rule="evenodd" clip-rule="evenodd" d="M1286.17 4766.59L603.115 4210.59L614.681 4162.7L1297.73 4718.7L1286.17 4766.59Z" fill="#7A22AF"/>
</g>
<g filter="url(#filter5_f_6_95)">
<path fill-rule="evenodd" clip-rule="evenodd" d="M439.051 5125.32L-244 4569.32L-240.204 4553.6L442.847 5109.6L439.051 5125.32Z" fill="#D9D9D9"/>
</g>
<g opacity="0.2">
<path opacity="0.2" d="M506.5 3652.1C552.143 3706.49 576 3752.6 651.5 3978.6C674.623 4047.82 751.66 4142.05 840.993 4041.53C952.659 3915.89 1003.69 3752.71 1320.5 3848.32" stroke="url(#paint0_linear_6_95)" strokeWidth="3"/>
<path opacity="0.2" d="M666.5 3654.6C693.333 3692.27 750.5 3790.7 764.5 3883.1C778.5 3975.5 815.333 3921.6 832 3883.1C876.5 3800.1 997.1 3638.2 1123.5 3654.6" stroke="url(#paint1_linear_6_95)" strokeWidth="3"/>
<path opacity="0.2" d="M789.52 3651.1C788.687 3742.41 813.117 3870.24 917.5 3651.1" stroke="url(#paint2_linear_6_95)" strokeWidth="3"/>
<path opacity="0.2" d="M-113.5 3900.6C-40 3912.1 118.1 3939 246.5 4330.6C267.5 4330.6 348 4704.1 777.5 4610.1C1047 4473.6 1169.5 4386.6 1316 4610.1" stroke="url(#paint3_linear_6_95)" strokeWidth="3"/>
<path opacity="0.2" d="M46.5 3649.6C56.5 3659.6 337.5 3689.6 410.5 4041.1C483.5 4392.6 889.5 4305.1 980 4194.6C1070.5 4084.1 1294 4126.1 1321.5 4289.6M327.5 3649.6C383.5 3721.99 526 3790.6 526 3991.1C526 4191.6 797 4267.1 930 4074.1C1030.5 3966.1 1150.7 3888.7 1321.5 4011.1" stroke="url(#paint4_linear_6_95)" strokeWidth="3"/>
<path opacity="0.2" d="M-124 3742.6C104.5 3742.6 209.5 3868.1 365.5 4279.6C443 4397.6 626.5 4493.1 915 4397.6C1083 4299.6 1226 4260.1 1324 4455.6" stroke="url(#paint5_linear_6_95)" strokeWidth="3"/>
</g>
<g filter="url(#filter6_f_6_95)">
<path fill-rule="evenodd" clip-rule="evenodd" d="M1330.83 1015.73L647.784 459.726L657.378 420L1340.43 976L1330.83 1015.73Z" fill="#05AFAF"/>
</g>
<g filter="url(#filter7_f_6_95)">
<path fill-rule="evenodd" clip-rule="evenodd" d="M629.77 1289.98L-53.2813 733.984L-46.543 706.083L636.508 1262.08L629.77 1289.98Z" fill="#05AFAF"/>
</g>
<g filter="url(#filter8_f_6_95)">
<path fill-rule="evenodd" clip-rule="evenodd" d="M1338.09 761.701L655.035 205.701L658.73 190.4L1341.78 746.4L1338.09 761.701Z" fill="#0827C4"/>
</g>
<g filter="url(#filter9_f_6_95)">
<path fill-rule="evenodd" clip-rule="evenodd" d="M629.77 1065.98L-53.2813 509.984L-45.3154 477L637.735 1033L629.77 1065.98Z" fill="#0827C4"/>
</g>
<g filter="url(#filter10_f_6_95)">
<path fill-rule="evenodd" clip-rule="evenodd" d="M1326.17 1206.99L643.115 650.991L654.681 603.102L1337.73 1159.1L1326.17 1206.99Z" fill="#7A22AF"/>
</g>
<g filter="url(#filter11_f_6_95)">
<path fill-rule="evenodd" clip-rule="evenodd" d="M479.051 1565.72L-204 1009.72L-200.204 994L482.847 1550L479.051 1565.72Z" fill="#D9D9D9"/>
</g>
<g opacity="0.2">
<path opacity="0.2" d="M546.5 246.5C592.143 300.894 616 347 691.5 573C714.623 642.217 791.66 736.447 880.993 635.935C992.659 510.295 1043.69 347.112 1360.5 442.719" stroke="url(#paint6_linear_6_95)" strokeWidth="3"/>
<path opacity="0.2" d="M706.5 249C733.333 286.667 790.5 385.1 804.5 477.5C818.5 569.9 855.333 516 872 477.5C916.5 394.5 1037.1 232.6 1163.5 249" stroke="url(#paint7_linear_6_95)" strokeWidth="3"/>
<path opacity="0.2" d="M829.52 245.5C828.687 336.809 853.117 464.643 957.5 245.5" stroke="url(#paint8_linear_6_95)" strokeWidth="3"/>
<path opacity="0.2" d="M-73.5 495C0 506.5 158.1 533.4 286.5 925C307.5 925 388 1298.5 817.5 1204.5C1087 1068 1209.5 981 1356 1204.5" stroke="url(#paint9_linear_6_95)" strokeWidth="3"/>
<path opacity="0.2" d="M86.5 244C96.5 254 377.5 284 450.5 635.5C523.5 987 929.5 899.5 1020 789C1110.5 678.5 1334 720.5 1361.5 884M367.5 244C423.5 316.389 566 385 566 585.5C566 786 837 861.5 970 668.5C1070.5 560.5 1190.7 483.1 1361.5 605.5" stroke="url(#paint10_linear_6_95)" strokeWidth="3"/>
<path opacity="0.2" d="M-84 337C144.5 337 249.5 462.5 405.5 874C483 992 666.5 1087.5 955 992C1123 894 1266 854.5 1364 1050" stroke="url(#paint11_linear_6_95)" strokeWidth="3"/>
</g>
<defs>
<filter id="filter0_f_6_95" x="417.784" y="3789.6" width="1072.64" height="975.726" filterUnits="userSpaceOnUse" color-interpolation-filters="sRGB">
<feFlood flood-opacity="0" result="BackgroundImageFix"/>
<feBlend mode="normal" in="SourceGraphic" in2="BackgroundImageFix" result="shape"/>
<feGaussianBlur stdDeviation="95" result="effect1_foregroundBlur_6_95"/>
</filter>
<filter id="filter1_f_6_95" x="-283.281" y="4075.68" width="1069.79" height="963.901" filterUnits="userSpaceOnUse" color-interpolation-filters="sRGB">
<feFlood flood-opacity="0" result="BackgroundImageFix"/>
<feBlend mode="normal" in="SourceGraphic" in2="BackgroundImageFix" result="shape"/>
<feGaussianBlur stdDeviation="95" result="effect1_foregroundBlur_6_95"/>
</filter>
<filter id="filter2_f_6_95" x="425.035" y="3560" width="1066.75" height="951.301" filterUnits="userSpaceOnUse" color-interpolation-filters="sRGB">
<feFlood flood-opacity="0" result="BackgroundImageFix"/>
<feBlend mode="normal" in="SourceGraphic" in2="BackgroundImageFix" result="shape"/>
<feGaussianBlur stdDeviation="95" result="effect1_foregroundBlur_6_95"/>
</filter>
<filter id="filter3_f_6_95" x="-283.281" y="3846.6" width="1071.02" height="968.984" filterUnits="userSpaceOnUse" color-interpolation-filters="sRGB">
<feFlood flood-opacity="0" result="BackgroundImageFix"/>
<feBlend mode="normal" in="SourceGraphic" in2="BackgroundImageFix" result="shape"/>
<feGaussianBlur stdDeviation="95" result="effect1_foregroundBlur_6_95"/>
</filter>
<filter id="filter4_f_6_95" x="413.115" y="3972.7" width="1074.62" height="983.889" filterUnits="userSpaceOnUse" color-interpolation-filters="sRGB">
<feFlood flood-opacity="0" result="BackgroundImageFix"/>
<feBlend mode="normal" in="SourceGraphic" in2="BackgroundImageFix" result="shape"/>
<feGaussianBlur stdDeviation="95" result="effect1_foregroundBlur_6_95"/>
</filter>
<filter id="filter5_f_6_95" x="-434" y="4363.6" width="1066.85" height="951.719" filterUnits="userSpaceOnUse" color-interpolation-filters="sRGB">
<feFlood flood-opacity="0" result="BackgroundImageFix"/>
<feBlend mode="normal" in="SourceGraphic" in2="BackgroundImageFix" result="shape"/>
<feGaussianBlur stdDeviation="95" result="effect1_foregroundBlur_6_95"/>
</filter>
<filter id="filter6_f_6_95" x="457.784" y="230" width="1072.64" height="975.726" filterUnits="userSpaceOnUse" color-interpolation-filters="sRGB">
<feFlood flood-opacity="0" result="BackgroundImageFix"/>
<feBlend mode="normal" in="SourceGraphic" in2="BackgroundImageFix" result="shape"/>
<feGaussianBlur stdDeviation="95" result="effect1_foregroundBlur_6_95"/>
</filter>
<filter id="filter7_f_6_95" x="-243.281" y="516.083" width="1069.79" height="963.901" filterUnits="userSpaceOnUse" color-interpolation-filters="sRGB">
<feFlood flood-opacity="0" result="BackgroundImageFix"/>
<feBlend mode="normal" in="SourceGraphic" in2="BackgroundImageFix" result="shape"/>
<feGaussianBlur stdDeviation="95" result="effect1_foregroundBlur_6_95"/>
</filter>
<filter id="filter8_f_6_95" x="465.035" y="0.400391" width="1066.75" height="951.301" filterUnits="userSpaceOnUse" color-interpolation-filters="sRGB">
<feFlood flood-opacity="0" result="BackgroundImageFix"/>
<feBlend mode="normal" in="SourceGraphic" in2="BackgroundImageFix" result="shape"/>
<feGaussianBlur stdDeviation="95" result="effect1_foregroundBlur_6_95"/>
</filter>
<filter id="filter9_f_6_95" x="-243.281" y="287" width="1071.02" height="968.984" filterUnits="userSpaceOnUse" color-interpolation-filters="sRGB">
<feFlood flood-opacity="0" result="BackgroundImageFix"/>
<feBlend mode="normal" in="SourceGraphic" in2="BackgroundImageFix" result="shape"/>
<feGaussianBlur stdDeviation="95" result="effect1_foregroundBlur_6_95"/>
</filter>
<filter id="filter10_f_6_95" x="453.115" y="413.102" width="1074.62" height="983.889" filterUnits="userSpaceOnUse" color-interpolation-filters="sRGB">
<feFlood flood-opacity="0" result="BackgroundImageFix"/>
<feBlend mode="normal" in="SourceGraphic" in2="BackgroundImageFix" result="shape"/>
<feGaussianBlur stdDeviation="95" result="effect1_foregroundBlur_6_95"/>
</filter>
<filter id="filter11_f_6_95" x="-394" y="804" width="1066.85" height="951.719" filterUnits="userSpaceOnUse" color-interpolation-filters="sRGB">
<feFlood flood-opacity="0" result="BackgroundImageFix"/>
<feBlend mode="normal" in="SourceGraphic" in2="BackgroundImageFix" result="shape"/>
<feGaussianBlur stdDeviation="95" result="effect1_foregroundBlur_6_95"/>
</filter>
<linearGradient id="paint0_linear_6_95" x1="1182" y1="3946.1" x2="366" y2="3683.6" gradientUnits="userSpaceOnUse">
<stop stop-color="#365CCE"/>
<stop offset="0.480781" stop-color="#32439B"/>
<stop offset="1" stop-color="#2D3C7B"/>
</linearGradient>
<linearGradient id="paint1_linear_6_95" x1="895" y1="3653.44" x2="895" y2="3934.12" gradientUnits="userSpaceOnUse">
<stop stop-color="#365CCE"/>
<stop offset="0.4875" stop-color="#32439B"/>
<stop offset="1" stop-color="#2D3C7B"/>
</linearGradient>
<linearGradient id="paint2_linear_6_95" x1="917.5" y1="3704.6" x2="774" y2="3692.6" gradientUnits="userSpaceOnUse">
<stop stop-color="#365CCE"/>
<stop offset="0.4875" stop-color="#32439B"/>
<stop offset="1" stop-color="#2D3C7B"/>
</linearGradient>
<linearGradient id="paint3_linear_6_95" x1="1165" y1="4484.1" x2="-178" y2="3885.1" gradientUnits="userSpaceOnUse">
<stop stop-color="#365CCE"/>
<stop offset="0.4875" stop-color="#32439B"/>
<stop offset="1" stop-color="#2D3C7B"/>
</linearGradient>
<linearGradient id="paint4_linear_6_95" x1="1229" y1="4109.1" x2="350" y2="3695.6" gradientUnits="userSpaceOnUse">
<stop stop-color="#365CCE"/>
<stop offset="0.4875" stop-color="#32439B"/>
<stop offset="1" stop-color="#2D3C7B"/>
</linearGradient>
<linearGradient id="paint5_linear_6_95" x1="1054" y1="4312.1" x2="19" y2="3765.6" gradientUnits="userSpaceOnUse">
<stop stop-color="#365CCE"/>
<stop offset="0.4875" stop-color="#32439B"/>
<stop offset="1" stop-color="#2D3C7B"/>
</linearGradient>
<linearGradient id="paint6_linear_6_95" x1="1222" y1="540.5" x2="406" y2="278" gradientUnits="userSpaceOnUse">
<stop stop-color="#365CCE"/>
<stop offset="0.480781" stop-color="#32439B"/>
<stop offset="1" stop-color="#2D3C7B"/>
</linearGradient>
<linearGradient id="paint7_linear_6_95" x1="935" y1="247.842" x2="935" y2="528.519" gradientUnits="userSpaceOnUse">
<stop stop-color="#365CCE"/>
<stop offset="0.4875" stop-color="#32439B"/>
<stop offset="1" stop-color="#2D3C7B"/>
</linearGradient>
<linearGradient id="paint8_linear_6_95" x1="957.5" y1="299" x2="814" y2="287" gradientUnits="userSpaceOnUse">
<stop stop-color="#365CCE"/>
<stop offset="0.4875" stop-color="#32439B"/>
<stop offset="1" stop-color="#2D3C7B"/>
</linearGradient>
<linearGradient id="paint9_linear_6_95" x1="1205" y1="1078.5" x2="-138" y2="479.5" gradientUnits="userSpaceOnUse">
<stop stop-color="#365CCE"/>
<stop offset="0.4875" stop-color="#32439B"/>
<stop offset="1" stop-color="#2D3C7B"/>
</linearGradient>
<linearGradient id="paint10_linear_6_95" x1="1269" y1="703.5" x2="390" y2="290" gradientUnits="userSpaceOnUse">
<stop stop-color="#365CCE"/>
<stop offset="0.4875" stop-color="#32439B"/>
<stop offset="1" stop-color="#2D3C7B"/>
</linearGradient>
<linearGradient id="paint11_linear_6_95" x1="1094" y1="906.5" x2="59" y2="360" gradientUnits="userSpaceOnUse">
<stop stop-color="#365CCE"/>
<stop offset="0.4875" stop-color="#32439B"/>
<stop offset="1" stop-color="#2D3C7B"/>
</linearGradient>
</defs>
</svg>
