<svg width="229" height="40" viewBox="0 0 516 90" fill="none" xmlns="http://www.w3.org/2000/svg">
<rect width="90" height="90" rx="8" fill="#F1F6FF"/>
<path d="M49.0966 9.33325H30.5252C27.9034 9.33325 26.7017 10.9712 26.7017 12.0631C26.2647 14.6838 27.7941 16.431 29.4328 16.431H32.7101C34.8949 16.431 35.4412 17.8869 35.4412 18.6149V23.5287H32.7101C28.3403 23.0919 27.612 26.9865 27.7941 28.9884H17.9622C13.0462 29.5344 12.5 33.3562 12.5 35.5401C12.5 40.4539 15.7773 42.0919 17.9622 42.0919H27.2479C27.6849 46.0229 30.7073 47.0057 32.1639 47.0057H46.9118C50.4076 46.1321 50.9174 43.7298 50.7353 42.6378C50.7353 41.3275 51.4636 40.9999 51.8277 40.9999H58.9286C60.6765 40.9999 61.1135 42.0919 61.1135 42.6378V47.0057C57.1807 47.0057 56.1975 50.2714 56.1975 51.9195C56.1975 55.7413 58.7465 56.8333 60.021 56.8333H73.6765C76.7353 56.3965 77.5 54.1034 77.5 51.9195C77.5 48.0976 74.4048 47.3696 73.1303 47.0057V32.8103C73.1303 30.1896 70.2171 29.1704 68.7605 28.9884H51.8277C50.9538 23.747 46.0014 23.1647 43.6345 23.5287V16.9769H49.0966C54.0126 15.339 52.3739 9.87923 49.0966 9.33325Z" fill="#365CCE"/>
<path d="M64.6667 74.75C61.5556 73.9167 60 71.8333 60 68.5C60 63.5 63.5 62.875 64.0833 60.375C64.4722 58.7083 63.8889 57.25 62.3333 56C65.4444 56.8333 67 58.9167 67 62.25C67 67.25 63.5 67.875 62.9167 70.375C62.5278 72.0417 63.1111 73.5 64.6667 74.75ZM71.6667 81C68.5556 80.1667 67 78.0833 67 74.75C67 69.75 70.5 69.125 71.0833 66.625C71.4722 64.9583 70.8889 63.5 69.3333 62.25C72.4444 63.0833 74 65.1667 74 68.5C74 73.5 70.5 74.125 69.9167 76.625C69.5278 78.2917 70.1111 79.75 71.6667 81Z" fill="#365CCE"/>
<path d="M121.209 26.3544C120.441 26.3544 119.838 26.135 119.399 25.6962C119.015 25.2025 118.823 24.654 118.823 24.0506C118.823 23.4472 119.015 22.9262 119.399 22.4873C119.838 21.9937 120.441 21.7468 121.209 21.7468H151.488C152.311 21.7468 152.914 21.9937 153.298 22.4873C153.682 22.9262 153.874 23.4472 153.874 24.0506C153.874 24.5991 153.682 25.1202 153.298 25.6139C152.914 26.1076 152.311 26.3544 151.488 26.3544H139.311V64.2848C139.311 65.6013 138.707 66.4515 137.5 66.8354C137.171 66.9451 136.733 67 136.184 67C135.69 67 135.142 66.7806 134.538 66.3418C133.935 65.8481 133.633 65.1624 133.633 64.2848V26.3544H121.209Z" fill="#F1F6FF"/>
<path d="M177.444 47.8291L181.064 47.9114V45.1962C181.064 40.9177 178.651 38.7785 173.824 38.7785C171.575 38.7785 169.957 38.9705 168.969 39.3544C167.817 39.7932 166.72 40.3143 165.678 40.9177C164.636 41.4662 163.868 41.7405 163.374 41.7405C162.936 41.7405 162.524 41.5759 162.14 41.2468C161.811 40.8629 161.647 40.424 161.647 39.9304C161.647 39.4367 161.866 38.9979 162.305 38.6139C164.938 36.0907 168.832 34.8291 173.988 34.8291C179.748 34.8291 183.45 36.8038 185.096 40.7532C185.699 42.1245 186.001 43.7426 186.001 45.6076L185.919 64.7785C185.919 65.5464 185.672 66.1224 185.178 66.5063C184.685 66.8354 184.109 67 183.45 67C182.847 67 182.298 66.8354 181.805 66.5063C181.311 66.1224 181.064 65.5738 181.064 64.8607V61.8987C179.748 64.6962 177.362 66.5063 173.906 67.3291C172.809 67.5485 171.602 67.6582 170.286 67.6582C169.024 67.6582 167.735 67.4388 166.419 67C165.102 66.616 163.95 66.0126 162.963 65.1899C160.879 63.5443 159.836 61.2405 159.836 58.2785C159.836 51.3122 165.706 47.8291 177.444 47.8291ZM181.064 51.6139C180.132 51.6688 179.062 51.6962 177.855 51.6962C176.704 51.6962 175.524 51.7236 174.317 51.7785C173.166 51.8333 172.014 51.9705 170.862 52.1899C169.765 52.4093 168.777 52.7384 167.9 53.1772C165.925 54.2743 164.938 55.9198 164.938 58.1139C164.938 59.8692 165.623 61.2953 166.995 62.3924C168.092 63.2152 169.682 63.6814 171.767 63.7911C174.29 63.7911 176.429 62.9958 178.185 61.4051C179.995 59.8143 180.955 57.4831 181.064 54.4114V51.6139Z" fill="#F1F6FF"/>
<path d="M204.554 24.6266C204.554 25.3945 204.253 26.0802 203.649 26.6835C203.046 27.2321 202.196 27.5063 201.099 27.5063C200.001 27.5063 199.151 27.2321 198.548 26.6835C197.945 26.0802 197.643 25.3945 197.643 24.6266C197.643 23.8586 197.945 23.173 198.548 22.5696C199.151 21.9662 200.001 21.6646 201.099 21.6646C202.196 21.6646 203.046 21.9662 203.649 22.5696C204.253 23.173 204.554 23.8586 204.554 24.6266ZM198.63 38.1202C198.63 37.2975 198.877 36.6667 199.371 36.2278C199.919 35.789 200.44 35.5696 200.934 35.5696C201.428 35.5696 201.812 35.6245 202.086 35.7342C202.36 35.8439 202.607 36.0084 202.826 36.2278C203.375 36.6118 203.649 37.2426 203.649 38.1202V64.4494C203.649 65.2721 203.375 65.9029 202.826 66.3418C202.278 66.7806 201.674 67 201.016 67C200.413 67 199.864 66.808 199.371 66.424C198.877 65.9852 198.63 65.327 198.63 64.4494V38.1202Z" fill="#F1F6FF"/>
<path d="M216.536 24.2975C216.536 23.4747 216.782 22.8439 217.276 22.4051C217.825 21.9662 218.346 21.7468 218.839 21.7468C219.333 21.7468 219.717 21.8017 219.991 21.9114C220.266 22.0211 220.512 22.1856 220.732 22.4051C221.28 22.8439 221.555 23.4747 221.555 24.2975V64.4494C221.555 65.2721 221.28 65.9029 220.732 66.3418C220.183 66.7806 219.58 67 218.922 67C218.318 67 217.77 66.808 217.276 66.424C216.782 65.9852 216.536 65.327 216.536 64.4494V24.2975Z" fill="#F1F6FF"/>
<path d="M256.821 40.3418L248.017 64.2025C247.414 66.0675 246.207 67 244.397 67C242.696 67 241.599 66.1224 241.106 64.3671L231.561 38.8608C231.452 38.4768 231.397 38.1477 231.397 37.8734C231.397 37.5443 231.452 37.2426 231.561 36.9683C231.726 36.6941 231.918 36.4472 232.137 36.2278C232.576 35.789 233.097 35.5696 233.701 35.5696C235.017 35.5696 235.84 36.1456 236.169 37.2975L244.726 61.4873L253.365 38.038C253.969 36.3924 255.175 35.5696 256.985 35.5696C258.796 35.5696 260.002 36.3924 260.606 38.038L268.916 61.2405L277.308 37.2975C277.747 36.1456 278.488 35.5696 279.53 35.5696C280.188 35.5696 280.764 35.789 281.258 36.2278C281.751 36.6667 281.998 37.1329 281.998 37.6266C281.998 38.0654 281.943 38.4768 281.834 38.8608L272.207 64.3671C271.713 66.1224 270.589 67 268.834 67C267.023 67 265.926 66.0675 265.542 64.2025L256.821 40.3418Z" fill="#F1F6FF"/>
<path d="M297.753 24.6266C297.753 25.3945 297.451 26.0802 296.848 26.6835C296.245 27.2321 295.394 27.5063 294.297 27.5063C293.2 27.5063 292.35 27.2321 291.747 26.6835C291.143 26.0802 290.842 25.3945 290.842 24.6266C290.842 23.8586 291.143 23.173 291.747 22.5696C292.35 21.9662 293.2 21.6646 294.297 21.6646C295.394 21.6646 296.245 21.9662 296.848 22.5696C297.451 23.173 297.753 23.8586 297.753 24.6266ZM291.829 38.1202C291.829 37.2975 292.076 36.6667 292.57 36.2278C293.118 35.789 293.639 35.5696 294.133 35.5696C294.626 35.5696 295.01 35.6245 295.285 35.7342C295.559 35.8439 295.806 36.0084 296.025 36.2278C296.574 36.6118 296.848 37.2426 296.848 38.1202V64.4494C296.848 65.2721 296.574 65.9029 296.025 66.3418C295.477 66.7806 294.873 67 294.215 67C293.612 67 293.063 66.808 292.57 66.424C292.076 65.9852 291.829 65.327 291.829 64.4494V38.1202Z" fill="#F1F6FF"/>
<path d="M309.652 37.8734C309.652 37.1055 309.899 36.5295 310.393 36.1456C310.941 35.7616 311.682 35.5696 312.614 35.5696C314.37 35.5696 315.083 37.2975 314.753 40.7532C316.015 38.1202 318.429 36.2827 321.994 35.2405C323.091 34.9662 324.298 34.8291 325.614 34.8291C326.931 34.8291 328.247 35.0759 329.564 35.5696C330.935 36.0084 332.142 36.7215 333.184 37.7089C335.433 39.8481 336.557 43.0021 336.557 47.1709V64.6139C336.557 65.4367 336.283 66.0401 335.734 66.424C335.186 66.808 334.583 67 333.924 67C333.321 67 332.745 66.808 332.197 66.424C331.703 65.9852 331.456 65.3818 331.456 64.6139V46.7595C331.456 42.9198 329.948 40.424 326.931 39.2721C326.053 38.943 325.038 38.7785 323.886 38.7785C322.789 38.7785 321.665 38.9979 320.513 39.4367C319.361 39.8755 318.374 40.4515 317.551 41.1646C315.686 42.8101 314.753 45.3333 314.753 48.7342V64.6139C314.753 65.4367 314.479 66.0401 313.931 66.424C313.382 66.808 312.779 67 312.121 67C311.462 67 310.886 66.808 310.393 66.424C309.899 65.9852 309.652 65.3818 309.652 64.6139V37.8734Z" fill="#F1F6FF"/>
<path d="M374.362 67C372.826 67 371.948 66.2321 371.729 64.6962V61.7342C370.248 63.8734 368.575 65.4093 366.71 66.3418C364.845 67.2194 362.733 67.6582 360.374 67.6582C358.07 67.6582 356.068 67.192 354.368 66.2595C352.722 65.327 351.378 64.0928 350.336 62.557C348.252 59.3755 347.21 55.5633 347.21 51.1202C347.21 46.5675 348.279 42.8101 350.419 39.8481C352.722 36.5021 356.096 34.8291 360.539 34.8291C364.049 34.8291 367.094 35.8987 369.672 38.038C370.495 38.751 371.18 39.6013 371.729 40.5886V24.0506C371.729 23.2827 371.976 22.7067 372.469 22.3228C373.018 21.9388 373.621 21.7468 374.279 21.7468C374.938 21.7468 375.514 21.9662 376.007 22.4051C376.556 22.789 376.83 23.3375 376.83 24.0506V64.6139C376.83 65.4367 376.556 66.0401 376.007 66.424C375.514 66.808 374.965 67 374.362 67ZM366.545 39.7658C365.284 39.1076 363.748 38.7785 361.938 38.7785C360.182 38.7785 358.701 39.135 357.495 39.8481C356.288 40.5612 355.328 41.4937 354.615 42.6456C353.243 44.8397 352.558 47.5823 352.558 50.8734C352.558 57.4008 354.478 61.5148 358.317 63.2152C359.195 63.5991 360.429 63.7911 362.02 63.7911C363.611 63.7911 365.064 63.4346 366.381 62.7215C367.697 62.0084 368.739 61.0759 369.507 59.924C370.933 57.7299 371.646 54.6582 371.646 50.7089C371.646 45.2236 369.946 41.5759 366.545 39.7658Z" fill="#F1F6FF"/>
<path d="M408.106 26.3544C407.338 26.3544 406.734 26.135 406.296 25.6962C405.912 25.2025 405.72 24.654 405.72 24.0506C405.72 23.4472 405.912 22.9262 406.296 22.4873C406.734 21.9937 407.338 21.7468 408.106 21.7468H438.384C439.207 21.7468 439.81 21.9937 440.194 22.4873C440.578 22.9262 440.77 23.4472 440.77 24.0506C440.77 24.5991 440.578 25.1202 440.194 25.6139C439.81 26.1076 439.207 26.3544 438.384 26.3544H426.207V64.2848C426.207 65.6013 425.604 66.4515 424.397 66.8354C424.068 66.9451 423.629 67 423.08 67C422.587 67 422.038 66.7806 421.435 66.3418C420.831 65.8481 420.53 65.1624 420.53 64.2848V26.3544H408.106Z" fill="#F1F6FF"/>
<path d="M464.34 47.8291L467.961 47.9114V45.1962C467.961 40.9177 465.547 38.7785 460.72 38.7785C458.471 38.7785 456.853 38.9705 455.866 39.3544C454.714 39.7932 453.617 40.3143 452.574 40.9177C451.532 41.4662 450.764 41.7405 450.271 41.7405C449.832 41.7405 449.42 41.5759 449.037 41.2468C448.707 40.8629 448.543 40.424 448.543 39.9304C448.543 39.4367 448.762 38.9979 449.201 38.6139C451.834 36.0907 455.728 34.8291 460.885 34.8291C466.644 34.8291 470.347 36.8038 471.992 40.7532C472.596 42.1245 472.897 43.7426 472.897 45.6076L472.815 64.7785C472.815 65.5464 472.568 66.1224 472.074 66.5063C471.581 66.8354 471.005 67 470.347 67C469.743 67 469.195 66.8354 468.701 66.5063C468.207 66.1224 467.961 65.5738 467.961 64.8607V61.8987C466.644 64.6962 464.258 66.5063 460.802 67.3291C459.705 67.5485 458.499 67.6582 457.182 67.6582C455.92 67.6582 454.631 67.4388 453.315 67C451.999 66.616 450.847 66.0126 449.859 65.1899C447.775 63.5443 446.733 61.2405 446.733 58.2785C446.733 51.3122 452.602 47.8291 464.34 47.8291ZM467.961 51.6139C467.028 51.6688 465.958 51.6962 464.752 51.6962C463.6 51.6962 462.42 51.7236 461.214 51.7785C460.062 51.8333 458.91 51.9705 457.758 52.1899C456.661 52.4093 455.674 52.7384 454.796 53.1772C452.821 54.2743 451.834 55.9198 451.834 58.1139C451.834 59.8692 452.52 61.2953 453.891 62.3924C454.988 63.2152 456.579 63.6814 458.663 63.7911C461.186 63.7911 463.326 62.9958 465.081 61.4051C466.891 59.8143 467.851 57.4831 467.961 54.4114V51.6139Z" fill="#F1F6FF"/>
<path d="M489.97 40.8354C491.505 37.9283 494.166 36.0633 497.951 35.2405C499.048 34.9662 500.446 34.8291 502.147 34.8291C503.902 34.8291 505.602 35.3228 507.248 36.3101C508.948 37.2426 510.32 38.4768 511.362 40.0126C512.459 41.5485 513.254 43.3038 513.748 45.2785C514.242 47.2532 514.488 49.3101 514.488 51.4494C514.488 53.5886 514.214 55.6456 513.666 57.6202C513.172 59.5401 512.377 61.2405 511.28 62.7215C508.921 66.0127 505.548 67.6582 501.159 67.6582C498.801 67.6582 496.908 67.3017 495.482 66.5886C493.069 65.327 491.231 63.7363 489.97 61.8164V76.7089C489.97 77.4768 489.695 78.0527 489.147 78.4367C488.653 78.8207 488.077 79.0126 487.419 79.0126C486.761 79.0126 486.157 78.8207 485.609 78.4367C485.115 78.0527 484.868 77.4768 484.868 76.7089V37.8734C484.868 37.1055 485.115 36.5295 485.609 36.1456C486.157 35.7616 486.87 35.5696 487.748 35.5696C489.558 35.5696 490.299 37.3249 489.97 40.8354ZM492.026 42.481C491.313 43.5781 490.792 44.8945 490.463 46.4304C490.134 47.9662 489.97 49.5844 489.97 51.2848C489.97 52.9304 490.161 54.4937 490.545 55.9747C490.929 57.4557 491.533 58.7721 492.356 59.924C494.111 62.5021 496.634 63.7911 499.925 63.7911C503.161 63.7911 505.575 62.4472 507.166 59.7595C508.482 57.5105 509.14 54.6582 509.14 51.2025C509.14 45.7721 507.577 42.0148 504.451 39.9304C503.299 39.1624 501.79 38.7785 499.925 38.7785C498.06 38.7785 496.47 39.1076 495.153 39.7658C493.837 40.424 492.794 41.3291 492.026 42.481Z" fill="#F1F6FF"/>
<path d="M121.209 26.3544C120.441 26.3544 119.838 26.135 119.399 25.6962C119.015 25.2025 118.823 24.654 118.823 24.0506C118.823 23.4472 119.015 22.9262 119.399 22.4873C119.838 21.9937 120.441 21.7468 121.209 21.7468H151.488C152.311 21.7468 152.914 21.9937 153.298 22.4873C153.682 22.9262 153.874 23.4472 153.874 24.0506C153.874 24.5991 153.682 25.1202 153.298 25.6139C152.914 26.1076 152.311 26.3544 151.488 26.3544H139.311V64.2848C139.311 65.6013 138.707 66.4515 137.5 66.8354C137.171 66.9451 136.733 67 136.184 67C135.69 67 135.142 66.7806 134.538 66.3418C133.935 65.8481 133.633 65.1624 133.633 64.2848V26.3544H121.209Z" stroke="#F1F6FF" stroke-width="2"/>
<path d="M177.444 47.8291L181.064 47.9114V45.1962C181.064 40.9177 178.651 38.7785 173.824 38.7785C171.575 38.7785 169.957 38.9705 168.969 39.3544C167.817 39.7932 166.72 40.3143 165.678 40.9177C164.636 41.4662 163.868 41.7405 163.374 41.7405C162.936 41.7405 162.524 41.5759 162.14 41.2468C161.811 40.8629 161.647 40.424 161.647 39.9304C161.647 39.4367 161.866 38.9979 162.305 38.6139C164.938 36.0907 168.832 34.8291 173.988 34.8291C179.748 34.8291 183.45 36.8038 185.096 40.7532C185.699 42.1245 186.001 43.7426 186.001 45.6076L185.919 64.7785C185.919 65.5464 185.672 66.1224 185.178 66.5063C184.685 66.8354 184.109 67 183.45 67C182.847 67 182.298 66.8354 181.805 66.5063C181.311 66.1224 181.064 65.5738 181.064 64.8607V61.8987C179.748 64.6962 177.362 66.5063 173.906 67.3291C172.809 67.5485 171.602 67.6582 170.286 67.6582C169.024 67.6582 167.735 67.4388 166.419 67C165.102 66.616 163.95 66.0126 162.963 65.1899C160.879 63.5443 159.836 61.2405 159.836 58.2785C159.836 51.3122 165.706 47.8291 177.444 47.8291ZM181.064 51.6139C180.132 51.6688 179.062 51.6962 177.855 51.6962C176.704 51.6962 175.524 51.7236 174.317 51.7785C173.166 51.8333 172.014 51.9705 170.862 52.1899C169.765 52.4093 168.777 52.7384 167.9 53.1772C165.925 54.2743 164.938 55.9198 164.938 58.1139C164.938 59.8692 165.623 61.2953 166.995 62.3924C168.092 63.2152 169.682 63.6814 171.767 63.7911C174.29 63.7911 176.429 62.9958 178.185 61.4051C179.995 59.8143 180.955 57.4831 181.064 54.4114V51.6139Z" stroke="#F1F6FF" stroke-width="2"/>
<path d="M204.554 24.6266C204.554 25.3945 204.253 26.0802 203.649 26.6835C203.046 27.2321 202.196 27.5063 201.099 27.5063C200.001 27.5063 199.151 27.2321 198.548 26.6835C197.945 26.0802 197.643 25.3945 197.643 24.6266C197.643 23.8586 197.945 23.173 198.548 22.5696C199.151 21.9662 200.001 21.6646 201.099 21.6646C202.196 21.6646 203.046 21.9662 203.649 22.5696C204.253 23.173 204.554 23.8586 204.554 24.6266ZM198.63 38.1202C198.63 37.2975 198.877 36.6667 199.371 36.2278C199.919 35.789 200.44 35.5696 200.934 35.5696C201.428 35.5696 201.812 35.6245 202.086 35.7342C202.36 35.8439 202.607 36.0084 202.826 36.2278C203.375 36.6118 203.649 37.2426 203.649 38.1202V64.4494C203.649 65.2721 203.375 65.9029 202.826 66.3418C202.278 66.7806 201.674 67 201.016 67C200.413 67 199.864 66.808 199.371 66.424C198.877 65.9852 198.63 65.327 198.63 64.4494V38.1202Z" stroke="#F1F6FF" stroke-width="2"/>
<path d="M216.536 24.2975C216.536 23.4747 216.782 22.8439 217.276 22.4051C217.825 21.9662 218.346 21.7468 218.839 21.7468C219.333 21.7468 219.717 21.8017 219.991 21.9114C220.266 22.0211 220.512 22.1856 220.732 22.4051C221.28 22.8439 221.555 23.4747 221.555 24.2975V64.4494C221.555 65.2721 221.28 65.9029 220.732 66.3418C220.183 66.7806 219.58 67 218.922 67C218.318 67 217.77 66.808 217.276 66.424C216.782 65.9852 216.536 65.327 216.536 64.4494V24.2975Z" stroke="#F1F6FF" stroke-width="2"/>
<path d="M256.821 40.3418L248.017 64.2025C247.414 66.0675 246.207 67 244.397 67C242.696 67 241.599 66.1224 241.106 64.3671L231.561 38.8608C231.452 38.4768 231.397 38.1477 231.397 37.8734C231.397 37.5443 231.452 37.2426 231.561 36.9683C231.726 36.6941 231.918 36.4472 232.137 36.2278C232.576 35.789 233.097 35.5696 233.701 35.5696C235.017 35.5696 235.84 36.1456 236.169 37.2975L244.726 61.4873L253.365 38.038C253.969 36.3924 255.175 35.5696 256.985 35.5696C258.796 35.5696 260.002 36.3924 260.606 38.038L268.916 61.2405L277.308 37.2975C277.747 36.1456 278.488 35.5696 279.53 35.5696C280.188 35.5696 280.764 35.789 281.258 36.2278C281.751 36.6667 281.998 37.1329 281.998 37.6266C281.998 38.0654 281.943 38.4768 281.834 38.8608L272.207 64.3671C271.713 66.1224 270.589 67 268.834 67C267.023 67 265.926 66.0675 265.542 64.2025L256.821 40.3418Z" stroke="#F1F6FF" stroke-width="2"/>
<path d="M297.753 24.6266C297.753 25.3945 297.451 26.0802 296.848 26.6835C296.245 27.2321 295.394 27.5063 294.297 27.5063C293.2 27.5063 292.35 27.2321 291.747 26.6835C291.143 26.0802 290.842 25.3945 290.842 24.6266C290.842 23.8586 291.143 23.173 291.747 22.5696C292.35 21.9662 293.2 21.6646 294.297 21.6646C295.394 21.6646 296.245 21.9662 296.848 22.5696C297.451 23.173 297.753 23.8586 297.753 24.6266ZM291.829 38.1202C291.829 37.2975 292.076 36.6667 292.57 36.2278C293.118 35.789 293.639 35.5696 294.133 35.5696C294.626 35.5696 295.01 35.6245 295.285 35.7342C295.559 35.8439 295.806 36.0084 296.025 36.2278C296.574 36.6118 296.848 37.2426 296.848 38.1202V64.4494C296.848 65.2721 296.574 65.9029 296.025 66.3418C295.477 66.7806 294.873 67 294.215 67C293.612 67 293.063 66.808 292.57 66.424C292.076 65.9852 291.829 65.327 291.829 64.4494V38.1202Z" stroke="#F1F6FF" stroke-width="2"/>
<path d="M309.652 37.8734C309.652 37.1055 309.899 36.5295 310.393 36.1456C310.941 35.7616 311.682 35.5696 312.614 35.5696C314.37 35.5696 315.083 37.2975 314.753 40.7532C316.015 38.1202 318.429 36.2827 321.994 35.2405C323.091 34.9662 324.298 34.8291 325.614 34.8291C326.931 34.8291 328.247 35.0759 329.564 35.5696C330.935 36.0084 332.142 36.7215 333.184 37.7089C335.433 39.8481 336.557 43.0021 336.557 47.1709V64.6139C336.557 65.4367 336.283 66.0401 335.734 66.424C335.186 66.808 334.583 67 333.924 67C333.321 67 332.745 66.808 332.197 66.424C331.703 65.9852 331.456 65.3818 331.456 64.6139V46.7595C331.456 42.9198 329.948 40.424 326.931 39.2721C326.053 38.943 325.038 38.7785 323.886 38.7785C322.789 38.7785 321.665 38.9979 320.513 39.4367C319.361 39.8755 318.374 40.4515 317.551 41.1646C315.686 42.8101 314.753 45.3333 314.753 48.7342V64.6139C314.753 65.4367 314.479 66.0401 313.931 66.424C313.382 66.808 312.779 67 312.121 67C311.462 67 310.886 66.808 310.393 66.424C309.899 65.9852 309.652 65.3818 309.652 64.6139V37.8734Z" stroke="#F1F6FF" stroke-width="2"/>
<path d="M374.362 67C372.826 67 371.948 66.2321 371.729 64.6962V61.7342C370.248 63.8734 368.575 65.4093 366.71 66.3418C364.845 67.2194 362.733 67.6582 360.374 67.6582C358.07 67.6582 356.068 67.192 354.368 66.2595C352.722 65.327 351.378 64.0928 350.336 62.557C348.252 59.3755 347.21 55.5633 347.21 51.1202C347.21 46.5675 348.279 42.8101 350.419 39.8481C352.722 36.5021 356.096 34.8291 360.539 34.8291C364.049 34.8291 367.094 35.8987 369.672 38.038C370.495 38.751 371.18 39.6013 371.729 40.5886V24.0506C371.729 23.2827 371.976 22.7067 372.469 22.3228C373.018 21.9388 373.621 21.7468 374.279 21.7468C374.938 21.7468 375.514 21.9662 376.007 22.4051C376.556 22.789 376.83 23.3375 376.83 24.0506V64.6139C376.83 65.4367 376.556 66.0401 376.007 66.424C375.514 66.808 374.965 67 374.362 67ZM366.545 39.7658C365.284 39.1076 363.748 38.7785 361.938 38.7785C360.182 38.7785 358.701 39.135 357.495 39.8481C356.288 40.5612 355.328 41.4937 354.615 42.6456C353.243 44.8397 352.558 47.5823 352.558 50.8734C352.558 57.4008 354.478 61.5148 358.317 63.2152C359.195 63.5991 360.429 63.7911 362.02 63.7911C363.611 63.7911 365.064 63.4346 366.381 62.7215C367.697 62.0084 368.739 61.0759 369.507 59.924C370.933 57.7299 371.646 54.6582 371.646 50.7089C371.646 45.2236 369.946 41.5759 366.545 39.7658Z" stroke="#F1F6FF" stroke-width="2"/>
<path d="M408.106 26.3544C407.338 26.3544 406.734 26.135 406.296 25.6962C405.912 25.2025 405.72 24.654 405.72 24.0506C405.72 23.4472 405.912 22.9262 406.296 22.4873C406.734 21.9937 407.338 21.7468 408.106 21.7468H438.384C439.207 21.7468 439.81 21.9937 440.194 22.4873C440.578 22.9262 440.77 23.4472 440.77 24.0506C440.77 24.5991 440.578 25.1202 440.194 25.6139C439.81 26.1076 439.207 26.3544 438.384 26.3544H426.207V64.2848C426.207 65.6013 425.604 66.4515 424.397 66.8354C424.068 66.9451 423.629 67 423.08 67C422.587 67 422.038 66.7806 421.435 66.3418C420.831 65.8481 420.53 65.1624 420.53 64.2848V26.3544H408.106Z" stroke="#F1F6FF" stroke-width="2"/>
<path d="M464.34 47.8291L467.961 47.9114V45.1962C467.961 40.9177 465.547 38.7785 460.72 38.7785C458.471 38.7785 456.853 38.9705 455.866 39.3544C454.714 39.7932 453.617 40.3143 452.574 40.9177C451.532 41.4662 450.764 41.7405 450.271 41.7405C449.832 41.7405 449.42 41.5759 449.037 41.2468C448.707 40.8629 448.543 40.424 448.543 39.9304C448.543 39.4367 448.762 38.9979 449.201 38.6139C451.834 36.0907 455.728 34.8291 460.885 34.8291C466.644 34.8291 470.347 36.8038 471.992 40.7532C472.596 42.1245 472.897 43.7426 472.897 45.6076L472.815 64.7785C472.815 65.5464 472.568 66.1224 472.074 66.5063C471.581 66.8354 471.005 67 470.347 67C469.743 67 469.195 66.8354 468.701 66.5063C468.207 66.1224 467.961 65.5738 467.961 64.8607V61.8987C466.644 64.6962 464.258 66.5063 460.802 67.3291C459.705 67.5485 458.499 67.6582 457.182 67.6582C455.92 67.6582 454.631 67.4388 453.315 67C451.999 66.616 450.847 66.0126 449.859 65.1899C447.775 63.5443 446.733 61.2405 446.733 58.2785C446.733 51.3122 452.602 47.8291 464.34 47.8291ZM467.961 51.6139C467.028 51.6688 465.958 51.6962 464.752 51.6962C463.6 51.6962 462.42 51.7236 461.214 51.7785C460.062 51.8333 458.91 51.9705 457.758 52.1899C456.661 52.4093 455.674 52.7384 454.796 53.1772C452.821 54.2743 451.834 55.9198 451.834 58.1139C451.834 59.8692 452.52 61.2953 453.891 62.3924C454.988 63.2152 456.579 63.6814 458.663 63.7911C461.186 63.7911 463.326 62.9958 465.081 61.4051C466.891 59.8143 467.851 57.4831 467.961 54.4114V51.6139Z" stroke="#F1F6FF" stroke-width="2"/>
<path d="M489.97 40.8354C491.505 37.9283 494.166 36.0633 497.951 35.2405C499.048 34.9662 500.446 34.8291 502.147 34.8291C503.902 34.8291 505.602 35.3228 507.248 36.3101C508.948 37.2426 510.32 38.4768 511.362 40.0126C512.459 41.5485 513.254 43.3038 513.748 45.2785C514.242 47.2532 514.488 49.3101 514.488 51.4494C514.488 53.5886 514.214 55.6456 513.666 57.6202C513.172 59.5401 512.377 61.2405 511.28 62.7215C508.921 66.0127 505.548 67.6582 501.159 67.6582C498.801 67.6582 496.908 67.3017 495.482 66.5886C493.069 65.327 491.231 63.7363 489.97 61.8164V76.7089C489.97 77.4768 489.695 78.0527 489.147 78.4367C488.653 78.8207 488.077 79.0126 487.419 79.0126C486.761 79.0126 486.157 78.8207 485.609 78.4367C485.115 78.0527 484.868 77.4768 484.868 76.7089V37.8734C484.868 37.1055 485.115 36.5295 485.609 36.1456C486.157 35.7616 486.87 35.5696 487.748 35.5696C489.558 35.5696 490.299 37.3249 489.97 40.8354ZM492.026 42.481C491.313 43.5781 490.792 44.8945 490.463 46.4304C490.134 47.9662 489.97 49.5844 489.97 51.2848C489.97 52.9304 490.161 54.4937 490.545 55.9747C490.929 57.4557 491.533 58.7721 492.356 59.924C494.111 62.5021 496.634 63.7911 499.925 63.7911C503.161 63.7911 505.575 62.4472 507.166 59.7595C508.482 57.5105 509.14 54.6582 509.14 51.2025C509.14 45.7721 507.577 42.0148 504.451 39.9304C503.299 39.1624 501.79 38.7785 499.925 38.7785C498.06 38.7785 496.47 39.1076 495.153 39.7658C493.837 40.424 492.794 41.3291 492.026 42.481Z" stroke="#F1F6FF" stroke-width="2"/>
</svg>
