<svg width="87" height="114" viewBox="0 0 87 114" fill="none" xmlns="http://www.w3.org/2000/svg">
<g clip-path="url(#clip0_724_136255)">
<path d="M16.377 32.3514C18.4284 32.3514 20.0914 30.6654 20.0914 28.5856C20.0914 26.5058 18.4284 24.8198 16.377 24.8198C14.3256 24.8198 12.6626 26.5058 12.6626 28.5856C12.6626 30.6654 14.3256 32.3514 16.377 32.3514Z" fill="#8FDAFF"/>
<path d="M15.0263 28.5857C15.0263 29.2703 14.6886 29.7838 14.1821 29.7838C13.6756 29.7838 13.3379 29.2703 13.3379 28.5857C13.3379 27.901 13.6756 27.3875 14.1821 27.3875C14.6886 27.3875 15.0263 27.901 15.0263 28.5857Z" fill="white"/>
<path d="M17.2212 52.2073C18.4334 52.2073 19.4161 51.211 19.4161 49.9821C19.4161 48.7531 18.4334 47.7568 17.2212 47.7568C16.009 47.7568 15.0264 48.7531 15.0264 49.9821C15.0264 51.211 16.009 52.2073 17.2212 52.2073Z" fill="#8FDAFF"/>
<path d="M16.377 49.9821C16.377 50.3244 16.2082 50.6667 15.8705 50.6667C15.5328 50.6667 15.364 50.3244 15.364 49.9821C15.364 49.6397 15.5328 49.2974 15.8705 49.2974C16.2082 49.2974 16.377 49.6397 16.377 49.9821Z" fill="white"/>
<path d="M75.3009 36.2882C75.3009 37.4864 74.2879 38.5134 73.106 38.5134C71.9241 38.5134 70.9111 37.4864 70.9111 36.2882C70.9111 35.09 71.9241 34.063 73.106 34.063C74.2879 34.063 75.3009 35.2612 75.3009 36.2882Z" fill="#8FDAFF"/>
<path d="M72.2618 36.2882C72.2618 36.6305 72.093 36.9729 71.7553 36.9729C71.4176 36.9729 71.2488 36.6305 71.2488 36.2882C71.2488 35.9459 71.4176 35.6035 71.7553 35.6035C72.093 35.6035 72.2618 35.9459 72.2618 36.2882Z" fill="white"/>
<path opacity="0.7" d="M0 0L1.35069 18.1441L8.27297 114H77.8334L84.7557 18.1441L86.1064 0H0Z" fill="#8FDAFF"/>
<path d="M4.89624 21.054L11.312 110.405C31.91 101.504 53.0145 101.847 74.6255 110.405L81.0413 21.054H4.89624Z" fill="#34B1ED"/>
<path d="M44.9104 55.1172C46.9618 55.1172 48.6248 53.4312 48.6248 51.3515C48.6248 49.2717 46.9618 47.5857 44.9104 47.5857C42.859 47.5857 41.196 49.2717 41.196 51.3515C41.196 53.4312 42.859 55.1172 44.9104 55.1172Z" fill="#8FDAFF"/>
<path d="M43.5597 51.3515C43.5597 52.0362 43.222 52.5497 42.7155 52.5497C42.209 52.5497 41.8713 52.0362 41.8713 51.3515C41.8713 50.6668 42.209 50.1533 42.7155 50.1533C43.0532 49.9821 43.5597 50.6668 43.5597 51.3515Z" fill="white"/>
<path d="M59.2615 66.5855C61.3129 66.5855 62.9759 64.8995 62.9759 62.8197C62.9759 60.7399 61.3129 59.054 59.2615 59.054C57.2101 59.054 55.5471 60.7399 55.5471 62.8197C55.5471 64.8995 57.2101 66.5855 59.2615 66.5855Z" fill="#8FDAFF"/>
<path d="M14.6834 38.5218C16.7348 38.5218 18.3978 36.8358 18.3978 34.756C18.3978 32.6762 16.7348 30.9902 14.6834 30.9902C12.632 30.9902 10.969 32.6762 10.969 34.756C10.969 36.8358 12.632 38.5218 14.6834 38.5218Z" fill="#8FDAFF"/>
<path d="M57.9108 62.6486C57.9108 63.3333 57.5731 63.8468 57.0666 63.8468C56.5601 63.8468 56.2224 63.3333 56.2224 62.6486C56.2224 61.9639 56.5601 61.4504 57.0666 61.4504C57.5731 61.4504 57.9108 61.9639 57.9108 62.6486Z" fill="white"/>
<path d="M13.3326 34.5849C13.3326 35.2696 12.995 35.7831 12.4885 35.7831C11.982 35.7831 11.6443 35.2696 11.6443 34.5849C11.6443 33.9002 11.982 33.3867 12.4885 33.3867C12.995 33.3867 13.3326 33.9002 13.3326 34.5849Z" fill="white"/>
<path d="M37.3128 34.7478C39.3642 34.7478 41.0272 33.0619 41.0272 30.9821C41.0272 28.9023 39.3642 27.2163 37.3128 27.2163C35.2614 27.2163 33.5984 28.9023 33.5984 30.9821C33.5984 33.0619 35.2614 34.7478 37.3128 34.7478Z" fill="#8FDAFF"/>
<path d="M35.962 30.811C35.962 31.4957 35.6244 32.0092 35.1179 32.0092C34.6114 32.0092 34.2737 31.4957 34.2737 30.811C34.2737 30.1263 34.6114 29.6128 35.1179 29.6128C35.4555 29.6128 35.962 30.1263 35.962 30.811Z" fill="white"/>
<path d="M44.9103 71.0361C44.9103 72.5766 43.7285 73.7748 42.2089 73.7748C40.6894 73.7748 39.5076 72.5766 39.5076 71.0361C39.5076 69.4956 40.6894 68.2974 42.2089 68.2974C43.7285 68.2974 44.9103 69.4956 44.9103 71.0361Z" fill="#8FDAFF"/>
<path d="M41.0272 71.0362C41.0272 71.5497 40.6895 71.892 40.3519 71.892C40.0142 71.892 39.6765 71.5497 39.6765 71.0362C39.6765 70.5226 40.0142 70.1803 40.3519 70.1803C40.8584 70.0091 41.0272 70.5226 41.0272 71.0362Z" fill="white"/>
<path d="M64.4953 78.2253C64.4953 79.7659 63.3134 80.9641 61.7939 80.9641C60.2744 80.9641 59.0925 79.7659 59.0925 78.2253C59.0925 76.6848 60.2744 75.4866 61.7939 75.4866C63.3134 75.4866 64.4953 76.6848 64.4953 78.2253Z" fill="#8FDAFF"/>
<path d="M60.1055 78.91C60.4785 78.91 60.7809 78.5268 60.7809 78.0541C60.7809 77.5814 60.4785 77.1982 60.1055 77.1982C59.7325 77.1982 59.4302 77.5814 59.4302 78.0541C59.4302 78.5268 59.7325 78.91 60.1055 78.91Z" fill="white"/>
<path d="M28.3644 77.1982C28.3644 78.7387 27.1826 79.937 25.663 79.937C24.1435 79.937 22.9617 78.7387 22.9617 77.1982C22.9617 75.6577 24.1435 74.4595 25.663 74.4595C27.1826 74.4595 28.3644 75.6577 28.3644 77.1982Z" fill="#8FDAFF"/>
<path d="M24.4813 77.027C24.4813 77.5405 24.1436 77.8829 23.806 77.8829C23.4683 77.8829 23.1306 77.5405 23.1306 77.027C23.1306 76.5135 23.4683 76.1711 23.806 76.1711C24.3125 76.1711 24.4813 76.5135 24.4813 77.027Z" fill="white"/>
<path d="M51.1574 38.3422C52.6494 38.3422 53.8588 37.116 53.8588 35.6035C53.8588 34.0909 52.6494 32.8647 51.1574 32.8647C49.6655 32.8647 48.4561 34.0909 48.4561 35.6035C48.4561 37.116 49.6655 38.3422 51.1574 38.3422Z" fill="#8FDAFF"/>
<path d="M50.1444 35.6035C50.1444 36.1171 49.8067 36.4594 49.469 36.4594C49.1314 36.4594 48.7937 36.1171 48.7937 35.6035C48.7937 35.09 49.1314 34.7477 49.469 34.7477C49.8067 34.5765 50.1444 35.09 50.1444 35.6035Z" fill="white"/>
<path d="M65.3395 27.5586C65.3395 29.0991 64.1577 30.2973 62.6381 30.2973C61.1186 30.2973 59.9368 29.0991 59.9368 27.5586C59.9368 26.018 61.1186 24.8198 62.6381 24.8198C64.1577 24.8198 65.3395 26.018 65.3395 27.5586Z" fill="#8FDAFF"/>
<path d="M61.4564 27.3873C61.4564 27.9009 61.1187 28.2432 60.7811 28.2432C60.4434 28.2432 60.1057 27.9009 60.1057 27.3873C60.1057 26.8738 60.4434 26.5315 60.7811 26.5315C61.2876 26.5315 61.4564 26.8738 61.4564 27.3873Z" fill="white"/>
<path d="M31.4035 42.9641C31.4035 44.5046 30.2216 45.7028 28.7021 45.7028C27.1826 45.7028 26.0007 44.5046 26.0007 42.9641C26.0007 41.4235 27.1826 40.2253 28.7021 40.2253C30.2216 40.2253 31.4035 41.4235 31.4035 42.9641Z" fill="#8FDAFF"/>
<path d="M15.2748 68.5932C15.2748 70.1338 14.093 71.332 12.5734 71.332C11.0539 71.332 9.87207 70.1338 9.87207 68.5932C9.87207 67.0527 11.0539 65.8545 12.5734 65.8545C14.093 65.8545 15.2748 67.0527 15.2748 68.5932Z" fill="#8FDAFF"/>
<path d="M27.6891 42.9641C27.6891 43.4777 27.3514 43.82 27.0137 43.82C26.6761 43.82 26.3384 43.4777 26.3384 42.9641C26.3384 42.4506 26.6761 42.1083 27.0137 42.1083C27.3514 41.9371 27.6891 42.4506 27.6891 42.9641Z" fill="white"/>
<path d="M11.5604 68.5933C11.5604 69.1068 11.2227 69.4491 10.8851 69.4491C10.5474 69.4491 10.2097 69.1068 10.2097 68.5933C10.2097 68.0798 10.5474 67.7374 10.8851 67.7374C11.2227 67.5663 11.5604 68.0798 11.5604 68.5933Z" fill="white"/>
<path d="M29.7152 58.7118C29.7152 59.91 28.7022 60.937 27.5203 60.937C26.3385 60.937 25.3254 59.91 25.3254 58.7118C25.3254 57.5136 26.3385 56.4866 27.5203 56.4866C28.871 56.4866 29.7152 57.5136 29.7152 58.7118Z" fill="#8FDAFF"/>
<path d="M26.845 58.7119C26.845 59.0542 26.6762 59.3966 26.3385 59.3966C26.0009 59.3966 25.832 59.0542 25.832 58.7119C25.832 58.3695 26.0009 58.0272 26.3385 58.0272C26.6762 57.856 26.845 58.1984 26.845 58.7119Z" fill="white"/>
<path d="M69.5604 50.4955C69.5604 51.6937 68.5474 52.7207 67.3655 52.7207C66.1837 52.7207 65.1707 51.6937 65.1707 50.4955C65.1707 49.2973 66.1837 48.2703 67.3655 48.2703C68.5474 48.2703 69.5604 49.2973 69.5604 50.4955Z" fill="#8FDAFF"/>
<path d="M66.6903 50.3243C66.6903 50.6667 66.5214 51.009 66.1838 51.009C65.8461 51.009 65.6772 50.6667 65.6772 50.3243C65.6772 49.982 65.8461 49.6396 66.1838 49.6396C66.3526 49.6396 66.6903 49.982 66.6903 50.3243Z" fill="white"/>
<g opacity="0.05">
<path d="M7.76636 107.495L8.27287 114H77.8333L81.5477 62.991C71.7552 89.6937 33.5983 107.667 7.76636 107.495Z" fill="#1D1D1B"/>
<path opacity="0.7" d="M7.76636 107.495L8.27287 114H77.8333L81.5477 62.991C71.7552 89.6937 33.5983 107.667 7.76636 107.495Z" fill="#3192E7"/>
</g>
</g>
<defs>
<clipPath id="clip0_724_136255">
<rect width="86.1064" height="114" fill="white"/>
</clipPath>
</defs>
</svg>
