<svg width="102" height="134" viewBox="0 0 102 134" fill="none" xmlns="http://www.w3.org/2000/svg">
<g clip-path="url(#clip0_724_136312)">
<path d="M19.3568 38.0269C21.7681 38.0269 23.7228 36.0451 23.7228 33.6005C23.7228 31.1559 21.7681 29.1741 19.3568 29.1741C16.9455 29.1741 14.9907 31.1559 14.9907 33.6005C14.9907 36.0451 16.9455 38.0269 19.3568 38.0269Z" fill="#8FDAFF"/>
<path d="M17.7692 33.6005C17.7692 34.4054 17.3723 35.009 16.7769 35.009C16.1816 35.009 15.7847 34.4054 15.7847 33.6005C15.7847 32.7957 16.1816 32.1921 16.7769 32.1921C17.3723 32.1921 17.7692 32.7957 17.7692 33.6005Z" fill="white"/>
<path d="M20.349 61.3665C21.7738 61.3665 22.9289 60.1954 22.9289 58.7509C22.9289 57.3063 21.7738 56.1353 20.349 56.1353C18.9241 56.1353 17.769 57.3063 17.769 58.7509C17.769 60.1954 18.9241 61.3665 20.349 61.3665Z" fill="#8FDAFF"/>
<path d="M19.3568 58.7509C19.3568 59.1533 19.1583 59.5557 18.7614 59.5557C18.3645 59.5557 18.166 59.1533 18.166 58.7509C18.166 58.3485 18.3645 57.946 18.7614 57.946C19.1583 57.946 19.3568 58.3485 19.3568 58.7509Z" fill="white"/>
<path d="M88.618 42.6547C88.618 44.0631 87.4273 45.2703 86.0381 45.2703C84.6489 45.2703 83.4581 44.0631 83.4581 42.6547C83.4581 41.2463 84.6489 40.0391 86.0381 40.0391C87.4273 40.0391 88.618 41.4475 88.618 42.6547Z" fill="#8FDAFF"/>
<path d="M85.0458 42.6547C85.0458 43.0571 84.8474 43.4595 84.4505 43.4595C84.0536 43.4595 83.8551 43.0571 83.8551 42.6547C83.8551 42.2523 84.0536 41.8499 84.4505 41.8499C84.8474 41.8499 85.0458 42.2523 85.0458 42.6547Z" fill="white"/>
<path opacity="0.7" d="M0.106445 0L1.6941 21.3273L9.83081 134H91.5948L99.7316 21.3273L101.319 0H0.106445Z" fill="#8FDAFF"/>
<path d="M5.86157 24.7478L13.4029 129.775C37.6146 119.312 62.4216 119.715 87.8241 129.775L95.3654 24.7478H5.86157Z" fill="#34B1ED"/>
<path d="M52.8958 64.7867C55.3071 64.7867 57.2619 62.8049 57.2619 60.3603C57.2619 57.9156 55.3071 55.9338 52.8958 55.9338C50.4845 55.9338 48.5298 57.9156 48.5298 60.3603C48.5298 62.8049 50.4845 64.7867 52.8958 64.7867Z" fill="#8FDAFF"/>
<path d="M51.3082 60.3603C51.3082 61.1651 50.9113 61.7687 50.3159 61.7687C49.7205 61.7687 49.3236 61.1651 49.3236 60.3603C49.3236 59.5555 49.7205 58.9519 50.3159 58.9519C50.7128 58.7507 51.3082 59.5555 51.3082 60.3603Z" fill="white"/>
<path d="M69.7645 78.2674C72.1758 78.2674 74.1305 76.2856 74.1305 73.841C74.1305 71.3963 72.1758 69.4146 69.7645 69.4146C67.3532 69.4146 65.3984 71.3963 65.3984 73.841C65.3984 76.2856 67.3532 78.2674 69.7645 78.2674Z" fill="#8FDAFF"/>
<path d="M17.3658 45.2801C19.7771 45.2801 21.7318 43.2983 21.7318 40.8537C21.7318 38.409 19.7771 36.4272 17.3658 36.4272C14.9545 36.4272 12.9998 38.409 12.9998 40.8537C12.9998 43.2983 14.9545 45.2801 17.3658 45.2801Z" fill="#8FDAFF"/>
<path d="M68.1769 73.6396C68.1769 74.4444 67.78 75.048 67.1847 75.048C66.5893 75.048 66.1924 74.4444 66.1924 73.6396C66.1924 72.8348 66.5893 72.2312 67.1847 72.2312C67.78 72.2312 68.1769 72.8348 68.1769 73.6396Z" fill="white"/>
<path d="M15.7783 40.6525C15.7783 41.4573 15.3814 42.061 14.786 42.061C14.1906 42.061 13.7937 41.4573 13.7937 40.6525C13.7937 39.8477 14.1906 39.2441 14.786 39.2441C15.3814 39.2441 15.7783 39.8477 15.7783 40.6525Z" fill="white"/>
<path d="M43.9653 40.8438C46.3766 40.8438 48.3313 38.862 48.3313 36.4174C48.3313 33.9727 46.3766 31.991 43.9653 31.991C41.554 31.991 39.5992 33.9727 39.5992 36.4174C39.5992 38.862 41.554 40.8438 43.9653 40.8438Z" fill="#8FDAFF"/>
<path d="M42.3776 36.2163C42.3776 37.0211 41.9807 37.6247 41.3853 37.6247C40.79 37.6247 40.3931 37.0211 40.3931 36.2163C40.3931 35.4115 40.79 34.8079 41.3853 34.8079C41.7823 34.8079 42.3776 35.4115 42.3776 36.2163Z" fill="white"/>
<path d="M52.8959 83.4985C52.8959 85.3093 51.5067 86.7177 49.7206 86.7177C47.9345 86.7177 46.5453 85.3093 46.5453 83.4985C46.5453 81.6877 47.9345 80.2793 49.7206 80.2793C51.5067 80.2793 52.8959 81.6877 52.8959 83.4985Z" fill="#8FDAFF"/>
<path d="M48.3314 83.4986C48.3314 84.1022 47.9345 84.5046 47.5376 84.5046C47.1407 84.5046 46.7438 84.1022 46.7438 83.4986C46.7438 82.895 47.1407 82.4926 47.5376 82.4926C48.133 82.2914 48.3314 82.895 48.3314 83.4986Z" fill="white"/>
<path d="M75.9168 91.949C75.9168 93.7598 74.5276 95.1682 72.7415 95.1682C70.9554 95.1682 69.5662 93.7598 69.5662 91.949C69.5662 90.1381 70.9554 88.7297 72.7415 88.7297C74.5276 88.7297 75.9168 90.1381 75.9168 91.949Z" fill="#8FDAFF"/>
<path d="M70.757 92.7537C71.1954 92.7537 71.5508 92.3033 71.5508 91.7477C71.5508 91.1921 71.1954 90.7417 70.757 90.7417C70.3185 90.7417 69.9631 91.1921 69.9631 91.7477C69.9631 92.3033 70.3185 92.7537 70.757 92.7537Z" fill="white"/>
<path d="M33.447 90.7417C33.447 92.5525 32.0578 93.9609 30.2717 93.9609C28.4856 93.9609 27.0964 92.5525 27.0964 90.7417C27.0964 88.9309 28.4856 87.5225 30.2717 87.5225C32.0578 87.5225 33.447 88.9309 33.447 90.7417Z" fill="#8FDAFF"/>
<path d="M28.8826 90.5404C28.8826 91.144 28.4857 91.5464 28.0887 91.5464C27.6918 91.5464 27.2949 91.144 27.2949 90.5404C27.2949 89.9368 27.6918 89.5344 28.0887 89.5344C28.6841 89.5344 28.8826 89.9368 28.8826 90.5404Z" fill="white"/>
<path d="M60.2388 45.0691C61.9924 45.0691 63.4141 43.6278 63.4141 41.8498C63.4141 40.0719 61.9924 38.6306 60.2388 38.6306C58.4851 38.6306 57.0635 40.0719 57.0635 41.8498C57.0635 43.6278 58.4851 45.0691 60.2388 45.0691Z" fill="#8FDAFF"/>
<path d="M59.048 41.8499C59.048 42.4535 58.6511 42.8559 58.2542 42.8559C57.8572 42.8559 57.4603 42.4535 57.4603 41.8499C57.4603 41.2463 57.8572 40.8439 58.2542 40.8439C58.6511 40.6427 59.048 41.2463 59.048 41.8499Z" fill="white"/>
<path d="M76.9091 32.3933C76.9091 34.2041 75.5199 35.6125 73.7338 35.6125C71.9477 35.6125 70.5585 34.2041 70.5585 32.3933C70.5585 30.5825 71.9477 29.1741 73.7338 29.1741C75.5199 29.1741 76.9091 30.5825 76.9091 32.3933Z" fill="#8FDAFF"/>
<path d="M72.3446 32.192C72.3446 32.7956 71.9477 33.198 71.5508 33.198C71.1539 33.198 70.757 32.7956 70.757 32.192C70.757 31.5884 71.1539 31.186 71.5508 31.186C72.1462 31.186 72.3446 31.5884 72.3446 32.192Z" fill="white"/>
<path d="M37.0193 50.5014C37.0193 52.3123 35.6301 53.7207 33.844 53.7207C32.0579 53.7207 30.6687 52.3123 30.6687 50.5014C30.6687 48.6906 32.0579 47.2822 33.844 47.2822C35.6301 47.2822 37.0193 48.6906 37.0193 50.5014Z" fill="#8FDAFF"/>
<path d="M18.0611 80.6269C18.0611 82.4377 16.6719 83.8462 14.8858 83.8462C13.0996 83.8462 11.7104 82.4377 11.7104 80.6269C11.7104 78.8161 13.0996 77.4077 14.8858 77.4077C16.6719 77.4077 18.0611 78.8161 18.0611 80.6269Z" fill="#8FDAFF"/>
<path d="M32.6532 50.5015C32.6532 51.1051 32.2563 51.5075 31.8594 51.5075C31.4625 51.5075 31.0656 51.1051 31.0656 50.5015C31.0656 49.8979 31.4625 49.4955 31.8594 49.4955C32.2563 49.2943 32.6532 49.8979 32.6532 50.5015Z" fill="white"/>
<path d="M13.6951 80.627C13.6951 81.2306 13.2982 81.633 12.9012 81.633C12.5043 81.633 12.1074 81.2306 12.1074 80.627C12.1074 80.0234 12.5043 79.621 12.9012 79.621C13.2982 79.4198 13.6951 80.0234 13.6951 80.627Z" fill="white"/>
<path d="M35.0347 69.0121C35.0347 70.4205 33.844 71.6277 32.4548 71.6277C31.0656 71.6277 29.8749 70.4205 29.8749 69.0121C29.8749 67.6037 31.0656 66.3965 32.4548 66.3965C34.0425 66.3965 35.0347 67.6037 35.0347 69.0121Z" fill="#8FDAFF"/>
<path d="M31.661 69.0122C31.661 69.4146 31.4625 69.817 31.0656 69.817C30.6687 69.817 30.4702 69.4146 30.4702 69.0122C30.4702 68.6098 30.6687 68.2074 31.0656 68.2074C31.4625 68.0062 31.661 68.4086 31.661 69.0122Z" fill="white"/>
<path d="M81.8704 59.3544C81.8704 60.7628 80.6797 61.97 79.2905 61.97C77.9013 61.97 76.7106 60.7628 76.7106 59.3544C76.7106 57.946 77.9013 56.7388 79.2905 56.7388C80.6797 56.7388 81.8704 57.946 81.8704 59.3544Z" fill="#8FDAFF"/>
<path d="M78.4966 59.1532C78.4966 59.5556 78.2982 59.958 77.9013 59.958C77.5044 59.958 77.3059 59.5556 77.3059 59.1532C77.3059 58.7508 77.5044 58.3484 77.9013 58.3484C78.0997 58.3484 78.4966 58.7508 78.4966 59.1532Z" fill="white"/>
<g opacity="0.05">
<path d="M9.23535 126.354L9.83072 134H91.5948L95.9608 74.042C84.4503 105.429 39.5992 126.556 9.23535 126.354Z" fill="#1D1D1B"/>
<path opacity="0.7" d="M9.23535 126.354L9.83072 134H91.5948L95.9608 74.042C84.4503 105.429 39.5992 126.556 9.23535 126.354Z" fill="#3192E7"/>
</g>
</g>
<defs>
<clipPath id="clip0_724_136312">
<rect width="101.213" height="134" fill="white" transform="translate(0.106445)"/>
</clipPath>
</defs>
</svg>
