<svg width="117" height="154" viewBox="0 0 117 154" fill="none" xmlns="http://www.w3.org/2000/svg">
<g clip-path="url(#clip0_724_136369)">
<path d="M22.4427 43.7027C25.2139 43.7027 27.4604 41.4252 27.4604 38.6157C27.4604 35.8061 25.2139 33.5286 22.4427 33.5286C19.6715 33.5286 17.425 35.8061 17.425 38.6157C17.425 41.4252 19.6715 43.7027 22.4427 43.7027Z" fill="#8FDAFF"/>
<path d="M20.6182 38.6157C20.6182 39.5406 20.162 40.2343 19.4778 40.2343C18.7936 40.2343 18.3374 39.5406 18.3374 38.6157C18.3374 37.6908 18.7936 36.9971 19.4778 36.9971C20.162 36.9971 20.6182 37.6908 20.6182 38.6157Z" fill="white"/>
<path d="M23.5832 70.5254C25.2207 70.5254 26.5482 69.1796 26.5482 67.5194C26.5482 65.8593 25.2207 64.5134 23.5832 64.5134C21.9456 64.5134 20.6182 65.8593 20.6182 67.5194C20.6182 69.1796 21.9456 70.5254 23.5832 70.5254Z" fill="#8FDAFF"/>
<path d="M22.4428 67.5194C22.4428 67.9819 22.2147 68.4443 21.7586 68.4443C21.3024 68.4443 21.0743 67.9819 21.0743 67.5194C21.0743 67.0569 21.3024 66.5945 21.7586 66.5945C22.2147 66.5945 22.4428 67.0569 22.4428 67.5194Z" fill="white"/>
<path d="M102.041 49.0211C102.041 50.6398 100.673 52.0271 99.0763 52.0271C97.4798 52.0271 96.1113 50.6398 96.1113 49.0211C96.1113 47.4025 97.4798 46.0151 99.0763 46.0151C100.673 46.0151 102.041 47.6338 102.041 49.0211Z" fill="#8FDAFF"/>
<path d="M97.936 49.0211C97.936 49.4836 97.7079 49.946 97.2517 49.946C96.7956 49.946 96.5675 49.4836 96.5675 49.0211C96.5675 48.5587 96.7956 48.0962 97.2517 48.0962C97.7079 48.0962 97.936 48.5587 97.936 49.0211Z" fill="white"/>
<path opacity="0.7" d="M0.319336 0L2.14395 24.5105L11.4951 154H105.463L114.814 24.5105L116.638 0H0.319336Z" fill="#8FDAFF"/>
<path d="M6.93359 28.4414L15.6005 149.144C43.4259 137.12 71.9355 137.583 101.129 149.144L109.796 28.4414H6.93359Z" fill="#34B1ED"/>
<path d="M60.9878 74.4564C63.759 74.4564 66.0055 72.1788 66.0055 69.3693C66.0055 66.5598 63.759 64.2822 60.9878 64.2822C58.2166 64.2822 55.9701 66.5598 55.9701 69.3693C55.9701 72.1788 58.2166 74.4564 60.9878 74.4564Z" fill="#8FDAFF"/>
<path d="M59.1632 69.3694C59.1632 70.2943 58.7071 70.988 58.0228 70.988C57.3386 70.988 56.8824 70.2943 56.8824 69.3694C56.8824 68.4445 57.3386 67.7508 58.0228 67.7508C58.479 67.5195 59.1632 68.4445 59.1632 69.3694Z" fill="white"/>
<path d="M80.3744 89.9488C83.1456 89.9488 85.3921 87.6713 85.3921 84.8617C85.3921 82.0522 83.1456 79.7747 80.3744 79.7747C77.6032 79.7747 75.3567 82.0522 75.3567 84.8617C75.3567 87.6713 77.6032 89.9488 80.3744 89.9488Z" fill="#8FDAFF"/>
<path d="M20.1549 52.0382C22.9261 52.0382 25.1726 49.7606 25.1726 46.9511C25.1726 44.1416 22.9261 41.864 20.1549 41.864C17.3837 41.864 15.1372 44.1416 15.1372 46.9511C15.1372 49.7606 17.3837 52.0382 20.1549 52.0382Z" fill="#8FDAFF"/>
<path d="M78.5498 84.6306C78.5498 85.5555 78.0937 86.2492 77.4094 86.2492C76.7252 86.2492 76.269 85.5555 76.269 84.6306C76.269 83.7056 76.7252 83.012 77.4094 83.012C78.0937 83.012 78.5498 83.7056 78.5498 84.6306Z" fill="white"/>
<path d="M18.3303 46.7199C18.3303 47.6449 17.8742 48.3386 17.1899 48.3386C16.5057 48.3386 16.0496 47.6449 16.0496 46.7199C16.0496 45.795 16.5057 45.1013 17.1899 45.1013C17.8742 45.1013 18.3303 45.795 18.3303 46.7199Z" fill="white"/>
<path d="M50.7244 46.94C53.4955 46.94 55.742 44.6625 55.742 41.853C55.742 39.0434 53.4955 36.7659 50.7244 36.7659C47.9532 36.7659 45.7067 39.0434 45.7067 41.853C45.7067 44.6625 47.9532 46.94 50.7244 46.94Z" fill="#8FDAFF"/>
<path d="M48.8998 41.6218C48.8998 42.5467 48.4436 43.2404 47.7594 43.2404C47.0752 43.2404 46.619 42.5467 46.619 41.6218C46.619 40.6969 47.0752 40.0032 47.7594 40.0032C48.2156 40.0032 48.8998 40.6969 48.8998 41.6218Z" fill="white"/>
<path d="M60.9878 95.9609C60.9878 98.042 59.3913 99.6606 57.3386 99.6606C55.2859 99.6606 53.6893 98.042 53.6893 95.9609C53.6893 93.8798 55.2859 92.2612 57.3386 92.2612C59.3913 92.2612 60.9878 93.8798 60.9878 95.9609Z" fill="#8FDAFF"/>
<path d="M55.742 95.961C55.742 96.6547 55.2858 97.1172 54.8297 97.1172C54.3735 97.1172 53.9174 96.6547 53.9174 95.961C53.9174 95.2673 54.3735 94.8049 54.8297 94.8049C55.5139 94.5736 55.742 95.2673 55.742 95.961Z" fill="white"/>
<path d="M87.4447 105.673C87.4447 107.754 85.8482 109.372 83.7955 109.372C81.7428 109.372 80.1462 107.754 80.1462 105.673C80.1462 103.592 81.7428 101.973 83.7955 101.973C85.8482 101.973 87.4447 103.592 87.4447 105.673Z" fill="#8FDAFF"/>
<path d="M81.5147 106.597C82.0186 106.597 82.427 106.08 82.427 105.441C82.427 104.803 82.0186 104.285 81.5147 104.285C81.0109 104.285 80.6024 104.803 80.6024 105.441C80.6024 106.08 81.0109 106.597 81.5147 106.597Z" fill="white"/>
<path d="M38.6362 104.285C38.6362 106.366 37.0397 107.985 34.987 107.985C32.9343 107.985 31.3378 106.366 31.3378 104.285C31.3378 102.204 32.9343 100.586 34.987 100.586C37.0397 100.586 38.6362 102.204 38.6362 104.285Z" fill="#8FDAFF"/>
<path d="M33.3904 104.054C33.3904 104.748 32.9343 105.21 32.4781 105.21C32.022 105.21 31.5658 104.748 31.5658 104.054C31.5658 103.36 32.022 102.898 32.4781 102.898C33.1623 102.898 33.3904 103.36 33.3904 104.054Z" fill="white"/>
<path d="M69.4266 51.7959C71.442 51.7959 73.0758 50.1395 73.0758 48.0962C73.0758 46.0529 71.442 44.3965 69.4266 44.3965C67.4112 44.3965 65.7773 46.0529 65.7773 48.0962C65.7773 50.1395 67.4112 51.7959 69.4266 51.7959Z" fill="#8FDAFF"/>
<path d="M68.0581 48.0963C68.0581 48.79 67.602 49.2524 67.1458 49.2524C66.6897 49.2524 66.2335 48.79 66.2335 48.0963C66.2335 47.4026 66.6897 46.9401 67.1458 46.9401C67.602 46.7089 68.0581 47.4026 68.0581 48.0963Z" fill="white"/>
<path d="M88.5851 37.2283C88.5851 39.3093 86.9885 40.928 84.9358 40.928C82.8832 40.928 81.2866 39.3093 81.2866 37.2283C81.2866 35.1472 82.8832 33.5286 84.9358 33.5286C86.9885 33.5286 88.5851 35.1472 88.5851 37.2283Z" fill="#8FDAFF"/>
<path d="M83.3393 36.997C83.3393 37.6907 82.8831 38.1531 82.427 38.1531C81.9708 38.1531 81.5146 37.6907 81.5146 36.997C81.5146 36.3033 81.9708 35.8408 82.427 35.8408C83.1112 35.8408 83.3393 36.3033 83.3393 36.997Z" fill="white"/>
<path d="M42.7416 58.0391C42.7416 60.1201 41.145 61.7388 39.0923 61.7388C37.0397 61.7388 35.4431 60.1201 35.4431 58.0391C35.4431 55.958 37.0397 54.3394 39.0923 54.3394C41.145 54.3394 42.7416 55.958 42.7416 58.0391Z" fill="#8FDAFF"/>
<path d="M20.9539 92.6609C20.9539 94.742 19.3573 96.3606 17.3046 96.3606C15.2519 96.3606 13.6554 94.742 13.6554 92.6609C13.6554 90.5798 15.2519 88.9612 17.3046 88.9612C19.3573 88.9612 20.9539 90.5798 20.9539 92.6609Z" fill="#8FDAFF"/>
<path d="M37.7239 58.0392C37.7239 58.7329 37.2678 59.1953 36.8116 59.1953C36.3554 59.1953 35.8993 58.7329 35.8993 58.0392C35.8993 57.3455 36.3554 56.883 36.8116 56.883C37.2678 56.6518 37.7239 57.3455 37.7239 58.0392Z" fill="white"/>
<path d="M15.9362 92.661C15.9362 93.3547 15.48 93.8171 15.0239 93.8171C14.5677 93.8171 14.1116 93.3547 14.1116 92.661C14.1116 91.9673 14.5677 91.5048 15.0239 91.5048C15.48 91.2736 15.9362 91.9673 15.9362 92.661Z" fill="white"/>
<path d="M40.4609 79.3124C40.4609 80.931 39.0924 82.3184 37.4959 82.3184C35.8993 82.3184 34.5309 80.931 34.5309 79.3124C34.5309 77.6938 35.8993 76.3064 37.4959 76.3064C39.3205 76.3064 40.4609 77.6938 40.4609 79.3124Z" fill="#8FDAFF"/>
<path d="M36.5835 79.3125C36.5835 79.7749 36.3555 80.2374 35.8993 80.2374C35.4432 80.2374 35.2151 79.7749 35.2151 79.3125C35.2151 78.85 35.4432 78.3875 35.8993 78.3875C36.3555 78.1563 36.5835 78.6188 36.5835 79.3125Z" fill="white"/>
<path d="M94.2869 68.2133C94.2869 69.8319 92.9185 71.2193 91.3219 71.2193C89.7254 71.2193 88.3569 69.8319 88.3569 68.2133C88.3569 66.5947 89.7254 65.2073 91.3219 65.2073C92.9185 65.2073 94.2869 66.5947 94.2869 68.2133Z" fill="#8FDAFF"/>
<path d="M90.4096 67.9821C90.4096 68.4445 90.1815 68.907 89.7254 68.907C89.2692 68.907 89.0411 68.4445 89.0411 67.9821C89.0411 67.5196 89.2692 67.0571 89.7254 67.0571C89.9534 67.0571 90.4096 67.5196 90.4096 67.9821Z" fill="white"/>
<g opacity="0.05">
<path d="M10.8109 145.213L11.4951 154H105.463L110.48 85.093C97.252 121.165 45.7067 145.444 10.8109 145.213Z" fill="#1D1D1B"/>
<path opacity="0.7" d="M10.8109 145.213L11.4951 154H105.463L110.48 85.093C97.252 121.165 45.7067 145.444 10.8109 145.213Z" fill="#3192E7"/>
</g>
</g>
<defs>
<clipPath id="clip0_724_136369">
<rect width="116.319" height="154" fill="white" transform="translate(0.319336)"/>
</clipPath>
</defs>
</svg>
