<svg width="129" height="169" viewBox="0 0 129 169" fill="none" xmlns="http://www.w3.org/2000/svg">
<g clip-path="url(#clip0_724_136483)">
<path d="M24.9169 47.9594C27.9581 47.9594 30.4234 45.4599 30.4234 42.3768C30.4234 39.2936 27.9581 36.7942 24.9169 36.7942C21.8758 36.7942 19.4105 39.2936 19.4105 42.3768C19.4105 45.4599 21.8758 47.9594 24.9169 47.9594Z" fill="#8FDAFF"/>
<path d="M22.9147 42.3769C22.9147 43.3919 22.4141 44.1531 21.6632 44.1531C20.9123 44.1531 20.4117 43.3919 20.4117 42.3769C20.4117 41.3618 20.9123 40.6006 21.6632 40.6006C22.4141 40.6006 22.9147 41.3618 22.9147 42.3769Z" fill="white"/>
<path d="M26.1685 77.395C27.9655 77.395 29.4223 75.918 29.4223 74.0962C29.4223 72.2743 27.9655 70.7974 26.1685 70.7974C24.3714 70.7974 22.9147 72.2743 22.9147 74.0962C22.9147 75.918 24.3714 77.395 26.1685 77.395Z" fill="#8FDAFF"/>
<path d="M24.917 74.0961C24.917 74.6036 24.6667 75.1111 24.1662 75.1111C23.6656 75.1111 23.4153 74.6036 23.4153 74.0961C23.4153 73.5886 23.6656 73.0811 24.1662 73.0811C24.6667 73.0811 24.917 73.5886 24.917 74.0961Z" fill="white"/>
<path d="M112.269 53.7959C112.269 55.5721 110.767 57.0947 109.015 57.0947C107.263 57.0947 105.761 55.5721 105.761 53.7959C105.761 52.0196 107.263 50.4971 109.015 50.4971C110.767 50.4971 112.269 52.2733 112.269 53.7959Z" fill="#8FDAFF"/>
<path d="M107.764 53.7958C107.764 54.3033 107.513 54.8108 107.013 54.8108C106.512 54.8108 106.262 54.3033 106.262 53.7958C106.262 53.2883 106.512 52.7808 107.013 52.7808C107.513 52.7808 107.764 53.2883 107.764 53.7958Z" fill="white"/>
<path opacity="0.7" d="M0.638672 0L2.64101 26.8979L12.903 169H116.023L126.285 26.8979L128.288 0H0.638672Z" fill="#8FDAFF"/>
<path d="M7.89709 31.2117L17.4082 163.671C47.9438 150.476 79.2303 150.983 111.268 163.671L120.779 31.2117H7.89709Z" fill="#34B1ED"/>
<path d="M67.2164 81.7086C70.2575 81.7086 72.7228 79.2092 72.7228 76.126C72.7228 73.0429 70.2575 70.5435 67.2164 70.5435C64.1753 70.5435 61.71 73.0429 61.71 76.126C61.71 79.2092 64.1753 81.7086 67.2164 81.7086Z" fill="#8FDAFF"/>
<path d="M65.2141 76.126C65.2141 77.141 64.7135 77.9023 63.9626 77.9023C63.2118 77.9023 62.7112 77.141 62.7112 76.126C62.7112 75.111 63.2118 74.3497 63.9626 74.3497C64.4632 74.096 65.2141 75.111 65.2141 76.126Z" fill="white"/>
<path d="M88.4912 98.7103C91.5323 98.7103 93.9976 96.2109 93.9976 93.1278C93.9976 90.0446 91.5323 87.5452 88.4912 87.5452C85.45 87.5452 82.9847 90.0446 82.9847 93.1278C82.9847 96.2109 85.45 98.7103 88.4912 98.7103Z" fill="#8FDAFF"/>
<path d="M22.4062 57.1071C25.4473 57.1071 27.9126 54.6077 27.9126 51.5245C27.9126 48.4413 25.4473 45.9419 22.4062 45.9419C19.3651 45.9419 16.8998 48.4413 16.8998 51.5245C16.8998 54.6077 19.3651 57.1071 22.4062 57.1071Z" fill="#8FDAFF"/>
<path d="M86.4889 92.8739C86.4889 93.8889 85.9883 94.6502 85.2374 94.6502C84.4865 94.6502 83.986 93.8889 83.986 92.8739C83.986 91.8589 84.4865 91.0977 85.2374 91.0977C85.9883 91.0977 86.4889 91.8589 86.4889 92.8739Z" fill="white"/>
<path d="M20.4039 51.2707C20.4039 52.2857 19.9033 53.0469 19.1525 53.0469C18.4016 53.0469 17.901 52.2857 17.901 51.2707C17.901 50.2556 18.4016 49.4944 19.1525 49.4944C19.9033 49.4944 20.4039 50.2556 20.4039 51.2707Z" fill="white"/>
<path d="M55.9532 51.5121C58.9943 51.5121 61.4596 49.0127 61.4596 45.9295C61.4596 42.8463 58.9943 40.3469 55.9532 40.3469C52.9121 40.3469 50.4468 42.8463 50.4468 45.9295C50.4468 49.0127 52.9121 51.5121 55.9532 51.5121Z" fill="#8FDAFF"/>
<path d="M53.9509 45.6757C53.9509 46.6907 53.4503 47.452 52.6995 47.452C51.9486 47.452 51.448 46.6907 51.448 45.6757C51.448 44.6607 51.9486 43.8994 52.6995 43.8994C53.2 43.8994 53.9509 44.6607 53.9509 45.6757Z" fill="white"/>
<path d="M67.2164 105.308C67.2164 107.592 65.4643 109.368 63.2117 109.368C60.9591 109.368 59.207 107.592 59.207 105.308C59.207 103.024 60.9591 101.248 63.2117 101.248C65.4643 101.248 67.2164 103.024 67.2164 105.308Z" fill="#8FDAFF"/>
<path d="M61.4596 105.308C61.4596 106.069 60.959 106.577 60.4584 106.577C59.9579 106.577 59.4573 106.069 59.4573 105.308C59.4573 104.547 59.9579 104.039 60.4584 104.039C61.2093 103.785 61.4596 104.547 61.4596 105.308Z" fill="white"/>
<path d="M96.2502 115.966C96.2502 118.249 94.4981 120.026 92.2455 120.026C89.9929 120.026 88.2408 118.249 88.2408 115.966C88.2408 113.682 89.9929 111.906 92.2455 111.906C94.4981 111.906 96.2502 113.682 96.2502 115.966Z" fill="#8FDAFF"/>
<path d="M89.7426 116.981C90.2955 116.981 90.7438 116.413 90.7438 115.712C90.7438 115.011 90.2955 114.443 89.7426 114.443C89.1897 114.443 88.7415 115.011 88.7415 115.712C88.7415 116.413 89.1897 116.981 89.7426 116.981Z" fill="white"/>
<path d="M42.6877 114.443C42.6877 116.727 40.9356 118.503 38.683 118.503C36.4304 118.503 34.6783 116.727 34.6783 114.443C34.6783 112.159 36.4304 110.383 38.683 110.383C40.9356 110.383 42.6877 112.159 42.6877 114.443Z" fill="#8FDAFF"/>
<path d="M36.9309 114.189C36.9309 114.95 36.4303 115.458 35.9298 115.458C35.4292 115.458 34.9286 114.95 34.9286 114.189C34.9286 113.428 35.4292 112.92 35.9298 112.92C36.6806 112.92 36.9309 113.428 36.9309 114.189Z" fill="white"/>
<path d="M76.4772 56.8408C78.6889 56.8408 80.4819 55.0231 80.4819 52.7808C80.4819 50.5385 78.6889 48.7207 76.4772 48.7207C74.2655 48.7207 72.4725 50.5385 72.4725 52.7808C72.4725 55.0231 74.2655 56.8408 76.4772 56.8408Z" fill="#8FDAFF"/>
<path d="M74.9755 52.7807C74.9755 53.542 74.4749 54.0495 73.9743 54.0495C73.4737 54.0495 72.9731 53.542 72.9731 52.7807C72.9731 52.0194 73.4737 51.5119 73.9743 51.5119C74.4749 51.2582 74.9755 52.0194 74.9755 52.7807Z" fill="white"/>
<path d="M97.5017 40.8543C97.5017 43.138 95.7496 44.9143 93.497 44.9143C91.2444 44.9143 89.4923 43.138 89.4923 40.8543C89.4923 38.5705 91.2444 36.7942 93.497 36.7942C95.7496 36.7942 97.5017 38.5705 97.5017 40.8543Z" fill="#8FDAFF"/>
<path d="M91.7449 40.6006C91.7449 41.3618 91.2443 41.8693 90.7437 41.8693C90.2431 41.8693 89.7426 41.3618 89.7426 40.6006C89.7426 39.8393 90.2431 39.3318 90.7437 39.3318C91.4946 39.3318 91.7449 39.8393 91.7449 40.6006Z" fill="white"/>
<path d="M47.1929 63.6921C47.1929 65.9759 45.4409 67.7522 43.1883 67.7522C40.9356 67.7522 39.1836 65.9759 39.1836 63.6921C39.1836 61.4084 40.9356 59.6321 43.1883 59.6321C45.4409 59.6321 47.1929 61.4084 47.1929 63.6921Z" fill="#8FDAFF"/>
<path d="M23.283 101.686C23.283 103.97 21.531 105.746 19.2784 105.746C17.0257 105.746 15.2737 103.97 15.2737 101.686C15.2737 99.4025 17.0257 97.6262 19.2784 97.6262C21.531 97.6262 23.283 99.4025 23.283 101.686Z" fill="#8FDAFF"/>
<path d="M41.6865 63.6921C41.6865 64.4533 41.186 64.9608 40.6854 64.9608C40.1848 64.9608 39.6842 64.4533 39.6842 63.6921C39.6842 62.9308 40.1848 62.4233 40.6854 62.4233C41.186 62.1696 41.6865 62.9308 41.6865 63.6921Z" fill="white"/>
<path d="M17.7766 101.686C17.7766 102.447 17.276 102.955 16.7755 102.955C16.2749 102.955 15.7743 102.447 15.7743 101.686C15.7743 100.925 16.2749 100.417 16.7755 100.417C17.276 100.164 17.7766 100.925 17.7766 101.686Z" fill="white"/>
<path d="M44.6901 87.0376C44.6901 88.8138 43.1883 90.3364 41.4363 90.3364C39.6842 90.3364 38.1825 88.8138 38.1825 87.0376C38.1825 85.2613 39.6842 83.7388 41.4363 83.7388C43.4386 83.7388 44.6901 85.2613 44.6901 87.0376Z" fill="#8FDAFF"/>
<path d="M40.4351 87.0376C40.4351 87.5451 40.1848 88.0526 39.6842 88.0526C39.1836 88.0526 38.9333 87.5451 38.9333 87.0376C38.9333 86.5301 39.1836 86.0226 39.6842 86.0226C40.1848 85.7688 40.4351 86.2763 40.4351 87.0376Z" fill="white"/>
<path d="M103.759 74.8574C103.759 76.6337 102.257 78.1562 100.505 78.1562C98.7531 78.1562 97.2513 76.6337 97.2513 74.8574C97.2513 73.0811 98.7531 71.5586 100.505 71.5586C102.257 71.5586 103.759 73.0811 103.759 74.8574Z" fill="#8FDAFF"/>
<path d="M99.5039 74.6036C99.5039 75.1111 99.2537 75.6187 98.7531 75.6187C98.2525 75.6187 98.0022 75.1111 98.0022 74.6036C98.0022 74.0961 98.2525 73.5886 98.7531 73.5886C99.0034 73.5886 99.5039 74.0961 99.5039 74.6036Z" fill="white"/>
<g opacity="0.05">
<path d="M12.1521 159.357L12.903 169H116.023L121.53 93.3813C107.013 132.967 50.4468 159.611 12.1521 159.357Z" fill="#1D1D1B"/>
<path opacity="0.7" d="M12.1521 159.357L12.903 169H116.023L121.53 93.3813C107.013 132.967 50.4468 159.611 12.1521 159.357Z" fill="#3192E7"/>
</g>
</g>
<defs>
<clipPath id="clip0_724_136483">
<rect width="127.649" height="169" fill="white" transform="translate(0.638672)"/>
</clipPath>
</defs>
</svg>
