<svg width="140" height="184" viewBox="0 0 140 184" fill="none" xmlns="http://www.w3.org/2000/svg">
<g clip-path="url(#clip0_724_136426)">
<path d="M26.7207 52.2162C30.0318 52.2162 32.7159 49.495 32.7159 46.1381C32.7159 42.7813 30.0318 40.0601 26.7207 40.0601C23.4097 40.0601 20.7256 42.7813 20.7256 46.1381C20.7256 49.495 23.4097 52.2162 26.7207 52.2162Z" fill="#8FDAFF"/>
<path d="M24.5407 46.138C24.5407 47.2431 23.9957 48.072 23.1782 48.072C22.3607 48.072 21.8157 47.2431 21.8157 46.138C21.8157 45.0329 22.3607 44.2041 23.1782 44.2041C23.9957 44.2041 24.5407 45.0329 24.5407 46.138Z" fill="white"/>
<path d="M28.0834 84.2642C30.0399 84.2642 31.626 82.6562 31.626 80.6726C31.626 78.6891 30.0399 77.0811 28.0834 77.0811C26.1268 77.0811 24.5408 78.6891 24.5408 80.6726C24.5408 82.6562 26.1268 84.2642 28.0834 84.2642Z" fill="#8FDAFF"/>
<path d="M26.7209 80.6727C26.7209 81.2253 26.4483 81.7778 25.9033 81.7778C25.3583 81.7778 25.0858 81.2253 25.0858 80.6727C25.0858 80.1202 25.3583 79.5676 25.9033 79.5676C26.4483 79.5676 26.7209 80.1202 26.7209 80.6727Z" fill="white"/>
<path d="M121.826 58.5706C121.826 60.5045 120.191 62.1622 118.283 62.1622C116.376 62.1622 114.741 60.5045 114.741 58.5706C114.741 56.6367 116.376 54.979 118.283 54.979C120.191 54.979 121.826 56.9129 121.826 58.5706Z" fill="#8FDAFF"/>
<path d="M116.921 58.5707C116.921 59.1232 116.648 59.6758 116.103 59.6758C115.558 59.6758 115.286 59.1232 115.286 58.5707C115.286 58.0181 115.558 57.4656 116.103 57.4656C116.648 57.4656 116.921 58.0181 116.921 58.5707Z" fill="white"/>
<path opacity="0.7" d="M0.287598 0L2.46766 29.2853L13.6405 184H125.913L137.086 29.2853L139.266 0H0.287598Z" fill="#8FDAFF"/>
<path d="M8.19031 33.9819L18.5456 178.198C51.7915 163.832 85.8549 164.384 120.736 178.198L131.091 33.9819H8.19031Z" fill="#34B1ED"/>
<path d="M72.7746 88.9608C76.0856 88.9608 78.7697 86.2396 78.7697 82.8828C78.7697 79.5259 76.0856 76.8047 72.7746 76.8047C69.4635 76.8047 66.7794 79.5259 66.7794 82.8828C66.7794 86.2396 69.4635 88.9608 72.7746 88.9608Z" fill="#8FDAFF"/>
<path d="M70.5946 82.8829C70.5946 83.988 70.0496 84.8168 69.232 84.8168C68.4145 84.8168 67.8695 83.988 67.8695 82.8829C67.8695 81.7778 68.4145 80.9489 69.232 80.9489C69.7771 80.6727 70.5946 81.7778 70.5946 82.8829Z" fill="white"/>
<path d="M95.9377 107.472C99.2487 107.472 101.933 104.75 101.933 101.394C101.933 98.0367 99.2487 95.3154 95.9377 95.3154C92.6266 95.3154 89.9425 98.0367 89.9425 101.394C89.9425 104.75 92.6266 107.472 95.9377 107.472Z" fill="#8FDAFF"/>
<path d="M23.9871 62.1757C27.2981 62.1757 29.9823 59.4544 29.9823 56.0976C29.9823 52.7408 27.2981 50.0195 23.9871 50.0195C20.6761 50.0195 17.9919 52.7408 17.9919 56.0976C17.9919 59.4544 20.6761 62.1757 23.9871 62.1757Z" fill="#8FDAFF"/>
<path d="M93.7577 101.117C93.7577 102.222 93.2127 103.051 92.3951 103.051C91.5776 103.051 91.0326 102.222 91.0326 101.117C91.0326 100.012 91.5776 99.1833 92.3951 99.1833C93.2127 99.1833 93.7577 100.012 93.7577 101.117Z" fill="white"/>
<path d="M21.8071 55.8214C21.8071 56.9265 21.2621 57.7553 20.4446 57.7553C19.627 57.7553 19.082 56.9265 19.082 55.8214C19.082 54.7163 19.627 53.8875 20.4446 53.8875C21.2621 53.8875 21.8071 54.7163 21.8071 55.8214Z" fill="white"/>
<path d="M60.5118 56.0841C63.8228 56.0841 66.5069 53.3629 66.5069 50.0061C66.5069 46.6492 63.8228 43.928 60.5118 43.928C57.2007 43.928 54.5166 46.6492 54.5166 50.0061C54.5166 53.3629 57.2007 56.0841 60.5118 56.0841Z" fill="#8FDAFF"/>
<path d="M58.3318 49.7298C58.3318 50.8349 57.7867 51.6638 56.9692 51.6638C56.1517 51.6638 55.6067 50.8349 55.6067 49.7298C55.6067 48.6247 56.1517 47.7959 56.9692 47.7959C57.5142 47.7959 58.3318 48.6247 58.3318 49.7298Z" fill="white"/>
<path d="M72.7746 114.655C72.7746 117.141 70.867 119.075 68.4144 119.075C65.9619 119.075 64.0543 117.141 64.0543 114.655C64.0543 112.168 65.9619 110.234 68.4144 110.234C70.867 110.234 72.7746 112.168 72.7746 114.655Z" fill="#8FDAFF"/>
<path d="M66.5068 114.655C66.5068 115.483 65.9618 116.036 65.4168 116.036C64.8718 116.036 64.3268 115.483 64.3268 114.655C64.3268 113.826 64.8718 113.273 65.4168 113.273C66.2343 112.997 66.5068 113.826 66.5068 114.655Z" fill="white"/>
<path d="M104.385 126.258C104.385 128.745 102.478 130.679 100.025 130.679C97.5727 130.679 95.6652 128.745 95.6652 126.258C95.6652 123.772 97.5727 121.838 100.025 121.838C102.478 121.838 104.385 123.772 104.385 126.258Z" fill="#8FDAFF"/>
<path d="M97.3002 127.363C97.9022 127.363 98.3903 126.745 98.3903 125.982C98.3903 125.219 97.9022 124.601 97.3002 124.601C96.6982 124.601 96.2102 125.219 96.2102 125.982C96.2102 126.745 96.6982 127.363 97.3002 127.363Z" fill="white"/>
<path d="M46.0689 124.601C46.0689 127.087 44.1613 129.021 41.7087 129.021C39.2562 129.021 37.3486 127.087 37.3486 124.601C37.3486 122.114 39.2562 120.18 41.7087 120.18C44.1613 120.18 46.0689 122.114 46.0689 124.601Z" fill="#8FDAFF"/>
<path d="M39.8012 124.324C39.8012 125.153 39.2561 125.706 38.7111 125.706C38.1661 125.706 37.6211 125.153 37.6211 124.324C37.6211 123.495 38.1661 122.943 38.7111 122.943C39.5286 122.943 39.8012 123.495 39.8012 124.324Z" fill="white"/>
<path d="M82.8573 61.886C85.2653 61.886 87.2174 59.9069 87.2174 57.4656C87.2174 55.0243 85.2653 53.0452 82.8573 53.0452C80.4493 53.0452 78.4972 55.0243 78.4972 57.4656C78.4972 59.9069 80.4493 61.886 82.8573 61.886Z" fill="#8FDAFF"/>
<path d="M81.2223 57.4656C81.2223 58.2944 80.6773 58.847 80.1323 58.847C79.5872 58.847 79.0422 58.2944 79.0422 57.4656C79.0422 56.6368 79.5872 56.0842 80.1323 56.0842C80.6773 55.8079 81.2223 56.6368 81.2223 57.4656Z" fill="white"/>
<path d="M105.748 44.4805C105.748 46.967 103.84 48.9009 101.388 48.9009C98.9353 48.9009 97.0277 46.967 97.0277 44.4805C97.0277 41.994 98.9353 40.0601 101.388 40.0601C103.84 40.0601 105.748 41.994 105.748 44.4805Z" fill="#8FDAFF"/>
<path d="M99.4802 44.2041C99.4802 45.033 98.9352 45.5855 98.3902 45.5855C97.8452 45.5855 97.3002 45.033 97.3002 44.2041C97.3002 43.3753 97.8452 42.8228 98.3902 42.8228C99.2077 42.8228 99.4802 43.3753 99.4802 44.2041Z" fill="white"/>
<path d="M50.9739 69.3452C50.9739 71.8317 49.0663 73.7656 46.6138 73.7656C44.1612 73.7656 42.2537 71.8317 42.2537 69.3452C42.2537 66.8587 44.1612 64.9248 46.6138 64.9248C49.0663 64.9248 50.9739 66.8587 50.9739 69.3452Z" fill="#8FDAFF"/>
<path d="M24.9418 110.711C24.9418 113.198 23.0342 115.132 20.5817 115.132C18.1291 115.132 16.2216 113.198 16.2216 110.711C16.2216 108.225 18.1291 106.291 20.5817 106.291C23.0342 106.291 24.9418 108.225 24.9418 110.711Z" fill="#8FDAFF"/>
<path d="M44.9788 69.3452C44.9788 70.1741 44.4337 70.7266 43.8887 70.7266C43.3437 70.7266 42.7987 70.1741 42.7987 69.3452C42.7987 68.5164 43.3437 67.9639 43.8887 67.9639C44.4337 67.6876 44.9788 68.5164 44.9788 69.3452Z" fill="white"/>
<path d="M18.9467 110.711C18.9467 111.54 18.4016 112.093 17.8566 112.093C17.3116 112.093 16.7666 111.54 16.7666 110.711C16.7666 109.883 17.3116 109.33 17.8566 109.33C18.4016 109.054 18.9467 109.883 18.9467 110.711Z" fill="white"/>
<path d="M48.2489 94.7627C48.2489 96.6967 46.6138 98.3543 44.7063 98.3543C42.7987 98.3543 41.1637 96.6967 41.1637 94.7627C41.1637 92.8288 42.7987 91.1711 44.7063 91.1711C46.8863 91.1711 48.2489 92.8288 48.2489 94.7627Z" fill="#8FDAFF"/>
<path d="M43.6162 94.7627C43.6162 95.3152 43.3437 95.8678 42.7987 95.8678C42.2537 95.8678 41.9812 95.3152 41.9812 94.7627C41.9812 94.2101 42.2537 93.6576 42.7987 93.6576C43.3437 93.3813 43.6162 93.9338 43.6162 94.7627Z" fill="white"/>
<path d="M112.561 81.5015C112.561 83.4354 110.926 85.0931 109.018 85.0931C107.111 85.0931 105.475 83.4354 105.475 81.5015C105.475 79.5676 107.111 77.9099 109.018 77.9099C110.926 77.9099 112.561 79.5676 112.561 81.5015Z" fill="#8FDAFF"/>
<path d="M107.928 81.2252C107.928 81.7778 107.656 82.3303 107.11 82.3303C106.565 82.3303 106.293 81.7778 106.293 81.2252C106.293 80.6727 106.565 80.1201 107.11 80.1201C107.383 80.1201 107.928 80.6727 107.928 81.2252Z" fill="white"/>
<g opacity="0.05">
<path d="M12.8228 173.502L13.6403 184H125.913L131.908 101.67C116.103 144.769 54.5164 173.778 12.8228 173.502Z" fill="#1D1D1B"/>
<path opacity="0.7" d="M12.8228 173.502L13.6403 184H125.913L131.908 101.67C116.103 144.769 54.5164 173.778 12.8228 173.502Z" fill="#3192E7"/>
</g>
</g>
<defs>
<clipPath id="clip0_724_136426">
<rect width="138.979" height="184" fill="white" transform="translate(0.287598)"/>
</clipPath>
</defs>
</svg>
