<svg width="414" height="345" viewBox="0 0 414 345" fill="none" xmlns="http://www.w3.org/2000/svg">
<path d="M280.239 161.286H264.063V223.136H280.239V161.286Z" fill="#414042"/>
<path d="M280.954 247.162H263.35V305.919H280.954V247.162Z" fill="#414042"/>
<path fill-rule="evenodd" clip-rule="evenodd" d="M216.487 239.788H327.579C329.958 239.788 332.099 241.691 332.099 244.307V253.823C332.099 256.202 330.196 258.343 327.579 258.343H216.487C214.108 258.343 211.967 256.439 211.967 253.823V244.307C212.205 241.928 214.108 239.788 216.487 239.788Z" fill="#414042"/>
<path fill-rule="evenodd" clip-rule="evenodd" d="M272.151 250.492H216.011C208.636 250.492 202.451 244.545 202.689 237.171C203.403 225.99 213.632 212.906 222.909 212.906H272.151H321.393C330.671 212.906 340.9 225.99 341.614 237.171C342.089 244.545 335.667 250.492 328.292 250.492H272.151Z" fill="#EF903F"/>
<path fill-rule="evenodd" clip-rule="evenodd" d="M247.412 80.8807H296.654C308.548 80.8807 315.923 90.8718 318.302 102.528L329.244 155.338C331.623 166.995 319.491 176.986 307.597 176.986H236.469C224.575 176.986 212.443 166.995 214.822 155.338L225.765 102.528C228.381 90.8718 235.518 80.8807 247.412 80.8807Z" fill="#EF903F"/>
<path fill-rule="evenodd" clip-rule="evenodd" d="M214.345 312.818V317.1L272.151 310.677L329.719 317.1V312.818L272.627 299.021V298.783H271.675V299.021L214.345 312.818Z" fill="#414042"/>
<path fill-rule="evenodd" clip-rule="evenodd" d="M200.31 344.457L226.239 343.981L251.931 339.937V326.615H216.486L201.024 335.179L200.31 344.457Z" fill="#231F20"/>
<path fill-rule="evenodd" clip-rule="evenodd" d="M351.842 344.457L325.913 343.981L300.459 339.937V326.615H335.666L351.128 335.179L351.842 344.457Z" fill="#231F20"/>
<path fill-rule="evenodd" clip-rule="evenodd" d="M249.315 178.175H302.839C307.358 178.175 311.164 181.744 310.927 186.263L309.024 221.946C308.786 226.228 305.217 231.462 300.935 230.034L274.768 219.805L248.125 230.034C244.081 231.699 242.416 225.752 240.037 221.946L227.191 200.299C226.002 198.396 246.936 178.175 249.315 178.175Z" fill="#00344D"/>
<path fill-rule="evenodd" clip-rule="evenodd" d="M242.891 178.413L264.776 114.898L313.78 62.8015L319.252 74.22L333.287 86.3521L366.353 123.224L348.987 155.576L330.194 173.894L315.683 196.73L303.551 196.017L278.336 197.206L247.411 190.308L242.891 178.413Z" fill="#3797DB"/>
<path fill-rule="evenodd" clip-rule="evenodd" d="M318.063 96.3432L327.102 97.5326L332.811 104.669L322.82 109.903L293.798 181.03L277.86 187.215L274.53 170.563L318.776 107.524L318.063 96.3432Z" fill="#002E5E"/>
<path fill-rule="evenodd" clip-rule="evenodd" d="M339.71 85.6383L329.957 77.3124L319.49 76.3608L313.543 82.0701L305.693 100.625L327.34 98.722L328.054 120.369L345.657 110.378L349.939 106.334L347.085 94.2022L339.71 85.6383Z" fill="#C7EAFB"/>
<path fill-rule="evenodd" clip-rule="evenodd" d="M344.23 69.7001L345.182 70.1759C352.556 74.2199 355.649 82.7837 352.08 89.4445L348.274 96.581C342.327 107.286 314.732 92.0612 320.68 81.3564L324.486 74.2199C328.054 67.5591 336.856 65.656 344.23 69.7001Z" fill="#FFBE9D"/>
<path fill-rule="evenodd" clip-rule="evenodd" d="M344.23 69.7L345.182 70.1757C352.556 74.2198 355.887 83.0215 352.08 89.4444L348.512 95.6294C335.904 98.2461 325.675 90.3959 322.345 78.2638L324.486 74.2198C328.054 67.559 336.856 65.6559 344.23 69.7Z" fill="#E79870"/>
<path fill-rule="evenodd" clip-rule="evenodd" d="M385.861 42.3434C402.275 63.9909 389.429 73.7441 373.729 85.6383C358.028 97.5326 337.808 97.5326 328.768 85.4005C319.729 73.5062 325.2 53.9997 340.901 42.1055C356.839 30.4492 369.685 20.6959 385.861 42.3434Z" fill="#FFBE9D"/>
<path fill-rule="evenodd" clip-rule="evenodd" d="M346.134 82.0702C342.328 82.7839 338.998 81.8323 337.095 79.4535C335.192 77.0746 335.429 73.5064 337.095 69.9381C339.949 73.9821 343.042 78.0262 346.134 82.0702Z" fill="#FFBE9D"/>
<path fill-rule="evenodd" clip-rule="evenodd" d="M374.441 81.8324C366.591 68.9866 359.217 53.5241 357.79 40.6784C352.556 38.7753 343.992 41.6299 335.191 47.577C337.807 37.348 367.305 16.4142 374.204 29.2599C390.855 27.8326 409.41 66.132 388.715 80.8808C387.287 84.2112 386.811 87.7795 387.763 91.1099C386.336 89.2068 384.908 87.3037 383.481 85.1628C382.767 88.2553 382.767 91.5856 383.481 94.6781C381.34 91.8235 379.199 88.9689 377.296 86.1143C373.252 88.2553 369.684 89.6826 366.829 89.6826C369.922 87.0658 372.538 84.4491 374.441 81.8324Z" fill="#231F20"/>
<path d="M346.962 52.3456L345.65 54.038L353.924 60.449L355.236 58.7566L346.962 52.3456Z" fill="#231F20"/>
<path fill-rule="evenodd" clip-rule="evenodd" d="M349.465 57.568C350.417 58.2817 350.655 59.709 349.941 60.6605C349.227 61.6121 347.8 61.85 346.849 61.1363C345.897 60.4226 345.659 58.9953 346.373 58.0438C347.086 56.8544 348.514 56.8544 349.465 57.568Z" fill="#231F20"/>
<path d="M361.679 67.3307L359.693 68.1308L363.605 77.8399L365.591 77.0398L361.679 67.3307Z" fill="#231F20"/>
<path fill-rule="evenodd" clip-rule="evenodd" d="M361.359 73.5063C360.883 72.3169 359.694 71.8411 358.504 72.3169C357.315 72.7927 356.839 73.9821 357.315 75.1715C357.791 76.3609 358.98 76.8367 360.17 76.3609C361.359 75.8852 361.835 74.6957 361.359 73.5063Z" fill="#231F20"/>
<path fill-rule="evenodd" clip-rule="evenodd" d="M346.133 82.0702C343.279 82.0702 340.424 80.6429 338.521 78.2641C336.618 75.8852 336.142 72.7927 336.856 69.9381C339.949 73.9821 343.041 78.0262 346.133 82.0702Z" fill="white"/>
<path d="M345.25 69.3568L343.352 70.791L346.938 75.5356L348.836 74.1014L345.25 69.3568Z" fill="#EC8E5F"/>
<path fill-rule="evenodd" clip-rule="evenodd" d="M262.16 208.862L255.024 329.707L234.328 333.751L216.725 327.804L221.958 287.602V208.149C223.861 187.69 259.782 186.977 262.16 208.862Z" fill="#004D6D"/>
<path fill-rule="evenodd" clip-rule="evenodd" d="M262.398 208.862L257.402 290.695L257.64 329.708L234.566 333.752L238.848 192.924C243.605 191.973 259.781 192.211 262.398 208.862Z" fill="#00344D"/>
<path fill-rule="evenodd" clip-rule="evenodd" d="M292.134 208.862L299.27 329.708L319.966 333.752L337.57 327.805L332.336 287.602V208.149C330.433 187.691 294.513 186.977 292.134 208.862Z" fill="#00344D"/>
<path fill-rule="evenodd" clip-rule="evenodd" d="M292.134 208.863L296.891 290.695L296.654 329.708L319.728 333.752L312.83 192.924C308.548 192.448 295.464 192.686 292.134 208.863Z" fill="#004D6D"/>
<path fill-rule="evenodd" clip-rule="evenodd" d="M263.825 117.991L271.913 92.299L279.763 71.3652L313.543 15.7002L319.966 10.7047L377.296 2.85449L378.485 17.3654L335.428 28.546L320.917 54.9512L316.398 58.2816L317.825 64.4665L310.688 73.5061L263.825 117.991Z" fill="#3797DB"/>
<path fill-rule="evenodd" clip-rule="evenodd" d="M366.354 122.986L370.398 150.105L353.984 190.307L336.856 201.488L329.006 204.818L310.451 198.871L315.922 190.307L328.292 181.03L332.099 182.219L331.147 179.127L329.482 177.462L340.9 157.004L366.354 122.986Z" fill="#3797DB"/>
<path fill-rule="evenodd" clip-rule="evenodd" d="M384.908 13.7973L390.855 16.1761L404.177 15.4625L405.128 13.0836L396.327 10.4669L396.089 8.80172L403.939 6.89865L412.503 8.32595L413.692 5.47134L400.371 0L385.384 4.28192L373.252 6.18499L373.965 15.4625L384.908 13.7973Z" fill="#FFBE9D"/>
<path fill-rule="evenodd" clip-rule="evenodd" d="M381.816 18.7928L370.873 20.6959L367.78 2.85455L378.723 1.42725L381.816 18.7928Z" fill="#C7EAFB"/>
<path fill-rule="evenodd" clip-rule="evenodd" d="M309.737 198.158L311.64 191.259L319.252 188.167L326.389 189.356L332.574 194.589L333.525 203.153L329.957 207.197L318.539 209.338L312.354 207.435L309.975 203.153L309.737 198.158Z" fill="#C7EAFB"/>
<path fill-rule="evenodd" clip-rule="evenodd" d="M315.684 192.924L304.741 198.158L299.983 205.77L301.173 207.435L306.406 204.343L309.023 206.246L305.692 217.664L311.402 221.708L319.49 218.14L325.199 205.056V196.492L315.684 192.924Z" fill="#FFBE9D"/>
<g opacity="0.9">
<path fill-rule="evenodd" clip-rule="evenodd" d="M162.784 144.05L158.328 142.459L158.805 131.002L169.785 131.957L162.784 144.05Z" fill="#E6E7E8"/>
<path fill-rule="evenodd" clip-rule="evenodd" d="M168.989 131.161L158.964 142.777L162.147 147.233L165.329 149.779L170.103 144.05L169.148 142.459L176.309 136.89L188.243 122.728L184.583 121.932L173.604 129.729L168.989 131.161Z" fill="#231F20"/>
<path fill-rule="evenodd" clip-rule="evenodd" d="M105.818 129.093V148.028L159.761 151.211L163.58 128.297L105.818 129.093Z" fill="#00344D"/>
<path fill-rule="evenodd" clip-rule="evenodd" d="M16.8685 166.486H27.6889L11.2993 99.1777L3.34314 114.772L16.8685 166.486Z" fill="#414042"/>
<path d="M57.7635 159.167H45.9884V198.47H57.7635V159.167Z" fill="#414042"/>
<path fill-rule="evenodd" clip-rule="evenodd" d="M22.5977 154.234H83.2232C84.4962 154.234 85.6101 155.507 85.6101 157.257V163.622C85.6101 165.214 84.4962 166.646 83.2232 166.646H22.5977C21.3247 166.646 20.2108 165.373 20.2108 163.622V157.257C20.2108 155.507 21.3247 154.234 22.5977 154.234Z" fill="#414042"/>
<path fill-rule="evenodd" clip-rule="evenodd" d="M57.6045 161.235H26.8939C22.9158 161.235 19.0969 158.689 19.4151 153.757C19.7334 146.278 25.3027 147.71 30.3946 147.71H84.0188C89.1107 147.71 94.68 146.437 94.9982 153.757C95.1573 158.689 91.9749 161.235 87.9968 161.235H57.6045Z" fill="#EF903F"/>
<path fill-rule="evenodd" clip-rule="evenodd" d="M13.3678 203.085V205.949L52.0345 201.493L90.5421 205.949V203.085L52.3528 193.696V193.537H51.7163V193.696L13.3678 203.085Z" fill="#414042"/>
<path fill-rule="evenodd" clip-rule="evenodd" d="M5.25277 68.1489C8.91258 67.3533 12.4133 69.581 13.368 73.2408L24.5066 121.296C25.3022 124.956 23.0745 128.456 19.4147 129.411C15.7548 130.207 12.2541 127.979 11.2994 124.319L0.160856 76.2641C-0.634756 72.6043 1.59296 68.9445 5.25277 68.1489Z" fill="#EF903F"/>
<path fill-rule="evenodd" clip-rule="evenodd" d="M60.4681 40.4616L58.8768 61.1475C58.5586 65.7621 41.3734 66.0803 41.6916 61.4657L43.2828 40.7798C43.6011 35.5288 60.9454 35.2106 60.4681 40.4616Z" fill="#FFBE9D"/>
<path fill-rule="evenodd" clip-rule="evenodd" d="M60.4681 40.4616L59.6725 51.9184C54.2623 51.9184 47.8974 49.2134 42.9646 44.7579L43.2829 40.7799C43.2829 40.4616 43.442 40.1434 43.6011 39.8251V39.666V39.5069C43.6011 39.5069 43.6011 39.3478 43.7602 39.3478C44.0785 39.0295 44.3967 38.7113 44.8741 38.393C49.3295 35.688 60.7863 36.1653 60.4681 40.4616Z" fill="#E79870"/>
<path fill-rule="evenodd" clip-rule="evenodd" d="M52.8298 2.27234C34.2125 2.27234 34.2125 13.2518 34.2125 26.7772C34.2125 40.3026 48.2153 49.6908 58.3991 49.6908C61.8998 49.6908 65.4005 48.736 67.1508 46.8266C69.3785 44.2806 69.6968 39.9843 70.9697 35.0515L72.8792 34.8924C72.4018 32.1873 70.6515 27.4137 70.6515 24.7086C70.6515 21.5261 71.288 19.2984 71.1289 16.5933C70.4924 8.00074 66.9917 2.27234 52.8298 2.27234Z" fill="#FFBE9D"/>
<path fill-rule="evenodd" clip-rule="evenodd" d="M69.8562 39.9843C67.1511 40.4616 64.7643 39.8252 62.8548 38.8704C63.8095 41.2573 66.8329 43.0076 69.2197 42.5302C69.3788 41.7346 69.6971 40.939 69.8562 39.9843Z" fill="white"/>
<path fill-rule="evenodd" clip-rule="evenodd" d="M39.3046 4.02266C31.8258 2.74969 25.7792 25.8224 36.1221 39.5069L43.6009 36.961C40.4184 29.8005 47.738 25.3451 49.1701 31.5508L52.3526 30.437L54.5803 22.7991C61.8999 21.0487 68.5831 18.1845 73.8341 14.6839C73.1976 10.0693 71.2881 4.65915 65.5597 1.95407C60.627 -0.273638 50.1249 -1.70574 39.3046 4.02266Z" fill="#231F20"/>
<path d="M67.9513 21.1657L61.688 24.6371L62.4594 26.0289L68.7227 22.5575L67.9513 21.1657Z" fill="#231F20"/>
<path fill-rule="evenodd" clip-rule="evenodd" d="M65.5597 24.5495C66.3553 24.0721 67.1509 24.3904 67.6283 25.186C68.1056 25.9816 67.7874 26.7772 66.9918 27.2546C66.1962 27.7319 65.4006 27.4137 64.9232 26.6181C64.605 25.8225 64.7641 24.8677 65.5597 24.5495Z" fill="#231F20"/>
<path fill-rule="evenodd" clip-rule="evenodd" d="M32.9406 123.842H67.6293V148.347C42.3289 152.643 29.5991 144.846 32.9406 123.842Z" fill="#004D6D"/>
<path fill-rule="evenodd" clip-rule="evenodd" d="M54.4211 128.775H113.774C119.502 128.775 124.117 133.389 124.117 139.117V149.46H54.4211V128.775Z" fill="#004D6D"/>
<path fill-rule="evenodd" clip-rule="evenodd" d="M67.6289 82.1517L70.1749 125.592L68.1063 128.934L49.8072 131.48L31.0308 128.934L26.7345 124.478C27.6892 106.338 28.9622 89.1531 31.1899 69.7402C35.3271 37.2792 65.8786 51.9185 67.6289 82.1517Z" fill="#3797DB"/>
<path fill-rule="evenodd" clip-rule="evenodd" d="M68.7426 102.838L70.0156 124.16L51.8756 107.611L37.7138 71.9678C33.2583 60.8292 50.4435 52.8731 53.4669 61.9431L65.2419 98.5412L68.7426 102.838Z" fill="#257DBB"/>
<path fill-rule="evenodd" clip-rule="evenodd" d="M63.6507 58.9198L64.9237 67.0351L60.15 61.1476L53.1486 54.7827L43.9195 53.0323L37.3955 54.3053L42.4874 46.1901L46.4655 49.0543L52.6712 51.9185L63.6507 58.9198Z" fill="#C7EAFB"/>
<path fill-rule="evenodd" clip-rule="evenodd" d="M54.103 62.1023L72.243 98.7004L96.2704 123.046L89.9056 131.002L60.3088 107.611L40.1003 71.9679C33.8945 60.8293 49.6476 52.8732 54.103 62.1023Z" fill="#3797DB"/>
<path fill-rule="evenodd" clip-rule="evenodd" d="M121.252 197.356H105.977L104.704 202.448V206.585H112.182L112.819 204.835L121.73 206.585H140.188L138.438 203.403L125.39 200.061L121.252 197.356Z" fill="#231F20"/>
<path fill-rule="evenodd" clip-rule="evenodd" d="M123.958 144.528H105.022L102.954 200.698L124.753 199.425L123.958 144.528Z" fill="#004D6D"/>
<path fill-rule="evenodd" clip-rule="evenodd" d="M96.5891 125.592L103.909 126.229L108.205 129.57L107.887 130.684L104.227 130.048L103.113 131.798L107.25 137.526L104.863 141.027L99.4533 140.55L93.5657 134.185L91.8154 129.411L96.5891 125.592Z" fill="#FFBE9D"/>
<path fill-rule="evenodd" clip-rule="evenodd" d="M94.0432 119.705L86.2462 128.775L91.8155 133.389L99.2943 124.796L94.0432 119.705Z" fill="#C7EAFB"/>
</g>
</svg>
