<svg width="390" height="534" viewBox="0 0 390 534" fill="none" xmlns="http://www.w3.org/2000/svg">
<path fill-rule="evenodd" clip-rule="evenodd" d="M-1.9873 107.448V53.3193C31.2421 56.2069 65.6163 54.6332 98.1236 50.0052C135.166 44.7312 171.451 36.2475 207.711 27.7695C253.154 17.1444 298.559 6.52813 345.371 2.24984C444.549 -6.81982 544.002 13.0353 640.268 34.93C648.098 36.7109 655.934 38.5077 663.777 40.3061C752.353 60.6167 841.788 81.1243 933.443 81.1559C998.552 81.1804 1065.93 69.1986 1122 42.6564V160.155L1122 181.025V264.592V312.921V313.722C1122 313.722 1121.99 313.721 1121.99 313.721V313.725C1121.99 313.725 1122 313.725 1122 313.726V350.499L1121.99 350.497V426.552H1121.99V480.681C1088.76 477.793 1054.38 479.367 1021.88 483.995C984.835 489.269 948.551 497.752 912.291 506.23L912.29 506.231C866.847 516.856 821.442 527.472 774.63 531.75C675.452 540.82 575.999 520.965 479.733 499.07C471.911 497.291 464.082 495.496 456.246 493.699L456.225 493.694C367.648 473.383 278.213 452.876 186.557 452.844C121.449 452.82 54.0743 464.801 -1.99878 491.344V426.552H-2V352.975V269.408V221.079V220.278C-1.99797 220.278 -1.99593 220.279 -1.9939 220.279V220.274C-1.99593 220.274 -1.99797 220.274 -2 220.274V183.5L-1.9939 183.503V107.448H-1.9873Z" fill="url(#paint0_linear_731_119762)"/>
<defs>
<linearGradient id="paint0_linear_731_119762" x1="559.969" y1="-185.12" x2="559.969" y2="731.418" gradientUnits="userSpaceOnUse">
<stop stop-color="#005BA5"/>
<stop offset="0.0958" stop-color="#0071BA"/>
<stop offset="0.2824" stop-color="#0096DE"/>
<stop offset="0.3812" stop-color="#00A4EC"/>
<stop offset="0.4926" stop-color="#00D0F0"/>
<stop offset="0.4971" stop-color="#06D1F0"/>
<stop offset="0.5367" stop-color="#3ADBF3"/>
<stop offset="0.5791" stop-color="#69E3F6"/>
<stop offset="0.6232" stop-color="#91EBF9"/>
<stop offset="0.6694" stop-color="#B3F1FB"/>
<stop offset="0.7184" stop-color="#CFF6FC"/>
<stop offset="0.7712" stop-color="#E4FAFD"/>
<stop offset="0.828325" stop-color="#F3FDFE"/>
<stop offset="0.8977" stop-color="#FCFEFF"/>
<stop offset="1" stop-color="white"/>
</linearGradient>
</defs>
</svg>
