<svg width="1440" height="828" viewBox="0 0 1440 828" fill="none" xmlns="http://www.w3.org/2000/svg">
<path fill-rule="evenodd" clip-rule="evenodd" d="M-0.984853 166.737V82.9372C41.6185 87.4077 85.6897 84.9713 127.367 77.8064C174.86 69.6412 221.38 56.507 267.869 43.3815C326.132 26.9319 384.345 10.4961 444.364 3.87255C571.519 -10.1689 699.028 20.5704 822.45 54.4672C832.486 57.2234 842.529 60.0042 852.58 62.7874L852.591 62.7903C966.155 94.2349 1080.82 125.984 1198.33 126.033C1281.81 126.071 1368.19 107.521 1440.08 66.429L1440.08 166.737V280.647V486.085C1440.08 486.085 1440.07 486.084 1440.07 486.084V486.091C1440.07 486.092 1440.08 486.092 1440.08 486.092V543.025L1440.07 543.02V660.769H1440.06V744.569C1397.46 740.098 1353.39 742.535 1311.71 749.7C1264.22 757.865 1217.7 770.999 1171.21 784.124L1171.21 784.125C1112.95 800.574 1054.73 817.01 994.715 823.633C867.56 837.675 740.051 806.936 616.629 773.039C606.602 770.285 596.568 767.507 586.525 764.726L586.499 764.719L586.488 764.716L586.488 764.715C472.924 733.271 358.259 701.522 240.748 701.473C157.273 701.435 70.8916 719.985 -0.999756 761.077V660.769H-1V546.859V341.421C-0.997355 341.421 -0.99471 341.422 -0.992065 341.422V341.414C-0.99471 341.414 -0.997355 341.414 -1 341.414V284.481L-0.992065 284.485V166.737H-0.984853Z" fill="url(#paint0_linear_724_131643)"/>
<defs>
<linearGradient id="paint0_linear_724_131643" x1="719.5" y1="-286.209" x2="719.5" y2="1132.76" gradientUnits="userSpaceOnUse">
<stop stop-color="#005BA5"/>
<stop offset="0.0958" stop-color="#0071BA"/>
<stop offset="0.2824" stop-color="#0096DE"/>
<stop offset="0.3812" stop-color="#00A4EC"/>
<stop offset="0.4926" stop-color="#00D0F0"/>
<stop offset="0.4971" stop-color="#06D1F0"/>
<stop offset="0.5367" stop-color="#3ADBF3"/>
<stop offset="0.5791" stop-color="#69E3F6"/>
<stop offset="0.6232" stop-color="#91EBF9"/>
<stop offset="0.6694" stop-color="#B3F1FB"/>
<stop offset="0.7184" stop-color="#CFF6FC"/>
<stop offset="0.7712" stop-color="#E4FAFD"/>
<stop offset="0.828325" stop-color="#F3FDFE"/>
<stop offset="0.8977" stop-color="#FCFEFF"/>
<stop offset="1" stop-color="white"/>
</linearGradient>
</defs>
</svg>
