<svg width="439" height="363" viewBox="0 0 439 363" fill="none" xmlns="http://www.w3.org/2000/svg">
<path d="M45.9437 14.3152L0.143947 250.31C-0.785998 255.099 2.90795 259.579 7.81599 259.579H31.9687L45.9437 14.3152Z" fill="#40BFEF"/>
<path d="M46.4863 13.3368L16.134 245.058C15.1265 252.73 21.1195 259.553 28.8949 259.553H73.4288L48.3204 12.5129L46.4863 13.3368Z" fill="#78ACEA"/>
<path d="M46.4858 13.3368L32.8982 243.564C32.3816 252.241 39.3045 259.527 48.0098 259.527H114.423L46.4858 13.3368Z" fill="#699DEE"/>
<path d="M45.9697 15.2163L52.5827 243.564C52.066 252.241 58.9889 259.527 67.6943 259.527H134.108L45.9697 15.2163Z" fill="#5288D8"/>
<path d="M363.959 259.553H102.076C95.5409 259.553 89.9354 254.893 88.7471 248.482L48.9145 31.2822C47.1063 21.4212 54.7008 12.3326 64.7752 12.3326H323.584C330.119 12.3326 335.725 16.9928 336.913 23.4037L377.314 243.641C378.812 251.932 372.432 259.553 363.959 259.553Z" fill="#D7E9FF"/>
<path d="M54.1063 59.5007H343.681L336.267 18.4861C335.621 14.9331 332.521 12.3326 328.879 12.3326H48.3975C46.8734 12.3326 45.7109 13.723 45.9951 15.2163L54.1063 59.5007Z" fill="#40BFEF"/>
<path d="M60.8746 0C53.9516 0 48.3203 5.61279 48.3203 12.5129H50.7227C50.7227 6.92587 55.2691 2.39445 60.8746 2.39445C66.4801 2.39445 71.0264 6.92587 71.0264 12.5129C71.0264 13.62 70.8456 14.7014 70.5098 15.7055C69.5024 18.6664 67.1775 21.0351 64.2069 22.065C63.3286 22.3739 62.4245 22.5541 61.4687 22.6056V25.0001C62.5795 24.9486 63.6644 24.7684 64.6718 24.4337C68.7532 23.1463 71.9306 19.8507 73.0155 15.7055C73.2738 14.6756 73.4288 13.62 73.4288 12.5129C73.4288 5.61279 67.7975 0 60.8746 0Z" fill="#78ACEA"/>
<path d="M64.7494 23.7127C64.7494 23.9702 64.7236 24.2019 64.6461 24.4337C64.3361 25.5923 63.277 26.4162 62.037 26.4162C60.5388 26.4162 59.3247 25.2061 59.3247 23.7127C59.3247 22.2194 60.5388 21.0093 62.037 21.0093C62.9153 21.0093 63.6903 21.4213 64.1811 22.065C64.5427 22.5284 64.7494 23.0948 64.7494 23.7127Z" fill="#78ACEA"/>
<path d="M105.899 0C98.9765 0 93.3452 5.61279 93.3452 12.5129H95.7476C95.7476 6.92587 100.294 2.39445 105.899 2.39445C111.505 2.39445 116.051 6.92587 116.051 12.5129C116.051 13.62 115.871 14.7014 115.535 15.7055C114.527 18.6664 112.202 21.0351 109.232 22.065C108.353 22.3739 107.449 22.5541 106.494 22.6056V25.0001C107.604 24.9486 108.689 24.7684 109.697 24.4337C113.778 23.1463 116.955 19.8507 118.04 15.7055C118.299 14.6756 118.454 13.62 118.454 12.5129C118.454 5.61279 112.822 0 105.899 0Z" fill="#78ACEA"/>
<path d="M109.774 23.7127C109.774 23.9702 109.748 24.2019 109.671 24.4337C109.361 25.5923 108.302 26.4162 107.062 26.4162C105.564 26.4162 104.35 25.2061 104.35 23.7127C104.35 22.2194 105.564 21.0093 107.062 21.0093C107.94 21.0093 108.715 21.4213 109.206 22.065C109.568 22.5284 109.774 23.0948 109.774 23.7127Z" fill="#78ACEA"/>
<path d="M150.898 0C143.975 0 138.344 5.61279 138.344 12.5129H140.746C140.746 6.92587 145.293 2.39445 150.898 2.39445C156.504 2.39445 161.05 6.92587 161.05 12.5129C161.05 13.62 160.869 14.7014 160.533 15.7055C159.526 18.6664 157.201 21.0351 154.231 22.065C153.352 22.3739 152.448 22.5541 151.492 22.6056V25.0001C152.603 24.9486 153.688 24.7684 154.696 24.4337C158.777 23.1463 161.954 19.8507 163.039 15.7055C163.298 14.6756 163.452 13.62 163.452 12.5129C163.452 5.61279 157.821 0 150.898 0Z" fill="#78ACEA"/>
<path d="M154.773 23.7127C154.773 23.9702 154.747 24.2019 154.67 24.4337C154.36 25.5923 153.301 26.4162 152.061 26.4162C150.562 26.4162 149.348 25.2061 149.348 23.7127C149.348 22.2194 150.562 21.0093 152.061 21.0093C152.939 21.0093 153.714 21.4213 154.205 22.065C154.566 22.5284 154.773 23.0948 154.773 23.7127Z" fill="#78ACEA"/>
<path d="M195.923 0C189 0 183.369 5.61279 183.369 12.5129H185.771C185.771 6.92587 190.317 2.39445 195.923 2.39445C201.528 2.39445 206.075 6.92587 206.075 12.5129C206.075 13.62 205.894 14.7014 205.558 15.7055C204.551 18.6664 202.226 21.0351 199.255 22.065C198.377 22.3739 197.473 22.5541 196.517 22.6056V25.0001C197.628 24.9486 198.713 24.7684 199.72 24.4337C203.802 23.1463 206.979 19.8507 208.064 15.7055C208.322 14.6756 208.477 13.62 208.477 12.5129C208.477 5.61279 202.846 0 195.923 0Z" fill="#78ACEA"/>
<path d="M199.798 23.7127C199.798 23.9702 199.772 24.2019 199.694 24.4337C199.384 25.5923 198.325 26.4162 197.085 26.4162C195.587 26.4162 194.373 25.2061 194.373 23.7127C194.373 22.2194 195.587 21.0093 197.085 21.0093C197.964 21.0093 198.739 21.4213 199.229 22.065C199.591 22.5284 199.798 23.0948 199.798 23.7127Z" fill="#78ACEA"/>
<path d="M240.922 0C234 0 228.368 5.61279 228.368 12.5129H230.771C230.771 6.92587 235.317 2.39445 240.922 2.39445C246.528 2.39445 251.074 6.92587 251.074 12.5129C251.074 13.62 250.893 14.7014 250.558 15.7055C249.55 18.6664 247.225 21.0351 244.255 22.065C243.402 22.3739 242.472 22.5541 241.517 22.6056V25.0001C242.627 24.9486 243.712 24.7684 244.72 24.4337C248.801 23.1463 251.978 19.8507 253.063 15.7055C253.348 14.6756 253.477 13.62 253.477 12.5129C253.477 5.61279 247.845 0 240.922 0Z" fill="#78ACEA"/>
<path d="M244.797 23.7127C244.797 23.9702 244.771 24.2019 244.694 24.4337C244.384 25.5923 243.325 26.4162 242.085 26.4162C240.586 26.4162 239.372 25.2061 239.372 23.7127C239.372 22.2194 240.586 21.0093 242.085 21.0093C242.963 21.0093 243.738 21.4213 244.229 22.065C244.59 22.5284 244.797 23.0948 244.797 23.7127Z" fill="#78ACEA"/>
<path d="M285.947 0C279.024 0 273.393 5.61279 273.393 12.5129H275.795C275.795 6.92587 280.342 2.39445 285.947 2.39445C291.553 2.39445 296.099 6.92587 296.099 12.5129C296.099 13.62 295.918 14.7014 295.582 15.7055C294.575 18.6664 292.25 21.0351 289.279 22.065C288.427 22.3739 287.497 22.5541 286.541 22.6056V25.0001C287.652 24.9486 288.737 24.7684 289.744 24.4337C293.826 23.1463 297.003 19.8507 298.088 15.7055C298.346 14.6756 298.501 13.62 298.501 12.5129C298.501 5.61279 292.87 0 285.947 0Z" fill="#78ACEA"/>
<path d="M289.822 23.7127C289.822 23.9702 289.796 24.2019 289.718 24.4337C289.408 25.5923 288.349 26.4162 287.109 26.4162C285.611 26.4162 284.397 25.2061 284.397 23.7127C284.397 22.2194 285.611 21.0093 287.109 21.0093C287.988 21.0093 288.763 21.4213 289.253 22.065C289.615 22.5284 289.822 23.0948 289.822 23.7127Z" fill="#78ACEA"/>
<path d="M330.946 0C324.023 0 318.392 5.61279 318.392 12.5129H320.794C320.794 6.92587 325.34 2.39445 330.946 2.39445C336.551 2.39445 341.098 6.92587 341.098 12.5129C341.098 13.62 340.917 14.7014 340.581 15.7055C339.574 18.6664 337.249 21.0351 334.278 22.065C333.4 22.3739 332.496 22.5541 331.54 22.6056V25.0001C332.651 24.9486 333.736 24.7684 334.743 24.4337C338.825 23.1463 342.002 19.8507 343.087 15.7055C343.345 14.6756 343.5 13.62 343.5 12.5129C343.5 5.61279 337.869 0 330.946 0Z" fill="#78ACEA"/>
<path d="M334.821 23.7127C334.821 23.9702 334.795 24.2019 334.717 24.4337C334.407 25.5923 333.348 26.4162 332.108 26.4162C330.61 26.4162 329.396 25.2061 329.396 23.7127C329.396 22.2194 330.61 21.0093 332.108 21.0093C332.987 21.0093 333.762 21.4213 334.252 22.065C334.614 22.5284 334.821 23.0948 334.821 23.7127Z" fill="#78ACEA"/>
<path d="M221.574 136.535H206.928C205.223 136.535 203.595 135.145 203.26 133.471L200.444 118.873C200.108 117.173 201.245 115.809 202.924 115.809H217.57C219.275 115.809 220.903 117.199 221.238 118.873L224.054 133.471C224.39 135.145 223.253 136.535 221.574 136.535Z" fill="#AFCDFB"/>
<path d="M258.514 136.535H243.867C242.162 136.535 240.535 135.145 240.199 133.471L237.383 118.873C237.048 117.173 238.184 115.809 239.863 115.809H254.51C256.215 115.809 257.842 117.199 258.178 118.873L260.994 133.471C261.329 135.145 260.193 136.535 258.514 136.535Z" fill="#AFCDFB"/>
<path d="M295.453 136.535H280.806C279.101 136.535 277.474 135.145 277.138 133.471L274.323 118.873C273.987 117.173 275.123 115.809 276.802 115.809H291.449C293.154 115.809 294.781 117.199 295.117 118.873L297.933 133.471C298.269 135.145 297.132 136.535 295.453 136.535Z" fill="#78ACEA"/>
<path d="M110.756 136.535H96.1093C94.4044 136.535 92.777 135.145 92.4412 133.471L89.6256 118.873C89.2897 117.173 90.4263 115.809 92.1054 115.809H106.752C108.457 115.809 110.084 117.199 110.42 118.873L113.236 133.471C113.546 135.145 112.435 136.535 110.756 136.535Z" fill="#AFCDFB"/>
<path d="M94.7144 92.7397H88.4114C87.6881 92.7397 86.9649 92.1476 86.8357 91.4266L85.6216 85.1444C85.4924 84.4235 85.9574 83.8314 86.6807 83.8314H92.9837C93.707 83.8314 94.4302 84.4235 94.5594 85.1444L95.7735 91.4266C95.9027 92.1476 95.4377 92.7397 94.7144 92.7397Z" fill="#40BFEF"/>
<path d="M147.695 136.535H133.049C131.344 136.535 129.716 135.145 129.38 133.471L126.565 118.873C126.229 117.173 127.366 115.809 129.045 115.809H143.691C145.396 115.809 147.024 117.199 147.359 118.873L150.175 133.471C150.485 135.145 149.374 136.535 147.695 136.535Z" fill="#AFCDFB"/>
<path d="M184.635 136.535H169.988C168.284 136.535 166.656 135.145 166.32 133.471L163.505 118.873C163.169 117.173 164.305 115.809 165.985 115.809H180.631C182.336 115.809 183.963 117.199 184.299 118.873L187.115 133.471C187.451 135.145 186.314 136.535 184.635 136.535Z" fill="#AFCDFB"/>
<path d="M332.392 136.535H317.746C316.041 136.535 314.413 135.145 314.077 133.471L311.262 118.873C310.926 117.173 312.063 115.809 313.742 115.809H328.388C330.093 115.809 331.721 117.199 332.056 118.873L334.872 133.471C335.208 135.145 334.071 136.535 332.392 136.535Z" fill="#78ACEA"/>
<path d="M215.426 104.841H200.78C199.075 104.841 197.447 103.45 197.112 101.777L194.296 87.1784C193.96 85.4791 195.097 84.1146 196.776 84.1146H211.422C213.127 84.1146 214.755 85.5049 215.091 87.1784L217.906 101.777C218.242 103.476 217.131 104.841 215.426 104.841Z" fill="#AFCDFB"/>
<path d="M252.366 104.841H237.719C236.014 104.841 234.387 103.45 234.051 101.777L231.235 87.1784C230.899 85.4791 232.036 84.1146 233.715 84.1146H248.362C250.067 84.1146 251.694 85.5049 252.03 87.1784L254.845 101.777C255.181 103.476 254.07 104.841 252.366 104.841Z" fill="#AFCDFB"/>
<path d="M289.306 104.841H274.659C272.954 104.841 271.327 103.45 270.991 101.777L268.175 87.1784C267.839 85.4791 268.976 84.1146 270.655 84.1146H285.302C287.006 84.1146 288.634 85.5049 288.97 87.1784L291.785 101.777C292.121 103.476 291.01 104.841 289.306 104.841Z" fill="#78ACEA"/>
<path d="M326.245 104.841H311.598C309.893 104.841 308.266 103.45 307.93 101.777L305.114 87.1784C304.779 85.4791 305.915 84.1146 307.594 84.1146H322.241C323.946 84.1146 325.573 85.5049 325.909 87.1784L328.725 101.777C329.06 103.476 327.95 104.841 326.245 104.841Z" fill="#78ACEA"/>
<path d="M228.058 170.134H213.411C211.706 170.134 210.079 168.744 209.743 167.071L206.927 152.472C206.591 150.773 207.728 149.408 209.407 149.408H224.054C225.759 149.408 227.386 150.799 227.722 152.472L230.538 167.071C230.873 168.744 229.763 170.134 228.058 170.134Z" fill="#AFCDFB"/>
<path d="M264.998 170.134H250.351C248.646 170.134 247.019 168.744 246.683 167.071L243.867 152.472C243.531 150.773 244.668 149.408 246.347 149.408H260.994C262.699 149.408 264.326 150.799 264.662 152.472L267.478 167.071C267.813 168.744 266.703 170.134 264.998 170.134Z" fill="#AFCDFB"/>
<path d="M301.937 170.134H287.29C285.585 170.134 283.958 168.744 283.622 167.071L280.806 152.472C280.471 150.773 281.607 149.408 283.286 149.408H297.933C299.638 149.408 301.265 150.799 301.601 152.472L304.417 167.071C304.753 168.744 303.642 170.134 301.937 170.134Z" fill="#78ACEA"/>
<path d="M117.24 170.134H102.593C100.888 170.134 99.2609 168.744 98.9251 167.071L96.1094 152.472C95.7736 150.773 96.9102 149.408 98.5893 149.408H113.236C114.941 149.408 116.568 150.799 116.904 152.472L119.72 167.071C120.055 168.744 118.945 170.134 117.24 170.134Z" fill="#AFCDFB"/>
<path d="M154.179 170.134H139.532C137.828 170.134 136.2 168.744 135.864 167.071L133.049 152.472C132.713 150.773 133.849 149.408 135.529 149.408H150.175C151.88 149.408 153.507 150.799 153.843 152.472L156.659 167.071C156.995 168.744 155.884 170.134 154.179 170.134Z" fill="#AFCDFB"/>
<path d="M191.119 170.134H176.472C174.767 170.134 173.14 168.744 172.804 167.071L169.989 152.472C169.653 150.773 170.789 149.408 172.468 149.408H187.115C188.82 149.408 190.447 150.799 190.783 152.472L193.599 167.071C193.935 168.744 192.824 170.134 191.119 170.134Z" fill="#AFCDFB"/>
<path d="M338.877 170.134H324.23C322.525 170.134 320.898 168.744 320.562 167.071L317.746 152.472C317.411 150.773 318.547 149.408 320.226 149.408H334.873C336.578 149.408 338.205 150.799 338.541 152.472L341.357 167.071C341.692 168.744 340.582 170.134 338.877 170.134Z" fill="#78ACEA"/>
<path d="M234.567 203.708H219.921C218.216 203.708 216.589 202.318 216.253 200.644L213.437 186.046C213.101 184.347 214.238 182.982 215.917 182.982H230.564C232.268 182.982 233.896 184.372 234.232 186.046L237.047 200.644C237.383 202.344 236.272 203.708 234.567 203.708Z" fill="#AFCDFB"/>
<path d="M271.507 203.708H256.86C255.155 203.708 253.528 202.318 253.192 200.644L250.377 186.046C250.041 184.347 251.177 182.982 252.856 182.982H267.503C269.208 182.982 270.835 184.372 271.171 186.046L273.987 200.644C274.323 202.344 273.212 203.708 271.507 203.708Z" fill="#AFCDFB"/>
<path d="M308.446 203.708H293.8C292.095 203.708 290.467 202.318 290.131 200.644L287.316 186.046C286.98 184.347 288.117 182.982 289.796 182.982H304.442C306.147 182.982 307.775 184.372 308.11 186.046L310.926 200.644C311.262 202.344 310.151 203.708 308.446 203.708Z" fill="#78ACEA"/>
<path d="M123.749 203.708H109.102C107.398 203.708 105.77 202.318 105.434 200.644L102.619 186.046C102.283 184.347 103.42 182.982 105.099 182.982H119.745C121.45 182.982 123.077 184.372 123.413 186.046L126.229 200.644C126.565 202.344 125.428 203.708 123.749 203.708Z" fill="#AFCDFB"/>
<path d="M160.689 203.708H146.042C144.338 203.708 142.71 202.318 142.374 200.644L139.559 186.046C139.223 184.347 140.359 182.982 142.039 182.982H156.685C158.39 182.982 160.017 184.372 160.353 186.046L163.169 200.644C163.505 202.344 162.394 203.708 160.689 203.708Z" fill="#40BFEF"/>
<path d="M197.628 203.708H182.982C181.277 203.708 179.649 202.318 179.314 200.644L176.498 186.046C176.162 184.347 177.299 182.982 178.978 182.982H193.624C195.329 182.982 196.957 184.372 197.292 186.046L200.108 200.644C200.444 202.344 199.333 203.708 197.628 203.708Z" fill="#AFCDFB"/>
<path d="M345.386 203.708H330.739C329.035 203.708 327.407 202.318 327.071 200.644L324.256 186.046C323.92 184.347 325.056 182.982 326.736 182.982H341.382C343.087 182.982 344.714 184.372 345.05 186.046L347.866 200.644C348.202 202.344 347.091 203.708 345.386 203.708Z" fill="#78ACEA"/>
<path d="M240.69 235.402H226.044C224.339 235.402 222.711 234.012 222.376 232.339L219.56 217.74C219.224 216.041 220.361 214.676 222.04 214.676H236.686C238.391 214.676 240.019 216.067 240.354 217.74L243.17 232.339C243.506 234.012 242.395 235.402 240.69 235.402Z" fill="#AFCDFB"/>
<path d="M277.629 235.402H262.982C261.277 235.402 259.65 234.012 259.314 232.339L256.499 217.74C256.163 216.041 257.299 214.676 258.978 214.676H273.625C275.33 214.676 276.957 216.067 277.293 217.74L280.109 232.339C280.445 234.012 279.334 235.402 277.629 235.402Z" fill="#AFCDFB"/>
<path d="M314.568 235.402H299.922C298.217 235.402 296.589 234.012 296.253 232.339L293.438 217.74C293.102 216.041 294.239 214.676 295.918 214.676H310.564C312.269 214.676 313.897 216.067 314.232 217.74L317.048 232.339C317.384 234.012 316.273 235.402 314.568 235.402Z" fill="#78ACEA"/>
<path d="M129.871 235.402H115.225C113.52 235.402 111.892 234.012 111.556 232.339L108.741 217.74C108.405 216.041 109.542 214.676 111.221 214.676H125.867C127.572 214.676 129.2 216.067 129.535 217.74L132.351 232.339C132.687 234.012 131.576 235.402 129.871 235.402Z" fill="#AFCDFB"/>
<path d="M166.811 235.402H152.164C150.46 235.402 148.832 234.012 148.496 232.339L145.681 217.74C145.345 216.041 146.482 214.676 148.161 214.676H162.807C164.512 214.676 166.139 216.067 166.475 217.74L169.291 232.339C169.627 234.012 168.516 235.402 166.811 235.402Z" fill="#AFCDFB"/>
<path d="M203.75 235.402H189.104C187.399 235.402 185.771 234.012 185.436 232.339L182.62 217.74C182.284 216.041 183.421 214.676 185.1 214.676H199.746C201.451 214.676 203.079 216.067 203.415 217.74L206.23 232.339C206.566 234.012 205.455 235.402 203.75 235.402Z" fill="#AFCDFB"/>
<path d="M139.068 86.9725H100.294C99.726 86.9725 99.261 86.509 99.261 85.9426C99.261 85.3762 99.726 84.9127 100.294 84.9127H139.068C139.636 84.9127 140.101 85.3762 140.101 85.9426C140.101 86.509 139.636 86.9725 139.068 86.9725Z" fill="#AFCDFB"/>
<path d="M140.256 91.6584H101.482C100.914 91.6584 100.449 91.1949 100.449 90.6285C100.449 90.0621 100.914 89.5986 101.482 89.5986H140.256C140.824 89.5986 141.289 90.0621 141.289 90.6285C141.289 91.1949 140.824 91.6584 140.256 91.6584Z" fill="#AFCDFB"/>
<path d="M97.4784 52.1114H84.1751C83.0901 52.1114 82.186 51.2103 82.186 50.1289C82.186 49.0476 83.0901 48.1464 84.1751 48.1464H97.4784C98.5634 48.1464 99.4675 49.0476 99.4675 50.1289C99.4675 51.236 98.5634 52.1114 97.4784 52.1114Z" fill="white"/>
<path d="M134.004 52.1114H120.701C119.616 52.1114 118.712 51.2103 118.712 50.1289C118.712 49.0476 119.616 48.1464 120.701 48.1464H134.004C135.089 48.1464 135.993 49.0476 135.993 50.1289C135.968 51.236 135.089 52.1114 134.004 52.1114Z" fill="white"/>
<path d="M170.505 52.1114H157.202C156.117 52.1114 155.213 51.2103 155.213 50.1289C155.213 49.0476 156.117 48.1464 157.202 48.1464H170.505C171.59 48.1464 172.494 49.0476 172.494 50.1289C172.494 51.236 171.616 52.1114 170.505 52.1114Z" fill="white"/>
<path d="M207.031 52.1114H193.728C192.643 52.1114 191.739 51.2103 191.739 50.1289C191.739 49.0476 192.643 48.1464 193.728 48.1464H207.031C208.116 48.1464 209.02 49.0476 209.02 50.1289C209.02 51.236 208.116 52.1114 207.031 52.1114Z" fill="white"/>
<path d="M243.557 52.1114H230.254C229.169 52.1114 228.265 51.2103 228.265 50.1289C228.265 49.0476 229.169 48.1464 230.254 48.1464H243.557C244.642 48.1464 245.546 49.0476 245.546 50.1289C245.52 51.236 244.642 52.1114 243.557 52.1114Z" fill="white"/>
<path d="M280.057 52.1114H266.754C265.669 52.1114 264.765 51.2103 264.765 50.1289C264.765 49.0476 265.669 48.1464 266.754 48.1464H280.057C281.142 48.1464 282.046 49.0476 282.046 50.1289C282.046 51.236 281.168 52.1114 280.057 52.1114Z" fill="white"/>
<path d="M316.584 52.1114H303.28C302.195 52.1114 301.291 51.2103 301.291 50.1289C301.291 49.0476 302.195 48.1464 303.28 48.1464H316.584C317.669 48.1464 318.573 49.0476 318.573 50.1289C318.573 51.236 317.669 52.1114 316.584 52.1114Z" fill="white"/>
<path d="M232.424 105.124C229.479 105.124 227.335 104.197 226.172 102.395C223.925 98.9447 225.656 94.0786 231.313 87.9766C235.446 83.5224 240.251 79.9951 240.302 79.9436C240.483 79.8149 240.767 79.8406 240.896 80.0466C241.026 80.2268 241 80.5101 240.793 80.6388C240.612 80.7675 222.065 94.4648 226.896 101.931C228.42 104.3 231.7 104.455 234.18 104.171C238.778 103.631 244.771 101.185 250.196 97.5802C255.827 93.8469 259.805 89.6502 261.071 86.0456C261.924 83.6769 261.665 82.0034 260.296 81.0765C258.54 79.8664 254.871 79.8664 250.48 81.0765C246.27 82.2351 242.059 84.3206 239.45 86.5091C239.269 86.6635 239.011 86.6378 238.856 86.4576C238.701 86.2773 238.727 86.0199 238.907 85.8654C241.594 83.5997 245.96 81.4369 250.248 80.2526C254.949 78.9653 258.772 79.0168 260.761 80.3813C261.949 81.2052 263.086 82.8788 261.846 86.3288C260.503 90.0878 256.421 94.4391 250.635 98.2753C245.081 101.957 238.959 104.455 234.232 105.021C233.612 105.098 232.992 105.124 232.424 105.124Z" fill="#C65447"/>
<path d="M292.612 96.8022L290.4 92.5884C290.4 92.5884 291.506 85.0419 282.124 80.2918C282.124 80.2918 278.692 78.8745 276.747 81.7092C274.955 84.3141 280.141 83.8161 279.874 88.2597C279.607 92.7033 281.705 95.3082 284.603 96.7256L287.006 99.522L292.612 96.8022Z" fill="#FFBE9D"/>
<path d="M381.43 86.7274C381.43 86.7274 373.345 126.49 328.955 139.515C315.112 143.575 283.612 97.7215 283.612 97.7215C283.612 97.7215 284.718 93.5078 291.658 94.4654C291.658 94.4654 322.319 114.845 326.171 117.067C329.603 119.02 352.103 91.8223 362.4 87.4169C372.658 83.0116 381.43 86.7274 381.43 86.7274Z" fill="#3B77BE"/>
<path d="M251.584 86.0162L253.362 95.6591L301.698 86.6674L299.92 77.0245L251.584 86.0162Z" fill="#C65447"/>
<path d="M241.243 92.9332L253.37 95.653L251.578 85.9996L241.243 92.9332Z" fill="#FFB27D"/>
<path d="M306.112 79.1809L306.684 82.2455C307.028 84.1225 305.807 85.923 303.939 86.2677L301.689 86.6891L299.896 77.0357L302.337 76.576C304.091 76.2313 305.807 77.3805 306.112 79.1809Z" fill="#FFB27D"/>
<path d="M434.438 336.758C434.438 336.758 439.929 341.814 438.862 345.377C437.794 348.978 432.798 351.353 432.15 355.758C431.463 360.125 428.794 362.538 426.391 362.538C423.989 362.538 414.874 362.538 414.874 362.538C414.874 362.538 413.082 359.436 417.391 358.516C421.701 357.597 423.302 352.425 423.035 347.637C422.768 342.849 423.455 336.49 423.455 336.49L432.607 334.383L434.438 336.758Z" fill="#233862"/>
<path d="M366.862 349.82C366.862 349.82 367.854 361.313 365.451 362.5L334.523 362.423C334.523 362.423 334.523 358.823 339.481 358.056C344.438 357.252 353.171 354.341 354.659 347.828C356.108 341.316 366.862 349.82 366.862 349.82Z" fill="#233862"/>
<path d="M340.739 187.513C340.739 187.513 342.379 207.663 344.286 231.873C346.879 264.74 350.006 305.154 350.311 312.816C350.845 326.108 352.981 347.369 352.981 347.369C352.981 347.369 358.091 352.425 368.311 350.28C368.311 350.28 377.426 319.941 380.019 287.84C380.057 287.303 380.095 286.767 380.133 286.269C382.536 253.593 386.311 184.755 386.311 184.755L340.739 187.513Z" fill="#45258F"/>
<path d="M340.739 187.513C340.739 187.513 342.379 207.663 344.286 231.873L380.057 287.84C380.095 287.303 380.133 286.767 380.172 286.269C382.574 253.593 386.35 184.755 386.35 184.755L340.739 187.513Z" fill="#2D185D"/>
<path d="M348.175 189.888C348.175 189.888 377.578 262.825 396.951 297.11C416.286 331.395 422.349 340.972 422.349 340.972C422.349 340.972 433.447 336.605 434.438 333.578C434.438 333.578 427.04 267.384 414.074 251.256C406.752 242.139 398.171 214.788 397.752 205.211C397.332 195.634 395.12 176.711 395.12 176.711L348.175 189.888Z" fill="#45258F"/>
<path d="M386.883 77.4954C386.883 77.4954 366.976 87.1488 355.498 83.5479C355.498 83.5479 358.32 79.9853 363.277 77.3039C362.896 75.0054 362.553 72.9752 362.4 71.2896C361.904 67.344 361.904 65.1222 361.904 65.1222L369.57 59.0697L376.854 53.247C376.282 69.5658 386.883 77.4954 386.883 77.4954Z" fill="#FFBE9D"/>
<path d="M339.48 189.161C339.823 189.467 340.243 189.62 340.662 189.62C344.972 189.544 357.556 191.919 368.196 190.846C377.196 189.965 385.129 187.36 393.671 183.606C394.815 183.07 397.408 181.691 397.37 180.465C397.332 179.086 397.18 177.094 397.027 174.566C396.684 169.586 396.15 162.499 395.997 154.11C395.883 147.904 395.959 140.932 396.379 133.577C396.417 133.079 396.417 132.581 396.455 132.083C396.569 129.401 396.646 126.682 396.646 124C396.684 115.458 396.074 107.298 394.853 99.9816C392.679 87.302 388.637 77.4187 382.612 73.0134C381.811 72.4005 376.853 74.8139 372.277 77.0357C368.082 79.1043 363.887 79.2958 359.921 78.5296L355.955 82.0156C351.15 86.4209 345.849 92.4734 343.523 101.667C341.578 109.443 340.434 123.502 339.823 138.097C339.518 144.724 339.289 151.351 339.213 157.71V157.94C339.175 158.591 339.175 159.243 339.175 159.894C338.946 176.059 339.137 188.969 339.48 189.161Z" fill="#3797DB"/>
<path d="M377.006 59.4911C377.006 59.4911 371.972 68.6848 362.4 71.2897C361.904 67.344 361.904 65.1222 361.904 65.1222L369.569 59.0697L377.006 59.4911Z" fill="#ED985F"/>
<path d="M358.396 64.8541C358.396 64.8541 377.387 67.9569 379.18 56.235C380.972 44.513 384.595 37.0048 372.582 34.5149C360.531 32.0249 357.48 36.1621 355.917 39.9162C354.353 43.7086 353.514 63.7432 358.396 64.8541Z" fill="#FFBE9D"/>
<path d="M386.082 33.1358C386.273 32.9443 386.654 32.791 387.531 32.7144C387.531 32.7144 386.806 32.2547 385.891 32.2547C385.701 31.0289 385.052 28.8454 382.917 28.3091C382.917 28.3091 384.061 28.922 384.213 30.2245C381.773 27.6962 376.51 25.8575 361.942 27.0067C342.76 28.5389 349.09 40.8738 351.569 42.3295C354.048 43.7852 360.302 39.7629 364.917 40.146C369.531 40.5291 370.408 47.2328 372.01 48.1522C373.573 49.0715 372.963 47.4626 375.099 46.4667C377.234 45.509 377.425 49.0332 376.815 51.3317C376.205 53.6301 379.103 56.6563 379.103 56.6563C379.103 56.6563 379.103 56.6563 382.04 53.4769C384.976 50.2974 387.76 36.775 386.425 33.9019C386.311 33.6721 386.196 33.4039 386.082 33.1358Z" fill="#2C3A64"/>
<path d="M290.362 92.3969C290.362 92.3969 291.01 89.792 289.218 88.6428C287.425 87.4936 285.785 84.3141 285.023 84.7355C283.459 85.6165 285.862 88.3746 285.442 91.8223C285.29 93.0481 288.074 96.1893 290.362 92.3969Z" fill="#FFBE9D"/>
<path d="M395.998 154.11C395.884 147.904 395.96 140.932 396.379 133.577C396.417 133.079 396.417 132.581 396.456 132.083C394.663 123.081 391.917 115.113 387.913 114.883C387.913 114.883 375.939 133.807 395.998 154.11Z" fill="#3797DB"/>
<path d="M411.824 186.709C411.824 186.709 410.833 196.439 409.727 198.316C408.621 200.155 403.968 206.054 401.985 207.203C400.002 208.352 403.205 199.427 402.786 197.703C402.366 195.979 401.146 200.883 400.269 200.997C399.392 201.112 399.621 196.707 399.582 195.098C399.544 193.489 403.854 189.544 405.341 186.096C406.905 182.687 411.824 186.709 411.824 186.709Z" fill="#FFBE9D"/>
<path d="M382.612 72.9368C382.612 72.9368 394.625 78.6446 400.383 87.4552C409.307 101.093 419.68 150.739 419.871 155.374C420.061 159.971 412.32 192.455 412.32 192.455C412.32 192.455 404.464 191.919 402.443 187.935C402.443 187.935 404.006 154.569 403.015 152.424C402.023 150.279 370.256 107.681 373.803 98.5643C377.388 89.4472 382.612 72.9368 382.612 72.9368Z" fill="#3B77BE"/>
<path d="M247.459 88.7577L248.107 94.4654L241.243 92.9332L247.459 88.7577Z" fill="#C65447"/>
<path d="M356.35 48.3286C356.306 48.8198 356.663 49.2665 357.169 49.3111C357.661 49.3558 358.107 48.9985 358.152 48.4923C358.197 48.0011 357.839 47.5545 357.333 47.5098C356.842 47.48 356.395 47.8373 356.35 48.3286Z" fill="#333333"/>
<path d="M359.581 46.5123C359.298 46.1104 358.896 45.8126 358.45 45.6042C358.003 45.3958 357.497 45.2916 356.99 45.3213C356.484 45.3511 355.978 45.4851 355.561 45.768C355.338 45.8871 355.174 46.0657 354.98 46.2146C354.816 46.3932 354.667 46.5867 354.533 46.7803C354.757 46.691 354.965 46.5719 355.159 46.4825L355.472 46.3486C355.516 46.3337 355.576 46.3039 355.62 46.289L355.769 46.2443C356.171 46.0806 356.588 46.021 357.005 45.9913C357.422 45.9615 357.839 46.0062 358.271 46.1104C358.703 46.1997 359.135 46.3337 359.581 46.5123Z" fill="#282828"/>
<path d="M365.68 48.3286C365.636 48.8198 365.993 49.2665 366.499 49.3111C366.991 49.3558 367.437 48.9985 367.482 48.4923C367.527 48.0011 367.169 47.5545 366.663 47.5098C366.172 47.48 365.725 47.8373 365.68 48.3286Z" fill="#333333"/>
<path d="M368.911 46.5123C368.628 46.1104 368.226 45.8126 367.779 45.6042C367.333 45.3958 366.826 45.2916 366.32 45.3213C365.814 45.3511 365.308 45.4851 364.891 45.768C364.667 45.8871 364.504 46.0657 364.31 46.2146C364.146 46.3932 363.997 46.5867 363.863 46.7803C364.087 46.691 364.295 46.5719 364.489 46.4825L364.801 46.3486C364.846 46.3337 364.906 46.3039 364.95 46.289L365.099 46.2443C365.501 46.0806 365.918 46.021 366.335 45.9913C366.752 45.9615 367.169 46.0062 367.601 46.1104C368.033 46.1997 368.464 46.3337 368.911 46.5123Z" fill="#282828"/>
<path d="M358.532 58.7828C358.907 60.2632 360.578 61.3488 362.568 61.3093C364.558 61.2698 366.191 60.125 366.529 58.6447L358.532 58.7828Z" fill="white"/>
<path d="M361.68 49.1589C361.296 49.7766 360.979 50.4109 360.679 51.062C360.378 51.7131 360.128 52.3975 359.927 53.082C359.827 53.4325 359.744 53.7831 359.727 54.1838C359.727 54.2839 359.727 54.3841 359.744 54.4843C359.744 54.5343 359.76 54.6011 359.777 54.6512C359.794 54.718 359.81 54.7681 359.86 54.8181C359.877 54.8515 359.91 54.8849 359.927 54.9016L359.977 54.9517C360.011 54.9851 360.044 55.0185 360.094 55.0519C360.178 55.1019 360.244 55.1687 360.328 55.2021C360.645 55.4024 360.979 55.536 361.33 55.6528C361.68 55.7697 362.014 55.8699 362.382 55.92C361.731 55.6195 361.079 55.3023 360.528 54.9016C360.461 54.8515 360.395 54.8015 360.328 54.7514L360.244 54.6679L360.194 54.6345C360.194 54.6178 360.194 54.6178 360.178 54.6178C360.128 54.551 360.128 54.3674 360.144 54.2172C360.178 53.8833 360.261 53.5494 360.361 53.2155C360.545 52.5478 360.779 51.8633 361.013 51.1955C361.23 50.5278 361.463 49.8433 361.68 49.1589Z" fill="#D19369"/>
</svg>
