<svg width="191" height="327" viewBox="0 0 191 327" fill="none" xmlns="http://www.w3.org/2000/svg">
<g filter="url(#filter0_d_724_132246)">
<path d="M21.96 93.8876V255.255H168.64V93.8876H21.96ZM152.37 205.461C152.61 208.748 154.03 211.614 155.16 214.62C155.27 214.91 155.38 215.331 155.49 215.832C153.86 220.813 149.18 224.41 143.67 224.41C143.6 224.41 143.55 224.41 143.48 224.4H143.47C140.12 224.35 137.08 222.967 134.87 220.753C132.62 218.498 131.23 215.381 131.23 211.934V162.671C131.23 158.332 133.44 154.524 136.77 152.28C138.7 150.997 141.01 150.225 143.48 150.195H143.49C143.56 150.185 143.61 150.185 143.68 150.185C147.12 150.185 150.24 151.578 152.48 153.833C153.57 154.935 154.47 156.258 155.1 157.701C154.86 158.603 154.64 159.344 154.5 159.805C152.66 165.507 151.48 169.967 153.37 176.019C155.24 182.032 157.02 183.395 155.49 190.059C154.29 195.219 151.96 199.899 152.37 205.461Z" fill="#AADDF9"/>
<path d="M139.86 220.753C141.5 222.396 143.6 223.589 145.96 224.11C145.16 224.28 144.33 224.38 143.48 224.4H143.47C143.4 224.41 143.33 224.41 143.25 224.41C139.81 224.41 136.7 223.017 134.45 220.753C132.2 218.498 130.8 215.371 130.8 211.924V162.651C130.8 158.122 133.22 154.144 136.83 151.959C138.71 150.817 140.91 150.175 143.26 150.175C143.34 150.175 143.4 150.175 143.48 150.175H143.49C144.34 150.185 145.17 150.286 145.97 150.466C140.4 151.708 136.23 156.689 136.23 162.651V211.924C136.21 215.371 137.61 218.498 139.86 220.753Z" fill="#4A7DAF"/>
<g opacity="0.4">
<path d="M88.1199 194.718C75.6499 224.11 46.23 238.83 21.96 228.088V124.482C35.63 115.132 52.16 112.737 66.7 119.661C91.1799 131.306 100.76 164.906 88.1199 194.718Z" fill="#AADDF9"/>
</g>
<path d="M174.44 119.531C174.44 123.089 171.97 126.075 168.65 126.847C168.1 126.967 167.53 127.037 166.95 127.037H23.6502C23.0702 127.037 22.5002 126.967 21.9602 126.847C18.6402 126.075 16.1602 123.099 16.1602 119.531C16.1602 117.457 16.9902 115.573 18.3602 114.22C19.3302 113.248 20.5802 112.537 21.9602 112.216C22.5002 112.096 23.0702 112.026 23.6502 112.026H166.94C167.52 112.026 168.09 112.096 168.64 112.216C171.96 112.988 174.44 115.974 174.44 119.531Z" fill="#AADDF9"/>
<path d="M168.62 249.001V260.425C168.62 260.796 168.61 261.167 168.61 261.538C168.55 264.163 168.31 266.718 167.88 269.204C167.64 270.627 167.33 272.03 166.98 273.402C166.74 274.324 166.47 275.226 166.18 276.108H24.5599C24.2699 275.216 24.0099 274.314 23.7599 273.402C23.4099 272.06 23.1099 270.687 22.8699 269.294C22.4499 266.909 22.1999 264.454 22.1299 261.938C22.1099 261.437 22.1099 260.936 22.1099 260.435V249.011H168.62V249.001Z" fill="#98C9EA"/>
<path d="M142.61 306.552H47.7002C34.4102 306.552 20.7402 296.01 22.2202 279.245C22.3802 277.371 22.7402 275.427 23.3102 273.393H167.01C167.6 275.517 167.97 277.561 168.12 279.505C169.43 296.12 155.82 306.552 142.61 306.552Z" fill="#98C9EA"/>
<g opacity="0.2">
<path d="M173.35 254.594C173.35 251.437 171.4 248.741 168.64 247.649V126.847C171.96 126.075 174.44 123.089 174.44 119.531C174.44 115.964 171.96 112.988 168.64 112.216V99.9405C169.1 99.8303 169.54 99.69 169.96 99.4896C170.11 99.4394 170.25 99.3694 170.38 99.2892C170.41 99.2792 170.42 99.2591 170.44 99.2591C170.6 99.1789 170.75 99.0887 170.89 98.9985C171.12 98.8482 171.34 98.6979 171.55 98.5276C171.66 98.4474 171.76 98.3572 171.87 98.267C171.91 98.237 171.94 98.2069 171.98 98.1668C172.09 98.0767 172.18 97.9764 172.28 97.8762C172.32 97.8361 172.37 97.796 172.41 97.756C172.52 97.6257 172.64 97.4954 172.75 97.3551C172.76 97.3351 172.77 97.325 172.78 97.315C172.89 97.1848 172.98 97.0545 173.08 96.9042C173.16 96.794 173.22 96.7038 173.27 96.5935C173.36 96.4733 173.43 96.343 173.5 96.2127C173.6 96.0424 173.68 95.872 173.76 95.7017C173.85 95.5213 173.92 95.3409 173.98 95.1606C174.04 94.9802 174.1 94.7998 174.16 94.6094C174.21 94.419 174.26 94.2286 174.29 94.0382C174.32 93.8478 174.36 93.6374 174.38 93.447H143.46C143.45 93.5873 143.44 93.7275 143.43 93.8678C143.26 96.0023 141.85 92.6754 141.68 94.7096C141.54 96.4633 96.98 97.0845 62.27 97.8762C56.29 98.0065 50.6 98.1468 45.48 98.2971C31.65 98.718 21.98 99.219 21.94 99.9305C21.94 100.271 30.51 101.193 43.06 102.396C49.69 103.037 57.42 103.738 65.61 104.48C99.97 107.597 142.12 111.264 142.07 112.006C141.74 117.006 141.31 122.027 140.75 127.017C140.64 127.979 114.22 127.528 86.32 127.017C83.31 126.957 80.29 126.907 77.28 126.837C73.38 126.767 69.51 126.696 65.73 126.626C57.25 126.476 49.23 126.356 42.43 126.296C30.28 126.185 22.01 126.276 21.93 126.817V126.827C21.93 127.528 30.23 128.34 42.43 129.202C49.24 129.703 57.26 130.194 65.73 130.705C70.97 131.015 76.38 131.336 81.78 131.647C111.13 133.37 140.21 135.084 140 136.387C139.41 140.044 137.57 148.302 136.8 151.939C136.78 152.049 136.76 152.14 136.74 152.24C135.25 159.315 133.43 166.329 131.2 173.254C131.06 173.695 130.93 174.126 130.78 174.556C130.32 175.969 129.61 177.302 129.35 178.765C121.98 220.723 92.1 237.428 65.74 243.871C58.79 245.565 52.08 246.547 46.1 247.098C44.85 247.208 43.62 247.298 42.44 247.379C30.33 248.18 21.94 247.248 21.94 247.248C20.48 247.549 19.2 248.27 18.18 249.283C16.84 250.625 16 252.499 16 254.564C16 258.221 18.64 261.278 22.12 261.899C22.19 264.424 22.44 266.879 22.85 269.254C22.02 269.535 21.27 269.936 20.64 270.417C19.33 271.439 18.51 272.822 18.51 274.365C18.51 276.449 19.99 278.263 22.2 279.205C20.72 295.97 34.39 306.512 47.68 306.512H142.59C155.81 306.512 169.41 296.07 168.1 279.476C170.68 278.614 172.48 276.65 172.48 274.355C172.48 271.99 170.56 269.966 167.87 269.154C168.3 266.679 168.55 264.114 168.6 261.498C171.38 260.456 173.35 257.76 173.35 254.594ZM136.22 162.662C136.22 156.699 140.38 151.719 145.96 150.476C145.17 150.296 144.34 150.196 143.48 150.185C143.55 150.175 143.6 150.175 143.67 150.175C147.11 150.175 150.23 151.568 152.47 153.823C153.56 154.925 154.46 156.248 155.09 157.691C154.85 158.593 154.63 159.335 154.49 159.796C152.65 165.498 151.47 169.957 153.36 176.009C155.23 182.022 157.01 183.385 155.48 190.049C154.28 195.2 151.95 199.889 152.37 205.451C152.61 208.738 154.03 211.604 155.16 214.61C155.27 214.901 155.38 215.322 155.49 215.823C153.86 220.803 149.18 224.401 143.67 224.401C143.6 224.401 143.55 224.401 143.48 224.391C144.34 224.38 145.17 224.28 145.96 224.1C143.6 223.579 141.5 222.396 139.86 220.743C137.61 218.488 136.22 215.372 136.22 211.924V162.662Z" fill="#4A7DAF"/>
</g>
<g opacity="0.4">
<path d="M105.93 116.164C105.93 117.337 104.99 118.279 103.82 118.279H28.7799C27.6099 118.279 26.6699 117.327 26.6699 116.164C26.6699 114.992 27.6199 114.05 28.7799 114.05H103.82C104.98 114.05 105.93 115.002 105.93 116.164Z" fill="#AADDF9"/>
</g>
<path d="M168.46 88.8872C168.46 88.8872 163.79 90.23 143.64 91.1619C137.07 91.4625 128.87 91.7231 118.65 91.8734C112.37 91.9636 105.33 92.0137 97.4401 92.0137C37.8701 92.0137 22.1401 88.8872 22.1401 88.8872C22.2001 87.5945 22.7101 86.3519 23.6001 85.1394C30.2901 75.89 57.8001 69.1259 59.1601 68.8754C74.5701 66.1497 81.1402 56.229 83.9202 47.7312C85.2302 43.7429 85.7001 40.0652 85.8701 37.6001C85.9701 37.59 86.0801 37.59 86.1801 37.59H106.74C106.91 37.59 107.08 37.6 107.25 37.61C107.42 39.2034 107.72 41.2777 108.25 43.6226C108.53 44.8752 108.87 46.198 109.3 47.5609C112.06 56.3893 118.16 66.781 131.65 68.8653C132.21 68.9555 137.51 70.2382 143.91 72.3927C152.54 75.3088 163.2 79.8182 167.03 85.1293C167.89 86.3519 168.4 87.5945 168.46 88.8872Z" fill="#AADDF9"/>
<g opacity="0.2">
<path d="M168.46 88.8874C168.46 88.8874 163.79 90.2302 143.64 91.1622C137.07 91.4628 128.87 91.7234 118.65 91.8737C119.3 89.7793 119.62 87.5346 119.54 85.1396C119.52 84.4782 119.46 83.8169 119.38 83.1354C118.53 76.1508 111.36 71.912 107.53 66.2301C103.39 60.0673 102.11 55.0267 101.81 48.2325C101.76 47.04 101.74 45.7974 101.74 44.4747L108.23 43.6329C108.51 44.8855 108.85 46.2082 109.28 47.5711C112.04 56.3995 118.14 66.7913 131.63 68.8756C132.19 68.9658 137.49 70.2485 143.89 72.403C152.52 75.3191 163.18 79.8285 167.01 85.1396C167.89 86.3522 168.4 87.5947 168.46 88.8874Z" fill="#4A7DAF"/>
</g>
<path d="M112.03 42.9114C112.03 44.9156 110.92 46.6593 109.29 47.5611C108.53 47.982 107.66 48.2225 106.73 48.2225H86.1702C85.3702 48.2225 84.6002 48.0421 83.9202 47.7214C82.1102 46.8697 80.8701 45.0358 80.8701 42.9014C80.8701 41.4383 81.4602 40.1055 82.4202 39.1435C83.3102 38.2517 84.5201 37.6705 85.8601 37.5903C85.9601 37.5803 86.0702 37.5803 86.1702 37.5803H106.73C106.9 37.5803 107.07 37.5903 107.24 37.6003C109.93 37.8809 112.03 40.1556 112.03 42.9114Z" fill="#AADDF9"/>
<path d="M174.44 92.6353C174.44 96.1927 171.97 99.179 168.65 99.9506C168.1 100.071 167.53 100.141 166.95 100.141H23.6502C23.0702 100.141 22.5002 100.071 21.9602 99.9506C18.6402 99.179 16.1602 96.2028 16.1602 92.6353C16.1602 90.561 16.9902 88.6771 18.3602 87.3242C19.7002 85.9814 21.5502 85.1497 23.5902 85.1296H167.01C171.12 85.1697 174.44 88.5167 174.44 92.6353Z" fill="#AADDF9"/>
<g opacity="0.4">
<path d="M105.93 92.014C105.93 93.1864 104.99 94.1284 103.82 94.1284H28.7799C27.6099 94.1284 26.6699 93.1764 26.6699 92.014C26.6699 90.8416 27.6199 89.8996 28.7799 89.8996H103.82C104.98 89.8996 105.93 90.8416 105.93 92.014Z" fill="#AADDF9"/>
</g>
<g opacity="0.4">
<path d="M65.0403 71.6915C60.3103 73.4452 55.5903 73.6857 50.9903 75.2189C46.6703 76.6619 43.9703 79.4176 40.5903 82.2135L41.0003 82.6344C41.3403 82.4741 57.2303 86.3922 73.0403 80.55C80.4403 77.8243 83.2103 63.9153 84.6103 57.2413C79.5503 63.9854 73.1003 68.6952 65.0403 71.6915Z" fill="#AADDF9"/>
</g>
<g opacity="0.4">
<path d="M102.58 41.3481C102.58 42.2701 101.84 43.0116 100.92 43.0116H87.1902C86.2702 43.0116 85.5303 42.26 85.5303 41.3481C85.5303 40.4262 86.2702 39.6846 87.1902 39.6846H100.92C101.84 39.6846 102.58 40.4262 102.58 41.3481Z" fill="#AADDF9"/>
</g>
<path d="M173.35 254.593C173.35 257.76 171.38 260.456 168.61 261.538C167.78 261.869 166.86 262.049 165.91 262.049H23.4702C23.0202 262.049 22.5703 262.009 22.1403 261.929C18.6703 261.297 16.0303 258.251 16.0303 254.583C16.0303 252.529 16.8703 250.655 18.2103 249.302C19.2203 248.29 20.5102 247.579 21.9702 247.268C22.4602 247.178 22.9603 247.118 23.4803 247.118H165.92C166.89 247.118 167.81 247.308 168.66 247.649C171.4 248.741 173.35 251.437 173.35 254.593Z" fill="#AADDF9"/>
<path d="M172.49 274.405C172.49 276.69 170.69 278.664 168.11 279.515C167.22 279.816 166.24 279.976 165.2 279.976H25.8103C24.5103 279.976 23.2802 279.716 22.2202 279.245C20.0202 278.293 18.5303 276.479 18.5303 274.395C18.5303 272.852 19.3502 271.459 20.6602 270.436C21.2902 269.955 22.0403 269.565 22.8703 269.284C23.7703 268.973 24.7603 268.813 25.8103 268.813H165.2C166.14 268.813 167.05 268.953 167.87 269.204C170.58 270.016 172.49 272.04 172.49 274.405Z" fill="#AADDF9"/>
<g opacity="0.4">
<path d="M105.93 251.898C105.93 253.07 104.99 254.012 103.82 254.012H28.7804C27.6104 254.012 26.6704 253.06 26.6704 251.898C26.6704 250.725 27.6204 249.783 28.7804 249.783H103.82C104.98 249.773 105.93 250.725 105.93 251.898Z" fill="#AADDF9"/>
</g>
<g opacity="0.4">
<path d="M107.18 273.162C107.18 274.335 106.23 275.277 105.06 275.277H30.0202C28.8502 275.277 27.9102 274.325 27.9102 273.162C27.9102 271.99 28.8602 271.048 30.0202 271.048H105.06C106.23 271.048 107.18 271.99 107.18 273.162Z" fill="#AADDF9"/>
</g>
<g opacity="0.4">
<path d="M65.7599 270.487C65.7599 276.93 60.54 282.161 54.11 282.161C47.68 282.161 42.46 276.93 42.46 270.487V106.193C42.46 99.7498 47.68 94.5189 54.11 94.5189C60.54 94.5189 65.7599 99.7498 65.7599 106.193V270.487Z" fill="#AADDF9"/>
</g>
<path d="M110.75 26.6171V32.8601C110.75 34.9946 110.12 37.0088 109.01 38.7625C106.86 42.1996 102.87 44.6748 98.1798 45.2159C97.5198 45.2961 96.8499 45.3462 96.1699 45.3462C92.1399 45.3462 88.4898 43.9433 85.8698 41.6886C84.8598 40.8267 83.9998 39.8447 83.3298 38.7625C82.2198 37.0088 81.5898 34.9946 81.5898 32.8601V26.6171C81.5898 24.9135 81.9798 23.3002 82.7098 21.8171C84.8998 17.3077 90.0999 14.131 96.1699 14.131C97.2099 14.131 98.2298 14.2312 99.2098 14.4116C102.01 14.9126 104.52 16.1152 106.47 17.7886C107.8 18.931 108.89 20.3039 109.63 21.8171C110.36 23.3002 110.75 24.9235 110.75 26.6171Z" fill="#AADDF9"/>
<path d="M112.21 17.6083C112.21 19.4221 111.18 20.9953 109.64 21.8271C108.9 22.2379 108.03 22.4684 107.11 22.4684H85.2499C84.3299 22.4684 83.4599 22.2379 82.7199 21.8271C81.1799 20.9953 80.1499 19.4221 80.1499 17.6083C80.1499 16.2655 80.7199 15.053 81.6399 14.1711C82.5599 13.2893 83.8399 12.7481 85.2499 12.7481H107.11C109.92 12.7481 112.21 14.9227 112.21 17.6083Z" fill="#AADDF9"/>
<path d="M112.21 43.2618C112.21 45.9475 109.92 48.122 107.11 48.122H85.2499C82.4299 48.122 80.1499 45.9475 80.1499 43.2618C80.1499 41.919 80.7199 40.7065 81.6399 39.8247C82.1199 39.3637 82.6999 39.003 83.3399 38.7625C83.9299 38.532 84.5799 38.4117 85.2499 38.4117H107.11C107.79 38.4117 108.43 38.532 109.02 38.7625C110.89 39.484 112.21 41.2276 112.21 43.2618Z" fill="#AADDF9"/>
<g opacity="0.3">
<path d="M112.21 43.2619C112.21 45.9475 109.92 48.1221 107.11 48.1221H97.9098C98.2698 47.0198 98.3598 46.0678 98.1998 45.226C97.6398 42.1696 93.8397 40.5562 87.6797 38.7625C90.2197 38.8426 92.3998 38.7224 94.2498 38.4118C100.69 37.3395 103.28 33.9324 103.35 28.01C103.39 23.9716 100.94 22.8793 97.1698 22.4584C93.9698 22.0976 89.8497 22.2179 85.4897 21.4162C92.5397 20.8851 97.3698 17.959 99.2298 14.4116C99.5198 13.8705 99.7398 13.3193 99.8898 12.7481H107.12C109.93 12.7481 112.22 14.9127 112.22 17.5983C112.22 19.4121 111.19 20.9854 109.65 21.8171C110.37 23.2902 110.77 24.9136 110.77 26.6171V32.8601C110.77 34.9946 110.14 37.0088 109.03 38.7625C110.89 39.484 112.21 41.2276 112.21 43.2619Z" fill="#4A7DAF"/>
</g>
</g>
<defs>
<filter id="filter0_d_724_132246" x="0" y="0.748108" width="190.44" height="325.804" filterUnits="userSpaceOnUse" color-interpolation-filters="sRGB">
<feFlood flood-opacity="0" result="BackgroundImageFix"/>
<feColorMatrix in="SourceAlpha" type="matrix" values="0 0 0 0 0 0 0 0 0 0 0 0 0 0 0 0 0 0 127 0" result="hardAlpha"/>
<feOffset dy="4"/>
<feGaussianBlur stdDeviation="8"/>
<feComposite in2="hardAlpha" operator="out"/>
<feColorMatrix type="matrix" values="0 0 0 0 0 0 0 0 0 0 0 0 0 0 0 0 0 0 0.21 0"/>
<feBlend mode="normal" in2="BackgroundImageFix" result="effect1_dropShadow_724_132246"/>
<feBlend mode="normal" in="SourceGraphic" in2="effect1_dropShadow_724_132246" result="shape"/>
</filter>
</defs>
</svg>
