<svg width="130" height="246" viewBox="0 0 130 246" fill="none" xmlns="http://www.w3.org/2000/svg">
<path d="M7.87305 67.8447V202.317H122.342V67.8447H7.87305ZM109.645 160.822C109.833 163.561 110.941 165.95 111.823 168.455C111.908 168.697 111.994 169.048 112.08 169.465C110.808 173.616 107.156 176.614 102.856 176.614C102.801 176.614 102.762 176.614 102.708 176.605H102.7C100.085 176.564 97.7129 175.411 95.9882 173.566C94.2323 171.687 93.1476 169.09 93.1476 166.217V125.164C93.1476 121.549 94.8723 118.375 97.471 116.505C98.9772 115.436 100.78 114.793 102.708 114.768H102.715C102.77 114.759 102.809 114.759 102.864 114.759C105.548 114.759 107.983 115.92 109.731 117.799C110.582 118.718 111.284 119.82 111.776 121.022C111.589 121.774 111.417 122.392 111.308 122.776C109.872 127.528 108.951 131.244 110.426 136.288C111.885 141.298 113.274 142.434 112.08 147.987C111.144 152.288 109.325 156.188 109.645 160.822Z" fill="#AADDF9"/>
<path d="M100.292 173.566C98.1747 174.935 95.4635 175.929 92.4168 176.363C93.4496 176.505 94.5211 176.589 95.6184 176.605H95.6314C95.7217 176.614 95.8121 176.614 95.9154 176.614C100.356 176.614 104.371 175.453 107.276 173.566C110.181 171.687 111.988 169.081 111.988 166.209V125.148C111.988 121.373 108.864 118.058 104.204 116.238C101.776 115.286 98.9363 114.751 95.9025 114.751C95.7992 114.751 95.7217 114.751 95.6184 114.751H95.6056C94.5082 114.759 93.4367 114.843 92.4039 114.993C99.5947 116.029 104.978 120.179 104.978 125.148V166.209C105.004 169.081 103.197 171.687 100.292 173.566Z" fill="#4A7DAF"/>
<g opacity="0.4">
<path d="M58.7049 151.871C49.1241 176.364 26.5204 188.631 7.87354 179.679V93.3407C18.3763 85.5494 31.0765 83.5536 42.2477 89.3239C61.056 99.0275 68.4164 127.028 58.7049 151.871Z" fill="#AADDF9"/>
</g>
<path d="M130 89.2158C130 92.1803 127.974 94.6689 125.252 95.3119C124.801 95.4121 124.334 95.4706 123.858 95.4706H6.35318C5.87759 95.4706 5.41019 95.4121 4.96739 95.3119C2.24502 94.6689 0.211426 92.1887 0.211426 89.2158C0.211426 87.4872 0.892029 85.9172 2.01542 84.7899C2.81081 83.9799 3.83581 83.387 4.96739 83.1197C5.41019 83.0195 5.87759 82.9611 6.35318 82.9611H123.85C124.325 82.9611 124.793 83.0195 125.244 83.1197C127.966 83.7627 130 86.2513 130 89.2158Z" fill="#AADDF9"/>
<path d="M122.311 197.108V206.628C122.311 206.937 122.303 207.246 122.303 207.555C122.257 209.743 122.07 211.872 121.734 213.943C121.547 215.129 121.305 216.298 121.032 217.442C120.845 218.211 120.635 218.962 120.409 219.697H9.97687C9.75073 218.954 9.54797 218.202 9.35303 217.442C9.08011 216.323 8.84619 215.179 8.65904 214.019C8.33154 212.031 8.13658 209.985 8.08199 207.889C8.0664 207.472 8.06641 207.054 8.06641 206.637V197.117H122.311V197.108Z" fill="#98C9EA"/>
<path d="M101.846 245.066H27.9821C17.6391 245.066 7.00045 236.281 8.15226 222.311C8.27678 220.749 8.55697 219.129 9.00057 217.434H120.835C121.294 219.204 121.582 220.908 121.699 222.528C122.718 236.373 112.126 245.066 101.846 245.066Z" fill="#98C9EA"/>
<g opacity="0.2">
<path d="M129.105 201.769C129.105 199.138 127.505 196.892 125.241 195.982V95.313C127.965 94.67 130 92.1814 130 89.2169C130 86.244 127.965 83.7639 125.241 83.1209V72.8911C125.618 72.7993 125.979 72.6824 126.324 72.5154C126.447 72.4736 126.562 72.4152 126.668 72.3484C126.693 72.34 126.701 72.3233 126.718 72.3233C126.849 72.2565 126.972 72.1813 127.087 72.1062C127.276 71.9809 127.456 71.8557 127.628 71.7137C127.719 71.6469 127.801 71.5717 127.891 71.4966C127.924 71.4715 127.948 71.4465 127.981 71.4131C128.072 71.3379 128.145 71.2544 128.227 71.1709C128.26 71.1375 128.301 71.1041 128.334 71.0707C128.424 70.9621 128.523 70.8536 128.613 70.7367C128.621 70.72 128.629 70.7116 128.638 70.7032C128.728 70.5947 128.802 70.4861 128.884 70.3609C128.949 70.269 128.999 70.1939 129.04 70.102C129.114 70.0018 129.171 69.8932 129.228 69.7847C129.31 69.6427 129.376 69.5007 129.442 69.3588C129.516 69.2085 129.573 69.0582 129.622 68.9079C129.671 68.7575 129.721 68.6072 129.77 68.4485C129.811 68.2899 129.852 68.1312 129.877 67.9726C129.901 67.8139 129.934 67.6385 129.95 67.4799H104.581C104.572 67.5968 104.564 67.7137 104.556 67.8306C104.417 69.6093 103.26 66.8369 103.12 68.5321C103.005 69.9935 66.4439 70.5112 37.9644 71.1709C33.0579 71.2794 28.3892 71.3964 24.1883 71.5217C12.8408 71.8724 4.90658 72.2899 4.87376 72.8828C4.87376 73.1667 11.9054 73.935 22.2027 74.9371C27.6426 75.4715 33.985 76.0561 40.7049 76.6741C68.8972 79.2712 103.481 82.3276 103.44 82.9455C103.169 87.1126 102.817 91.2963 102.357 95.455C102.267 96.2566 80.5893 95.8809 57.6974 95.455C55.2277 95.4049 52.7498 95.3631 50.2801 95.3047C47.0802 95.2462 43.9049 95.1877 40.8034 95.1293C33.8456 95.004 27.2652 94.9038 21.6858 94.8537C11.7167 94.7618 4.93121 94.837 4.86557 95.2879V95.2963C4.86557 95.8809 11.6757 96.5573 21.6858 97.2754C27.2734 97.693 33.8538 98.1022 40.8034 98.5281C45.1028 98.7869 49.5417 99.0542 53.9724 99.313C78.054 100.749 101.914 102.177 101.742 103.263C101.258 106.311 99.7479 113.192 99.1161 116.223C99.0997 116.315 99.0833 116.39 99.0669 116.474C97.8443 122.37 96.351 128.215 94.5213 133.985C94.4065 134.353 94.2998 134.712 94.1767 135.071C93.7993 136.249 93.2168 137.359 93.0034 138.578C86.9564 173.543 62.4399 187.464 40.8115 192.833C35.1091 194.245 29.6036 195.063 24.697 195.522C23.6714 195.614 22.6621 195.689 21.694 195.756C11.7577 196.424 4.87376 195.648 4.87376 195.648C3.67583 195.898 2.62561 196.499 1.7887 197.343C0.689237 198.462 0 200.023 0 201.744C0 204.792 2.16613 207.339 5.02147 207.856C5.0789 209.961 5.28401 212.007 5.62041 213.986C4.9394 214.22 4.32403 214.554 3.80712 214.955C2.73227 215.806 2.05946 216.959 2.05946 218.245C2.05946 219.982 3.2738 221.493 5.08709 222.278C3.87276 236.249 15.089 245.034 25.9934 245.034H103.867C114.714 245.034 125.873 236.333 124.798 222.504C126.915 221.786 128.391 220.149 128.391 218.236C128.391 216.266 126.816 214.579 124.609 213.902C124.962 211.84 125.167 209.702 125.208 207.522C127.489 206.654 129.105 204.408 129.105 201.769ZM98.6402 125.159C98.6402 120.19 102.054 116.04 106.632 115.004C105.984 114.854 105.303 114.77 104.597 114.762C104.655 114.754 104.696 114.754 104.753 114.754C107.575 114.754 110.135 115.914 111.973 117.793C112.868 118.712 113.606 119.814 114.123 121.017C113.926 121.768 113.746 122.386 113.631 122.77C112.121 127.522 111.153 131.238 112.704 136.282C114.238 141.292 115.698 142.428 114.443 147.981C113.458 152.274 111.547 156.182 111.891 160.817C112.088 163.556 113.253 165.944 114.18 168.449C114.271 168.691 114.361 169.042 114.451 169.46C113.114 173.61 109.274 176.608 104.753 176.608C104.696 176.608 104.655 176.608 104.597 176.599C105.303 176.591 105.984 176.508 106.632 176.357C104.696 175.923 102.972 174.938 101.627 173.56C99.7807 171.681 98.6402 169.084 98.6402 166.211V125.159Z" fill="#4A7DAF"/>
</g>
<g opacity="0.4">
<path d="M39.5309 86.4098C39.5309 87.3869 39.2292 88.1718 38.8538 88.1718H14.7733C14.3978 88.1718 14.0962 87.3785 14.0962 86.4098C14.0962 85.4328 14.4011 84.6478 14.7733 84.6478H38.8538C39.226 84.6478 39.5309 85.4411 39.5309 86.4098Z" fill="#AADDF9"/>
</g>
<path d="M122.103 63.6784C122.103 63.6784 118.465 64.7974 102.767 65.574C97.6483 65.8245 91.2599 66.0417 83.2977 66.1669C78.4052 66.2421 72.9205 66.2839 66.7736 66.2839C20.3642 66.2839 8.10938 63.6784 8.10938 63.6784C8.15612 62.6012 8.55344 61.5657 9.24682 60.5552C14.4588 52.8475 35.8911 47.2107 36.9507 47.0019C48.9562 44.7305 54.0747 36.4632 56.2405 29.3818C57.2611 26.0582 57.6273 22.9934 57.7597 20.9391C57.8376 20.9308 57.9233 20.9308 58.0012 20.9308H74.019C74.1514 20.9308 74.2838 20.9391 74.4163 20.9475C74.5487 22.2752 74.7824 24.0038 75.1954 25.9579C75.4135 27.0018 75.6784 28.1041 76.0134 29.2398C78.1636 36.5969 82.916 45.2566 93.4257 46.9935C93.862 47.0687 97.9911 48.1376 102.977 49.933C109.701 52.3631 118.005 56.121 120.989 60.5469C121.659 61.5657 122.057 62.6012 122.103 63.6784Z" fill="#AADDF9"/>
<g opacity="0.2">
<path d="M122.104 63.6789C122.104 63.6789 118.71 64.7979 104.064 65.5745C99.2893 65.8251 93.3295 66.0422 85.9016 66.1675C86.374 64.4221 86.6066 62.5516 86.5485 60.5558C86.5339 60.0046 86.4903 59.4535 86.4322 58.8856C85.8144 53.0651 80.6032 49.5327 77.8196 44.7978C74.8106 39.6621 73.8803 35.4617 73.6622 29.7998C73.6259 28.8061 73.6113 27.7706 73.6113 26.6683L78.3283 25.9668C78.5318 27.0106 78.7789 28.1129 79.0915 29.2486C81.0974 36.6057 85.5309 45.2654 95.3355 47.0024C95.7425 47.0776 99.5946 48.1465 104.246 49.9419C110.518 52.372 118.266 56.1298 121.05 60.5558C121.689 61.5662 122.06 62.6017 122.104 63.6789Z" fill="#4A7DAF"/>
</g>
<path d="M47.582 25.3652C47.582 27.0354 48.9387 28.4884 50.931 29.24C51.8599 29.5907 52.9233 29.7911 54.06 29.7911H79.1899C80.1677 29.7911 81.1088 29.6408 81.94 29.3736C84.1523 28.6638 85.668 27.1356 85.668 25.3569C85.668 24.1377 84.9468 23.027 83.7734 22.2253C82.6856 21.4821 81.2067 20.9978 79.5689 20.931C79.4466 20.9226 79.3121 20.9226 79.1899 20.9226H54.06C53.8522 20.9226 53.6445 20.931 53.4367 20.9393C50.1488 21.1731 47.582 23.0688 47.582 25.3652Z" fill="#AADDF9"/>
<path d="M130.001 66.8014C130.001 69.7659 127.975 72.2544 125.253 72.8974C124.802 72.9976 124.335 73.0561 123.859 73.0561H6.35416C5.87856 73.0561 5.41117 72.9976 4.96837 72.8974C2.246 72.2544 0.212402 69.7742 0.212402 66.8014C0.212402 65.0727 0.893006 63.5028 2.01639 62.3755C3.11518 61.2564 4.63218 60.5633 6.30496 60.5466H123.908C127.278 60.58 130.001 63.3692 130.001 66.8014Z" fill="#AADDF9"/>
<g opacity="0.4">
<path d="M39.5319 66.2835C39.5319 67.2605 39.2302 68.0455 38.8548 68.0455H14.7743C14.3988 68.0455 14.0972 67.2522 14.0972 66.2835C14.0972 65.3064 14.402 64.5215 14.7743 64.5215H38.8548C39.227 64.5215 39.5319 65.3064 39.5319 66.2835Z" fill="#AADDF9"/>
</g>
<g opacity="0.4">
<path d="M42.7597 49.3478C40.7703 50.8092 38.785 51.0097 36.8503 52.2873C35.0333 53.4898 33.8977 55.7863 32.4761 58.1162L32.6485 58.4669C32.7915 58.3333 39.4748 61.5985 46.1245 56.73C49.2369 54.4585 50.402 42.8676 50.9908 37.306C48.8626 42.9261 46.1497 46.851 42.7597 49.3478Z" fill="#AADDF9"/>
</g>
<g opacity="0.4">
<path d="M74.7242 24.062C74.7242 24.8303 73.747 25.4482 72.532 25.4482H54.4002C53.1852 25.4482 52.208 24.822 52.208 24.062C52.208 23.2938 53.1852 22.6758 54.4002 22.6758H72.532C73.747 22.6758 74.7242 23.2938 74.7242 24.062Z" fill="#AADDF9"/>
</g>
<path d="M128.56 201.768C128.56 204.406 126.95 206.653 124.687 207.555C124.009 207.83 123.258 207.981 122.482 207.981H6.11705C5.74943 207.981 5.38182 207.947 5.03054 207.88C2.19576 207.354 0.0390625 204.816 0.0390625 201.759C0.0390625 200.047 0.725284 198.486 1.81998 197.358C2.64509 196.515 3.69892 195.922 4.89165 195.663C5.29195 195.588 5.70042 195.538 6.12523 195.538H122.49C123.282 195.538 124.034 195.697 124.728 195.98C126.967 196.891 128.56 199.137 128.56 201.768Z" fill="#AADDF9"/>
<path d="M127.423 218.277C127.423 220.181 125.972 221.826 123.893 222.536C123.176 222.786 122.386 222.92 121.548 222.92H9.20712C8.1594 222.92 7.16806 222.703 6.31376 222.31C4.54068 221.517 3.33984 220.006 3.33984 218.269C3.33984 216.983 4.0007 215.822 5.05649 214.97C5.56423 214.569 6.16871 214.244 6.83764 214.01C7.56299 213.751 8.36088 213.617 9.20712 213.617H121.548C122.305 213.617 123.039 213.734 123.7 213.943C125.884 214.619 127.423 216.306 127.423 218.277Z" fill="#AADDF9"/>
<g opacity="0.4">
<path d="M39.5245 199.521C39.5245 200.498 39.2229 201.283 38.8474 201.283H14.767C14.3915 201.283 14.0898 200.49 14.0898 199.521C14.0898 198.544 14.3947 197.759 14.767 197.759H38.8474C39.2197 197.751 39.5245 198.544 39.5245 199.521Z" fill="#AADDF9"/>
</g>
<g opacity="0.4">
<path d="M41.173 217.242C41.173 218.219 40.868 219.004 40.4924 219.004H16.4025C16.0269 219.004 15.7251 218.21 15.7251 217.242C15.7251 216.265 16.0301 215.479 16.4025 215.479H40.4924C40.868 215.479 41.173 216.265 41.173 217.242Z" fill="#AADDF9"/>
</g>
<g opacity="0.4">
<path d="M26.0963 215.012C26.0963 220.382 28.0786 224.741 30.5203 224.741C32.9621 224.741 34.9443 220.382 34.9443 215.012V78.1011C34.9443 72.7315 32.9621 68.3724 30.5203 68.3724C28.0786 68.3724 26.0963 72.7315 26.0963 78.1011V215.012Z" fill="#AADDF9"/>
</g>
<path d="M45.8831 11.7859V16.9885C45.8831 18.7672 46.763 20.4457 48.3133 21.9071C51.3162 24.7714 56.889 26.834 63.4394 27.285C64.3612 27.3518 65.2969 27.3936 66.2467 27.3936C71.8753 27.3936 76.9733 26.2244 80.6326 24.3455C82.0432 23.6273 83.2444 22.809 84.1801 21.9071C85.7305 20.4457 86.6104 18.7672 86.6104 16.9885V11.7859C86.6104 10.3663 86.0657 9.02186 85.0461 7.78594C81.9873 4.02809 74.7245 1.38086 66.2467 1.38086C64.7941 1.38086 63.3695 1.46439 62.0008 1.61471C58.0901 2.03224 54.5844 3.03433 51.8608 4.42891C50.0033 5.3809 48.4809 6.52498 47.4474 7.78594C46.4278 9.02186 45.8831 10.3747 45.8831 11.7859Z" fill="#AADDF9"/>
<path d="M47.812 4.27867C47.812 5.79017 48.9974 7.1012 50.7698 7.79432C51.6214 8.1367 52.6227 8.32878 53.6815 8.32878H78.84C79.8988 8.32878 80.9 8.1367 81.7517 7.79432C83.524 7.1012 84.7095 5.79017 84.7095 4.27867C84.7095 3.15967 84.0535 2.14923 82.9947 1.41436C81.9358 0.679494 80.4627 0.228516 78.84 0.228516H53.6815C50.4475 0.228516 47.812 2.04067 47.812 4.27867Z" fill="#AADDF9"/>
<path d="M47.812 25.657C47.812 27.895 50.4475 29.7071 53.6815 29.7071H78.84C82.0855 29.7071 84.7095 27.895 84.7095 25.657C84.7095 24.538 84.0535 23.5275 82.9947 22.7927C82.4422 22.4085 81.7747 22.1079 81.0381 21.9075C80.3591 21.7154 79.6111 21.6152 78.84 21.6152H53.6815C52.8989 21.6152 52.1623 21.7154 51.4833 21.9075C49.3311 22.5087 47.812 23.9618 47.812 25.657Z" fill="#AADDF9"/>
<g opacity="0.3">
<path d="M47.8332 25.6566C47.8332 27.8947 48.2032 29.7068 48.6571 29.7068H50.1434C50.0853 28.7882 50.0707 27.9949 50.0966 27.2934C50.187 24.7464 50.8009 23.4019 51.7961 21.9072C51.3858 21.974 51.0336 21.8738 50.7347 21.6149C49.6943 20.7214 49.2759 17.8821 49.2646 12.9468C49.2581 9.58142 49.6539 8.67116 50.263 8.32042C50.7799 8.01979 51.4455 8.12002 52.1499 7.45196C51.011 7.00937 50.2307 4.57095 49.9302 1.61477C49.8833 1.16383 49.8478 0.70451 49.8235 0.228516H48.6555C48.2016 0.228516 47.8316 2.03231 47.8316 4.27032C47.8316 5.78181 47.998 7.0929 48.2468 7.78601C48.1305 9.01358 48.0659 10.3664 48.0659 11.786V16.9885C48.0659 18.7673 48.1676 20.4458 48.347 21.9072C48.0465 22.5084 47.8332 23.9614 47.8332 25.6566Z" fill="#4A7DAF"/>
</g>
</svg>
