<svg width="202" height="161" viewBox="0 0 202 161" fill="none" xmlns="http://www.w3.org/2000/svg">
<path d="M181.8 161H20.2C14.8426 161 9.70468 158.88 5.91644 155.106C2.12821 151.331 0 146.212 0 140.875V19.2496C0.22657 14.0653 2.45439 9.16854 6.21835 5.58168C9.98231 1.99482 14.9915 -0.00490284 20.2 9.02727e-06H181.8C187.157 9.02727e-06 192.295 2.12031 196.084 5.89448C199.872 9.66865 202 14.7875 202 20.125V140.875C202 146.212 199.872 151.331 196.084 155.106C192.295 158.88 187.157 161 181.8 161ZM20.2 38.9218V140.875H181.8V38.9218L101 92.575L20.2 38.9218ZM28.28 20.125L101 68.425L173.72 20.125H28.28Z" fill="#40BFEF" fill-opacity="0.06"/>
</svg>
