<svg width="19" height="27" viewBox="0 0 19 27" fill="none" xmlns="http://www.w3.org/2000/svg">
<path fill-rule="evenodd" clip-rule="evenodd" d="M9.09718 26.7968C14.1297 26.7968 18.1943 22.7321 18.1943 17.6997C18.1943 12.6672 14.6458 6.77447 9.09719 -7.95298e-07C3.22598 7.16158 3.70377e-05 12.6887 3.65996e-05 17.6997C3.61615e-05 22.7106 4.06472 26.7968 9.09718 26.7968Z" fill="#0195D1"/>
<path fill-rule="evenodd" clip-rule="evenodd" d="M9.09747 21.7213C12.9041 21.7213 16.001 18.6459 16.001 14.8393C16.001 11.0327 13.3127 6.55937 9.09747 1.41937C4.64567 6.83895 2.19396 11.0327 2.19396 14.8393C2.19395 18.6459 5.29086 21.7213 9.09747 21.7213Z" fill="#4FCAF4"/>
<path fill-rule="evenodd" clip-rule="evenodd" d="M9.09703 15.377C11.5487 15.377 13.5488 13.3769 13.5488 10.9252C13.5488 8.47349 11.8068 5.57014 9.09703 2.25818C6.2367 5.7637 4.64523 8.45198 4.64523 10.9252C4.64523 13.3769 6.64532 15.377 9.09703 15.377Z" fill="#A1E1FA"/>
</svg>
