<svg width="316" height="358" viewBox="0 0 316 358" fill="none" xmlns="http://www.w3.org/2000/svg">
<path d="M62.5323 263.591H2.2895C1.69831 263.591 1.22534 263.119 1.22534 262.528V261.02C1.22534 260.429 1.69831 259.956 2.2895 259.956H62.5323C63.1235 259.956 63.5965 260.429 63.5965 261.02V262.528C63.5669 263.119 63.0939 263.591 62.5323 263.591Z" fill="#7772D6"/>
<path d="M80.7693 110.412C80.7693 106.868 78.1176 103.919 74.7083 103.46V94.5322C74.7083 88.229 69.5942 83.089 63.2626 83.089H17.2362C10.9316 83.089 5.79051 88.2019 5.79051 94.5322V103.514C2.48938 104.082 0 106.976 0 110.412C0 113.875 2.51644 116.742 5.79051 117.31V164.138C2.48938 164.707 0 167.601 0 171.037C0 174.5 2.51644 177.367 5.79051 177.935V178.963C5.79051 185.266 10.9045 190.406 17.2362 190.406H26.3278C27.9784 190.406 29.3043 191.732 29.3043 193.382V196.656H51.1945V193.382C51.1945 191.732 52.5204 190.406 54.1709 190.406H63.2626C69.5672 190.406 74.7083 185.293 74.7083 178.963V177.989C78.1447 177.529 80.7693 174.581 80.7693 171.037C80.7693 167.493 78.1176 164.544 74.7083 164.084V117.365C78.1176 116.905 80.7693 113.956 80.7693 110.412Z" fill="#62BDF3"/>
<path d="M5.79077 117.31L52.7101 117.906L5.79077 118.501V117.31Z" fill="#3797DB"/>
<path d="M74.7076 102.269L27.7883 102.864L74.7076 103.46V102.269Z" fill="#3797DB"/>
<path d="M5.79077 177.935L52.7101 178.53L5.79077 179.125V177.935Z" fill="#62BDF3"/>
<path d="M74.7076 162.894L27.7883 163.489L74.7076 164.084V162.894Z" fill="#62BDF3"/>
<path opacity="0.3" d="M80.7694 110.412C80.7694 106.868 78.1177 103.919 74.7084 103.459V94.5322C74.7084 88.2289 69.5943 83.0889 63.2627 83.0889H55.1181C51.4111 115.39 41.3995 164.274 14.5034 190.082C15.3693 190.298 16.2893 190.406 17.2363 190.406H26.3279C27.9785 190.406 29.3044 191.732 29.3044 193.382V196.656H51.1946V193.382C51.1946 191.732 52.5205 190.406 54.171 190.406H63.2627C69.5673 190.406 74.7084 185.293 74.7084 178.963V177.989C78.1448 177.529 80.7694 174.581 80.7694 171.037C80.7694 167.493 78.1177 164.544 74.7084 164.084V117.364C78.1177 116.905 80.7694 113.956 80.7694 110.412Z" fill="#3799D3"/>
<path d="M40.264 140.711C59.2876 140.711 74.7093 139.778 74.7093 138.628C74.7093 137.477 59.2876 136.545 40.264 136.545C21.2403 136.545 5.8186 137.477 5.8186 138.628C5.8186 139.778 21.2403 140.711 40.264 140.711Z" fill="#3797DB"/>
<path opacity="0.3" d="M74.709 164.084V138.628C74.6008 139.764 59.2046 140.711 40.2637 140.711C21.2416 140.711 5.81832 139.764 5.81832 138.628V164.138C2.5172 164.707 0.027832 167.601 0.027832 171.037C0.027832 174.5 2.54425 177.367 5.81832 177.935V178.963C5.81832 185.266 10.9324 190.406 17.264 190.406H26.3557C28.0062 190.406 29.3321 191.732 29.3321 193.382V196.656H51.2223V193.382C51.2223 191.732 52.5482 190.406 54.1988 190.406H63.2904C69.595 190.406 74.7361 185.293 74.7361 178.963V177.989C78.1725 177.529 80.7972 174.581 80.7972 171.037C80.7701 167.493 78.1184 164.571 74.709 164.084Z" fill="#62BDF3"/>
<path d="M54.2515 209.262H26.4896C24.1355 209.262 22.2415 207.368 22.2415 205.015V198.901C22.2415 196.547 24.1355 194.654 26.4896 194.654H54.2515C56.6056 194.654 58.4997 196.547 58.4997 198.901V205.015C58.4997 207.341 56.6056 209.262 54.2515 209.262Z" fill="#7772D6"/>
<path d="M70.6765 357.402H10.0657C5.30342 357.402 1.43408 353.533 1.43408 348.772V210.344C1.43408 205.583 5.30342 201.714 10.0657 201.714H70.6765C75.4388 201.714 79.3082 205.583 79.3082 210.344V348.799C79.3082 353.56 75.4388 357.402 70.6765 357.402Z" fill="#D1EAF2"/>
<path d="M63.8312 271.402H16.939V229.849C16.939 225.088 20.8083 221.219 25.5706 221.219H55.2266C59.9889 221.219 63.8582 225.088 63.8582 229.849V271.402H63.8312Z" fill="#7772D6"/>
<path d="M59.9073 271.402H20.8621V230.579C20.8621 227.414 23.4326 224.817 26.6255 224.817H54.1439C57.3097 224.817 59.9073 227.387 59.9073 230.579V271.402Z" fill="#D1EAF2"/>
<path d="M66.4291 354.074H14.3417C9.36295 354.074 5.3042 350.016 5.3042 345.039V214.104C5.3042 209.127 9.36295 205.069 14.3417 205.069H66.4291C71.4079 205.069 75.4666 209.127 75.4666 214.104V345.012C75.4666 350.016 71.4079 354.074 66.4291 354.074ZM14.3417 205.664C9.68765 205.664 5.89949 209.451 5.89949 214.104V345.012C5.89949 349.665 9.68765 353.452 14.3417 353.452H66.4291C71.0832 353.452 74.8714 349.665 74.8714 345.012V214.104C74.8714 209.451 71.0832 205.664 66.4291 205.664H14.3417Z" fill="#7772D6"/>
<path d="M13.2048 212.752C13.2048 213.645 12.4742 214.375 11.5813 214.375C10.6883 214.375 9.95776 213.645 9.95776 212.752C9.95776 211.859 10.6883 211.129 11.5813 211.129C12.4742 211.156 13.2048 211.859 13.2048 212.752Z" fill="#7772D6"/>
<path d="M31.7931 246.838H31.4414L32.3343 238.722C32.3884 238.208 31.9825 237.748 31.4414 237.748H30.7108H28.9791H28.2485C27.7073 237.748 27.3014 238.208 27.3556 238.722L28.2485 246.838H27.8967C27.5179 246.838 27.2473 247.136 27.2473 247.487V249.706C27.2473 250.084 27.545 250.355 27.8967 250.355H31.7661C32.1449 250.355 32.4155 250.057 32.4155 249.706V247.487C32.4425 247.136 32.1449 246.838 31.7931 246.838Z" fill="white"/>
<path d="M32.6864 249.354H27.0853C26.8689 249.354 26.6794 249.164 26.6794 248.948V248.38C26.6794 248.164 26.8689 247.974 27.0853 247.974H32.6864C32.9029 247.974 33.0923 248.164 33.0923 248.38V248.948C33.0923 249.164 32.9029 249.354 32.6864 249.354Z" fill="#9ED16F"/>
<path d="M52.7633 246.838H52.4116L53.3045 238.722C53.3586 238.208 52.9528 237.748 52.4116 237.748H51.681H49.9493H49.2187C48.6775 237.748 48.2717 238.208 48.3258 238.722L49.2187 246.838H48.8669C48.4881 246.838 48.2175 247.136 48.2175 247.487V249.706C48.2175 250.084 48.5152 250.355 48.8669 250.355H52.7363C53.1151 250.355 53.3857 250.057 53.3857 249.706V247.487C53.4398 247.136 53.1422 246.838 52.7633 246.838Z" fill="white"/>
<path d="M53.6835 249.354H48.0824C47.8659 249.354 47.6765 249.164 47.6765 248.948V248.38C47.6765 248.164 47.8659 247.974 48.0824 247.974H53.6835C53.9 247.974 54.0894 248.164 54.0894 248.38V248.948C54.0623 249.164 53.9 249.354 53.6835 249.354Z" fill="#62BDF3"/>
<path d="M52.5201 254.818H49.1919H44.3755L47.1625 271.429H49.1919H52.5201H54.5224L57.3094 254.818H52.5201Z" fill="#7772D6"/>
<path d="M57.8234 256.388H43.8613C43.5636 256.388 43.3472 256.144 43.3472 255.874V255.143C43.3472 254.846 43.5907 254.629 43.8613 254.629H57.8234C58.1211 254.629 58.3375 254.873 58.3375 255.143V255.874C58.3375 256.171 58.1211 256.388 57.8234 256.388Z" fill="#62BDF3"/>
<path opacity="0.3" d="M46.6488 259.012C46.1076 259.012 45.5935 259.093 45.1064 259.255L46.7841 269.265C49.544 269.183 51.7628 266.938 51.7628 264.152C51.7628 261.284 49.4899 259.012 46.6488 259.012Z" fill="#DAEEF7"/>
<path d="M74.8102 162.81L27.8909 163.406L74.8102 164.001V162.81Z" fill="#3797DB"/>
<path d="M5.68701 177.748L52.6063 178.343L5.68701 178.938V177.748Z" fill="#3797DB"/>
<path d="M217.03 342.761V352.817C217.03 353.645 216.348 354.326 215.52 354.326H191.975C190.271 354.326 189.613 352.111 191.05 351.185L203.955 342.785C203.955 342.761 209.457 346.559 217.03 342.761Z" fill="#45258F"/>
<path d="M268.965 342.761V352.817C268.965 353.645 269.647 354.326 270.475 354.326H294.02C295.724 354.326 296.381 352.111 294.945 351.185L282.04 342.785C282.04 342.761 276.537 346.559 268.965 342.761Z" fill="#45258F"/>
<path d="M136.73 82.3547C136.73 82.3547 139.238 84.5704 139.238 85.6418C139.238 86.7131 141.381 96.7446 141.381 101.249C141.381 105.754 128.379 109.26 128.379 109.26L125.067 101.249C125.067 101.249 126.845 86.1531 127.088 86.1531C127.307 86.1774 136.73 82.3547 136.73 82.3547Z" fill="#EFAC7F"/>
<path d="M132.176 77.1685L127.525 77.4363L120.781 77.8259L126.04 100.86L128.84 100.713L133.515 100.446L136.315 100.275L138.92 76.7789L132.176 77.1685Z" fill="#3797DB"/>
<path d="M139.748 78.946L120.172 80.066C119.782 80.0903 119.442 79.7738 119.417 79.3842L119.369 78.3373C119.344 77.9477 119.661 77.6068 120.05 77.5825L139.626 76.4624C140.016 76.4381 140.357 76.7546 140.381 77.1442L140.43 78.1912C140.454 78.5808 140.162 78.9216 139.748 78.946Z" fill="#9ED16F"/>
<path opacity="0.3" d="M124.311 83.4991C123.557 83.5478 122.851 83.6939 122.193 83.9374L125.358 97.816C129.205 97.4751 132.127 94.1394 131.908 90.2436C131.665 86.2992 128.28 83.2556 124.311 83.4991Z" fill="#DAEEF7"/>
<path d="M192.195 165.505C204.442 180.649 228.937 202.49 228.937 202.49L217.006 345.61C217.006 345.61 205.27 347.631 199.67 344.076C199.67 344.076 191.392 207.992 192.195 165.505Z" fill="#2D185D"/>
<path d="M196.821 171.129C196.87 168.986 192.097 175.317 192.171 173.588C194.045 137.966 253.504 167.842 253.504 167.842L268.016 180.308L287.008 345.342C287.008 345.342 277.439 349.335 268.892 346.632L228.912 204.267C228.912 204.267 215.837 199.665 196.821 171.129Z" fill="#45258F"/>
<path d="M245.031 54.1106L245.104 70.5458L229.132 68.0866L231.786 49.6061L245.031 54.1106Z" fill="#EFAC7F"/>
<path opacity="0.6" d="M230.567 58.128L231.785 49.6304L245.055 55.6932V58.9315C241.865 59.7107 235.875 60.3924 230.567 58.128Z" fill="#FC8D84"/>
<path d="M222.119 20.6071L221.145 31.8804L222.923 33.0004L226.234 19.2679L222.119 20.6071Z" fill="#5E2E0D"/>
<path d="M224.505 30.7117C224.992 33.2683 223.726 35.6544 221.681 36.044C219.636 36.4336 217.59 34.6805 217.079 32.1239C216.592 29.5673 217.858 27.1812 219.903 26.7916C221.973 26.402 224.018 28.1551 224.505 30.7117Z" fill="#D19369"/>
<path d="M222.435 44.6634C222.046 43.519 221.778 42.3503 221.608 41.1329C221.072 37.8702 221.169 34.5345 221.437 31.6613C221.51 31.0526 221.535 30.4196 221.535 29.8109C221.583 27.303 222.119 24.7707 223.215 22.2385C226.745 14.1548 235.316 9.23646 244.106 10.3078C255.915 11.7687 263.706 22.8716 261.442 34.2179C262.805 33.7797 264.242 33.9014 265.337 34.6805C267.48 36.1901 267.675 39.5746 265.776 42.2529C263.876 44.9069 260.614 45.8565 258.471 44.3469C258.179 44.1277 257.911 43.8842 257.692 43.6164C254.77 53.0636 245.347 58.9559 235.876 56.8863C231.25 55.888 227.403 53.161 224.846 49.4844C224.676 49.2652 224.481 49.0218 224.31 48.7296C223.507 47.4635 222.898 46.0999 222.435 44.6634Z" fill="#EFAC7F"/>
<path d="M243.423 32.124C242.985 33.2683 243.764 34.4858 244.982 34.5345C245.712 34.5832 246.418 34.1205 246.686 33.4388C247.124 32.2944 246.345 31.077 245.128 31.0283C244.397 30.9796 243.716 31.4422 243.423 32.124Z" fill="#333333"/>
<path d="M228.474 29.8839C228.036 31.0282 228.815 32.2457 230.032 32.2944C230.763 32.343 231.469 31.8804 231.737 31.1987C232.175 30.0543 231.396 28.8369 230.178 28.7882C229.448 28.7395 228.742 29.2021 228.474 29.8839Z" fill="#333333"/>
<path d="M242.011 28.5448C242.936 28.3743 243.788 28.2769 244.641 28.2526C245.493 28.2282 246.296 28.3256 247.075 28.5448C247.855 28.7639 248.609 29.0561 249.316 29.5187L249.583 29.6648C249.681 29.7135 249.754 29.7865 249.851 29.8596L250.387 30.2248C250.752 30.4926 251.069 30.7848 251.458 31.0527C251.288 30.6144 251.093 30.2005 250.825 29.8109C250.533 29.4457 250.289 29.0317 249.9 28.7152C249.218 28.0335 248.317 27.5708 247.368 27.303C246.418 27.0352 245.395 27.0352 244.47 27.2543C243.594 27.4978 242.693 27.9117 242.011 28.5448Z" fill="#5E2E0D"/>
<path d="M235.023 27.4004C234.585 26.5725 233.879 25.9151 233.051 25.4038C232.247 24.8925 231.274 24.576 230.3 24.5273C229.326 24.4786 228.303 24.6247 227.451 25.0629C226.988 25.2334 226.623 25.5499 226.233 25.7934C225.868 26.0856 225.552 26.4264 225.235 26.7917C225.698 26.6699 226.112 26.4751 226.526 26.3534L227.159 26.1586C227.256 26.1343 227.353 26.0856 227.475 26.0612L227.792 26.0125C228.62 25.7934 229.423 25.769 230.227 25.8177C231.03 25.8664 231.834 26.0369 232.637 26.329C233.416 26.5725 234.195 26.9621 235.023 27.4004Z" fill="#5E2E0D"/>
<path d="M237.751 27.6925C237.872 28.9586 237.775 30.2247 237.556 31.4665C237.434 32.0996 237.264 32.7083 237.02 33.3413C236.777 33.95 236.46 34.5831 235.9 35.0944C235.267 35.5814 234.975 35.7275 234.804 36.1901C234.61 36.5797 234.707 37.091 234.902 37.5536C235.364 38.5275 236.387 39.258 237.507 39.7937C236.265 39.745 234.902 39.2337 234.074 38.0162C233.684 37.4319 233.465 36.604 233.709 35.8005C233.977 34.9727 234.512 34.6561 235.072 34.1935C235.413 33.877 235.705 33.3657 235.973 32.8544C236.241 32.3431 236.436 31.7587 236.63 31.1987C237.044 30.0787 237.385 28.8856 237.751 27.6925Z" fill="#D19369"/>
<path d="M219.221 64.1908H229.691C237.507 72.031 245.103 64.1908 245.103 64.1908H252.116C252.116 64.1908 270.694 161.657 243.91 166.552C217.103 171.446 203.054 162.778 203.054 162.778V117.051L219.221 64.1908Z" fill="#EB996E"/>
<path d="M219.222 64.1908C219.222 64.1908 211.333 64.6291 197.527 81.2834C183.746 97.9377 175.297 136.579 160.834 122.578C146.396 108.602 141.501 101.493 141.501 101.493C141.501 101.493 133.272 104.171 128.378 109.26C128.378 109.26 153.724 155.887 165.509 158.322C177.294 160.757 203.03 136.773 203.03 136.773L219.222 64.1908Z" fill="#3B77BE"/>
<path d="M252.116 64.1908C252.116 64.1908 281.48 68.8413 284.134 73.1754C286.812 77.5094 311.624 158.663 293.606 192.312C293.606 192.312 284.232 195.404 275.515 192.75V201.735C275.515 201.735 252.773 207.408 237.117 201.735C237.117 201.735 235.778 94.1637 252.116 64.1908Z" fill="#3797DB"/>
<path d="M219.221 64.1908C219.221 64.1908 204.198 175.439 208.556 197.742C208.556 197.742 194.872 198.74 186.862 195.745C186.862 195.745 186.204 71.1788 219.221 64.1908Z" fill="#3797DB"/>
<path d="M252.116 64.1908L262.171 79.8225L237.093 201.735C237.117 201.735 235.778 94.1637 252.116 64.1908Z" fill="#3B77BE"/>
<path d="M207.242 77.5337L219.246 64.1908C219.246 64.1908 204.223 175.439 208.581 197.742C198.403 173.393 207.242 77.5337 207.242 77.5337Z" fill="#3B77BE"/>
<path d="M245.885 182.159L246.639 179.067C246.98 177.679 248.392 176.827 249.805 177.167C251.192 177.508 252.045 178.921 251.704 180.308L248.465 193.383C248.125 194.771 246.712 195.624 245.3 195.283C243.912 194.942 243.06 193.53 243.401 192.142L244.156 189.049C243.377 188.855 242.89 188.051 243.084 187.272L244.083 183.23C244.302 182.451 245.105 181.964 245.885 182.159Z" fill="#DAEEF7"/>
<path d="M246.761 208.723L301.667 222.309C303.956 222.869 306.269 221.482 306.853 219.193L315.399 184.764C315.959 182.475 314.572 180.162 312.283 179.578L257.377 165.991C255.088 165.431 252.775 166.819 252.191 169.108L243.645 203.537C243.06 205.825 244.473 208.163 246.761 208.723Z" fill="#C65447"/>
<path d="M275.71 192.799L279.679 193.797C279.679 193.797 282.845 194.016 282.942 193.992C283.064 193.968 286.448 193.87 286.448 193.87L291.975 192.848C291.172 196.427 288.006 209.113 287.568 209.113C287.057 209.088 286.521 203.196 285.961 203.391C285.401 203.585 283.526 211.523 283.015 211.012C282.504 210.476 283.356 202.928 282.893 202.977C282.431 203.001 280.726 210.695 279.704 210.427C278.681 210.135 280.824 201.784 279.923 201.881C279.022 201.978 277.025 210.622 276.149 210.208C275.394 209.867 277.391 200.152 278.024 197.084C278.097 196.695 277.707 196.354 277.342 196.5C271.498 198.789 270.914 198.618 270.816 197.912C270.768 197.571 273.032 195.331 275.71 192.799Z" fill="#EFAC7F"/>
<path d="M299.329 172.493C299.329 172.493 296.723 190.023 293.631 192.312C293.631 192.312 284.038 195.404 275.248 192.945V184.277L275.053 165.48H288.494L299.329 172.493Z" fill="#3797DB"/>
<path d="M267.602 114.251L268.284 117.002C268.503 117.928 268.698 118.829 268.917 119.754L269.233 121.142L269.525 122.53C269.72 123.455 269.915 124.38 270.085 125.305C270.792 129.006 271.449 132.732 272.009 136.457C272.569 140.182 273.056 143.932 273.47 147.657C274.322 155.156 274.906 162.656 275.32 170.179C275.71 177.63 275.929 185.105 275.832 192.58C277.025 193.091 278.315 193.408 279.63 193.578C281.018 193.773 282.406 193.822 283.818 193.797C285.23 193.773 286.618 193.651 288.006 193.481C289.394 193.31 290.782 193.091 292.169 192.775C290.806 193.14 289.418 193.432 288.03 193.651C286.642 193.87 285.23 194.041 283.818 194.114C282.406 194.187 280.994 194.187 279.581 194.041C278.169 193.895 276.757 193.603 275.418 193.043L275.247 192.97V192.775C275.126 185.251 274.809 177.752 274.346 170.252C273.908 162.753 273.275 155.254 272.472 147.779C272.058 144.054 271.619 140.304 271.108 136.579C270.572 132.853 270.037 129.152 269.379 125.451C268.722 121.75 267.992 118.074 267.188 114.397C266.36 110.721 265.435 107.093 264.388 103.465C265.605 106.995 266.628 110.623 267.602 114.251Z" fill="#3B77BE"/>
<path d="M222.07 17.101C216.738 27.0595 238.749 21.5324 238.749 21.5324C235.315 26.6699 254.186 20.4854 254.186 20.4854C254.186 20.4854 254.186 20.4854 254.21 20.5097C253.041 29.6647 259.128 45.5643 246.321 50.9209C246.248 49.1922 245.858 47.1713 244.641 45.3695C242.985 42.9103 240.234 41.425 236.436 40.9624C232.394 40.4754 229.204 41.2302 227.013 43.2512C225.771 44.3955 225.04 45.759 224.602 47.0008C221.047 41.839 221.169 35.0214 221.169 35.0214C221.169 35.0214 215.106 60.222 234.342 63.1195C253.577 66.0169 260.273 44.4199 259.177 36.7501C259.761 35.6301 260.54 34.5831 261.466 34.2422C263.194 33.6092 264.461 34.1692 264.899 34.4127C264.972 34.4614 265.021 34.5101 265.069 34.5101C275.783 -10.8997 232.954 0.276222 225.649 3.83109C218.345 7.41031 224.286 8.55468 224.286 8.55468C213.962 15.8835 222.07 17.101 222.07 17.101ZM244.495 51.554C242.377 52.187 239.82 52.6009 236.752 52.6983C231.688 52.8688 228.279 51.14 225.966 48.7296C226.258 47.4391 226.867 45.8077 228.23 44.566C230.008 42.9346 232.71 42.3259 236.192 42.7398C239.43 43.1294 241.768 44.3468 243.107 46.3434C244.251 48.0234 244.519 49.9713 244.495 51.554Z" fill="#5E2E0D"/>
<path d="M240.161 44.9799C239.309 45.4669 238.36 45.8078 237.605 46.0026C236.728 46.2217 235.803 46.3191 234.902 46.2461C234.001 46.173 233.125 45.9052 232.297 45.4913C231.493 45.0773 230.763 44.493 230.081 43.8599C230.787 44.7608 231.396 45.2478 232.175 45.7104C232.589 45.9539 233.027 46.1487 233.465 46.2948C233.928 46.4409 234.391 46.5382 234.853 46.5869C235.803 46.66 236.753 46.5382 237.653 46.2704C238.554 45.9782 239.431 45.5643 240.161 44.9799Z" fill="#D19369"/>
<path d="M121.512 84.7408C123.167 83.5478 126.698 81.1129 127.453 81.5269C128.427 82.0625 123.24 86.3722 123.63 86.64C124.019 86.9079 129.863 84.9356 130.033 85.6661C130.18 86.3235 124.652 89.0992 124.701 89.4888C124.75 89.8784 130.301 88.9288 130.642 89.5862C130.934 90.1705 125.359 91.9967 125.334 92.2645C125.091 94.4559 131.227 93.6037 131.348 94.3341C131.421 94.8454 127.355 95.6733 125.018 96.1116L125.943 100.64L125.066 101.298L120.83 86.4209C120.708 85.7878 120.976 85.1304 121.512 84.7408Z" fill="#EFAC7F"/>
<path d="M266.628 24.3081C263.657 26.5238 260.516 27.1325 257.96 27.1325C256.401 27.1325 255.087 26.9134 254.137 26.6942C254.113 26.256 254.088 25.7933 254.064 25.3551C256.207 25.9638 261.782 26.9134 266.701 22.5793C266.701 23.1394 266.676 23.7237 266.628 24.3081Z" fill="#D1EAF2"/>
<path d="M254.04 22.5551C254.04 22.1168 254.064 21.6785 254.113 21.2646C255.476 21.5324 262.367 22.5551 266.506 17.4906C266.579 18.0506 266.628 18.635 266.676 19.2437C263.706 22.1898 259.81 22.8229 257.059 22.8229C255.695 22.7986 254.624 22.6525 254.04 22.5551Z" fill="#D1EAF2"/>
</svg>
