<svg width="201" height="41" viewBox="0 0 201 41" fill="none" xmlns="http://www.w3.org/2000/svg">
<path d="M25.6812 23.534C23.679 14.847 16.244 9.00149 13.2894 0.813388C13.2353 0.542258 13.0838 0.271129 12.9756 0C9.97774 7.89528 3.3219 13.8276 0.724493 21.9289C-2.06771 30.6376 3.46259 40.0512 12.9864 40.0837C21.6336 40.0404 27.6184 31.9173 25.6812 23.534ZM12.9864 34.0538C5.76778 34.0321 1.56865 26.896 3.68986 20.2805C5.65956 14.1313 10.7137 9.63051 12.9864 3.64398C13.0622 3.83919 13.1812 4.04525 13.2245 4.26215C15.4648 10.4764 21.1033 14.9121 22.6293 21.506C24.1011 27.8612 19.5557 34.0213 12.9864 34.0538ZM21.3522 34.2274C22.3046 32.6223 23.1379 31.1148 23.744 29.3362C24.1985 27.5142 24.3176 25.779 24.415 23.9244C25.3782 27.6986 24.2418 31.6028 21.3522 34.2274Z" fill="#BFEDFF"/>
<path d="M21.1256 22.016C16.0823 27.1024 12.4893 21.9618 8.92866 24.0223C5.33559 26.8312 14.091 30.7897 19.3507 25.7684C15.4222 30.8873 8.04122 29.5642 6.79663 26.2456C4.69706 20.1615 10.3248 17.4285 12.9979 6.96289C11.0715 12.0167 6.81827 15.8017 5.16243 20.9857C3.37671 26.5601 6.91568 32.5792 12.9979 32.6009C18.5391 32.5683 22.3594 27.3735 21.1256 22.016ZM9.28581 30.8331C11.5802 32.384 15.6386 31.9068 17.7707 30.3017C15.8659 32.3189 11.3745 32.8178 9.28581 30.8331Z" fill="#EBEBEB"/>
<path d="M53.5315 26.6496H45.4987L44.1695 30.5168H39.9219L47.1746 10.1921H51.8845L59.1372 30.5168H54.8607L53.5315 26.6496ZM52.4335 23.393L49.5151 14.9026L46.5967 23.393H52.4335Z" fill="#EBEBEB"/>
<path d="M60.808 22.4335C60.808 20.8245 61.1354 19.3998 61.7904 18.1592C62.4646 16.8992 63.37 15.9203 64.5066 15.2224C65.6431 14.5246 66.8952 14.1757 68.2629 14.1757C69.3995 14.1757 70.4012 14.3986 71.2681 14.8444C72.1542 15.2709 72.8669 15.8233 73.4063 16.5018V14.4083H77.4805V38.1931H73.4063V28.307C72.8669 29.0048 72.1445 29.5863 71.2392 30.0516C70.3338 30.5168 69.3128 30.7494 68.1763 30.7494C66.8278 30.7494 65.5853 30.4005 64.4488 29.7026C63.3315 28.9854 62.4454 27.9968 61.7904 26.7368C61.1354 25.4768 60.808 24.0424 60.808 22.4335ZM73.4063 22.4625C73.4063 21.4739 73.204 20.621 72.7995 19.9038C72.395 19.1866 71.8652 18.6438 71.2103 18.2755C70.5746 17.9072 69.8907 17.723 69.1587 17.723C68.4459 17.723 67.7621 17.9072 67.1071 18.2755C66.4714 18.6438 65.9513 19.1866 65.5468 19.9038C65.1423 20.6016 64.94 21.4448 64.94 22.4335C64.94 23.4221 65.1423 24.2847 65.5468 25.0213C65.9513 25.7385 66.4714 26.2813 67.1071 26.6496C67.7621 27.0179 68.4459 27.202 69.1587 27.202C69.8907 27.202 70.5746 27.0179 71.2103 26.6496C71.8652 26.2813 72.395 25.7385 72.7995 25.0213C73.204 24.3041 73.4063 23.4511 73.4063 22.4625Z" fill="#EBEBEB"/>
<path d="M96.5437 14.4083V30.5168H92.4695V28.4814C91.9494 29.1793 91.2655 29.7317 90.4179 30.1388C89.5896 30.5265 88.6842 30.7203 87.7018 30.7203C86.4497 30.7203 85.342 30.4586 84.3788 29.9353C83.4157 29.3925 82.6547 28.6074 82.0961 27.58C81.5567 26.5333 81.287 25.2927 81.287 23.8582V14.4083H85.3324V23.2767C85.3324 24.5561 85.6502 25.5447 86.2859 26.2425C86.9216 26.921 87.7885 27.2602 88.8865 27.2602C90.0038 27.2602 90.8803 26.921 91.516 26.2425C92.1517 25.5447 92.4695 24.5561 92.4695 23.2767V14.4083H96.5437Z" fill="#EBEBEB"/>
<path d="M99.4949 22.4044C99.4949 20.7761 99.8127 19.3319 100.448 18.0719C101.103 16.812 101.98 15.8427 103.078 15.1643C104.195 14.4858 105.438 14.1466 106.805 14.1466C108 14.1466 109.04 14.3889 109.926 14.8735C110.831 15.3581 111.554 15.9687 112.093 16.7053V14.4083H116.167V30.5168H112.093V28.1616C111.573 28.9176 110.851 29.5476 109.926 30.0516C109.021 30.5362 107.971 30.7785 106.776 30.7785C105.428 30.7785 104.195 30.4296 103.078 29.7317C101.98 29.0339 101.103 28.055 100.448 26.795C99.8127 25.5156 99.4949 24.0521 99.4949 22.4044ZM112.093 22.4625C112.093 21.4739 111.901 20.6307 111.515 19.9329C111.13 19.2156 110.61 18.6729 109.955 18.3046C109.3 17.9169 108.597 17.723 107.846 17.723C107.094 17.723 106.401 17.9072 105.765 18.2755C105.129 18.6438 104.609 19.1866 104.205 19.9038C103.82 20.6016 103.627 21.4352 103.627 22.4044C103.627 23.3736 103.82 24.2265 104.205 24.9631C104.609 25.6804 105.129 26.2328 105.765 26.6205C106.42 27.0082 107.114 27.202 107.846 27.202C108.597 27.202 109.3 27.0179 109.955 26.6496C110.61 26.2619 111.13 25.7191 111.515 25.0213C111.901 24.3041 112.093 23.4511 112.093 22.4625Z" fill="#EBEBEB"/>
<path d="M134.352 10.2212V13.5069H128.977V30.5168H124.932V13.5069H119.557V10.2212H134.352Z" fill="#BFEDFF"/>
<path d="M141.349 16.9089C141.869 16.056 142.543 15.3872 143.371 14.9026C144.219 14.418 145.182 14.1757 146.261 14.1757V18.4499H145.192C143.92 18.4499 142.957 18.7504 142.302 19.3513C141.666 19.9522 141.349 20.999 141.349 22.4916V30.5168H137.303V14.4083H141.349V16.9089Z" fill="#BFEDFF"/>
<path d="M147.945 22.4044C147.945 20.7761 148.263 19.3319 148.899 18.0719C149.554 16.812 150.43 15.8427 151.528 15.1643C152.646 14.4858 153.888 14.1466 155.256 14.1466C156.45 14.1466 157.49 14.3889 158.376 14.8735C159.282 15.3581 160.004 15.9687 160.544 16.7053V14.4083H164.618V30.5168H160.544V28.1616C160.023 28.9176 159.301 29.5476 158.376 30.0516C157.471 30.5362 156.421 30.7785 155.227 30.7785C153.878 30.7785 152.646 30.4296 151.528 29.7317C150.43 29.0339 149.554 28.055 148.899 26.795C148.263 25.5156 147.945 24.0521 147.945 22.4044ZM160.544 22.4625C160.544 21.4739 160.351 20.6307 159.966 19.9329C159.58 19.2156 159.06 18.6729 158.405 18.3046C157.75 17.9169 157.047 17.723 156.296 17.723C155.545 17.723 154.851 17.9072 154.216 18.2755C153.58 18.6438 153.06 19.1866 152.655 19.9038C152.27 20.6016 152.077 21.4352 152.077 22.4044C152.077 23.3736 152.27 24.2265 152.655 24.9631C153.06 25.6804 153.58 26.2328 154.216 26.6205C154.87 27.0082 155.564 27.202 156.296 27.202C157.047 27.202 157.75 27.0179 158.405 26.6496C159.06 26.2619 159.58 25.7191 159.966 25.0213C160.351 24.3041 160.544 23.4511 160.544 22.4625Z" fill="#BFEDFF"/>
<path d="M167.529 22.4625C167.529 20.7955 167.866 19.3416 168.54 18.101C169.214 16.841 170.148 15.8718 171.343 15.1933C172.537 14.4955 173.905 14.1466 175.446 14.1466C177.43 14.1466 179.067 14.6506 180.358 15.6586C181.668 16.6472 182.544 18.0429 182.988 19.8456H178.624C178.393 19.1478 177.998 18.605 177.44 18.2173C176.9 17.8103 176.226 17.6067 175.417 17.6067C174.261 17.6067 173.346 18.0332 172.672 18.8861C171.998 19.7196 171.661 20.9118 171.661 22.4625C171.661 23.9939 171.998 25.1861 172.672 26.039C173.346 26.8725 174.261 27.2893 175.417 27.2893C177.054 27.2893 178.124 26.5527 178.624 25.0794H182.988C182.544 26.824 181.668 28.21 180.358 29.2374C179.048 30.2648 177.411 30.7785 175.446 30.7785C173.905 30.7785 172.537 30.4393 171.343 29.7608C170.148 29.063 169.214 28.0937 168.54 26.8531C167.866 25.5931 167.529 24.1296 167.529 22.4625Z" fill="#BFEDFF"/>
<path d="M195.429 30.5168L189.996 23.6547V30.5168H185.951V9H189.996V21.2413L195.371 14.4083H200.63L193.579 22.4916L200.688 30.5168H195.429Z" fill="#BFEDFF"/>
</svg>
