<svg width="390" height="246" viewBox="0 0 390 246" fill="none" xmlns="http://www.w3.org/2000/svg">
<path d="M-53.2051 22.06C-21.192 40.5078 81.9265 64.4498 191.236 53.4966C300.536 42.5436 391.53 -5.49704 449.256 0.996315L452.57 127.95L-60.29 143.448L-53.2051 22.06Z" fill="url(#paint0_linear_1011_116704)"/>
<path d="M-46.3826 30.9838C-16.1112 50.8348 84.1412 79.3171 193.242 73.19C302.343 67.0559 396.199 23.0339 452.857 32.0679L446.248 159.153L-62.855 152.042L-46.3826 30.9838Z" fill="white"/>
<path d="M-55.6758 35.2664C-25.4773 55.3134 74.9621 84.4273 184.671 78.9446C294.379 73.4619 386.874 28.534 443.711 37.9159L434 268.535L-45.2508 283.018L-55.6758 35.2664Z" fill="url(#paint1_linear_1011_116704)"/>
<defs>
<linearGradient id="paint0_linear_1011_116704" x1="192.8" y1="7.7494" x2="196.666" y2="135.683" gradientUnits="userSpaceOnUse">
<stop stop-color="#40BFEF"/>
<stop offset="1" stop-color="#2061DE"/>
</linearGradient>
<linearGradient id="paint1_linear_1011_116704" x1="375.116" y1="233.48" x2="-185.736" y2="83.8394" gradientUnits="userSpaceOnUse">
<stop stop-color="#2751B9"/>
<stop offset="1" stop-color="#0A173B"/>
</linearGradient>
</defs>
</svg>
