<svg width="1440" height="540" viewBox="0 0 1440 540" fill="none" xmlns="http://www.w3.org/2000/svg">
<path d="M-292.547 38.2068C-162.001 146.084 262.338 296.427 716.081 253.922C1169.78 211.417 1551.71 -40.2317 1790 5.54007V711.486H-335L-292.547 38.2068Z" fill="url(#paint0_linear_712_126084)"/>
<path d="M-280.153 80.1675C-156.115 195.373 258.726 370.198 714.221 354.497C1169.72 338.757 1565.79 110.265 1801 169.883L1759.62 873.826L-362 749.022L-280.153 80.1675Z" fill="white"/>
<path d="M-276.689 85.178C-153.593 201.591 259.888 380.151 715.565 368.114C1171.24 356.077 1569.25 130.405 1804 192.053L1756.85 896.874L-364 754.54L-276.689 85.178Z" fill="url(#paint1_linear_712_126084)"/>
<defs>
<linearGradient id="paint0_linear_712_126084" x1="727.5" y1="4.52753e-06" x2="727.5" y2="711.486" gradientUnits="userSpaceOnUse">
<stop stop-color="#40BFEF"/>
<stop offset="1" stop-color="#2061DE"/>
</linearGradient>
<linearGradient id="paint1_linear_712_126084" x1="1484" y1="776.349" x2="-797.5" y2="-117.651" gradientUnits="userSpaceOnUse">
<stop stop-color="#2751B9"/>
<stop offset="1" stop-color="#0A173B"/>
</linearGradient>
</defs>
</svg>
