<svg width="429" height="372" viewBox="0 0 429 372" fill="none" xmlns="http://www.w3.org/2000/svg">
<g opacity="0.9">
<path opacity="0.3" d="M270.681 81.301C270.078 81.301 269.474 81.3833 268.925 81.5753L270.873 93.0696C274.029 92.9873 276.581 90.3812 276.581 87.199C276.581 83.9345 273.946 81.301 270.681 81.301Z" fill="#DAEEF7"/>
<path d="M269.721 88.0494C269.721 88.0494 274.166 88.4609 274.468 89.1193C274.77 89.7777 270.05 89.8326 270.05 89.8326L269.721 88.0494Z" fill="#FFC0BB"/>
<path d="M296.692 327.262L311.537 318.127L320.591 326.055L316.722 328.798L303.278 330.663C303.278 330.663 298.037 329.978 297.817 329.84C297.598 329.703 296.692 327.262 296.692 327.262Z" fill="#FFBE9D"/>
<path d="M296.692 327.262L293.427 329.347C291.918 330.307 292.577 332.611 294.36 332.639L318.972 332.803C319.85 332.803 320.536 332.117 320.564 331.24L320.591 326.082C304.183 331.185 298.531 329.566 296.692 327.262Z" fill="#45258F"/>
<path d="M358.978 27.6977C358.978 27.6977 363.066 10.9364 353.326 4.68173C343.585 -1.60034 333.296 -0.887093 326.271 2.87118C319.247 6.62944 315.049 19.7422 318.204 27.2313L341.527 20.0714L358.978 27.6977Z" fill="#5E2E0D"/>
<path opacity="0.5" d="M357.469 141.406C355.822 141.708 354.149 141.955 352.475 142.174C350.801 142.393 349.127 142.585 347.454 142.75C344.106 143.079 340.759 143.299 337.384 143.381C335.71 143.408 334.009 143.408 332.335 143.381C330.661 143.326 328.988 143.244 327.286 143.107C325.613 142.942 323.939 142.75 322.293 142.476C320.646 142.201 318.972 141.845 317.354 141.406C318.972 141.872 320.619 142.256 322.265 142.585C323.911 142.887 325.585 143.107 327.286 143.271C328.96 143.436 330.661 143.518 332.335 143.573C334.009 143.628 335.71 143.628 337.384 143.6C340.759 143.518 344.106 143.299 347.481 142.915C349.155 142.723 350.829 142.531 352.502 142.284C354.149 142.009 355.822 141.735 357.469 141.406Z" fill="#DAEEF7"/>
<path d="M285.223 92.082C283.851 89.9697 283.001 88.1591 283.028 86.9247L283.467 84.8947C284.043 82.3709 283.44 80.6975 282.452 80.6152L282.26 80.6426C282.26 80.6426 280.586 84.2363 279.214 87.1716L277.705 85.7999L270.05 95.4014L278.775 99.6534L285.223 92.082Z" fill="#FFBE9D"/>
<path d="M320.591 326.082L323.665 308.69L310.823 307.318L310.055 308.196L307.915 320.266L313.951 326.384L320.591 326.082Z" fill="#FFBE9D"/>
<path d="M386.966 326.795L392.728 310.363L404.773 310.802L403.511 315.383L394.264 325.314C394.264 325.314 389.765 328.085 389.49 328.112C389.188 328.14 386.966 326.795 386.966 326.795Z" fill="#FFBE9D"/>
<path d="M386.966 326.795L385.759 330.471C385.182 332.145 387.158 333.544 388.557 332.419L407.737 317.029C408.423 316.481 408.533 315.493 407.984 314.807L404.774 310.802C395.252 325.122 389.847 327.426 386.966 326.795Z" fill="#45258F"/>
<path d="M404.773 310.802L396.185 295.358L385.374 302.408L385.319 303.587L391.246 314.314L399.807 315.219L404.773 310.802Z" fill="#FFBE9D"/>
<path d="M415.2 31.0718C415.364 31.3736 415.803 31.3736 415.968 31.0444C417.203 28.6303 421.099 21.0863 421.785 21.2509C422.608 21.443 419.261 28.3011 419.81 28.8498C420.358 29.3984 423.431 22.65 424.255 23.0066C425.078 23.3633 422.087 29.4259 422.389 29.7002C422.691 29.9745 426.203 24.4606 426.806 24.3783C427.437 24.296 424.392 30.6329 424.666 31.0444C424.941 31.4559 428.48 27.8348 428.837 28.1091C429.194 28.3834 429.468 28.4932 423.87 39.0547L421.483 43.1147L417.752 45.3916L413.554 42.2369C413.554 42.2369 411.139 27.0392 411.605 26.6277C412.044 26.1888 412.538 26.4083 415.2 31.0718Z" fill="#FFBE9D"/>
<path d="M341.5 149.032L337.604 221.098C337.604 221.098 331.842 297.305 324.461 313.299H308.135L316.147 134.328H340.485L341.5 149.032Z" fill="#96A65F"/>
<path d="M315.213 154.93L316.146 134.328L335.572 133.834L336.011 135.81L358.237 133.066C358.237 133.066 376.483 156.604 372.175 194.049C367.84 231.522 368.801 244.964 368.801 244.964C368.801 244.964 392.343 266.581 399.532 297.799C399.532 297.799 389.215 305.014 382.245 306.194C382.245 306.194 347.673 253.358 345.011 247.131C343.42 243.4 338.179 204.638 334.201 174.051C334.228 174.023 316.914 161.349 315.213 154.93Z" fill="#9ED16F"/>
<path d="M333.899 57.8461C333.899 57.8461 319.906 58.7239 314.308 66.1033C307.311 75.3481 302.949 106.127 302.949 106.127L284.784 90.9024L276.937 99.187C276.937 99.187 300.342 131.777 304.54 129.335C308.738 126.921 320.619 116.744 320.619 116.744C320.619 116.744 325.476 87.4459 325.476 86.5132C325.476 85.6079 333.899 57.8461 333.899 57.8461Z" fill="#3B77BE"/>
<path d="M311.894 88.1866C313.074 77.1038 318.616 67.0361 327.15 60.0682C328.192 59.2178 329.4 58.6143 330.717 58.3125C334.256 57.4621 338.866 57.2975 341.116 57.2701H348.552C348.552 57.2701 360.487 57.9284 365.783 59.6018C371.079 61.2478 391.959 70.5475 394.292 69.2033C396.624 67.8865 412.84 38.3964 412.84 38.3964L421.785 43.0325C421.785 43.0325 416.16 84.2912 400.575 87.3636C384.99 90.4087 369.762 86.4309 369.762 86.4309C369.762 86.4309 366.771 127.854 359.17 135.124C359.17 135.124 329.07 137.154 317.875 135.865C315.845 135.618 314.226 134.081 313.897 132.051C312.689 124.699 310.055 105.222 311.894 88.1866Z" fill="#3797DB"/>
<path d="M321.497 65.6644C323.198 63.6344 325.064 61.769 327.149 60.0956C328.192 59.2452 329.399 58.6417 330.716 58.3399C334.256 57.4895 338.866 57.3249 341.116 57.2975H348.551C348.551 57.2975 350.582 57.4072 353.326 57.6541C347.344 62.2354 336.094 68.4077 321.497 65.6644Z" fill="#FFBE9D"/>
<path d="M346.027 58.9434L330.387 59.2726C330.716 55.7887 330.963 51.2074 330.387 49.534C329.399 46.7359 346.823 46.3244 346.823 46.3244C346.823 46.3244 345.917 53.4843 346.027 58.9434Z" fill="#FFBE9D"/>
<path d="M346.85 46.297C346.85 46.297 346.465 49.2049 346.219 52.7162C343.036 55.2949 338.947 56.5842 334.667 56.0356C333.268 55.8435 331.923 55.4869 330.688 54.9383C330.798 52.6339 330.743 50.5216 330.386 49.5066C329.426 46.7359 346.85 46.297 346.85 46.297Z" fill="#D19369"/>
<path d="M348.661 24.104C348.661 24.104 357.002 23.3633 365.454 30.386C373.905 37.4088 377.856 56.3921 365.81 68.1882C353.765 79.9842 347.179 80.2585 344.051 91.6156C344.051 91.6156 335.683 80.7523 344.051 65.4998C344.051 65.4998 340.704 66.6794 338.811 70.0262C338.811 70.0262 336.835 59.0531 345.286 52.195C353.765 45.3094 354.643 35.8725 348.085 33.9523C341.5 32.0045 348.661 24.104 348.661 24.104Z" fill="#5E2E0D"/>
<path d="M321.223 30.1941C322.046 32.4435 321.25 34.8028 319.467 35.4886C317.656 36.147 315.515 34.8576 314.692 32.6081C313.869 30.3587 314.665 27.9995 316.448 27.3137C318.259 26.6278 320.4 27.9172 321.223 30.1941Z" fill="#D19369"/>
<path d="M321.414 43.1971C320.893 42.2095 320.454 41.1945 320.125 40.0972C319.164 37.1894 318.725 34.1444 318.561 31.4834C318.533 30.9073 318.451 30.3587 318.369 29.7826C318.039 27.5057 318.149 25.0916 318.753 22.6227C320.756 14.7221 327.835 8.96122 335.984 8.63203C346.96 8.19311 355.713 17.1636 355.356 27.8349C356.536 27.2313 357.853 27.1216 358.978 27.6703C361.145 28.7401 361.831 31.7852 360.514 34.501C359.197 37.2168 356.344 38.561 354.176 37.4911C353.874 37.354 353.6 37.162 353.353 36.9425C352.118 45.9953 344.408 52.7711 335.49 52.3048C331.128 52.0853 327.231 50.165 324.35 47.2023C324.158 47.0377 323.966 46.8182 323.747 46.5988C322.814 45.6112 322.045 44.459 321.414 43.1971Z" fill="#FFBE9D"/>
<path d="M338.125 30.4135C338.07 31.3736 338.811 32.1966 339.771 32.2515C340.731 32.3063 341.555 31.5656 341.609 30.6055C341.664 29.6454 340.923 28.8224 339.963 28.7675C339.003 28.7126 338.18 29.4533 338.125 30.4135Z" fill="#333333"/>
<path d="M323.802 30.4135C323.747 31.3736 324.488 32.1966 325.448 32.2515C326.409 32.3063 327.232 31.5656 327.287 30.6055C327.342 29.6454 326.601 28.8224 325.64 28.7675C324.653 28.7126 323.829 29.4533 323.802 30.4135Z" fill="#333333"/>
<path d="M336.671 27.5057C337.466 27.0942 338.289 26.765 339.14 26.573C339.991 26.381 340.841 26.2987 341.692 26.381C342.103 26.4084 342.542 26.4907 342.954 26.6278C343.173 26.6827 343.366 26.765 343.558 26.8199C343.667 26.8473 343.75 26.9022 343.859 26.9296C343.969 26.957 344.052 27.0119 344.161 27.0668C344.93 27.4508 345.67 27.9172 346.384 28.4658C345.862 27.7526 345.176 27.1216 344.381 26.6278C343.997 26.381 343.558 26.1889 343.119 26.0518C342.68 25.9146 342.213 25.8049 341.747 25.75C340.814 25.6677 339.881 25.7774 339.003 26.1066C338.564 26.2712 338.152 26.4633 337.768 26.6827C337.357 26.9296 336.972 27.1765 336.671 27.5057Z" fill="#5E2E0D"/>
<path d="M329.619 27.5056C329.29 27.1765 328.933 26.9296 328.549 26.6827C328.165 26.4632 327.753 26.2437 327.314 26.1066C326.436 25.8048 325.503 25.6677 324.57 25.75C324.104 25.7774 323.638 25.8871 323.199 26.0517C322.76 26.1889 322.32 26.4083 321.936 26.6278C321.141 27.0942 320.455 27.7251 319.933 28.4658C320.647 27.9171 321.388 27.4234 322.156 27.0667C322.238 27.0119 322.348 26.9844 322.458 26.9296C322.567 26.9021 322.65 26.8473 322.759 26.8198C322.952 26.7375 323.171 26.6827 323.363 26.6278C323.775 26.5181 324.186 26.4358 324.625 26.3809C325.476 26.2986 326.327 26.3809 327.177 26.5729C328 26.765 328.823 27.0942 329.619 27.5056Z" fill="#5E2E0D"/>
<path d="M369.514 86.184C369.103 85.745 368.691 85.2513 368.335 84.7575C367.978 84.2362 367.621 83.715 367.319 83.1664C367.018 82.6177 366.743 82.0691 366.496 81.4656C366.249 80.8895 366.057 80.286 365.865 79.6824C365.947 80.3134 366.057 80.9443 366.277 81.5479C366.359 81.8496 366.496 82.1514 366.606 82.4531C366.743 82.7549 366.853 83.0567 367.018 83.331C367.319 83.9071 367.621 84.4557 368.005 84.9769C368.307 85.4159 368.609 85.7999 368.966 86.184C368.636 86.2388 368.307 86.2937 367.978 86.2937C367.511 86.3211 367.045 86.2937 366.606 86.2388C366.386 86.2114 366.14 86.1565 365.92 86.1017C365.701 86.0468 365.481 85.9919 365.262 85.8822C364.822 85.745 364.411 85.4981 363.999 85.2787C364.356 85.5804 364.768 85.8548 365.207 86.0742C365.646 86.2937 366.112 86.4583 366.579 86.5406C367.045 86.6503 367.539 86.7052 368.033 86.6778C368.527 86.6778 368.993 86.6229 369.487 86.4857L369.844 86.4034L369.514 86.184Z" fill="#3B77BE"/>
<path d="M355.356 27.8622C355.356 27.8622 342.707 22.7598 335.985 14.9963C335.985 14.9963 336.122 19.2484 337.549 20.7572C337.11 21.0589 328.357 17.575 326.354 10.9089C324.323 4.21531 336.287 6.79398 336.287 6.79398C336.287 6.79398 343.091 5.66924 343.393 5.83383C343.695 5.971 348.552 8.90629 348.771 9.12575C348.991 9.34521 355.356 18.398 355.356 18.398L356.975 21.7722L357.359 26.4083L355.356 27.8622Z" fill="#5E2E0D"/>
<path opacity="0.5" d="M320.042 158.606C321.03 159.566 321.963 160.554 322.896 161.569C323.829 162.584 324.707 163.626 325.613 164.669C326.491 165.711 327.369 166.781 328.219 167.851C329.07 168.921 329.92 170.018 330.716 171.115L330.908 170.951C330.167 170.402 329.399 169.936 328.603 169.497C327.808 169.058 326.984 168.646 326.161 168.29C325.338 167.933 324.488 167.604 323.61 167.357L322.951 167.165L322.292 167.001L321.963 166.918L321.634 166.863L320.975 166.754L321.634 166.891L321.963 166.973L322.292 167.055L322.951 167.22L323.61 167.439C323.829 167.494 324.049 167.577 324.241 167.659C324.46 167.741 324.68 167.796 324.872 167.906L325.503 168.153C325.722 168.235 325.914 168.345 326.134 168.427C326.957 168.811 327.753 169.223 328.548 169.661C329.317 170.1 330.085 170.594 330.826 171.115L331.484 171.609L330.99 170.951C330.167 169.854 329.344 168.756 328.494 167.686C327.643 166.616 326.765 165.574 325.859 164.532C324.954 163.489 324.021 162.474 323.088 161.487C322.622 160.993 322.128 160.499 321.634 160.033C321.085 159.511 320.564 159.072 320.042 158.606Z" fill="#2D185D"/>
<path opacity="0.5" d="M343.064 170.731C344.106 169.305 345.204 167.906 346.329 166.534C347.454 165.162 348.579 163.818 349.731 162.474C350.911 161.157 352.118 159.841 353.326 158.579C353.957 157.948 354.56 157.317 355.219 156.713C355.85 156.082 356.508 155.506 357.167 154.93C355.905 156.165 354.67 157.426 353.463 158.716C352.255 160.005 351.103 161.349 349.951 162.666C348.798 164.01 347.673 165.355 346.576 166.754C345.698 167.878 344.792 169.003 343.942 170.128C344.628 169.661 345.368 169.25 346.082 168.838C347.097 168.262 348.167 167.769 349.237 167.302C350.307 166.836 351.405 166.452 352.53 166.123L353.38 165.903L354.231 165.711L354.67 165.629L355.109 165.547L355.987 165.409L355.137 165.601L354.698 165.684L354.286 165.793L353.435 166.013L352.612 166.287C352.338 166.37 352.063 166.479 351.789 166.562C351.515 166.671 351.24 166.754 350.966 166.863L350.143 167.192C349.868 167.302 349.621 167.439 349.347 167.549C348.277 168.015 347.262 168.564 346.246 169.14C345.231 169.716 344.243 170.32 343.311 171.006L342.432 171.637L343.064 170.731Z" fill="#2D185D"/>
<path opacity="0.3" d="M336.341 40.591C336.341 40.591 334.283 39.8503 332.363 41.1122C332.363 41.1122 330.277 39.7954 328.631 41.0573C328.631 41.0573 329.399 44.1572 332.829 43.9378C336.232 43.7457 336.341 40.591 336.341 40.591Z" fill="#D19369"/>
<path d="M338.125 39.4662C337.74 39.768 337.329 40.0698 336.917 40.3167C336.506 40.5635 336.067 40.8104 335.628 41.0025C334.722 41.3865 333.789 41.6609 332.829 41.7432C331.869 41.8255 330.881 41.7157 329.948 41.414C329.015 41.1122 328.137 40.6459 327.314 40.0972C327.67 40.4264 328.082 40.7281 328.494 41.0025C328.905 41.2768 329.372 41.4963 329.838 41.6883C330.305 41.8529 330.798 41.99 331.32 42.0723C331.814 42.1272 332.335 42.1546 332.856 42.0998C333.872 42.0175 334.859 41.7157 335.765 41.2219C336.615 40.8104 337.439 40.2069 338.125 39.4662Z" fill="#D19369"/>
<path d="M331.677 29.618C331.183 30.4135 330.771 31.2365 330.387 32.0869C330.003 32.9373 329.674 33.8152 329.427 34.7204C329.317 35.1868 329.207 35.6532 329.152 36.1469C329.152 36.2841 329.152 36.3938 329.152 36.531C329.152 36.5859 329.18 36.6682 329.18 36.7505C329.207 36.8328 329.235 36.8876 329.29 36.9699C329.317 36.9974 329.344 37.0522 329.372 37.0797L329.454 37.1345C329.509 37.162 329.537 37.2168 329.591 37.2442C329.701 37.3265 329.783 37.3814 329.893 37.4363C330.305 37.6832 330.744 37.8752 331.183 38.0398C331.622 38.177 332.088 38.3141 332.527 38.3964C331.677 37.9849 330.854 37.6009 330.113 37.0797C330.03 37.0248 329.948 36.9425 329.866 36.8876L329.756 36.7779L329.701 36.723C329.701 36.723 329.701 36.6956 329.674 36.6956C329.619 36.6133 329.619 36.3664 329.646 36.1744C329.701 35.7629 329.783 35.2965 329.921 34.885C330.168 34.0072 330.469 33.1294 330.771 32.2789C331.101 31.3737 331.402 30.4958 331.677 29.618Z" fill="#D19369"/>
<path d="M277.431 76.5002H273.589H268.074L271.284 95.5659H273.589H277.431H279.735L282.946 76.5002H277.431Z" fill="#7772D6"/>
<path d="M282.452 80.6152C282.452 80.6152 278.364 79.902 278.089 80.6152C277.815 81.3285 281.409 80.917 282.068 82.8921C282.726 84.8398 282.452 80.6152 282.452 80.6152Z" fill="#FFBE9D"/>
<path opacity="0.3" d="M270.928 83.2761C270.38 83.2761 269.858 83.3584 269.364 83.523L271.066 93.6731C273.864 93.5908 276.114 91.3139 276.114 88.4883C276.114 85.6079 273.809 83.2761 270.928 83.2761Z" fill="#DAEEF7"/>
<path d="M271.12 95.5659H270.955C270.022 95.6208 269.171 94.9624 269.034 94.0297L267.251 83.4407C267.141 82.9195 267.361 82.3982 267.8 82.0965C269.117 81.1363 271.915 79.2161 272.519 79.5452C273.287 79.9842 269.171 83.3858 269.473 83.6053C269.775 83.8247 274.44 82.2611 274.549 82.8372C274.659 83.3584 270.269 85.553 270.324 85.8822C270.379 86.1839 274.769 85.4433 275.043 85.9645C275.263 86.4308 270.845 87.8848 270.818 88.1042L271.12 95.5659Z" fill="#FFBE9D"/>
<path d="M283.522 78.2835H267.47C267.141 78.2835 266.867 78.0091 266.867 77.6799V76.8295C266.867 76.5003 267.141 76.226 267.47 76.226H283.522C283.851 76.226 284.125 76.5003 284.125 76.8295V77.6799C284.125 78.0366 283.851 78.2835 283.522 78.2835Z" fill="#62BDF3"/>
<path d="M42.0636 350.656L42.2831 358.639L52.0238 365.717C52.0238 365.717 56.6335 359.517 56.5512 358.639C56.4688 357.789 56.5512 343.963 56.5512 343.963C56.5512 343.963 45.3837 348.215 44.9447 348.215C44.4782 348.215 42.0636 350.656 42.0636 350.656Z" fill="#FFC0BB"/>
<path d="M89.752 358.639V348.764L101.084 345.636L103.581 346.734L104.02 358.639L100.453 369.036L89.752 358.639Z" fill="#FFC0BB"/>
<path d="M73.7276 206.745L59.4321 352C53.8072 351.754 47.9903 351.342 42.091 350.656C41.4325 322.785 39.5118 239.527 39.8136 206.086C40.1703 165.651 52.2981 159.725 52.2981 159.725L72.9594 154.349L101.111 159.341C92.3036 193.467 73.7276 206.745 73.7276 206.745Z" fill="#282828"/>
<path d="M106.133 350.3C101.88 350.794 96.0082 351.37 89.0114 351.754L74.0025 183.839L72.4385 157.119C72.4385 157.119 95.4869 146.037 103.087 159.204C110.715 172.372 110.468 191.986 110.468 191.986C110.468 191.986 109.535 315.68 106.133 350.3Z" fill="#282828"/>
<path d="M89.752 358.639V369.612C89.752 370.518 90.4929 371.258 91.3983 371.258H117.108C118.974 371.258 119.687 368.844 118.096 367.829L104.02 358.639C104.02 358.639 98.0385 362.782 89.752 358.639Z" fill="#282828"/>
<path d="M42.3106 358.639V369.612C42.3106 370.518 43.0514 371.258 43.9569 371.258H69.6669C71.5327 371.258 72.2461 368.844 70.6547 367.829L56.5787 358.639C56.5787 358.639 50.5696 362.782 42.3106 358.639Z" fill="#282828"/>
<path d="M113.075 104.586L119.359 124.831C119.359 124.831 146.797 98.9895 146.687 91.7473L146.194 89.5252C145.563 86.7545 146.221 84.944 147.291 84.8617L147.511 84.8891C147.511 84.8891 149.349 88.812 150.831 92.0216L152.477 90.5402L160.818 100.992L151.27 105.628C151.27 105.628 121.965 152.017 115.325 148.972C108.685 145.927 98.5602 120.387 98.5602 120.387L113.075 104.586Z" fill="#FFC0BB"/>
<path d="M8.14992 120.085C8.14992 120.085 -0.959654 133.006 0.0830111 135.777C1.12568 138.547 46.317 175.252 46.317 175.252C46.317 175.252 47.5243 185.128 52.7102 187.707L59.2954 175.938L21.8967 134.405L24.8326 130.263L8.14992 120.085Z" fill="#FFC0BB"/>
<path d="M101.222 73.9435C101.222 73.9435 105.365 75.178 111.374 84.3954C117.383 93.6127 122.733 119.152 122.733 119.152L103.581 132.156L91.1242 101.321L101.222 73.9435Z" fill="#06BFAD"/>
<path d="M69.4473 59.6512L67.5266 75.1232L82.8647 74.6019L82.4257 56.9079L69.4473 59.6512Z" fill="#FFC0BB"/>
<path opacity="0.6" d="M82.6455 65.0554L82.4535 56.9079L69.2829 61.1325L68.8988 64.1775C71.8073 65.2748 77.3773 66.5916 82.6455 65.0554Z" fill="#FC8D84"/>
<path d="M94.8013 30.6274L94.472 41.381L92.661 42.2314L91.0971 28.9266L94.8013 30.6274Z" fill="#F46C0F"/>
<path d="M91.4258 39.8997C90.685 42.2589 91.5904 44.6455 93.4837 45.2491C95.377 45.8526 97.5172 44.4261 98.258 42.0669C98.9989 39.7077 98.0934 37.321 96.2001 36.7175C94.3069 36.114 92.1667 37.5405 91.4258 39.8997Z" fill="#F99893"/>
<path d="M91.8098 53.2868C92.3037 52.2718 92.6878 51.1745 92.9897 50.0498C93.8403 47.0322 94.1421 43.8774 94.197 41.1342C94.197 40.5581 94.2518 39.9546 94.3067 39.3785C94.5262 37.0193 94.3341 34.5503 93.5659 32.054C91.1513 24.0162 83.6057 18.4474 75.2095 18.4748C63.9048 18.5297 55.3165 28.1311 56.1946 39.0767C54.9598 38.5006 53.5879 38.4732 52.4629 39.0767C50.2678 40.2563 49.719 43.4385 51.2007 46.1543C52.6824 48.8702 55.6732 50.1321 57.8409 48.925C58.1427 48.7604 58.4171 48.541 58.664 48.3215C60.3652 57.5663 68.5693 64.1501 77.7338 63.2723C82.2063 62.8334 86.13 60.6936 88.9562 57.5389C89.1482 57.3468 89.3403 57.1274 89.5598 56.8805C90.4928 55.8106 91.2336 54.5762 91.8098 53.2868Z" fill="#FFC0BB"/>
<path d="M73.4809 39.3785C73.5632 40.2837 72.9046 41.1067 71.9717 41.189C71.0663 41.2713 70.2431 40.6129 70.1608 39.6802C70.0784 38.775 70.737 37.952 71.6699 37.8697C72.5754 37.7874 73.3985 38.4732 73.4809 39.3785Z" fill="#333333"/>
<path d="M87.8314 38.9395C87.9138 39.8448 87.2552 40.6678 86.3223 40.7501C85.4168 40.8324 84.5937 40.174 84.5114 39.2413C84.4291 38.336 85.0876 37.513 86.0205 37.4307C86.926 37.3759 87.7491 38.0343 87.8314 38.9395Z" fill="#333333"/>
<path d="M75.1548 35.8945C74.3042 35.6476 73.5085 35.4556 72.7127 35.3459C71.917 35.2361 71.1487 35.2361 70.3805 35.3459C69.6396 35.4556 68.8714 35.6476 68.158 36.0042L67.8836 36.114C67.8012 36.1414 67.7189 36.2237 67.6092 36.2511L67.0604 36.5529C66.7037 36.7449 66.347 37.0193 65.9629 37.2113C66.1824 36.8272 66.4019 36.4432 66.7037 36.0865C67.0055 35.7848 67.3073 35.4007 67.6915 35.1813C68.4049 34.6052 69.3104 34.276 70.2433 34.1388C71.1762 34.0017 72.1091 34.1114 72.9871 34.4132C73.8103 34.7423 74.5786 35.2087 75.1548 35.8945Z" fill="#F46C0F"/>
<path d="M81.877 35.5927C82.3984 34.852 83.1392 34.3034 83.9624 33.9193C84.7855 33.5352 85.7184 33.3432 86.6513 33.3981C87.5843 33.4529 88.5172 33.6998 89.2854 34.2211C89.697 34.4405 89.9989 34.7697 90.3556 35.044C90.6574 35.3732 90.9318 35.7298 91.1787 36.0865C90.7671 35.9219 90.383 35.7024 90.0263 35.5378L89.4501 35.2909C89.3678 35.2635 89.258 35.2086 89.1757 35.1812L88.9013 35.0989C88.1605 34.7971 87.3922 34.6874 86.6239 34.6325C85.8556 34.5777 85.0873 34.66 84.2916 34.852C83.4959 35.0166 82.7002 35.2635 81.877 35.5927Z" fill="#F46C0F"/>
<path d="M95.5417 17.8164C95.5417 17.8164 101.249 17.4049 94.7734 13.2077C88.2979 9.01054 71.6427 5.06024 61.902 11.5343C61.902 11.5343 59.3777 7.39202 56.5241 8.73621C53.6705 10.0804 58.8838 12.5768 58.8838 12.5768C58.8838 12.5768 55.0698 12.8511 54.1095 14.8263C53.3961 16.2802 55.7283 16.1156 56.9905 15.9236C54.8778 16.5271 48.2376 21.4101 54.1369 37.6776C55.5912 37.2113 65.9355 25.6347 65.9355 25.6347C65.9355 25.6347 83.0297 33.5902 80.3682 28.3505C80.3682 28.3505 100.481 36.0317 96.5844 26.0462C96.5844 26.1011 104.377 25.8542 95.5417 17.8164Z" fill="#F46C0F"/>
<path d="M121.937 116.656L103.005 129.22C102.346 129.659 102.127 130.482 102.428 131.168L105.172 137.231C105.584 138.136 106.764 138.465 107.614 137.916L126.821 125.215C127.507 124.776 127.727 123.926 127.37 123.213L124.379 117.287C123.913 116.409 122.788 116.108 121.937 116.656Z" fill="#02AA95"/>
<path d="M50.9539 71.5295C54.7679 69.28 59.0209 67.8809 63.4659 67.1403C66.1549 69.4172 74.4139 69.3349 78.9138 69.472C85.746 69.6915 86.5966 70.0481 89.2582 68.8685C95.4318 71.2003 106.188 75.1231 106.325 78.8814C109.371 160.192 103.087 159.424 103.087 159.424C94.5538 163.209 58.3075 161.097 52.5454 159.424C46.7833 157.75 42.3931 118.741 42.3931 118.741L24.8598 135.31C18.7959 129.549 6.75039 121.813 6.75039 121.813C6.75039 121.813 32.8993 82.1733 50.9539 71.5295Z" fill="#02CCC0"/>
<path d="M61.4072 86.5351C60.6389 87.9067 59.9255 89.2784 59.1572 90.6226L56.8799 94.71C56.1116 96.0817 55.3707 97.4258 54.575 98.7975C53.8067 100.169 53.0385 101.513 52.2427 102.858C51.447 104.202 50.6787 105.546 49.883 106.89C49.4715 107.548 49.0873 108.234 48.6757 108.893L47.4684 110.895L46.2337 112.87C46.0142 113.2 45.8221 113.529 45.6026 113.858L44.9715 114.846L44.3404 115.833L44.0112 116.327L43.6819 116.821C43.2429 117.452 42.8039 118.11 42.3649 118.768C44.313 116.327 46.1239 113.776 47.8526 111.17C49.5812 108.563 51.2001 105.875 52.7641 103.187C54.3281 100.471 55.8372 97.755 57.264 94.9843C58.7457 92.1862 60.1176 89.3881 61.4072 86.5351Z" fill="white"/>
<path d="M90.2734 69.2251L82.673 66.0155L79.1608 69.2251L68.8714 64.7811L63.466 67.1403L73.4536 75.0134L79.106 69.8835L82.865 74.6019L90.2734 69.2251Z" fill="#06BFAD"/>
<path opacity="0.5" d="M48.8682 190.642C50.7889 191.383 52.7096 192.178 54.6028 193.001C56.4961 193.852 58.3345 194.729 60.2003 195.662C62.0387 196.567 63.8771 197.527 65.688 198.515C67.499 199.503 69.3099 200.49 71.0934 201.505L71.2306 201.149C69.8861 200.847 68.5416 200.655 67.1697 200.518C65.7978 200.38 64.4258 200.326 63.0539 200.326C61.682 200.326 60.31 200.408 58.9656 200.573L57.9503 200.71L56.9351 200.902L56.4412 200.984L55.9473 201.094L54.9595 201.341L55.9747 201.149L56.4687 201.039L56.9625 200.957L57.9778 200.819L58.993 200.71C59.3223 200.682 59.6789 200.655 60.0082 200.627C60.3375 200.6 60.6942 200.573 61.0234 200.573L62.0387 200.545C62.3679 200.545 62.7246 200.545 63.0539 200.545C64.4258 200.573 65.7703 200.682 67.1148 200.819C68.4593 200.984 69.8038 201.176 71.1208 201.478L72.3281 201.752L71.258 201.121C69.4745 200.079 67.6636 199.064 65.8252 198.104C63.9868 197.143 62.1484 196.211 60.2826 195.305C58.4168 194.4 56.5235 193.577 54.6302 192.754C53.6699 192.37 52.7096 191.986 51.7492 191.629C50.8437 191.273 49.8559 190.944 48.8682 190.642Z" fill="#DAEEF7"/>
<path opacity="0.5" d="M103.115 189.819C102.127 190.148 101.139 190.477 100.179 190.834C99.2185 191.191 98.2581 191.575 97.2978 191.959C95.4045 192.754 93.5112 193.605 91.6454 194.51C89.7796 195.415 87.9412 196.348 86.1028 197.308C84.2645 198.268 82.4809 199.283 80.67 200.326L79.5999 200.957L80.8072 200.682C82.1242 200.38 83.4687 200.161 84.8132 200.024C86.1577 199.859 87.5296 199.777 88.8741 199.75C89.2034 199.75 89.5601 199.722 89.8893 199.75L90.9046 199.777C91.2338 199.777 91.5905 199.804 91.9198 199.832C92.2491 199.859 92.6057 199.859 92.935 199.914L93.9503 200.024L94.9655 200.161L95.4594 200.243L95.9533 200.353L96.9685 200.545L95.9807 200.298L95.4868 200.188L94.9929 200.106L93.9777 199.914L92.9625 199.777C91.618 199.612 90.2461 199.53 88.8741 199.53C87.5022 199.53 86.1303 199.585 84.7583 199.722C83.3864 199.859 82.0419 200.079 80.6974 200.353L80.8346 200.71C82.6181 199.667 84.4291 198.707 86.24 197.719C88.051 196.732 89.8894 195.799 91.7277 194.867C93.5661 193.961 95.4319 193.056 97.3252 192.206C99.2733 191.355 101.167 190.56 103.115 189.819Z" fill="#DAEEF7"/>
<path opacity="0.5" d="M98.9717 166.474C97.2979 166.776 95.5968 167.022 93.923 167.242C92.2218 167.461 90.5481 167.653 88.8469 167.845C85.4719 168.175 82.0695 168.394 78.6671 168.476C76.966 168.504 75.2648 168.504 73.5636 168.476C71.8624 168.421 70.1612 168.339 68.46 168.202C66.7588 168.037 65.0851 167.845 63.3839 167.571C61.7101 167.297 60.0364 166.94 58.3901 166.501C60.0364 166.968 61.6827 167.379 63.3564 167.681C65.0302 167.983 66.7314 168.202 68.4326 168.367C70.1338 168.531 71.835 168.613 73.5361 168.668C75.2373 168.723 76.9385 168.723 78.6397 168.696C82.0421 168.613 85.4445 168.394 88.8469 168.01C90.5481 167.818 92.2218 167.598 93.923 167.352C95.6242 167.105 97.3254 166.803 98.9717 166.474Z" fill="#DAEEF7"/>
<path d="M65.9634 25.6896C65.9634 25.6896 60.997 37.0467 61.7927 43.1916C61.7927 43.1916 58.1708 38.144 53.5886 38.6926C53.5886 38.6926 50.5155 28.5974 52.299 21.7393L62.9451 22.3702L65.9634 25.6896Z" fill="#F46C0F"/>
<g opacity="0.5">
<path opacity="0.5" d="M61.4634 171.741C61.3811 171.933 61.2987 172.125 61.189 172.317L60.8872 172.893L60.2835 174.045L59.2957 175.938L56.4696 181.013C56.0854 181.781 52.3538 188.447 51.4757 189.929C52.5733 188.584 53.8903 187.24 54.7684 185.759C55.2074 185.018 55.6464 184.25 56.058 183.509C56.4696 182.741 56.8811 181.973 57.2653 181.205C58.061 179.669 58.8018 178.105 59.5152 176.542C59.8719 175.746 60.2012 174.95 60.5305 174.155C60.6951 173.743 60.8597 173.359 60.9969 172.948C61.189 172.564 61.3536 172.152 61.4634 171.741Z" fill="#DAEEF7"/>
</g>
<path d="M66.0446 69.1154C66.8952 69.7738 67.7458 70.4322 68.5964 71.118L71.1482 73.148L73.4805 75.0134C74.3585 74.1081 75.2365 73.2303 76.1146 72.325C77.0475 71.3649 78.0078 70.4322 78.9407 69.472L79.1877 69.2251L79.4072 69.4995C80.0383 70.3224 80.6419 71.1454 81.273 71.9684C81.8492 72.7365 82.4254 73.5046 82.9742 74.2727C84.1541 73.4498 85.3339 72.6268 86.5138 71.8038L88.407 70.5145C89.0381 70.0755 89.6692 69.6641 90.3003 69.2251C89.6966 69.6915 89.093 70.1578 88.4894 70.6242L86.6784 72.0233C85.4711 72.956 84.2638 73.8612 83.0291 74.794L82.837 74.9311L82.6998 74.7391C82.0687 73.9161 81.4376 73.1206 80.8066 72.2976C80.2578 71.5843 79.6816 70.8437 79.1328 70.1304C78.2822 71.0083 77.4316 71.8861 76.5536 72.7365C75.6207 73.6967 74.6603 74.6294 73.7274 75.5895L73.5353 75.7815L73.3433 75.6169L70.8463 73.5321L68.3769 71.4197C67.5537 70.7065 66.7306 69.9932 65.9349 69.28C65.1117 68.5668 64.316 67.8535 63.4928 67.1403C64.3434 67.7712 65.194 68.457 66.0446 69.1154Z" fill="white"/>
<path d="M79.3804 69.4995C79.6822 73.34 79.9841 77.1532 80.2036 80.9937C80.4505 84.8343 80.67 88.6474 80.8621 92.488C80.9718 94.4083 81.0267 96.3286 81.1364 98.2488L81.2736 101.129L81.3834 104.01C81.548 107.85 81.6029 111.691 81.6852 115.531C81.8498 123.213 81.795 130.894 81.6029 138.575C81.4383 142.415 81.356 146.256 81.0816 150.069L80.917 152.949C80.8895 153.416 80.8621 153.91 80.8346 154.376L80.6974 155.802C80.5328 157.723 80.3682 159.616 80.2036 161.536C80.6426 157.723 81.109 153.91 81.3834 150.069C81.7401 146.228 81.8773 142.388 82.0694 138.547C82.1242 136.627 82.1791 134.707 82.234 132.786C82.2614 131.826 82.2889 130.866 82.2889 129.906L82.3163 127.026L82.3438 124.145V122.691V121.237L82.2889 115.477C82.1791 111.636 82.0968 107.795 81.9322 103.955L81.8224 101.074L81.6852 98.194C81.5755 96.2737 81.4932 94.3534 81.356 92.4331C81.109 88.5925 80.8346 84.752 80.5054 80.9389L80.2584 78.0584L79.984 75.178C79.792 73.3126 79.5999 71.3923 79.3804 69.4995Z" fill="white"/>
<path d="M75.4565 95.7524H62.3135L62.7799 105.71C62.8623 107.658 63.8775 109.441 65.4963 110.484L66.0726 110.868C68.2128 112.267 71.0389 112.185 73.0694 110.621C74.5785 109.469 75.4565 107.686 75.4565 105.793V95.7524Z" fill="#06BFAD"/>
<path d="M31.2535 128.48L12.8696 114.215C11.9916 113.529 10.7569 113.721 10.0983 114.599L5.79047 120.36C5.15938 121.21 5.32402 122.417 6.17462 123.075L24.2566 136.819C25.0798 137.45 26.2322 137.313 26.9182 136.545L31.5004 131.333C32.2687 130.455 32.1589 129.165 31.2535 128.48Z" fill="#06BFAD"/>
<path d="M42.0636 350.656L42.2831 358.639L52.0238 365.717C52.0238 365.717 56.6335 359.517 56.5512 358.639C56.4688 357.789 56.5512 343.963 56.5512 343.963C56.5512 343.963 45.3837 348.215 44.9447 348.215C44.4782 348.215 42.0636 350.656 42.0636 350.656Z" fill="#FFBE9D"/>
<path d="M89.752 358.639V348.764L101.084 345.636L103.581 346.734L104.02 358.639L100.453 369.036L89.752 358.639Z" fill="#FFBE9D"/>
<path d="M73.7276 206.745L59.4321 352C53.8072 351.754 47.9903 351.342 42.091 350.656C41.4325 322.785 39.5118 239.527 39.8136 206.086C40.1703 165.651 52.2981 159.725 52.2981 159.725L72.9594 154.349L101.111 159.341C92.3036 193.467 73.7276 206.745 73.7276 206.745Z" fill="#45258F"/>
<path d="M106.133 350.3C101.88 350.794 96.0082 351.37 89.0114 351.754L74.0025 183.839L72.4385 157.119C72.4385 157.119 95.4869 146.037 103.087 159.204C110.715 172.372 110.468 191.986 110.468 191.986C110.468 191.986 109.535 315.68 106.133 350.3Z" fill="#45258F"/>
<path d="M89.752 358.639V369.612C89.752 370.518 90.4929 371.258 91.3983 371.258H117.108C118.974 371.258 119.687 368.844 118.096 367.829L104.02 358.639C104.02 358.639 98.0385 362.782 89.752 358.639Z" fill="#45258F"/>
<path d="M42.3106 358.639V369.612C42.3106 370.518 43.0514 371.258 43.9569 371.258H69.6669C71.5327 371.258 72.2461 368.844 70.6547 367.829L56.5787 358.639C56.5787 358.639 50.5696 362.782 42.3106 358.639Z" fill="#45258F"/>
<path d="M113.075 104.586L119.359 124.831C119.359 124.831 146.797 98.9895 146.687 91.7473L146.194 89.5252C145.563 86.7545 146.221 84.944 147.291 84.8617L147.511 84.8891C147.511 84.8891 149.349 88.812 150.831 92.0216L152.477 90.5402L160.818 100.992L151.27 105.628C151.27 105.628 121.965 152.017 115.325 148.972C108.685 145.927 98.5602 120.387 98.5602 120.387L113.075 104.586Z" fill="#FFBE9D"/>
<path d="M8.14992 120.085C8.14992 120.085 -0.959654 133.006 0.0830111 135.777C1.12568 138.547 46.317 175.252 46.317 175.252C46.317 175.252 47.5243 185.128 52.7102 187.707L59.2954 175.938L21.8967 134.405L24.8326 130.263L8.14992 120.085Z" fill="#FFBE9D"/>
<path d="M153.19 81.6521H157.443H163.562L159.995 102.803H157.443H153.19H150.638L147.071 81.6521H153.19Z" fill="#7772D6"/>
<path d="M146.413 83.6547H164.22C164.577 83.6547 164.879 83.353 164.879 82.9963V82.0362C164.879 81.6796 164.577 81.3778 164.22 81.3778H146.413C146.056 81.3778 145.754 81.6796 145.754 82.0362V82.9963C145.754 83.353 146.056 83.6547 146.413 83.6547Z" fill="#62BDF3"/>
<path opacity="0.3" d="M160.681 87.3581C161.367 87.3581 162.026 87.4678 162.629 87.6599L160.489 100.416C156.977 100.306 154.151 97.4259 154.151 93.8871C154.151 90.2934 157.059 87.3581 160.681 87.3581Z" fill="#DAEEF7"/>
<path d="M101.222 73.9435C101.222 73.9435 105.365 75.178 111.374 84.3954C117.383 93.6127 122.733 119.152 122.733 119.152L103.581 132.156L91.1242 101.321L101.222 73.9435Z" fill="#3B77BE"/>
<path d="M69.4473 59.6512L67.5266 75.1232L82.8647 74.6019L82.4257 56.9079L69.4473 59.6512Z" fill="#FFBE9D"/>
<path opacity="0.6" d="M82.6455 65.0554L82.4535 56.9079L69.2829 61.1325L68.8988 64.1775C71.8073 65.2748 77.3773 66.5916 82.6455 65.0554Z" fill="#D19369"/>
<path d="M94.8013 30.6274L94.472 41.381L92.661 42.2314L91.0971 28.9266L94.8013 30.6274Z" fill="#282828"/>
<path d="M91.4258 39.8997C90.685 42.2589 91.5904 44.6455 93.4837 45.2491C95.377 45.8526 97.5172 44.4261 98.258 42.0669C98.9989 39.7077 98.0934 37.321 96.2001 36.7175C94.3069 36.114 92.1667 37.5405 91.4258 39.8997Z" fill="#D19369"/>
<path d="M91.8098 53.2868C92.3037 52.2718 92.6878 51.1745 92.9897 50.0498C93.8403 47.0322 94.1421 43.8774 94.197 41.1342C94.197 40.5581 94.2518 39.9546 94.3067 39.3785C94.5262 37.0193 94.3341 34.5503 93.5659 32.054C91.1513 24.0162 83.6057 18.4474 75.2095 18.4748C63.9048 18.5297 55.3165 28.1311 56.1946 39.0767C54.9598 38.5006 53.5879 38.4732 52.4629 39.0767C50.2678 40.2563 49.719 43.4385 51.2007 46.1543C52.6824 48.8702 55.6732 50.1321 57.8409 48.925C58.1427 48.7604 58.4171 48.541 58.664 48.3215C60.3652 57.5663 68.5693 64.1501 77.7338 63.2723C82.2063 62.8334 86.13 60.6936 88.9562 57.5389C89.1482 57.3468 89.3403 57.1274 89.5598 56.8805C90.4928 55.8106 91.2336 54.5762 91.8098 53.2868Z" fill="#FFBE9D"/>
<path d="M73.4809 39.3785C73.5632 40.2837 72.9046 41.1067 71.9717 41.189C71.0663 41.2713 70.2431 40.6129 70.1608 39.6802C70.0784 38.775 70.737 37.952 71.6699 37.8697C72.5754 37.7874 73.3985 38.4732 73.4809 39.3785Z" fill="#333333"/>
<path d="M87.8314 38.9395C87.9138 39.8448 87.2552 40.6678 86.3223 40.7501C85.4168 40.8324 84.5937 40.174 84.5114 39.2413C84.4291 38.336 85.0876 37.513 86.0205 37.4307C86.926 37.3759 87.7491 38.0343 87.8314 38.9395Z" fill="#333333"/>
<path d="M75.1543 35.8945C74.3037 35.6476 73.508 35.4556 72.7123 35.3459C71.9165 35.2361 71.1483 35.2361 70.38 35.3459C69.6391 35.4556 68.8709 35.6476 68.1575 36.0042L67.8831 36.114C67.8008 36.1414 67.7184 36.2237 67.6087 36.2511L67.0599 36.5529C66.7032 36.7449 66.3465 37.0193 65.9624 37.2113C66.1819 36.8272 66.4014 36.4432 66.7032 36.0865C67.005 35.7848 67.3068 35.4007 67.691 35.1813C68.4044 34.6052 69.3099 34.276 70.2428 34.1388C71.1757 34.0017 72.1086 34.1114 72.9866 34.4132C73.8098 34.7423 74.5781 35.2087 75.1543 35.8945Z" fill="#282828"/>
<path d="M81.877 35.5927C82.3984 34.852 83.1392 34.3034 83.9624 33.9193C84.7855 33.5352 85.7184 33.3432 86.6513 33.3981C87.5843 33.4529 88.5172 33.6998 89.2854 34.2211C89.697 34.4405 89.9989 34.7697 90.3556 35.044C90.6574 35.3732 90.9318 35.7298 91.1787 36.0865C90.7671 35.9219 90.383 35.7024 90.0263 35.5378L89.4501 35.2909C89.3678 35.2635 89.258 35.2086 89.1757 35.1812L88.9013 35.0989C88.1605 34.7971 87.3922 34.6874 86.6239 34.6325C85.8556 34.5777 85.0873 34.66 84.2916 34.852C83.4959 35.0166 82.7002 35.2635 81.877 35.5927Z" fill="#282828"/>
<path d="M95.5417 17.8164C95.5417 17.8164 101.249 17.4049 94.7734 13.2077C88.2979 9.01054 71.6427 5.06024 61.902 11.5343C61.902 11.5343 59.3777 7.39202 56.5241 8.73621C53.6705 10.0804 58.8838 12.5768 58.8838 12.5768C58.8838 12.5768 55.0698 12.8511 54.1095 14.8263C53.3961 16.2802 55.7283 16.1156 56.9905 15.9236C54.8778 16.5271 48.2376 21.4101 54.1369 37.6776C55.5912 37.2113 65.9355 25.6347 65.9355 25.6347C65.9355 25.6347 83.0297 33.5902 80.3682 28.3505C80.3682 28.3505 100.481 36.0317 96.5844 26.0462C96.5844 26.1011 104.377 25.8542 95.5417 17.8164Z" fill="#282828"/>
<path d="M85.1152 51.778C84.5665 53.8355 82.1244 55.3443 79.2159 55.2894C76.3075 55.2345 73.9203 53.6434 73.4264 51.586L85.1152 51.778Z" fill="white"/>
<path d="M121.937 116.656L103.005 129.22C102.346 129.659 102.127 130.482 102.428 131.168L105.172 137.231C105.584 138.136 106.764 138.465 107.614 137.916L126.821 125.215C127.507 124.776 127.727 123.926 127.37 123.213L124.379 117.287C123.913 116.409 122.788 116.108 121.937 116.656Z" fill="#3B77BE"/>
<path d="M50.9539 71.5295C54.7679 69.28 59.0209 67.8809 63.4659 67.1403C66.1549 69.4172 74.4139 69.3349 78.9138 69.472C85.746 69.6915 86.5966 70.0481 89.2582 68.8685C95.4318 71.2003 106.188 75.1231 106.325 78.8814C109.371 160.192 103.087 159.424 103.087 159.424C94.5538 163.209 58.3075 161.097 52.5454 159.424C46.7833 157.75 42.3931 118.741 42.3931 118.741L24.8598 135.31C18.7959 129.549 6.75039 121.813 6.75039 121.813C6.75039 121.813 32.8993 82.1733 50.9539 71.5295Z" fill="#3797DB"/>
<path d="M61.4072 86.5351C60.6389 87.9067 59.9255 89.2784 59.1572 90.6226L56.8799 94.71C56.1116 96.0817 55.3707 97.4258 54.575 98.7975C53.8067 100.169 53.0385 101.513 52.2427 102.858C51.447 104.202 50.6787 105.546 49.883 106.89C49.4715 107.548 49.0873 108.234 48.6757 108.893L47.4684 110.895L46.2337 112.87C46.0142 113.2 45.8221 113.529 45.6026 113.858L44.9715 114.846L44.3404 115.833L44.0112 116.327L43.6819 116.821C43.2429 117.452 42.8039 118.11 42.3649 118.768C44.313 116.327 46.1239 113.776 47.8526 111.17C49.5812 108.563 51.2001 105.875 52.7641 103.187C54.3281 100.471 55.8372 97.755 57.264 94.9843C58.7457 92.1862 60.1176 89.3881 61.4072 86.5351Z" fill="#3B77BE"/>
<path d="M90.2734 69.2251L82.673 66.0155L79.1608 69.2251L68.8714 64.7811L63.466 67.1403L73.4536 75.0134L79.106 69.8835L82.865 74.6019L90.2734 69.2251Z" fill="#3B77BE"/>
<path opacity="0.5" d="M48.8682 190.642C50.7889 191.383 52.7096 192.178 54.6028 193.001C56.4961 193.852 58.3345 194.729 60.2003 195.662C62.0387 196.567 63.8771 197.527 65.688 198.515C67.499 199.503 69.3099 200.49 71.0934 201.505L71.2306 201.149C69.8861 200.847 68.5416 200.655 67.1697 200.518C65.7978 200.38 64.4258 200.326 63.0539 200.326C61.682 200.326 60.31 200.408 58.9656 200.573L57.9503 200.71L56.9351 200.902L56.4412 200.984L55.9473 201.094L54.9595 201.341L55.9747 201.149L56.4687 201.039L56.9625 200.957L57.9778 200.819L58.993 200.71C59.3223 200.682 59.6789 200.655 60.0082 200.627C60.3375 200.6 60.6942 200.573 61.0234 200.573L62.0387 200.545C62.3679 200.545 62.7246 200.545 63.0539 200.545C64.4258 200.573 65.7703 200.682 67.1148 200.819C68.4593 200.984 69.8038 201.176 71.1208 201.478L72.3281 201.752L71.258 201.121C69.4745 200.079 67.6636 199.064 65.8252 198.104C63.9868 197.143 62.1484 196.211 60.2826 195.305C58.4168 194.4 56.5235 193.577 54.6302 192.754C53.6699 192.37 52.7096 191.986 51.7492 191.629C50.8437 191.273 49.8559 190.944 48.8682 190.642Z" fill="#2D185D"/>
<path opacity="0.5" d="M103.115 189.819C102.127 190.148 101.139 190.477 100.179 190.834C99.2185 191.191 98.2581 191.575 97.2978 191.959C95.4045 192.754 93.5112 193.605 91.6454 194.51C89.7796 195.415 87.9412 196.348 86.1028 197.308C84.2645 198.268 82.4809 199.283 80.67 200.326L79.5999 200.957L80.8072 200.682C82.1242 200.38 83.4687 200.161 84.8132 200.024C86.1577 199.859 87.5296 199.777 88.8741 199.75C89.2034 199.75 89.5601 199.722 89.8893 199.75L90.9046 199.777C91.2338 199.777 91.5905 199.804 91.9198 199.832C92.2491 199.859 92.6057 199.859 92.935 199.914L93.9503 200.024L94.9655 200.161L95.4594 200.243L95.9533 200.353L96.9685 200.545L95.9807 200.298L95.4868 200.188L94.9929 200.106L93.9777 199.914L92.9625 199.777C91.618 199.612 90.2461 199.53 88.8741 199.53C87.5022 199.53 86.1303 199.585 84.7583 199.722C83.3864 199.859 82.0419 200.079 80.6974 200.353L80.8346 200.71C82.6181 199.667 84.4291 198.707 86.24 197.719C88.051 196.732 89.8894 195.799 91.7277 194.867C93.5661 193.961 95.4319 193.056 97.3252 192.206C99.2733 191.355 101.167 190.56 103.115 189.819Z" fill="#2D185D"/>
<path opacity="0.5" d="M98.9717 166.474C97.2979 166.776 95.5968 167.022 93.923 167.242C92.2218 167.461 90.5481 167.653 88.8469 167.845C85.4719 168.175 82.0695 168.394 78.6671 168.476C76.966 168.504 75.2648 168.504 73.5636 168.476C71.8624 168.421 70.1612 168.339 68.46 168.202C66.7588 168.037 65.0851 167.845 63.3839 167.571C61.7101 167.297 60.0364 166.94 58.3901 166.501C60.0364 166.968 61.6827 167.379 63.3564 167.681C65.0302 167.983 66.7314 168.202 68.4326 168.367C70.1338 168.531 71.835 168.613 73.5361 168.668C75.2373 168.723 76.9385 168.723 78.6397 168.696C82.0421 168.613 85.4445 168.394 88.8469 168.01C90.5481 167.818 92.2218 167.598 93.923 167.352C95.6242 167.105 97.3254 166.803 98.9717 166.474Z" fill="#2D185D"/>
<path d="M65.9634 25.6896C65.9634 25.6896 60.997 37.0467 61.7927 43.1916C61.7927 43.1916 58.1708 38.144 53.5886 38.6926C53.5886 38.6926 50.5155 28.5974 52.299 21.7393L62.9451 22.3702L65.9634 25.6896Z" fill="#282828"/>
<path d="M160.214 101.541H160.379C161.422 101.596 162.354 100.882 162.519 99.8399L164.495 88.0713C164.604 87.4952 164.357 86.9191 163.891 86.5899C162.437 85.5201 159.309 83.3803 158.65 83.7369C157.772 84.2307 162.382 87.989 162.025 88.2359C161.668 88.4828 156.537 86.7271 156.4 87.3855C156.263 87.9616 161.147 90.4031 161.092 90.7597C161.037 91.1163 156.153 90.2659 155.879 90.842C155.632 91.3632 160.544 92.9817 160.571 93.2012L160.214 101.541Z" fill="#FFBE9D"/>
<path d="M147.153 84.9166C147.153 84.9166 151.708 84.1485 152.01 84.9166C152.312 85.6848 148.333 85.2733 147.592 87.4404C146.824 89.6351 147.153 84.9166 147.153 84.9166Z" fill="#FFBE9D"/>
<path d="M161.751 93.2013C161.751 93.2013 156.812 93.6676 156.483 94.4083C156.154 95.149 161.367 95.2039 161.367 95.2039L161.751 93.2013Z" fill="#FFBE9D"/>
<path d="M61.4634 171.741C61.3811 171.933 61.2987 172.125 61.189 172.317L60.8872 172.893L60.2835 174.045L59.2957 175.938L56.4696 181.013C56.0854 181.781 52.3538 188.447 51.4757 189.929C52.5733 188.584 53.8903 187.24 54.7684 185.759C55.2074 185.018 55.6464 184.25 56.058 183.509C56.4696 182.741 56.8811 181.973 57.2653 181.205C58.061 179.669 58.8018 178.105 59.5152 176.542C59.8719 175.746 60.2012 174.95 60.5305 174.155C60.6951 173.743 60.8597 173.359 60.9969 172.948C61.189 172.564 61.3536 172.152 61.4634 171.741Z" fill="#2D185D"/>
<path d="M66.0446 69.1154C66.8952 69.7738 67.7458 70.4322 68.5964 71.118L71.1482 73.148L73.4805 75.0134C74.3585 74.1081 75.2365 73.2303 76.1146 72.325C77.0475 71.3649 78.0078 70.4322 78.9407 69.472L79.1877 69.2251L79.4072 69.4995C80.0383 70.3224 80.6419 71.1454 81.273 71.9684C81.8492 72.7365 82.4254 73.5046 82.9742 74.2727C84.1541 73.4498 85.3339 72.6268 86.5138 71.8038L88.407 70.5145C89.0381 70.0755 89.6692 69.6641 90.3003 69.2251C89.6966 69.6915 89.093 70.1578 88.4894 70.6242L86.6784 72.0233C85.4711 72.956 84.2638 73.8612 83.0291 74.794L82.837 74.9311L82.6998 74.7391C82.0687 73.9161 81.4376 73.1206 80.8066 72.2976C80.2578 71.5843 79.6816 70.8437 79.1328 70.1304C78.2822 71.0083 77.4316 71.8861 76.5536 72.7365C75.6207 73.6967 74.6603 74.6294 73.7274 75.5895L73.5353 75.7815L73.3433 75.6169L70.8463 73.5321L68.3769 71.4197C67.5537 70.7065 66.7306 69.9932 65.9349 69.28C65.1117 68.5668 64.316 67.8535 63.4928 67.1403C64.3434 67.7712 65.194 68.457 66.0446 69.1154Z" fill="#3B77BE"/>
<path d="M79.3804 69.4995C79.6822 73.34 79.9841 77.1532 80.2036 80.9937C80.4505 84.8343 80.67 88.6474 80.8621 92.488C80.9718 94.4083 81.0267 96.3286 81.1364 98.2488L81.2736 101.129L81.3834 104.01C81.548 107.85 81.6029 111.691 81.6852 115.531C81.8498 123.213 81.795 130.894 81.6029 138.575C81.4383 142.415 81.356 146.256 81.0816 150.069L80.917 152.949C80.8895 153.416 80.8621 153.91 80.8346 154.376L80.6974 155.802C80.5328 157.723 80.3682 159.616 80.2036 161.536C80.6426 157.723 81.109 153.91 81.3834 150.069C81.7401 146.228 81.8773 142.388 82.0694 138.547C82.1242 136.627 82.1791 134.707 82.234 132.786C82.2614 131.826 82.2889 130.866 82.2889 129.906L82.3163 127.026L82.3438 124.145V122.691V121.237L82.2889 115.477C82.1791 111.636 82.0968 107.795 81.9322 103.955L81.8224 101.074L81.6852 98.194C81.5755 96.2737 81.4932 94.3534 81.356 92.4331C81.109 88.5925 80.8346 84.752 80.5054 80.9389L80.2584 78.0584L79.984 75.178C79.792 73.3126 79.5999 71.3923 79.3804 69.4995Z" fill="#3B77BE"/>
<path d="M75.4565 95.7524H62.3135L62.7799 105.71C62.8623 107.658 63.8775 109.441 65.4963 110.484L66.0726 110.868C68.2128 112.267 71.0389 112.185 73.0694 110.621C74.5785 109.469 75.4565 107.686 75.4565 105.793V95.7524Z" fill="#3B77BE"/>
<path d="M31.2535 128.48L12.8696 114.215C11.9916 113.529 10.7569 113.721 10.0983 114.599L5.79047 120.36C5.15938 121.21 5.32402 122.417 6.17462 123.075L24.2566 136.819C25.0798 137.45 26.2322 137.313 26.9182 136.545L31.5004 131.333C32.2687 130.455 32.1589 129.165 31.2535 128.48Z" fill="#3B77BE"/>
<path d="M79.4352 37.5131C80.0663 38.5281 80.5876 39.5705 81.0815 40.6404C81.5754 41.7103 81.987 42.835 82.3163 43.9597C82.4809 44.5358 82.6181 45.1119 82.6455 45.7703C82.6455 45.9349 82.6455 46.0995 82.6181 46.2641C82.6181 46.3464 82.5907 46.4561 82.5632 46.5384C82.5358 46.6481 82.5083 46.7304 82.426 46.8127C82.3986 46.8676 82.3437 46.9224 82.3163 46.9499L82.2339 47.0322C82.1791 47.087 82.1242 47.1419 82.0419 47.1968C81.9047 47.2791 81.7949 47.3888 81.6577 47.4437C81.1364 47.7729 80.5876 47.9923 80.0114 48.1844C79.4352 48.3764 78.8865 48.541 78.2828 48.6233C79.3529 48.1295 80.423 47.6083 81.3285 46.9499C81.4382 46.8676 81.548 46.7853 81.6577 46.703L81.7949 46.5658L81.8772 46.511C81.8772 46.4835 81.8772 46.4835 81.9047 46.4835C81.987 46.3738 81.987 46.072 81.9595 45.8251C81.9047 45.2765 81.7675 44.7278 81.6029 44.1792C81.301 43.0819 80.9169 41.9571 80.5328 40.8598C80.1761 39.7625 79.7919 38.6378 79.4352 37.5131Z" fill="#D19369"/>
<path d="M236.084 276.278H174.995C174.395 276.278 173.916 275.798 173.916 275.199V273.67C173.916 273.071 174.395 272.591 174.995 272.591H236.084C236.683 272.591 237.163 273.071 237.163 273.67V275.199C237.133 275.798 236.653 276.278 236.084 276.278Z" fill="#7772D6"/>
<path d="M254.577 120.946C254.577 117.352 251.888 114.362 248.431 113.896V104.843C248.431 98.4512 243.245 93.239 236.824 93.239H190.151C183.758 93.239 178.545 98.4238 178.545 104.843V113.951C175.197 114.527 172.673 117.462 172.673 120.946C172.673 124.457 175.225 127.365 178.545 127.941V175.427C175.197 176.003 172.673 178.938 172.673 182.422C172.673 185.934 175.225 188.842 178.545 189.418V190.46C178.545 196.852 183.731 202.064 190.151 202.064H199.371C201.044 202.064 202.389 203.408 202.389 205.082V208.401H224.587V205.082C224.587 203.408 225.931 202.064 227.605 202.064H236.824C243.217 202.064 248.431 196.879 248.431 190.46V189.473C251.915 189.006 254.577 186.016 254.577 182.422C254.577 178.829 251.888 175.839 248.431 175.372V127.996C251.888 127.53 254.577 124.54 254.577 120.946Z" fill="#62BDF3"/>
<path d="M178.544 127.941L226.123 128.545L178.544 129.148V127.941Z" fill="#3797DB"/>
<path d="M248.431 112.689L200.852 113.292L248.431 113.896V112.689Z" fill="#3797DB"/>
<path d="M178.544 189.418L226.123 190.021L178.544 190.625V189.418Z" fill="#62BDF3"/>
<path d="M248.431 174.165L200.852 174.769L248.431 175.372V174.165Z" fill="#62BDF3"/>
<path opacity="0.3" d="M254.577 120.946C254.577 117.352 251.888 114.362 248.431 113.896V104.843C248.431 98.4512 243.245 93.239 236.825 93.239H228.566C224.807 125.994 214.654 175.564 187.38 201.735C188.258 201.954 189.191 202.064 190.152 202.064H199.371C201.045 202.064 202.389 203.408 202.389 205.082V208.401H224.587V205.082C224.587 203.408 225.932 202.064 227.605 202.064H236.825C243.218 202.064 248.431 196.879 248.431 190.46V189.473C251.916 189.006 254.577 186.016 254.577 182.422C254.577 178.829 251.888 175.839 248.431 175.372V127.996C251.888 127.53 254.577 124.54 254.577 120.946Z" fill="#3799D3"/>
<path d="M213.501 151.671C232.792 151.671 248.43 150.725 248.43 149.558C248.43 148.392 232.792 147.446 213.501 147.446C194.21 147.446 178.572 148.392 178.572 149.558C178.572 150.725 194.21 151.671 213.501 151.671Z" fill="#3797DB"/>
<path opacity="0.3" d="M248.431 175.372V149.558C248.321 150.71 232.709 151.67 213.502 151.67C194.213 151.67 178.573 150.71 178.573 149.558V175.427C175.225 176.003 172.701 178.938 172.701 182.422C172.701 185.934 175.252 188.842 178.573 189.418V190.46C178.573 196.852 183.758 202.064 190.179 202.064H199.398C201.072 202.064 202.417 203.408 202.417 205.082V208.401H224.614V205.082C224.614 203.408 225.959 202.064 227.633 202.064H236.852C243.245 202.064 248.459 196.879 248.459 190.46V189.473C251.943 189.006 254.605 186.016 254.605 182.422C254.577 178.829 251.888 175.866 248.431 175.372Z" fill="#62BDF3"/>
<path d="M227.687 221.185H199.535C197.148 221.185 195.227 219.264 195.227 216.878V210.678C195.227 208.291 197.148 206.371 199.535 206.371H227.687C230.074 206.371 231.995 208.291 231.995 210.678V216.878C231.995 219.237 230.074 221.185 227.687 221.185Z" fill="#7772D6"/>
<path d="M244.342 371.406H182.88C178.051 371.406 174.127 367.483 174.127 362.655V222.282C174.127 217.454 178.051 213.531 182.88 213.531H244.342C249.171 213.531 253.095 217.454 253.095 222.282V362.682C253.095 367.51 249.171 371.406 244.342 371.406Z" fill="#D1EAF2"/>
<path d="M237.4 284.197H189.849V242.061C189.849 237.233 193.773 233.31 198.602 233.31H228.675C233.504 233.31 237.428 237.233 237.428 242.061V284.197H237.4Z" fill="#7772D6"/>
<path d="M233.422 284.197H193.828V242.802C193.828 239.592 196.435 236.958 199.673 236.958H227.578C230.788 236.958 233.422 239.565 233.422 242.802V284.197Z" fill="#D1EAF2"/>
<path d="M240.034 368.032H187.215C182.166 368.032 178.05 363.917 178.05 358.869V226.095C178.05 221.048 182.166 216.933 187.215 216.933H240.034C245.083 216.933 249.198 221.048 249.198 226.095V358.842C249.198 363.917 245.083 368.032 240.034 368.032ZM187.215 217.536C182.495 217.536 178.654 221.377 178.654 226.095V358.842C178.654 363.56 182.495 367.401 187.215 367.401H240.034C244.753 367.401 248.595 363.56 248.595 358.842V226.095C248.595 221.377 244.753 217.536 240.034 217.536H187.215Z" fill="#7772D6"/>
<path d="M186.063 224.724C186.063 225.629 185.322 226.369 184.416 226.369C183.511 226.369 182.77 225.629 182.77 224.724C182.77 223.818 183.511 223.078 184.416 223.078C185.322 223.105 186.063 223.818 186.063 224.724Z" fill="#7772D6"/>
<path d="M204.913 259.289H204.556L205.462 251.059C205.517 250.538 205.105 250.071 204.556 250.071H203.815H202.059H201.318C200.77 250.071 200.358 250.538 200.413 251.059L201.318 259.289H200.962C200.578 259.289 200.303 259.59 200.303 259.947V262.196C200.303 262.581 200.605 262.855 200.962 262.855H204.885C205.27 262.855 205.544 262.553 205.544 262.196V259.947C205.571 259.59 205.27 259.289 204.913 259.289Z" fill="white"/>
<path d="M205.818 261.84H200.139C199.919 261.84 199.727 261.648 199.727 261.428V260.852C199.727 260.633 199.919 260.441 200.139 260.441H205.818C206.038 260.441 206.23 260.633 206.23 260.852V261.428C206.23 261.648 206.038 261.84 205.818 261.84Z" fill="#9ED16F"/>
<path d="M226.178 259.289H225.821L226.727 251.059C226.782 250.538 226.37 250.071 225.821 250.071H225.08H223.324H222.584C222.035 250.071 221.623 250.538 221.678 251.059L222.584 259.289H222.227C221.843 259.289 221.568 259.59 221.568 259.947V262.196C221.568 262.581 221.87 262.855 222.227 262.855H226.151C226.535 262.855 226.809 262.553 226.809 262.196V259.947C226.864 259.59 226.562 259.289 226.178 259.289Z" fill="white"/>
<path d="M227.111 261.84H221.431C221.212 261.84 221.02 261.648 221.02 261.428V260.852C221.02 260.633 221.212 260.441 221.431 260.441H227.111C227.33 260.441 227.522 260.633 227.522 260.852V261.428C227.495 261.648 227.33 261.84 227.111 261.84Z" fill="#62BDF3"/>
<path d="M225.931 267.381H222.556H217.672L220.499 284.225H222.556H225.931H227.962L230.788 267.381H225.931Z" fill="#7772D6"/>
<path d="M231.309 268.972H217.151C216.849 268.972 216.629 268.725 216.629 268.451V267.71C216.629 267.409 216.876 267.189 217.151 267.189H231.309C231.611 267.189 231.83 267.436 231.83 267.71V268.451C231.83 268.753 231.611 268.972 231.309 268.972Z" fill="#62BDF3"/>
<path opacity="0.3" d="M219.977 271.633C219.428 271.633 218.907 271.716 218.413 271.88L220.114 282.03C222.913 281.948 225.163 279.671 225.163 276.845C225.163 273.938 222.858 271.633 219.977 271.633Z" fill="#DAEEF7"/>
<path d="M248.534 174.08L200.956 174.684L248.534 175.287V174.08Z" fill="#3797DB"/>
<path d="M178.439 189.228L226.017 189.831L178.439 190.435V189.228Z" fill="#3797DB"/>
</g>
</svg>
