<svg width="39" height="58" viewBox="0 0 39 58" fill="none" xmlns="http://www.w3.org/2000/svg">
<path d="M36.4288 14.9557C36.0629 14.9244 35.6946 14.9677 35.3451 15.0831C34.9956 15.1984 34.6718 15.3835 34.3923 15.6277C34.1129 15.8718 33.8832 16.1703 33.7166 16.5059C33.5501 16.8414 33.4498 17.2075 33.4217 17.5829L32.7501 26.538C32.5955 28.5994 30.4651 29.9353 29.106 28.3777C28.8447 28.0738 28.5234 27.8304 28.1633 27.6637C27.8033 27.497 27.4128 27.4108 27.0177 27.4108C26.6227 27.4108 26.2322 27.497 25.8721 27.6637C25.5121 27.8304 25.1908 28.0738 24.9295 28.3777C24.2384 29.1479 23.3991 29.7627 22.4645 30.1833C21.53 30.6038 20.5205 30.821 19.5 30.821C18.4795 30.821 17.47 30.6038 16.5355 30.1833C15.6009 29.7627 14.7616 29.1479 14.0705 28.3777C13.8092 28.0738 13.4879 27.8304 13.1279 27.6637C12.7678 27.497 12.3773 27.4108 11.9823 27.4108C11.5872 27.4108 11.1967 27.497 10.8367 27.6637C10.4766 27.8304 10.1553 28.0738 9.89401 28.3777C8.53216 29.9288 6.40437 28.5975 6.24999 26.5391L5.57828 17.5829C5.55017 17.2075 5.44995 16.8414 5.28337 16.5059C5.11679 16.1703 4.88715 15.8718 4.60766 15.6277C4.32817 15.3835 4.00436 15.1984 3.65486 15.0831C3.30536 14.9677 2.93707 14.9244 2.57119 14.9557C2.20512 14.9845 1.84823 15.0873 1.52105 15.2581C1.19387 15.429 0.902863 15.6645 0.664782 15.9512C0.426701 16.2378 0.246245 16.5699 0.133801 16.9284C0.0213562 17.2869 -0.0208568 17.6646 0.00959222 18.0399L2.40413 49.8815C2.56579 52.0379 3.51671 54.0519 5.06603 55.5191C6.61535 56.9864 8.64841 57.7983 10.7572 57.7919H28.2985C30.4073 57.7983 32.4403 56.9864 33.9897 55.5191C35.539 54.0519 36.4899 52.0379 36.6516 49.8815L38.9904 18.0399C39.0209 17.6646 38.9786 17.2869 38.8662 16.9284C38.7538 16.5699 38.5733 16.2378 38.3352 15.9512C38.0971 15.6645 37.8061 15.429 37.479 15.2581C37.1518 15.0873 36.7949 14.9845 36.4288 14.9557ZM31.0272 49.4531C30.9711 50.1702 30.6531 50.8392 30.1369 51.3263C29.6207 51.8134 28.9443 52.0827 28.2428 52.0804H10.7293C10.0279 52.0827 9.35145 51.8134 8.83524 51.3263C8.31903 50.8392 8.00108 50.1702 7.94497 49.4531L7.19416 39.3762C7.06596 37.6556 8.2504 36.1493 9.81041 35.4122C11.1707 34.7695 12.7908 34.765 14.1557 35.3978C15.8265 36.1724 17.6475 36.5791 19.5 36.5791C21.3535 36.5791 23.1754 36.172 24.8469 35.3966C26.2101 34.7642 27.8284 34.7686 29.1869 35.4109C30.7475 36.1487 31.9312 37.6576 31.7993 39.3787L31.0272 49.4531ZM19.5 23.5229C21.8977 23.5154 24.1951 22.5351 25.8906 20.7962C27.586 19.0573 28.5418 16.7009 28.5491 14.2417C28.5491 6.38841 21.3655 1.36229 21.0592 1.16239C20.5988 0.843186 20.0558 0.672607 19.5 0.672607C18.9442 0.672607 18.4012 0.843186 17.9408 1.16239C17.6345 1.39085 10.4509 6.38841 10.4509 14.2417C10.4582 16.7009 11.414 19.0573 13.1094 20.7962C14.8049 22.5351 17.1023 23.5154 19.5 23.5229ZM16.0196 14.2417C16.4051 9.68548 22.6199 9.68343 22.9804 14.2417C22.9804 15.1885 22.6137 16.0964 21.961 16.7659C21.3083 17.4353 20.4231 17.8114 19.5 17.8114C18.5769 17.8114 17.6917 17.4353 17.039 16.7659C16.3863 16.0964 16.0196 15.1885 16.0196 14.2417Z" fill="#699BF7"/>
</svg>
