<svg width="106" height="278" viewBox="0 0 106 278" fill="none" xmlns="http://www.w3.org/2000/svg">
<path d="M104.441 144.075C103.687 141.505 103.16 139.012 102.331 136.82C101.502 134.629 99.542 130.246 99.0897 128.659C98.7129 127.525 98.0346 124.729 97.9592 124.427C97.507 122.764 97.1302 120.119 97.1302 115.736C97.1302 105.308 95.0199 96.2396 93.814 93.8214C92.6835 91.4032 91.9298 89.514 90.6486 79.69C89.292 69.7905 91.8545 71.453 90.6486 59.5131C89.4427 47.5732 80.2478 45.4573 76.178 44.5505C72.1081 43.5681 63.7423 40.1675 62.0842 38.8828C61.2552 38.2782 61.1798 35.1799 61.2552 32.1572C62.5364 30.2679 63.1394 27.6986 63.5916 25.5071C63.8177 25.7338 64.1945 26.1872 64.5714 26.2628C65.0989 26.3384 65.8526 24.6758 66.0787 23.8446C66.3048 23.0133 66.6063 20.0661 66.3048 18.9326C65.928 17.7991 65.0989 18.7059 64.8728 19.1593C64.7975 19.3104 64.5714 19.4616 64.3453 19.6127C64.4206 18.1769 64.496 16.7411 64.7221 15.2297C65.0989 12.3581 64.9482 9.63761 63.9684 6.91713C61.8581 1.02275 53.9445 0.644905 52.814 0.569336C51.6835 0.569336 43.7699 1.02275 41.735 6.76599C40.7552 9.48647 40.6044 12.2825 40.9813 15.0786C41.2074 16.5144 41.2828 17.9502 41.3581 19.4616C41.132 19.3104 40.9059 19.1593 40.8305 19.0082C40.5291 18.5547 39.7 17.7235 39.3986 18.7815C39.0217 19.915 39.3232 22.8622 39.6247 23.6934C39.8508 24.5247 40.6044 26.1872 41.132 26.1116C41.5089 26.1116 41.8857 25.5827 42.1118 25.356C42.564 27.5475 43.2423 30.1168 44.4482 32.006C44.5236 35.0288 44.3728 38.1271 43.6192 38.7317C42.0364 39.9408 33.5952 43.4169 29.5254 44.3993C25.4555 45.3817 16.3361 47.4221 15.0548 59.362C13.8489 71.3019 16.4114 69.6394 15.0548 79.5389C13.6982 89.4384 13.0199 91.2521 11.8894 93.6703C10.7588 96.0885 8.57319 105.081 8.57319 115.585C8.57319 119.968 8.19635 122.613 7.74414 124.276C7.66877 124.578 6.9151 127.374 6.61363 128.508C6.16142 130.019 4.20186 134.478 3.37282 136.669C2.54377 138.861 2.0162 141.354 1.26252 143.924C0.73495 145.586 0.0566406 147.853 0.0566406 148.836C0.0566406 149.742 0.358111 150.045 0.885685 150.271C1.63936 150.574 2.31767 149.591 2.84524 147.929C3.29745 146.644 3.97576 143.848 4.42797 143.017C4.65407 142.639 4.5787 143.244 4.42797 143.848C3.97576 145.435 2.92061 148.76 2.39304 150.649C1.86546 152.463 1.63936 154.277 2.16694 154.881C2.76988 155.561 3.59892 155.335 4.05113 154.654C4.5787 153.748 4.8048 151.934 5.10627 150.649C5.78458 148.382 7.3673 143.621 7.3673 143.621C7.3673 143.621 5.78458 149.44 5.18164 151.481C5.10627 151.707 4.65407 153.823 4.50333 155.183C4.3526 156.544 4.72944 157.753 5.70922 157.526C7.59341 157.148 7.74414 153.445 8.42245 150.8C9.10076 148.231 10.4574 143.999 10.4574 143.999C10.4574 143.999 9.40223 149.213 8.72392 152.161C8.04561 155.032 8.34708 156.846 9.62833 156.317C10.9096 155.788 11.5125 153.823 11.7386 152.69C11.9647 151.556 12.4923 149.44 12.8691 147.627C13.246 145.813 14.5272 140.523 15.2809 140.674C15.9592 140.825 15.8085 144.83 17.9941 146.72C20.1044 148.684 21.5364 146.946 20.8581 145.586C20.1798 144.226 19.3508 142.715 18.6725 138.634C18.2202 136.216 17.0144 134.024 15.507 132.135C15.2055 131.757 14.9041 131.455 14.7533 131.077C14.678 130.85 14.6026 130.624 14.6026 130.397C14.9794 129.037 15.4316 127.601 15.4316 127.601C16.8636 123.218 20.2552 112.638 22.5162 106.139C25.3802 97.8266 24.4004 94.955 24.7772 91.4032C25.0787 89.0606 27.4905 83.2418 29.2239 77.0451C31.8618 82.6372 34.6504 90.8742 32.9923 98.9601C30.1283 113.243 31.0328 109.086 30.1283 113.243C29.1486 117.852 28.1688 122.311 27.7166 126.996C26.4353 137.5 25.6816 148.08 27.3397 158.433C27.9427 162.211 30.1283 184.051 29.9776 184.806C29.45 187.678 27.7919 193.648 27.1136 196.973C26.4353 200.374 26.8122 205.361 27.0383 214.581C27.2644 223.8 28.4703 230.904 28.8471 235.967C29.1486 240.274 28.5456 251.383 28.3949 254.405C28.3949 254.934 28.2441 255.463 28.0934 255.992C27.7166 257.126 27.1136 258.713 26.4353 260.073C25.1541 262.491 22.2901 267.025 21.3103 268.008C20.3305 268.99 18.7478 271.333 20.2552 272.013C20.7827 272.24 21.0089 272.013 21.0089 272.013C20.7827 272.769 21.1596 273.6 21.6118 273.827C21.9886 273.978 22.4408 273.978 22.4408 273.978C22.5162 274.582 23.1945 275.716 24.6265 275.263C24.6265 275.263 25.0033 276.547 26.1339 276.623C26.5107 276.623 26.8875 276.623 27.189 276.472C27.4905 276.32 27.8673 275.943 28.2441 275.111C28.2441 275.111 27.9427 276.245 29.3747 276.849C30.8066 277.378 32.4647 276.774 33.3691 274.885C34.2736 273.071 34.1228 272.693 34.8765 271.106C35.6302 269.519 35.2533 265.363 35.7809 263.625C36.3085 261.962 37.8912 261.358 38.0419 259.922C38.1173 259.091 38.1927 257.504 37.9666 255.917L38.0419 249.569L38.1927 246.773C38.4941 242.39 39.0217 238.083 39.8508 233.775C41.2074 226.596 43.1669 214.581 43.6945 207.326C44.4482 197.578 45.3526 189.416 45.8802 187.905C45.8802 187.829 45.9556 187.754 45.9556 187.603C47.9151 181.633 49.2717 175.511 49.95 169.315C50.1761 167.35 50.4022 165.159 50.553 162.891C51.2313 152.69 50.9298 147.098 52.7386 146.871C54.5475 147.173 54.246 152.69 54.9243 162.891C55.075 165.234 55.3011 167.35 55.5272 169.315C56.2056 175.511 57.5622 181.633 59.5217 187.603C59.5971 187.754 59.5971 187.829 59.5971 187.905C60.1247 189.492 61.0291 197.653 61.7828 207.326C62.3857 214.581 64.2699 226.521 65.6265 233.775C66.4556 238.083 66.9831 242.39 67.2846 246.773L67.4353 249.569L67.5107 255.917C67.2846 257.428 67.36 259.015 67.4353 259.922C67.5861 261.358 69.0934 261.887 69.6964 263.625C70.2239 265.287 69.9225 269.519 70.6008 271.106C71.3545 272.693 71.2037 273.071 72.1081 274.885C73.0125 276.698 74.6706 277.378 76.1026 276.849C77.5346 276.32 77.2331 275.111 77.2331 275.111C77.61 276.018 77.9868 276.396 78.2883 276.472C78.6651 276.623 78.9666 276.623 79.3434 276.623C80.4739 276.547 80.8508 275.263 80.8508 275.263C82.2828 275.64 82.9611 274.582 83.0364 273.978C83.0364 273.978 83.4886 274.053 83.8655 273.827C84.3177 273.6 84.6945 272.769 84.4684 272.013C84.4684 272.013 84.6945 272.24 85.2221 272.013C86.6541 271.333 85.1467 268.99 84.167 268.008C83.1872 267.025 80.3232 262.491 79.042 260.073C78.3636 258.713 77.7607 257.126 77.3839 255.992C77.2331 255.463 77.0824 254.934 77.0824 254.405C76.9317 251.383 76.2533 240.274 76.6302 235.967C77.007 230.904 78.2129 223.8 78.439 214.581C78.6651 205.361 79.042 200.298 78.3636 196.973C77.6853 193.572 76.0272 187.678 75.4997 184.806C75.3489 184.051 77.5346 162.211 78.1375 158.433C79.7956 148.08 79.042 137.5 77.9868 126.996C77.5346 122.311 76.5548 117.852 75.575 113.243C74.6706 109.086 75.575 113.243 72.7111 98.9601C71.053 90.8742 73.8416 82.6372 76.4795 77.0451C78.2129 83.2418 80.7 89.0606 80.9261 91.4032C81.3784 94.955 80.3232 97.8266 83.1872 106.139C85.3728 112.563 88.8397 123.142 90.2717 127.601L90.95 129.49C91.1008 130.019 91.1761 130.624 90.95 131.152C90.7239 131.53 90.4978 131.908 90.1964 132.21C88.6136 134.1 87.4078 136.291 87.0309 138.709C86.3526 142.715 85.4482 144.301 84.8453 145.662C84.167 147.022 85.5989 148.685 87.7092 146.795C89.8195 144.83 89.6688 140.901 90.4225 140.75C91.1008 140.599 92.4574 145.888 92.8342 147.702C93.2111 149.516 93.7386 151.632 93.9648 152.765C94.1909 153.899 94.7938 155.864 96.0751 156.393C97.3563 156.922 97.6578 155.108 96.9795 152.236C96.3012 149.365 95.246 144.075 95.246 144.075C95.246 144.075 96.5273 148.231 97.2809 150.876C97.9592 153.445 98.11 157.224 99.9942 157.602C100.974 157.753 101.426 156.619 101.2 155.259C101.049 153.899 100.597 151.707 100.522 151.556C99.9188 149.44 98.3361 143.697 98.3361 143.697C98.3361 143.697 99.9188 148.382 100.597 150.725C100.974 152.01 101.2 153.823 101.652 154.73C102.029 155.41 102.858 155.637 103.536 154.957C104.064 154.352 103.838 152.539 103.31 150.725C102.783 148.836 101.728 145.511 101.275 143.924C101.125 143.319 101.049 142.639 101.275 143.092C101.728 143.999 102.406 146.72 102.858 148.004C103.461 149.667 104.064 150.649 104.818 150.347C105.27 150.12 105.647 149.818 105.647 148.911C105.571 147.853 104.893 145.586 104.441 144.075Z" fill="url(#paint0_linear_1160_118784)"/>
<path d="M104.441 144.075C103.687 141.505 103.16 139.012 102.331 136.82C101.502 134.629 99.542 130.246 99.0897 128.659C98.7129 127.525 98.0346 124.729 97.9592 124.427C97.507 122.764 97.1302 120.119 97.1302 115.736C97.1302 105.308 95.0199 96.2396 93.814 93.8214C92.6835 91.4032 91.9298 89.514 90.6486 79.69C89.292 69.7905 91.8545 71.453 90.6486 59.5131C89.4427 47.5732 80.2478 45.4573 76.178 44.5505C72.1081 43.5681 63.7423 40.1675 62.0842 38.8828C61.2552 38.2782 61.1798 35.1799 61.2552 32.1572C62.5364 30.2679 63.1394 27.6986 63.5916 25.5071C63.8177 25.7338 64.1945 26.1872 64.5714 26.2628C65.0989 26.3384 65.8526 24.6758 66.0787 23.8446C66.3048 23.0133 66.6063 20.0661 66.3048 18.9326C65.928 17.7991 65.0989 18.7059 64.8728 19.1593C64.7975 19.3104 64.5714 19.4616 64.3453 19.6127C64.4206 18.1769 64.496 16.7411 64.7221 15.2297C65.0989 12.3581 64.9482 9.63761 63.9684 6.91713C61.8581 1.02275 53.9445 0.644905 52.814 0.569336C51.6835 0.569336 43.7699 1.02275 41.735 6.76599C40.7552 9.48647 40.6044 12.2825 40.9813 15.0786C41.2074 16.5144 41.2828 17.9502 41.3581 19.4616C41.132 19.3104 40.9059 19.1593 40.8305 19.0082C40.5291 18.5547 39.7 17.7235 39.3986 18.7815C39.0217 19.915 39.3232 22.8622 39.6247 23.6934C39.8508 24.5247 40.6044 26.1872 41.132 26.1116C41.5089 26.1116 41.8857 25.5827 42.1118 25.356C42.564 27.5475 43.2423 30.1168 44.4482 32.006C44.5236 35.0288 44.3728 38.1271 43.6192 38.7317C42.0364 39.9408 33.5952 43.4169 29.5254 44.3993C25.4555 45.3817 16.3361 47.4221 15.0548 59.362C13.8489 71.3019 16.4114 69.6394 15.0548 79.5389C13.6982 89.4384 13.0199 91.2521 11.8894 93.6703C10.7588 96.0885 8.57319 105.081 8.57319 115.585C8.57319 119.968 8.19635 122.613 7.74414 124.276C7.66877 124.578 6.9151 127.374 6.61363 128.508C6.16142 130.019 4.20186 134.478 3.37282 136.669C2.54377 138.861 2.0162 141.354 1.26252 143.924C0.73495 145.586 0.0566406 147.853 0.0566406 148.836C0.0566406 149.742 0.358111 150.045 0.885685 150.271C1.63936 150.574 2.31767 149.591 2.84524 147.929C3.29745 146.644 3.97576 143.848 4.42797 143.017C4.65407 142.639 4.5787 143.244 4.42797 143.848C3.97576 145.435 2.92061 148.76 2.39304 150.649C1.86546 152.463 1.63936 154.277 2.16694 154.881C2.76988 155.561 3.59892 155.335 4.05113 154.654C4.5787 153.748 4.8048 151.934 5.10627 150.649C5.78458 148.382 7.3673 143.621 7.3673 143.621C7.3673 143.621 5.78458 149.44 5.18164 151.481C5.10627 151.707 4.65407 153.823 4.50333 155.183C4.3526 156.544 4.72944 157.753 5.70922 157.526C7.59341 157.148 7.74414 153.445 8.42245 150.8C9.10076 148.231 10.4574 143.999 10.4574 143.999C10.4574 143.999 9.40223 149.213 8.72392 152.161C8.04561 155.032 8.34708 156.846 9.62833 156.317C10.9096 155.788 11.5125 153.823 11.7386 152.69C11.9647 151.556 12.4923 149.44 12.8691 147.627C13.246 145.813 14.5272 140.523 15.2809 140.674C15.9592 140.825 15.8085 144.83 17.9941 146.72C20.1044 148.684 21.5364 146.946 20.8581 145.586C20.1798 144.226 19.3508 142.715 18.6725 138.634C18.2202 136.216 17.0144 134.024 15.507 132.135C15.2055 131.757 14.9041 131.455 14.7533 131.077C14.678 130.85 14.6026 130.624 14.6026 130.397C14.9794 129.037 15.4316 127.601 15.4316 127.601C16.8636 123.218 20.2552 112.638 22.5162 106.139C25.3802 97.8266 24.4004 94.955 24.7772 91.4032C25.0787 89.0606 27.4905 83.2418 29.2239 77.0451C31.8618 82.6372 34.6504 90.8742 32.9923 98.9601C30.1283 113.243 31.0328 109.086 30.1283 113.243C29.1486 117.852 28.1688 122.311 27.7166 126.996C26.4353 137.5 25.6816 148.08 27.3397 158.433C27.9427 162.211 30.1283 184.051 29.9776 184.806C29.45 187.678 27.7919 193.648 27.1136 196.973C26.4353 200.374 26.8122 205.361 27.0383 214.581C27.2644 223.8 28.4703 230.904 28.8471 235.967C29.1486 240.274 28.5456 251.383 28.3949 254.405C28.3949 254.934 28.2441 255.463 28.0934 255.992C27.7166 257.126 27.1136 258.713 26.4353 260.073C25.1541 262.491 22.2901 267.025 21.3103 268.008C20.3305 268.99 18.7478 271.333 20.2552 272.013C20.7827 272.24 21.0089 272.013 21.0089 272.013C20.7827 272.769 21.1596 273.6 21.6118 273.827C21.9886 273.978 22.4408 273.978 22.4408 273.978C22.5162 274.582 23.1945 275.716 24.6265 275.263C24.6265 275.263 25.0033 276.547 26.1339 276.623C26.5107 276.623 26.8875 276.623 27.189 276.472C27.4905 276.32 27.8673 275.943 28.2441 275.111C28.2441 275.111 27.9427 276.245 29.3747 276.849C30.8066 277.378 32.4647 276.774 33.3691 274.885C34.2736 273.071 34.1228 272.693 34.8765 271.106C35.6302 269.519 35.2533 265.363 35.7809 263.625C36.3085 261.962 37.8912 261.358 38.0419 259.922C38.1173 259.091 38.1927 257.504 37.9666 255.917L38.0419 249.569L38.1927 246.773C38.4941 242.39 39.0217 238.083 39.8508 233.775C41.2074 226.596 43.1669 214.581 43.6945 207.326C44.4482 197.578 45.3526 189.416 45.8802 187.905C45.8802 187.829 45.9556 187.754 45.9556 187.603C47.9151 181.633 49.2717 175.511 49.95 169.315C50.1761 167.35 50.4022 165.159 50.553 162.891C51.2313 152.69 50.9298 147.098 52.7386 146.871C54.5475 147.173 54.246 152.69 54.9243 162.891C55.075 165.234 55.3011 167.35 55.5272 169.315C56.2056 175.511 57.5622 181.633 59.5217 187.603C59.5971 187.754 59.5971 187.829 59.5971 187.905C60.1247 189.492 61.0291 197.653 61.7828 207.326C62.3857 214.581 64.2699 226.521 65.6265 233.775C66.4556 238.083 66.9831 242.39 67.2846 246.773L67.4353 249.569L67.5107 255.917C67.2846 257.428 67.36 259.015 67.4353 259.922C67.5861 261.358 69.0934 261.887 69.6964 263.625C70.2239 265.287 69.9225 269.519 70.6008 271.106C71.3545 272.693 71.2037 273.071 72.1081 274.885C73.0125 276.698 74.6706 277.378 76.1026 276.849C77.5346 276.32 77.2331 275.111 77.2331 275.111C77.61 276.018 77.9868 276.396 78.2883 276.472C78.6651 276.623 78.9666 276.623 79.3434 276.623C80.4739 276.547 80.8508 275.263 80.8508 275.263C82.2828 275.64 82.9611 274.582 83.0364 273.978C83.0364 273.978 83.4886 274.053 83.8655 273.827C84.3177 273.6 84.6945 272.769 84.4684 272.013C84.4684 272.013 84.6945 272.24 85.2221 272.013C86.6541 271.333 85.1467 268.99 84.167 268.008C83.1872 267.025 80.3232 262.491 79.042 260.073C78.3636 258.713 77.7607 257.126 77.3839 255.992C77.2331 255.463 77.0824 254.934 77.0824 254.405C76.9317 251.383 76.2533 240.274 76.6302 235.967C77.007 230.904 78.2129 223.8 78.439 214.581C78.6651 205.361 79.042 200.298 78.3636 196.973C77.6853 193.572 76.0272 187.678 75.4997 184.806C75.3489 184.051 77.5346 162.211 78.1375 158.433C79.7956 148.08 79.042 137.5 77.9868 126.996C77.5346 122.311 76.5548 117.852 75.575 113.243C74.6706 109.086 75.575 113.243 72.7111 98.9601C71.053 90.8742 73.8416 82.6372 76.4795 77.0451C78.2129 83.2418 80.7 89.0606 80.9261 91.4032C81.3784 94.955 80.3232 97.8266 83.1872 106.139C85.3728 112.563 88.8397 123.142 90.2717 127.601L90.95 129.49C91.1008 130.019 91.1761 130.624 90.95 131.152C90.7239 131.53 90.4978 131.908 90.1964 132.21C88.6136 134.1 87.4078 136.291 87.0309 138.709C86.3526 142.715 85.4482 144.301 84.8453 145.662C84.167 147.022 85.5989 148.685 87.7092 146.795C89.8195 144.83 89.6688 140.901 90.4225 140.75C91.1008 140.599 92.4574 145.888 92.8342 147.702C93.2111 149.516 93.7386 151.632 93.9648 152.765C94.1909 153.899 94.7938 155.864 96.0751 156.393C97.3563 156.922 97.6578 155.108 96.9795 152.236C96.3012 149.365 95.246 144.075 95.246 144.075C95.246 144.075 96.5273 148.231 97.2809 150.876C97.9592 153.445 98.11 157.224 99.9942 157.602C100.974 157.753 101.426 156.619 101.2 155.259C101.049 153.899 100.597 151.707 100.522 151.556C99.9188 149.44 98.3361 143.697 98.3361 143.697C98.3361 143.697 99.9188 148.382 100.597 150.725C100.974 152.01 101.2 153.823 101.652 154.73C102.029 155.41 102.858 155.637 103.536 154.957C104.064 154.352 103.838 152.539 103.31 150.725C102.783 148.836 101.728 145.511 101.275 143.924C101.125 143.319 101.049 142.639 101.275 143.092C101.728 143.999 102.406 146.72 102.858 148.004C103.461 149.667 104.064 150.649 104.818 150.347C105.27 150.12 105.647 149.818 105.647 148.911C105.571 147.853 104.893 145.586 104.441 144.075Z" fill="#303E61"/>
<path d="M82.5837 58.3794C80.4734 59.2106 78.0616 60.7976 75.7252 60.7976C72.6352 60.8732 70.6002 59.8152 67.9624 58.5305C63.2896 56.2634 59.2197 59.1351 58.2399 59.6641C54.8484 61.5533 51.7583 60.2686 48.5929 58.5305C46.7087 57.4726 43.3925 55.5833 41.1315 56.4902C39.4734 57.1703 37.8907 58.2282 36.0818 58.6817C31.4844 59.8152 28.1682 58.1527 23.7969 57.397C20.1793 56.7924 17.6168 58.0015 14.9035 59.4373C14.3759 65.105 14.7528 67.5988 15.0543 69.8659H90.4973C90.7988 67.6744 91.1756 65.4073 90.7234 60.3442C88.0855 58.9839 85.8999 57.0947 82.5837 58.3794Z" fill="#BEE7FB"/>
<path d="M19.4266 146.947C19.4266 146.947 17.9946 145.36 19.8034 144.226C19.8034 144.226 20.0295 144.302 20.1803 144.604C20.4064 145.057 20.8586 145.889 20.7832 145.964C20.7832 146.266 20.4064 147.173 19.4266 146.947Z" fill="#F7E0D8"/>
<path d="M8.42188 155.259C8.42188 155.259 8.72335 153.295 9.70313 153.446C10.909 153.672 10.4568 154.957 10.1553 155.486C9.85386 156.015 8.64798 156.091 8.42188 155.259Z" fill="#F7E0D8"/>
<path d="M4.57812 156.468C4.57812 156.468 4.8796 154.428 5.85938 154.579C6.91452 154.73 6.61305 156.241 6.38695 156.77C6.16085 157.224 4.8796 157.224 4.57812 156.468Z" fill="#F7E0D8"/>
<path d="M2.0918 154.277C2.0918 154.277 2.39327 152.388 3.29768 152.464C4.27746 152.615 4.05136 153.975 3.82525 154.504C3.52378 155.033 2.3179 155.033 2.0918 154.277Z" fill="#F7E0D8"/>
<path d="M0.358154 149.365C0.358154 149.365 0.584257 147.778 1.33793 147.853C2.16698 147.929 1.94088 149.138 1.79014 149.516C1.56404 149.969 0.50889 149.969 0.358154 149.365Z" fill="#F7E0D8"/>
<path d="M86.277 146.947C86.277 146.947 87.709 145.36 85.9002 144.226C85.9002 144.226 85.6741 144.302 85.5234 144.604C85.2973 145.057 84.8451 145.889 84.9204 145.964C84.8451 146.266 85.2219 147.173 86.277 146.947Z" fill="#F7E0D8"/>
<path d="M97.2057 155.259C97.2057 155.259 96.9042 153.295 95.9244 153.446C94.7185 153.672 95.1707 154.957 95.4722 155.486C95.7737 156.015 97.0549 156.091 97.2057 155.259Z" fill="#F7E0D8"/>
<path d="M101.049 156.469C101.049 156.469 100.747 154.428 99.7677 154.579C98.7125 154.73 99.014 156.242 99.2401 156.771C99.4662 157.224 100.747 157.224 101.049 156.469Z" fill="#F7E0D8"/>
<path d="M103.611 154.277C103.611 154.277 103.309 152.388 102.405 152.464C101.425 152.615 101.651 153.975 101.877 154.504C102.104 155.033 103.309 155.033 103.611 154.277Z" fill="#F7E0D8"/>
<path d="M105.345 149.365C105.345 149.365 105.119 147.778 104.365 147.853C103.536 147.929 103.762 149.138 103.913 149.516C104.139 149.969 105.119 149.969 105.345 149.365Z" fill="#F7E0D8"/>
<path d="M28.696 275.035C28.696 275.035 29.8266 276.32 31.56 275.564C31.56 275.564 31.7861 274.733 30.5049 274.431C28.8468 274.205 28.696 275.035 28.696 275.035Z" fill="#F7E0D8"/>
<path d="M25.2285 275.111C25.2285 275.111 25.7561 276.471 27.1127 275.564C27.1127 275.564 27.4895 274.809 26.2837 274.507C25.3792 274.356 25.2285 275.111 25.2285 275.111Z" fill="#F7E0D8"/>
<path d="M22.8923 273.978C22.8923 273.978 23.3445 275.035 24.4751 274.356C24.4751 274.356 24.7765 273.751 23.7967 273.525C22.9677 273.298 22.8923 273.978 22.8923 273.978Z" fill="#F7E0D8"/>
<path d="M21.2344 272.618C21.2344 272.618 21.5358 273.675 22.591 273.146C22.591 273.146 22.9678 272.618 22.0634 272.316C21.3097 272.013 21.2344 272.618 21.2344 272.618Z" fill="#F7E0D8"/>
<path d="M19.8777 270.956C19.8777 270.956 20.2545 271.786 21.0082 271.409C21.0082 271.409 21.1589 271.031 20.6314 270.729C20.1792 270.502 19.8777 270.956 19.8777 270.956Z" fill="#F7E0D8"/>
<path d="M76.9314 275.035C76.9314 275.035 75.8008 276.32 74.0674 275.564C74.0674 275.564 73.8413 274.733 75.1225 274.431C76.7806 274.205 76.9314 275.035 76.9314 275.035Z" fill="#F7E0D8"/>
<path d="M80.3228 275.111C80.3228 275.111 79.7952 276.47 78.4386 275.564C78.4386 275.564 78.0617 274.808 79.2676 274.506C80.2474 274.355 80.3228 275.111 80.3228 275.111Z" fill="#F7E0D8"/>
<path d="M82.7346 273.977C82.7346 273.977 82.2824 275.035 81.1519 274.355C81.1519 274.355 80.8504 273.751 81.8302 273.524C82.6593 273.298 82.7346 273.977 82.7346 273.977Z" fill="#F7E0D8"/>
<path d="M84.3925 272.617C84.3925 272.617 84.091 273.675 83.0359 273.146C83.0359 273.146 82.659 272.617 83.5634 272.315C84.3171 272.013 84.3925 272.617 84.3925 272.617Z" fill="#F7E0D8"/>
<path d="M85.7491 270.955C85.7491 270.955 85.3722 271.786 84.6186 271.408C84.6186 271.408 84.4678 271.031 84.9954 270.728C85.4476 270.502 85.7491 270.955 85.7491 270.955Z" fill="#F7E0D8"/>
<path d="M37.2873 74.0981C38.4932 74.6271 39.2469 75.3828 39.0961 75.7606C38.9454 76.1385 37.8149 76.0629 36.6844 75.5339C35.4785 75.0049 34.7248 74.2493 34.8756 73.8714C35.0263 73.4936 36.1568 73.5691 37.2873 74.0981Z" fill="#DC9C90"/>
<path d="M68.4148 74.0976C67.209 74.6266 66.4553 75.3823 66.606 75.7601C66.7568 76.138 67.8873 76.0624 69.0178 75.5334C70.2237 75.0045 70.9774 74.2488 70.8266 73.8709C70.6759 73.4931 69.6207 73.5686 68.4148 74.0976Z" fill="#DC9C90"/>
<path d="M102.274 136.82C101.445 134.629 99.4853 130.246 99.0331 128.659C98.6563 127.525 97.978 124.729 97.9026 124.427C97.4504 122.764 97.0736 120.119 97.0736 115.736C97.0736 105.308 94.9633 96.2395 93.7574 93.8213C92.6269 91.4031 91.8732 89.5139 90.5919 79.6899C89.386 70.6216 91.421 71.2262 90.818 62.2335C90.4412 62.0823 88.7831 61.0244 87.6526 60.9488C83.432 60.5709 81.6986 64.1227 77.478 63.367C72.4283 62.5357 68.2077 59.7397 63.0827 61.5533C59.239 62.838 55.6213 63.2159 51.7022 62.0068C49.0644 61.1755 46.4265 59.9664 43.5625 60.5709C41.3015 61.0999 39.1158 61.6289 36.8548 62.1579C30.3732 63.5937 28.3382 60.6465 24.2684 59.8153C20.7261 59.0596 18.1636 59.7397 14.9982 60.7221C14.0938 71.2262 16.4302 70.0926 15.1489 79.6143C13.7923 89.5139 13.114 91.3275 11.9835 93.7457C10.8529 96.1639 8.66728 105.157 8.66728 115.661C8.66728 120.044 8.29044 122.689 7.83824 124.351C7.76287 124.653 7.00919 127.449 6.70772 128.583C6.25552 130.094 4.29596 134.553 3.46691 136.744C2.63787 138.936 2.11029 141.43 1.35662 143.999C0.678309 145.586 0 147.853 0 148.836C0 149.742 0.301471 150.045 0.829044 150.271C1.58272 150.574 2.26103 149.591 2.7886 147.929C3.24081 146.644 3.91912 143.848 4.37132 143.017C4.59743 142.639 4.52206 143.243 4.37132 143.848C3.91912 145.435 2.86397 148.76 2.3364 150.649C1.80882 152.463 1.58272 154.276 2.11029 154.881C2.71324 155.561 3.54228 155.334 3.99449 154.654C4.52206 153.747 4.74816 151.934 5.04963 150.649C5.72794 148.382 7.31066 143.621 7.31066 143.621C7.31066 143.621 5.72794 149.44 5.125 151.48C5.04963 151.707 4.59743 153.823 4.44669 155.183C4.29596 156.544 4.6728 157.753 5.65258 157.526C7.53677 157.148 7.6875 153.445 8.36581 150.8C9.04412 148.231 10.4007 143.999 10.4007 143.999C10.4007 143.999 9.34559 149.213 8.66728 152.161C7.98897 155.032 8.29044 156.846 9.57169 156.317C10.8529 155.788 11.4559 153.823 11.682 152.69C11.9081 151.556 12.4357 149.44 12.8125 147.626C13.1893 145.813 14.4706 140.523 15.2243 140.674C15.9026 140.825 15.7518 144.83 17.9375 146.72C19.8217 148.458 21.1783 147.249 20.9522 146.039V145.964C20.9522 145.888 20.8768 145.737 20.8768 145.662C20.1985 144.301 19.3695 142.79 18.6912 138.709C18.239 136.291 17.0331 134.1 15.5257 132.21C15.2243 131.832 14.9228 131.53 14.7721 131.152C14.6967 130.926 14.6213 130.699 14.6213 130.472C14.9982 129.112 15.4504 127.676 15.4504 127.676C16.8824 123.293 20.2739 112.714 22.5349 106.215C25.3989 97.902 24.4191 95.0304 24.796 91.4787C25.0974 89.136 27.5092 83.3172 29.2427 77.1206C31.8805 82.7127 34.6691 90.9497 33.011 99.0355C30.1471 113.318 31.0515 109.162 30.1471 113.318C29.1673 117.928 28.1875 122.386 27.7353 127.072C26.3787 137.5 25.625 148.08 27.2831 158.433C27.886 162.211 30.0717 184.051 29.921 184.806C29.3934 187.678 27.7353 193.648 27.057 196.973C26.3787 200.374 26.7555 205.361 26.9816 214.581C27.2077 223.8 28.4136 230.903 28.7904 235.967C29.0919 240.274 28.489 251.383 28.3382 254.405C28.3382 254.934 28.1875 255.463 28.0368 255.992C27.6599 257.126 27.057 258.713 26.3787 260.073C25.0974 262.491 22.2335 267.025 21.2537 268.008C20.2739 268.99 18.6912 271.333 20.1985 272.013C20.7261 272.24 20.9522 272.013 20.9522 272.013C20.7261 272.769 21.1029 273.6 21.5552 273.827C21.932 273.978 22.3842 273.978 22.3842 273.978C22.4596 274.582 23.1379 275.716 24.5699 275.262C24.5699 275.262 24.9467 276.547 26.0772 276.623C26.4541 276.623 26.8309 276.623 27.1324 276.472C27.4338 276.32 27.8107 275.943 28.1875 275.111C28.1875 275.111 27.886 276.245 29.318 276.849C30.75 277.378 32.4081 276.774 33.3125 274.885C34.2169 273.071 34.0662 272.693 34.8199 271.106C35.5735 269.519 35.1967 265.363 35.7243 263.625C36.2518 261.962 37.8346 261.358 37.9853 259.922C38.0607 259.091 38.136 257.504 37.9099 255.917L37.9853 249.569L38.136 246.773C38.4375 242.39 38.9651 238.082 39.7941 233.775C41.1507 226.596 43.1103 214.581 43.6379 207.326C44.3916 197.578 45.296 189.416 45.8235 187.905C45.8235 187.829 45.8989 187.754 45.8989 187.602C47.8585 181.632 49.2151 175.511 49.8934 169.315C50.1195 167.35 50.3456 165.158 50.4963 162.891C51.1746 152.69 50.8732 147.097 52.682 146.871C54.4908 147.173 54.1894 152.69 54.8677 162.891C55.0184 165.234 55.2445 167.35 55.4706 169.315C56.1489 175.511 57.5055 181.632 59.4651 187.602C59.5405 187.754 59.5405 187.829 59.5405 187.905C60.068 189.492 60.9724 197.653 61.7261 207.326C62.3291 214.581 64.2132 226.52 65.5699 233.775C66.3989 238.082 66.9265 242.39 67.228 246.773L67.3787 249.569L67.4541 255.917C67.228 257.428 67.3033 259.015 67.3787 259.922C67.5294 261.358 69.0368 261.887 69.6397 263.625C70.1673 265.287 69.8658 269.519 70.5441 271.106C71.2978 272.693 71.1471 273.071 72.0515 274.885C72.9559 276.698 74.614 277.378 76.046 276.849C77.478 276.32 77.1765 275.111 77.1765 275.111C77.5533 276.018 77.9302 276.396 78.2316 276.472C78.6085 276.623 78.9099 276.623 79.2868 276.623C80.4173 276.547 80.7941 275.262 80.7941 275.262C82.2261 275.64 82.9044 274.582 82.9798 273.978C82.9798 273.978 83.432 274.053 83.8088 273.827C84.261 273.6 84.6379 272.769 84.4118 272.013C84.4118 272.013 84.6379 272.24 85.1655 272.013C86.5975 271.333 85.0901 268.99 84.1103 268.008C83.1305 267.025 80.2666 262.491 78.9853 260.073C78.307 258.713 77.7041 257.126 77.3272 255.992C77.1765 255.463 77.0257 254.934 77.0257 254.405C76.875 251.383 76.1967 240.274 76.5735 235.967C76.9504 230.903 78.1563 223.8 78.3824 214.581C78.6085 205.361 78.9853 200.298 78.307 196.973C77.6287 193.572 75.9706 187.678 75.443 184.806C75.2923 184.051 77.478 162.211 78.0809 158.433C79.739 148.08 78.9853 137.5 77.9302 126.996C77.478 122.311 76.4982 117.852 75.5184 113.243C74.614 109.086 75.5184 113.243 72.6544 98.96C70.9963 90.8741 73.7849 82.6371 76.4228 77.045C78.1563 83.2416 80.6434 89.0604 80.8695 91.4031C81.3217 94.9548 80.2666 97.8265 83.1305 106.139C85.3162 112.562 88.7831 123.142 90.2151 127.601L90.8934 129.49C91.0441 130.019 91.1195 130.623 90.8934 131.152C90.6673 131.53 90.4412 131.908 90.1397 132.21C88.557 134.1 87.3511 136.291 86.9743 138.709C86.296 142.714 85.3916 144.301 84.7886 145.662C84.1103 147.022 85.5423 148.684 87.6526 146.795C89.7629 144.83 89.6122 140.901 90.3658 140.75C91.0441 140.598 92.4008 145.888 92.7776 147.702C93.1544 149.516 93.682 151.632 93.9081 152.765C94.1342 153.899 94.7372 155.863 96.0184 156.392C97.2997 156.921 97.6011 155.108 96.9228 152.236C96.2445 149.364 95.1894 144.075 95.1894 144.075C95.1894 144.075 96.4706 148.231 97.2243 150.876C97.9026 153.445 98.0533 157.224 99.9375 157.602C100.917 157.753 101.37 156.619 101.143 155.259C100.993 153.899 100.54 151.707 100.465 151.556C99.8622 149.44 98.2794 143.697 98.2794 143.697C98.2794 143.697 99.8622 148.382 100.54 150.725C100.917 152.009 101.143 153.823 101.596 154.73C101.972 155.41 102.801 155.637 103.48 154.957C104.007 154.352 103.781 152.538 103.254 150.725C102.726 148.836 101.671 145.51 101.219 143.924C101.068 143.319 100.993 142.639 101.219 143.092C101.671 143.999 102.349 146.72 102.801 148.004C103.404 149.667 104.007 150.649 104.761 150.347C105.213 150.12 105.59 149.818 105.59 148.911C105.59 147.929 104.912 145.662 104.46 144.075C103.555 141.505 103.103 139.012 102.274 136.82Z" fill="#40BFEF"/>
<path d="M38.5347 119.094C37.468 118.539 36.9347 117.681 36.9347 116.518C36.9347 115.942 37.0787 115.419 37.3667 114.95C37.6654 114.47 38.108 114.091 38.6947 113.814C39.292 113.526 40.0174 113.382 40.8707 113.382C41.724 113.382 42.444 113.526 43.0307 113.814C43.628 114.091 44.0707 114.47 44.3587 114.95C44.6574 115.419 44.8067 115.942 44.8067 116.518C44.8067 117.105 44.6627 117.622 44.3747 118.07C44.0867 118.507 43.7027 118.849 43.2227 119.094C43.8094 119.35 44.268 119.723 44.5987 120.214C44.9294 120.705 45.0947 121.286 45.0947 121.958C45.0947 122.683 44.908 123.318 44.5347 123.862C44.172 124.395 43.6707 124.806 43.0307 125.094C42.3907 125.382 41.6707 125.526 40.8707 125.526C40.0707 125.526 39.3507 125.382 38.7107 125.094C38.0814 124.806 37.58 124.395 37.2067 123.862C36.844 123.318 36.6627 122.683 36.6627 121.958C36.6627 121.286 36.828 120.705 37.1587 120.214C37.4894 119.713 37.948 119.339 38.5347 119.094ZM42.6307 116.838C42.6307 116.315 42.4707 115.91 42.1507 115.622C41.8414 115.334 41.4147 115.19 40.8707 115.19C40.3374 115.19 39.9107 115.334 39.5907 115.622C39.2814 115.91 39.1267 116.321 39.1267 116.854C39.1267 117.334 39.2867 117.718 39.6067 118.006C39.9374 118.294 40.3587 118.438 40.8707 118.438C41.3827 118.438 41.804 118.294 42.1347 118.006C42.4654 117.707 42.6307 117.318 42.6307 116.838ZM40.8707 120.07C40.2627 120.07 39.7667 120.225 39.3827 120.534C39.0094 120.843 38.8227 121.286 38.8227 121.862C38.8227 122.395 39.004 122.833 39.3667 123.174C39.74 123.505 40.2414 123.67 40.8707 123.67C41.5 123.67 41.996 123.499 42.3587 123.158C42.7214 122.817 42.9027 122.385 42.9027 121.862C42.9027 121.297 42.716 120.859 42.3427 120.55C41.9694 120.23 41.4787 120.07 40.8707 120.07ZM47.1839 119.286C47.1839 117.441 47.5146 115.995 48.1759 114.95C48.8479 113.905 49.9573 113.382 51.5039 113.382C53.0506 113.382 54.1546 113.905 54.8159 114.95C55.4879 115.995 55.8239 117.441 55.8239 119.286C55.8239 121.142 55.4879 122.598 54.8159 123.654C54.1546 124.71 53.0506 125.238 51.5039 125.238C49.9573 125.238 48.8479 124.71 48.1759 123.654C47.5146 122.598 47.1839 121.142 47.1839 119.286ZM53.6159 119.286C53.6159 118.497 53.5626 117.835 53.4559 117.302C53.3599 116.758 53.1573 116.315 52.8479 115.974C52.5493 115.633 52.1013 115.462 51.5039 115.462C50.9066 115.462 50.4533 115.633 50.1439 115.974C49.8453 116.315 49.6426 116.758 49.5359 117.302C49.4399 117.835 49.3919 118.497 49.3919 119.286C49.3919 120.097 49.4399 120.779 49.5359 121.334C49.6319 121.878 49.8346 122.321 50.1439 122.662C50.4533 122.993 50.9066 123.158 51.5039 123.158C52.1013 123.158 52.5546 122.993 52.8639 122.662C53.1733 122.321 53.3759 121.878 53.4719 121.334C53.5679 120.779 53.6159 120.097 53.6159 119.286ZM57.5917 116.47C57.5917 115.659 57.8264 115.025 58.2957 114.566C58.7757 114.107 59.389 113.878 60.1357 113.878C60.8824 113.878 61.4904 114.107 61.9597 114.566C62.4397 115.025 62.6797 115.659 62.6797 116.47C62.6797 117.291 62.4397 117.931 61.9597 118.39C61.4904 118.849 60.8824 119.078 60.1357 119.078C59.389 119.078 58.7757 118.849 58.2957 118.39C57.8264 117.931 57.5917 117.291 57.5917 116.47ZM67.8637 114.07L61.5757 125.27H59.3997L65.6717 114.07H67.8637ZM60.1197 115.222C59.533 115.222 59.2397 115.638 59.2397 116.47C59.2397 117.313 59.533 117.734 60.1197 117.734C60.4077 117.734 60.6317 117.633 60.7917 117.43C60.9517 117.217 61.0317 116.897 61.0317 116.47C61.0317 115.638 60.7277 115.222 60.1197 115.222ZM64.6157 122.854C64.6157 122.033 64.8504 121.398 65.3197 120.95C65.7997 120.491 66.413 120.262 67.1597 120.262C67.9064 120.262 68.509 120.491 68.9677 120.95C69.437 121.398 69.6717 122.033 69.6717 122.854C69.6717 123.675 69.437 124.315 68.9677 124.774C68.509 125.233 67.9064 125.462 67.1597 125.462C66.4024 125.462 65.789 125.233 65.3197 124.774C64.8504 124.315 64.6157 123.675 64.6157 122.854ZM67.1437 121.606C66.5357 121.606 66.2317 122.022 66.2317 122.854C66.2317 123.697 66.5357 124.118 67.1437 124.118C67.741 124.118 68.0397 123.697 68.0397 122.854C68.0397 122.022 67.741 121.606 67.1437 121.606Z" fill="white"/>
<defs>
<linearGradient id="paint0_linear_1160_118784" x1="52.8132" y1="1.08525" x2="52.8132" y2="273.987" gradientUnits="userSpaceOnUse">
<stop stop-color="#EAB19C"/>
<stop offset="0.1094" stop-color="#ECB7A4"/>
<stop offset="0.1372" stop-color="#E8A992"/>
<stop offset="0.1623" stop-color="#EDBEAD"/>
<stop offset="0.3407" stop-color="#EEC2B2"/>
<stop offset="0.4053" stop-color="#EFC4B4"/>
<stop offset="0.4622" stop-color="#EFC5B5"/>
<stop offset="0.4969" stop-color="#EFC6B6"/>
<stop offset="0.5249" stop-color="#EFC4B3"/>
<stop offset="0.684" stop-color="#EDBDAB"/>
<stop offset="0.6909" stop-color="#ECB8A4"/>
<stop offset="0.7024" stop-color="#EBB5A1"/>
<stop offset="0.74" stop-color="#EDBBA9"/>
<stop offset="1" stop-color="#EAB19C"/>
</linearGradient>
</defs>
</svg>
