<svg width="201" height="41" viewBox="0 0 201 41" fill="none" xmlns="http://www.w3.org/2000/svg">
<path d="M25.6812 23.5339C23.679 14.8469 16.244 9.00137 13.2894 0.813266C13.2353 0.542136 13.0838 0.271007 12.9756 -0.00012207C9.97774 7.89516 3.3219 13.8275 0.724493 21.9288C-2.06771 30.6375 3.46259 40.0511 12.9864 40.0836C21.6336 40.0402 27.6184 31.9172 25.6812 23.5339ZM12.9864 34.0537C5.76778 34.032 1.56865 26.8959 3.68986 20.2803C5.65956 14.1311 10.7137 9.63039 12.9864 3.64385C13.0622 3.83907 13.1812 4.04513 13.2245 4.26203C15.4648 10.4763 21.1033 14.912 22.6293 21.5058C24.1011 27.8611 19.5557 34.0212 12.9864 34.0537ZM21.3522 34.2272C22.3046 32.6221 23.1379 31.1147 23.744 29.3361C24.1985 27.5141 24.3176 25.7788 24.415 23.9243C25.3782 27.6984 24.2418 31.6027 21.3522 34.2272Z" fill="#40BFEF"/>
<path d="M21.1247 22.0156C16.0814 27.102 12.4883 21.9614 8.92769 24.022C5.33461 26.8309 14.09 30.7894 19.3498 25.768C15.4212 30.887 8.04024 29.5639 6.79565 26.2452C4.69608 20.1611 10.3238 17.4281 12.997 6.96252C11.0705 12.0164 6.8173 15.8013 5.16145 20.9853C3.37574 26.5597 6.9147 32.5788 12.997 32.6005C18.5381 32.568 22.3584 27.3731 21.1247 22.0156ZM9.28483 30.8327C11.5792 32.3836 15.6376 31.9064 17.7697 30.3013C15.8649 32.3185 11.3736 32.8174 9.28483 30.8327Z" fill="#303E61"/>
<path d="M53.5315 28.462H45.4987L44.1695 32.3292H39.9219L47.1746 12.0045H51.8845L59.1372 32.3292H54.8607L53.5315 28.462ZM52.4335 25.2054L49.5151 16.715L46.5967 25.2054H52.4335Z" fill="#303E61"/>
<path d="M60.808 24.2458C60.808 22.6369 61.1354 21.2122 61.7904 19.9716C62.4646 18.7116 63.37 17.7326 64.5066 17.0348C65.6431 16.337 66.8952 15.988 68.2629 15.988C69.3995 15.988 70.4012 16.211 71.2681 16.6568C72.1542 17.0833 72.8669 17.6357 73.4063 18.3142V16.2207H77.4805V40.0054H73.4063V30.1193C72.8669 30.8172 72.1445 31.3987 71.2392 31.8639C70.3338 32.3292 69.3128 32.5618 68.1763 32.5618C66.8278 32.5618 65.5853 32.2129 64.4488 31.515C63.3315 30.7978 62.4454 29.8092 61.7904 28.5492C61.1354 27.2892 60.808 25.8547 60.808 24.2458ZM73.4063 24.2749C73.4063 23.2863 73.204 22.4334 72.7995 21.7162C72.395 20.9989 71.8652 20.4562 71.2103 20.0879C70.5746 19.7196 69.8907 19.5354 69.1587 19.5354C68.4459 19.5354 67.7621 19.7196 67.1071 20.0879C66.4714 20.4562 65.9513 20.9989 65.5468 21.7162C65.1423 22.414 64.94 23.2572 64.94 24.2458C64.94 25.2344 65.1423 26.0971 65.5468 26.8337C65.9513 27.5509 66.4714 28.0937 67.1071 28.462C67.7621 28.8303 68.4459 29.0144 69.1587 29.0144C69.8907 29.0144 70.5746 28.8303 71.2103 28.462C71.8652 28.0937 72.395 27.5509 72.7995 26.8337C73.204 26.1164 73.4063 25.2635 73.4063 24.2749Z" fill="#303E61"/>
<path d="M96.5437 16.2207V32.3292H92.4695V30.2938C91.9494 30.9916 91.2655 31.5441 90.4179 31.9512C89.5896 32.3389 88.6842 32.5327 87.7018 32.5327C86.4497 32.5327 85.342 32.271 84.3788 31.7476C83.4157 31.2049 82.6547 30.4198 82.0961 29.3924C81.5567 28.3457 81.287 27.105 81.287 25.6706V16.2207H85.3324V25.0891C85.3324 26.3684 85.6502 27.357 86.2859 28.0549C86.9216 28.7333 87.7885 29.0726 88.8865 29.0726C90.0038 29.0726 90.8803 28.7333 91.516 28.0549C92.1517 27.357 92.4695 26.3684 92.4695 25.0891V16.2207H96.5437Z" fill="#303E61"/>
<path d="M99.4949 24.2168C99.4949 22.5885 99.8127 21.1443 100.448 19.8843C101.103 18.6243 101.98 17.6551 103.078 16.9766C104.195 16.2982 105.438 15.959 106.805 15.959C108 15.959 109.04 16.2013 109.926 16.6859C110.831 17.1705 111.554 17.7811 112.093 18.5177V16.2207H116.167V32.3292H112.093V29.974C111.573 30.7299 110.851 31.3599 109.926 31.8639C109.021 32.3486 107.971 32.5909 106.776 32.5909C105.428 32.5909 104.195 32.2419 103.078 31.5441C101.98 30.8463 101.103 29.8673 100.448 28.6073C99.8127 27.328 99.4949 25.8644 99.4949 24.2168ZM112.093 24.2749C112.093 23.2863 111.901 22.4431 111.515 21.7452C111.13 21.028 110.61 20.4852 109.955 20.1169C109.3 19.7292 108.597 19.5354 107.846 19.5354C107.094 19.5354 106.401 19.7196 105.765 20.0879C105.129 20.4562 104.609 20.9989 104.205 21.7162C103.82 22.414 103.627 23.2475 103.627 24.2168C103.627 25.186 103.82 26.0389 104.205 26.7755C104.609 27.4927 105.129 28.0452 105.765 28.4329C106.42 28.8206 107.114 29.0144 107.846 29.0144C108.597 29.0144 109.3 28.8303 109.955 28.462C110.61 28.0743 111.13 27.5315 111.515 26.8337C111.901 26.1164 112.093 25.2635 112.093 24.2749Z" fill="#303E61"/>
<path d="M134.352 12.0336V15.3193H128.977V32.3292H124.932V15.3193H119.557V12.0336H134.352Z" fill="#40BFEF"/>
<path d="M141.349 18.7213C141.869 17.8683 142.543 17.1996 143.371 16.715C144.219 16.2303 145.182 15.988 146.261 15.988V20.2623H145.192C143.92 20.2623 142.957 20.5628 142.302 21.1637C141.666 21.7646 141.349 22.8114 141.349 24.304V32.3292H137.303V16.2207H141.349V18.7213Z" fill="#40BFEF"/>
<path d="M147.945 24.2168C147.945 22.5885 148.263 21.1443 148.899 19.8843C149.554 18.6243 150.43 17.6551 151.528 16.9766C152.646 16.2982 153.888 15.959 155.256 15.959C156.45 15.959 157.49 16.2013 158.376 16.6859C159.282 17.1705 160.004 17.7811 160.544 18.5177V16.2207H164.618V32.3292H160.544V29.974C160.023 30.7299 159.301 31.3599 158.376 31.8639C157.471 32.3486 156.421 32.5909 155.227 32.5909C153.878 32.5909 152.646 32.2419 151.528 31.5441C150.43 30.8463 149.554 29.8673 148.899 28.6073C148.263 27.328 147.945 25.8644 147.945 24.2168ZM160.544 24.2749C160.544 23.2863 160.351 22.4431 159.966 21.7452C159.58 21.028 159.06 20.4852 158.405 20.1169C157.75 19.7292 157.047 19.5354 156.296 19.5354C155.545 19.5354 154.851 19.7196 154.216 20.0879C153.58 20.4562 153.06 20.9989 152.655 21.7162C152.27 22.414 152.077 23.2475 152.077 24.2168C152.077 25.186 152.27 26.0389 152.655 26.7755C153.06 27.4927 153.58 28.0452 154.216 28.4329C154.87 28.8206 155.564 29.0144 156.296 29.0144C157.047 29.0144 157.75 28.8303 158.405 28.462C159.06 28.0743 159.58 27.5315 159.966 26.8337C160.351 26.1164 160.544 25.2635 160.544 24.2749Z" fill="#40BFEF"/>
<path d="M167.529 24.2749C167.529 22.6078 167.866 21.154 168.54 19.9134C169.214 18.6534 170.148 17.6842 171.343 17.0057C172.537 16.3079 173.905 15.959 175.446 15.959C177.43 15.959 179.067 16.463 180.358 17.471C181.668 18.4596 182.544 19.8552 182.988 21.658H178.624C178.393 20.9602 177.998 20.4174 177.44 20.0297C176.9 19.6226 176.226 19.4191 175.417 19.4191C174.261 19.4191 173.346 19.8456 172.672 20.6985C171.998 21.532 171.661 22.7242 171.661 24.2749C171.661 25.8063 171.998 26.9984 172.672 27.8514C173.346 28.6849 174.261 29.1017 175.417 29.1017C177.054 29.1017 178.124 28.365 178.624 26.8918H182.988C182.544 28.6364 181.668 30.0224 180.358 31.0498C179.048 32.0772 177.411 32.5909 175.446 32.5909C173.905 32.5909 172.537 32.2516 171.343 31.5732C170.148 30.8753 169.214 29.9061 168.54 28.6655C167.866 27.4055 167.529 25.942 167.529 24.2749Z" fill="#40BFEF"/>
<path d="M195.429 32.3292L189.996 25.4671V32.3292H185.951V10.8124H189.996V23.0537L195.371 16.2207H200.63L193.579 24.304L200.688 32.3292H195.429Z" fill="#40BFEF"/>
</svg>
