<svg width="269" height="342" viewBox="0 0 269 342" fill="none" xmlns="http://www.w3.org/2000/svg">
<path d="M111.887 332.602H256.751C263.117 332.602 268.184 327.405 268.184 321.169V11.4332C268.184 5.06698 262.987 0 256.751 0H111.887C105.521 0 100.454 5.19691 100.454 11.4332V321.169C100.454 327.535 105.521 332.602 111.887 332.602Z" fill="url(#paint0_linear_724_132141)"/>
<path d="M105.261 332.602H250.125C256.491 332.602 261.558 327.405 261.558 321.169V11.4332C261.558 5.06698 256.361 0 250.125 0H105.261C98.8951 0 93.8281 5.19691 93.8281 11.4332V321.169C93.8281 327.535 99.025 332.602 105.261 332.602Z" fill="url(#paint1_linear_724_132141)"/>
<path d="M222.322 10.0039L216.735 22.2166C216.085 23.6458 214.786 24.4253 213.227 24.4253H138.002C136.443 24.4253 135.144 23.5158 134.494 22.2166L128.907 10.0039C128.258 8.57474 126.959 7.79521 125.399 7.79521H107.21C103.962 7.66528 101.364 10.3937 101.364 13.5118V289.857C101.364 293.105 103.962 295.704 107.21 295.704H247.527C250.775 295.704 253.373 293.105 253.373 289.857V13.5118C253.373 10.2637 250.775 7.66528 247.527 7.66528H225.96C224.401 7.66528 222.971 8.57474 222.322 10.0039Z" fill="white"/>
<path opacity="0.4" d="M163.207 15.7208H200.235C201.274 15.7208 202.183 14.8113 202.183 13.772C202.183 12.7326 201.274 11.8231 200.235 11.8231H163.207C162.167 11.8231 161.258 12.7326 161.258 13.772C161.258 14.9413 162.037 15.7208 163.207 15.7208Z" fill="white"/>
<path opacity="0.4" d="M155.671 13.7716C155.671 15.0708 154.632 15.9802 153.463 15.9802C152.163 15.9802 151.254 14.9409 151.254 13.7716C151.254 12.4723 152.293 11.5629 153.463 11.5629C154.632 11.5629 155.671 12.6022 155.671 13.7716Z" fill="white"/>
<path d="M217.125 243.475H139.041C133.195 243.475 128.388 238.668 128.388 232.821C128.388 226.975 133.195 222.167 139.041 222.167H217.125C222.971 222.167 227.779 226.975 227.779 232.821C227.779 238.668 222.971 243.475 217.125 243.475Z" stroke="#B9D4F6" stroke-miterlimit="10"/>
<path d="M176.069 325.716C181.809 325.716 186.463 321.063 186.463 315.322C186.463 309.582 181.809 304.928 176.069 304.928C170.329 304.928 165.675 309.582 165.675 315.322C165.675 321.063 170.329 325.716 176.069 325.716Z" fill="white"/>
<path d="M131.636 172.148C124.75 172.148 119.293 166.561 119.293 159.805C119.293 152.919 124.88 147.462 131.636 147.462C138.522 147.462 143.978 153.049 143.978 159.805C143.978 166.561 138.392 172.148 131.636 172.148Z" fill="#73B6B0"/>
<path d="M159.179 164.743H154.762V169.03H159.179V164.743Z" fill="#B9D4F6"/>
<path d="M230.896 164.743H164.246V169.03H230.896V164.743Z" fill="#B9D4F6"/>
<path d="M244.148 173.837H164.246V178.124H244.148V173.837Z" fill="#B9D4F6"/>
<path d="M219.983 183.061H164.246V187.349H219.983V183.061Z" fill="#B9D4F6"/>
<path d="M194.128 197.353H165.155V200.341H194.128V197.353Z" fill="url(#paint2_linear_724_132141)"/>
<path d="M239.861 197.353H200.364V200.341H239.861V197.353Z" fill="url(#paint3_linear_724_132141)"/>
<path d="M212.058 146.943H154.762V153.309H212.058V146.943Z" fill="#B9D4F6"/>
<path d="M128.258 49.6307L129.947 53.1386C130.206 53.6583 130.726 54.048 131.246 54.048L135.014 54.5677C136.443 54.8276 136.962 56.5166 135.923 57.5559L133.195 60.2843C132.805 60.6741 132.545 61.3237 132.675 61.8434L133.325 65.6112C133.584 67.0403 132.025 68.0797 130.856 67.4301L127.478 65.6112C126.958 65.3513 126.309 65.3513 125.789 65.6112L122.411 67.4301C121.112 68.0797 119.683 67.0403 119.942 65.6112L120.592 61.8434C120.722 61.3237 120.462 60.6741 120.072 60.2843L117.344 57.5559C116.305 56.5166 116.824 54.8276 118.253 54.5677L122.021 54.048C122.541 53.9181 123.061 53.6583 123.32 53.1386L125.009 49.6307C125.789 48.3314 127.608 48.3314 128.258 49.6307Z" fill="#FFB300"/>
<path d="M153.982 49.6307L155.671 53.1386C155.931 53.6583 156.451 54.048 156.97 54.048L160.738 54.5677C162.167 54.8276 162.687 56.5166 161.648 57.5559L158.919 60.2843C158.529 60.6741 158.27 61.3237 158.4 61.8434L159.049 65.6112C159.309 67.0403 157.75 68.0797 156.581 67.4301L153.203 65.6112C152.683 65.3513 152.033 65.3513 151.514 65.6112L148.136 67.4301C146.836 68.0797 145.407 67.0403 145.667 65.6112L146.317 61.8434C146.447 61.3237 146.187 60.6741 145.797 60.2843L143.069 57.5559C142.029 56.5166 142.549 54.8276 143.978 54.5677L147.746 54.048C148.266 53.9181 148.785 53.6583 149.045 53.1386L150.734 49.6307C151.514 48.3314 153.333 48.3314 153.982 49.6307Z" fill="url(#paint4_linear_724_132141)"/>
<path d="M179.837 49.6307L181.526 53.1386C181.785 53.6583 182.305 54.048 182.825 54.048L186.593 54.5677C188.022 54.8276 188.541 56.5166 187.502 57.5559L184.774 60.2843C184.384 60.6741 184.124 61.3237 184.254 61.8434L184.904 65.6112C185.163 67.0403 183.604 68.0797 182.435 67.4301L179.057 65.6112C178.537 65.3513 177.888 65.3513 177.368 65.6112L173.99 67.4301C172.691 68.0797 171.262 67.0403 171.522 65.6112L172.171 61.8434C172.301 61.3237 172.041 60.6741 171.652 60.2843L168.923 57.5559C167.884 56.5166 168.403 54.8276 169.833 54.5677L173.6 54.048C174.12 53.9181 174.64 53.6583 174.9 53.1386L176.589 49.6307C177.368 48.3314 179.187 48.3314 179.837 49.6307Z" fill="url(#paint5_linear_724_132141)"/>
<path d="M205.691 49.6307L207.38 53.1386C207.64 53.6583 208.16 54.048 208.679 54.048L212.447 54.5677C213.876 54.8276 214.396 56.5166 213.357 57.5559L210.628 60.2843C210.238 60.6741 209.979 61.3237 210.109 61.8434L210.758 65.6112C211.018 67.0403 209.459 68.0797 208.29 67.4301L204.912 65.6112C204.392 65.3513 203.742 65.3513 203.223 65.6112L199.845 67.4301C198.545 68.0797 197.116 67.0403 197.376 65.6112L198.026 61.8434C198.156 61.3237 197.896 60.6741 197.506 60.2843L194.778 57.5559C193.738 56.5166 194.258 54.8276 195.687 54.5677L199.455 54.048C199.975 53.9181 200.494 53.6583 200.754 53.1386L202.443 49.6307C203.093 48.3314 205.042 48.3314 205.691 49.6307Z" fill="url(#paint6_linear_724_132141)"/>
<path d="M231.416 49.6307L233.105 53.1386C233.365 53.6583 233.885 54.048 234.404 54.048L238.172 54.5677C239.601 54.8276 240.121 56.5166 239.082 57.5559L236.353 60.2843C235.964 60.6741 235.704 61.3237 235.834 61.8434L236.483 65.6112C236.743 67.0403 235.184 68.0797 234.015 67.4301L230.637 65.6112C230.117 65.3513 229.467 65.3513 228.948 65.6112L225.57 67.4301C224.27 68.0797 222.841 67.0403 223.101 65.6112L223.751 61.8434C223.881 61.3237 223.621 60.6741 223.231 60.2843L220.503 57.5559C219.463 56.5166 219.983 54.8276 221.412 54.5677L225.18 54.048C225.7 53.9181 226.219 53.6583 226.479 53.1386L228.168 49.6307C228.948 48.3314 230.767 48.3314 231.416 49.6307Z" fill="#B9D4F6"/>
<path d="M146.836 327.534C146.446 332.861 146.317 336.369 145.927 341.696C150.604 342.086 155.671 341.306 160.348 341.696C160.348 341.696 157.36 337.798 154.891 336.759C154.891 334.81 154.891 333.771 154.891 331.822C152.813 330.003 148.915 329.223 146.836 327.534Z" fill="#00D0F0"/>
<path d="M202.053 70.5475C200.364 70.9372 198.415 74.3152 197.376 75.8743C196.337 77.4334 193.608 81.9807 193.608 81.9807C193.608 81.9807 191.659 82.7602 190.62 83.9295C189.581 85.0988 189.191 87.3075 189.711 89.3862C190.23 91.465 189.321 93.9335 189.321 93.9335C188.671 96.1422 185.683 103.678 184.384 105.627C179.447 113.292 177.368 117.32 177.368 117.32C174.38 118.489 166.065 120.957 166.065 120.957C166.065 120.957 160.088 122.387 160.348 122.906C160.478 128.103 162.427 131.351 162.557 136.678C162.557 136.678 174.899 133.04 177.498 132.261C178.667 132.001 182.695 129.922 184.254 128.233C187.632 124.595 192.699 112.902 193.089 111.083C193.998 106.666 196.467 97.9611 198.935 95.1028C199.974 93.9335 202.053 91.8548 202.833 90.1658C203.612 88.4768 204.522 85.7484 204.522 84.709C204.522 83.6696 203.482 83.2799 203.482 83.2799C203.482 83.2799 203.612 82.1106 203.093 81.461C202.573 80.6814 201.404 80.6814 201.404 80.6814C201.404 80.6814 201.144 80.1617 201.014 79.5121C200.884 78.8625 199.195 78.6027 199.585 78.4727C199.974 78.2129 201.534 74.4451 202.703 73.016C203.093 72.1065 203.742 70.1577 202.053 70.5475Z" fill="#FFBEB0"/>
<path d="M106.95 157.076C107.47 165.911 109.808 177.474 109.679 182.671C109.419 187.868 112.147 208.136 113.706 214.632C115.135 221.258 118.383 230.742 118.383 230.742L124.49 224.246C124.49 224.246 124.75 213.462 124.49 205.147C124.23 196.962 123.061 190.336 122.281 182.541C121.502 174.875 124.62 156.946 124.62 156.946H106.95V157.076Z" fill="#FFBEB0"/>
<path d="M116.564 124.075C111.367 126.934 107.47 135.119 105.781 147.851C104.222 160.584 105.781 162.792 105.781 162.792C105.781 162.792 110.978 165.001 116.564 163.832C122.151 162.792 125.919 161.363 125.919 161.363C125.919 161.363 121.501 143.174 120.462 136.548C119.423 129.922 116.564 124.075 116.564 124.075Z" fill="#3B77BE"/>
<path d="M123.71 325.975C123.45 331.172 123.191 336.499 122.801 341.566C127.478 341.956 131.636 341.176 136.183 341.566C136.183 341.566 133.195 335.979 130.726 334.81C130.726 332.861 130.726 331.952 130.726 330.003C128.777 328.444 125.789 327.664 123.71 325.975Z" fill="#00D0F0"/>
<path d="M140.99 209.565C141.249 214.242 141.379 216.451 141.639 221.128C141.639 221.128 138.911 222.557 138.781 225.156C137.092 250.101 136.182 275.566 133.844 300.381C132.545 313.893 132.415 330.263 132.415 330.263C129.037 330.003 125.399 329.873 121.891 329.743C120.592 307.527 118.903 281.412 117.084 259.195C114.355 225.156 115.005 205.278 115.005 205.278C125.399 206.837 130.596 207.746 140.99 209.565Z" fill="#34315E"/>
<path d="M140.99 209.564C134.494 203.588 121.891 213.592 115.135 207.875C115.005 214.372 115.135 232.431 117.214 259.065C118.903 281.282 120.592 307.396 122.021 329.613C125.399 329.873 129.037 330.003 132.545 330.133C132.545 330.133 132.675 313.632 133.974 300.25C136.183 276.475 136.962 252.179 138.651 228.273C137.222 227.364 142.029 210.604 140.99 209.564Z" fill="#45258F"/>
<path d="M169.703 119.528L157.36 121.607C157.36 121.607 157.1 121.607 156.71 121.477C156.061 129.403 155.151 143.044 155.411 151.1C158.529 146.942 171.911 138.107 171.911 138.107C173.6 134.47 169.703 119.528 169.703 119.528Z" fill="#3B77BE"/>
<path d="M145.147 89.1266C145.147 89.1266 145.018 97.3117 145.407 99.1306C145.797 100.95 145.277 104.457 145.017 106.796C144.758 109.135 143.718 110.954 142.679 111.084C142.679 111.084 143.978 117.06 144.498 120.048C144.498 120.048 135.793 122.647 127.738 120.828C127.738 120.828 128.647 118.489 127.738 112.773C127.738 112.773 130.076 97.4416 135.533 93.2841C140.86 89.2565 145.147 89.1266 145.147 89.1266Z" fill="#FFBEB0"/>
<path d="M144.498 91.3351C145.927 90.9453 147.876 86.9177 145.277 83.2799C142.679 79.642 136.183 78.6026 131.246 79.3822C126.309 80.1617 120.592 83.6696 119.293 86.2681C118.123 88.8665 119.423 91.2051 119.423 91.2051C119.423 91.2051 116.954 92.3744 116.694 96.1422C116.434 99.91 116.954 103.028 120.332 105.756C123.71 108.485 127.738 113.032 127.738 113.032C127.738 113.032 135.793 111.213 137.872 111.343C137.872 111.343 140.99 106.276 141.639 104.717C141.639 104.717 138.911 101.209 140.47 98.091C141.25 96.6619 142.679 98.091 142.939 100.04C143.199 101.989 143.458 103.418 143.458 103.418C143.848 103.028 143.978 102.768 144.368 102.378C144.368 102.378 144.498 97.9611 144.368 96.0123C144.108 93.8036 144.498 91.3351 144.498 91.3351Z" fill="#282828"/>
<path d="M134.624 210.215C134.753 211.644 134.753 212.943 134.883 214.112C135.143 217.62 136.313 220.998 138.131 224.116C138.391 224.506 138.521 224.896 138.521 225.416C142.419 250.231 145.407 276.085 145.797 301.161C146.057 314.932 144.368 331.433 144.368 331.433C147.746 331.692 152.423 331.822 155.801 331.952C160.218 309.086 160.088 281.932 161.777 259.066C164.376 223.857 160.088 208.656 160.088 208.656C149.954 209.305 144.887 209.565 134.624 210.215Z" fill="#34315E"/>
<path d="M134.624 210.215C134.753 211.644 134.753 212.943 134.883 214.112C135.143 217.62 136.313 220.998 138.131 224.116C138.391 224.506 138.521 224.896 138.521 225.416C142.419 250.231 145.407 276.085 145.797 301.161C146.057 314.932 144.368 331.433 144.368 331.433C147.746 331.692 152.423 331.822 155.801 331.952C160.218 309.086 160.088 281.932 161.777 259.066C164.376 223.857 160.088 208.656 160.088 208.656C149.954 209.305 144.887 209.565 134.624 210.215Z" fill="#45258F"/>
<path d="M126.049 122.646C126.049 122.646 141.25 121.347 146.577 122.387C146.577 122.387 146.057 119.268 145.277 118.099C145.277 118.099 135.923 115.76 127.088 117.709C127.088 117.579 126.049 120.178 126.049 122.646Z" fill="#3B77BE"/>
<path d="M127.608 120.567L116.694 124.075C116.694 124.075 111.757 131.351 110.847 138.237C109.548 148.501 110.588 157.985 111.367 162.792C112.536 170.717 113.576 180.851 112.796 190.076C112.017 199.3 109.808 208.265 109.808 208.265C109.808 208.265 117.733 210.214 132.804 212.293C147.875 214.371 162.297 213.202 162.297 213.202C162.297 213.202 161.257 183.969 159.958 165.91C158.659 147.851 158.529 147.071 158.529 147.071C157.879 136.288 158.399 132.52 157.36 121.736C153.332 122.386 150.474 120.957 146.576 121.607C140.47 120.307 129.167 119.788 127.608 120.567Z" fill="#3797DB"/>
<path d="M53.8117 104.069L53.292 104.458C53.292 104.458 53.8117 107.057 53.292 108.226C52.7723 109.396 51.603 109.266 51.603 109.266V109.655C51.603 109.655 51.9928 109.915 52.7723 109.525C53.5519 109.136 54.3314 107.836 54.3314 106.018C54.3314 105.108 54.3314 104.588 54.2015 104.329C54.2015 104.199 54.0716 104.069 53.8117 104.069Z" fill="#373362"/>
<path d="M29.3865 189.948C22.7605 189.818 2.75237 189.948 2.75237 189.948C2.75237 189.948 -1.27523 222.298 0.413766 227.236C2.10276 232.173 28.7369 235.94 29.3865 232.303C30.0361 228.795 29.3865 189.948 29.3865 189.948Z" fill="url(#paint7_linear_724_132141)"/>
<path d="M76.1587 144.735C75.8989 142.396 75.7689 141.357 74.9894 139.538C74.4697 138.368 75.7689 130.833 75.7689 130.833L80.3162 133.042C80.3162 133.042 80.4462 140.837 80.0564 142.266C79.6666 143.695 76.1587 144.735 76.1587 144.735Z" fill="#E89A7B"/>
<path d="M75.1194 140.057L84.9935 140.966C85.3833 140.966 85.903 140.706 85.903 140.317L89.9306 119.529C90.0605 119.139 89.151 118.1 88.7613 118.1L79.4068 117.71C79.0171 117.71 78.4974 117.97 78.4974 118.36L73.9501 138.887C73.8202 139.407 74.7296 139.927 75.1194 140.057Z" fill="url(#paint8_linear_724_132141)"/>
<path d="M74.5994 139.407L84.4735 140.317C84.8633 140.317 85.383 140.057 85.383 139.667L89.4106 118.88C89.5405 118.49 89.1508 118.1 88.761 117.97L78.8869 117.061C78.4971 117.061 77.9774 117.321 77.9774 117.71L73.9498 138.498C73.8199 139.018 74.2096 139.407 74.5994 139.407Z" fill="url(#paint9_linear_724_132141)"/>
<path d="M86.4224 119.139L85.9028 119.919C85.9028 120.048 85.7728 120.048 85.6429 120.048L80.8358 119.529C80.7059 119.529 80.7059 119.399 80.5759 119.399L80.3161 118.619C80.3161 118.489 80.1862 118.489 80.0562 118.489L78.8869 118.359C78.6271 118.359 78.4972 118.489 78.4972 118.749L74.9893 136.938C74.9893 137.198 75.1192 137.328 75.2491 137.328L84.2138 138.238C84.4736 138.238 84.6035 138.108 84.6035 137.848L88.1114 119.659C88.1114 119.399 87.9815 119.269 87.8516 119.269L86.4224 119.139C86.5524 119.139 86.5524 119.009 86.4224 119.139Z" fill="white"/>
<path d="M79.5368 139.278C79.147 139.278 79.0171 138.888 79.0171 138.628C79.147 138.238 79.4069 138.108 79.7966 138.108C80.1864 138.108 80.3163 138.498 80.3163 138.758C80.3163 139.018 79.9266 139.278 79.5368 139.278Z" fill="white"/>
<path d="M32.7646 313.374C32.3748 319.22 33.1544 333.901 34.7134 336.24C34.9733 336.63 35.3631 337.279 35.8827 337.799C34.5835 336.63 33.2843 335.59 31.8551 334.551C30.1662 333.382 28.4772 332.342 26.6582 331.303C26.5283 329.094 26.3984 326.496 26.0086 323.508C24.4496 309.606 20.6818 286.22 22.2409 267.251C23.4102 252.44 21.5913 233.991 20.1621 220.999C27.5677 220.999 35.1032 220.869 42.5088 220.869C41.9891 232.432 41.3395 244.385 40.3001 250.361C38.4812 261.534 33.1544 307.657 32.7646 313.374Z" fill="#FEC4AD"/>
<path d="M53.422 313.374C53.1621 317.401 53.422 327.406 54.0716 332.862C51.8629 332.862 49.5243 331.043 47.3156 331.043C47.1857 328.835 47.0558 326.366 46.666 323.508C45.1069 309.606 40.2998 291.807 41.0793 267.251C41.599 252.31 39.0006 233.861 37.1816 220.869C40.9494 220.869 44.8471 220.739 48.6148 220.739C52.2527 220.609 55.8905 220.609 59.3984 220.609C59.6583 231.003 60.4378 242.566 59.0086 250.361C57.3196 261.535 53.8117 307.657 53.422 313.374Z" fill="#FEC4AD"/>
<path d="M53.2921 111.864C53.1622 112.643 53.0323 118.36 51.6031 119.789C50.174 121.218 46.9259 117.71 46.4062 119.14C45.8866 120.569 48.6149 129.663 48.6149 129.663L33.0242 131.482L32.7644 118.49C32.7644 118.49 31.3352 113.423 32.6344 106.407C33.9337 99.3914 46.1464 94.0646 46.1464 94.0646C46.6661 93.6748 47.1858 90.9464 48.3551 91.8559C50.0441 93.285 51.0835 98.7418 51.7331 101.34C52.5126 104.199 53.4221 111.084 53.2921 111.864Z" fill="#FEC4AD"/>
<path d="M12.7563 257.637C12.7563 249.452 12.8863 237.369 13.7957 227.885C15.4847 209.566 18.343 202.03 18.343 202.03L57.9694 206.837C58.619 219.18 63.2963 252.18 64.2057 257.377C36.4023 268.55 19.9021 258.157 12.7563 257.637Z" fill="#9ED16F"/>
<path d="M74.7297 148.892C74.3399 146.423 75.899 142.006 76.9383 139.797C77.9777 137.588 80.1864 134.47 80.1864 131.742C80.1864 129.013 81.7455 128.883 82.3951 130.443C83.0447 132.132 82.9148 137.978 82.9148 137.978C82.9148 137.978 86.1629 136.029 86.4227 133.821C86.6825 131.612 88.2416 127.324 88.5015 126.155C88.7613 125.376 89.1511 126.935 88.8912 129.793C88.7613 132.651 88.3715 136.549 88.2416 137.848C88.1117 139.277 84.8636 140.966 83.9542 142.395C83.0447 143.825 80.3163 145.643 80.1864 148.372L74.7297 148.892Z" fill="#FEC4AD"/>
<path d="M45.627 129.143C45.627 129.143 51.6034 128.624 54.3318 131.352C57.0601 134.21 67.9736 157.467 67.9736 157.467L74.4698 145.644L82.0053 147.073C82.0053 147.073 76.4186 170.459 73.5603 175.136C72.2611 177.215 69.5327 180.983 64.9854 177.215C63.0366 175.656 45.8868 153.699 45.8868 153.699C45.8868 153.699 45.627 136.289 45.627 129.143Z" fill="#3B77BE"/>
<path d="M59.3986 155.258C60.6978 161.754 57.9694 166.561 57.1899 173.057C56.93 175.526 56.0206 183.841 56.6702 187.869C58.4891 199.821 60.6978 219.05 61.997 220.869C61.997 220.869 53.2922 227.495 34.5833 226.585C15.8745 225.676 11.1973 220.609 11.1973 220.609C11.1973 220.609 17.1737 192.806 17.1737 182.931C17.1737 173.057 15.7446 149.671 17.1737 140.187C17.9532 134.99 21.721 132.522 24.4494 130.962C29.2565 128.234 45.6268 129.014 45.6268 129.014C45.6268 129.014 58.0993 148.242 59.3986 155.258Z" fill="#3797DB"/>
<path d="M20.0321 133.821C14.9651 161.104 6.39026 189.558 6.00049 192.156H9.11863L24.4495 130.962L20.0321 133.821Z" fill="url(#paint10_linear_724_132141)"/>
<path d="M21.5912 127.454C23.9298 131.612 32.8945 131.612 37.8316 131.222C43.5482 130.703 50.4341 129.923 55.3711 127.454C55.2412 127.325 54.0719 123.167 53.4223 121.868C49.5246 114.722 50.0443 102.379 50.0443 102.379C50.6939 99.9109 51.0837 97.3124 50.4341 95.1037C50.564 94.8439 50.564 94.584 50.564 94.3242C50.564 94.3242 48.0955 87.8281 40.43 87.958C37.9615 88.0879 34.7134 88.8674 31.985 90.2966C23.5401 91.5958 20.292 98.2219 20.9416 106.407C21.2015 111.994 19.1227 123.167 21.5912 127.454Z" fill="#5E2E0D"/>
<path d="M36.4021 341.697H29.5162C29.5162 341.697 29.7761 337.28 28.7367 336.37C25.7485 333.902 26.1383 328.575 28.7367 329.744C31.3352 330.913 33.1541 335.591 34.8431 338.579C36.2722 341.567 36.4021 341.697 36.4021 341.697Z" fill="#071E2B"/>
<path d="M41.4693 341.697H36.2724C36.2724 341.697 34.4534 341.827 33.544 338.709C33.2841 337.929 33.0243 337.28 32.7645 336.76C31.9849 335.331 28.7369 336.24 28.477 337.799L28.2172 341.697H26.6581C26.6581 341.697 26.9179 336.11 26.5282 335.071C25.8786 333.512 25.3589 331.693 26.1384 330.264C27.0479 328.575 30.8156 329.484 31.9849 330.654C33.4141 331.953 33.544 332.732 35.1031 334.681C36.6621 336.5 37.8314 336.63 39.3905 337.539C40.9496 338.449 41.4693 341.697 41.4693 341.697Z" fill="url(#paint11_linear_724_132141)"/>
<path d="M56.8001 341.697H49.9142C49.9142 341.697 50.174 337.28 49.1347 336.37C46.1464 333.902 46.5362 328.575 49.1347 329.744C51.7331 330.913 53.552 335.591 55.241 338.579C56.6702 341.567 56.8001 341.697 56.8001 341.697Z" fill="#071E2B"/>
<path d="M61.8672 341.697H56.6703C56.6703 341.697 54.8514 341.827 53.9419 338.709C53.6821 337.929 53.4223 337.28 53.1624 336.76C52.3829 335.331 49.1348 336.24 48.875 337.799L48.6151 341.697H47.056C47.056 341.697 47.3159 336.11 46.9261 335.071C46.2765 333.512 45.7568 331.693 46.5364 330.264C47.4458 328.575 51.2136 329.484 52.3829 330.654C53.812 331.953 53.9419 332.732 55.501 334.681C57.0601 336.5 58.2294 336.63 59.7885 337.539C61.3475 338.449 61.8672 341.697 61.8672 341.697Z" fill="url(#paint12_linear_724_132141)"/>
<path d="M53.6821 103.938L47.8356 105.887L47.4458 106.537L50.3041 105.757L51.0836 105.887L54.3317 104.978V104.328C54.0719 104.068 53.9419 104.068 53.6821 103.938Z" fill="#373362"/>
<defs>
<linearGradient id="paint0_linear_724_132141" x1="341.267" y1="-14.0852" x2="87.2073" y2="277.945" gradientUnits="userSpaceOnUse">
<stop stop-color="#C9D9FF"/>
<stop offset="1" stop-color="#6A8FBA"/>
</linearGradient>
<linearGradient id="paint1_linear_724_132141" x1="264.957" y1="-32.1752" x2="112.695" y2="314.352" gradientUnits="userSpaceOnUse">
<stop stop-color="#C9D9FF"/>
<stop offset="1" stop-color="#99BAE0"/>
</linearGradient>
<linearGradient id="paint2_linear_724_132141" x1="175.302" y1="206.211" x2="183.854" y2="191.397" gradientUnits="userSpaceOnUse">
<stop stop-color="#FFB300"/>
<stop offset="1" stop-color="#FFE21B"/>
</linearGradient>
<linearGradient id="paint3_linear_724_132141" x1="214.449" y1="208.478" x2="225.62" y2="189.13" gradientUnits="userSpaceOnUse">
<stop stop-color="#FFB300"/>
<stop offset="1" stop-color="#FFE21B"/>
</linearGradient>
<linearGradient id="paint4_linear_724_132141" x1="147.097" y1="67.6283" x2="156.798" y2="50.8252" gradientUnits="userSpaceOnUse">
<stop stop-color="#FFB300"/>
<stop offset="1" stop-color="#FFE21B"/>
</linearGradient>
<linearGradient id="paint5_linear_724_132141" x1="172.901" y1="67.6282" x2="182.602" y2="50.8252" gradientUnits="userSpaceOnUse">
<stop stop-color="#FFB300"/>
<stop offset="1" stop-color="#FFE21B"/>
</linearGradient>
<linearGradient id="paint6_linear_724_132141" x1="198.705" y1="67.6282" x2="208.406" y2="50.8253" gradientUnits="userSpaceOnUse">
<stop stop-color="#FFB300"/>
<stop offset="1" stop-color="#FFE21B"/>
</linearGradient>
<linearGradient id="paint7_linear_724_132141" x1="-18.2412" y1="182.692" x2="21.0582" y2="213.63" gradientUnits="userSpaceOnUse">
<stop stop-color="#EE4F33"/>
<stop offset="1" stop-color="#BD0048"/>
</linearGradient>
<linearGradient id="paint8_linear_724_132141" x1="95.6279" y1="114.208" x2="81.0684" y2="130.677" gradientUnits="userSpaceOnUse">
<stop stop-color="#9CA0A9"/>
<stop offset="1" stop-color="#465464"/>
</linearGradient>
<linearGradient id="paint9_linear_724_132141" x1="93.369" y1="114.673" x2="85.7768" y2="141.33" gradientUnits="userSpaceOnUse">
<stop stop-color="#9CA0A9"/>
<stop offset="1" stop-color="#717C8A"/>
</linearGradient>
<linearGradient id="paint10_linear_724_132141" x1="4.04645" y1="152.832" x2="46.2914" y2="186.089" gradientUnits="userSpaceOnUse">
<stop stop-color="#EE4F33"/>
<stop offset="1" stop-color="#BD0048"/>
</linearGradient>
<linearGradient id="paint11_linear_724_132141" x1="35.0659" y1="328.903" x2="33.5783" y2="337.531" gradientUnits="userSpaceOnUse">
<stop stop-color="#EE4F33"/>
<stop offset="1" stop-color="#BD0048"/>
</linearGradient>
<linearGradient id="paint12_linear_724_132141" x1="54.8823" y1="332.32" x2="53.3947" y2="340.947" gradientUnits="userSpaceOnUse">
<stop stop-color="#EE4F33"/>
<stop offset="1" stop-color="#BD0048"/>
</linearGradient>
</defs>
</svg>
