<svg width="128" height="44" viewBox="0 0 128 44" fill="none" xmlns="http://www.w3.org/2000/svg">
<rect width="128" height="44" rx="6" fill="#1C1C23"/>
<path d="M24.9496 26.0047C28.0353 24.3103 30.3748 23.0193 30.5764 22.919C31.2213 22.5759 31.8875 21.668 30.5764 20.9629C30.1531 20.7412 27.8739 19.4902 24.9496 17.8772L20.896 21.971L24.9494 26.0047H24.9496Z" fill="#FFD900"/>
<path d="M20.896 21.9709L7.98828 34.98C8.29104 35.0202 8.63311 34.9398 9.03658 34.7181C9.88325 34.2548 18.8584 29.3532 24.9498 26.0056L20.896 21.9709Z" fill="#F43249"/>
<path d="M20.8958 21.9712L24.9492 17.8972C24.9492 17.8972 9.94428 9.70853 9.03621 9.22535C8.69458 9.02218 8.31122 8.96211 7.96826 9.02218L20.8958 21.971V21.9712Z" fill="#00EE76"/>
<path d="M20.8959 21.971L7.96813 9.02222C7.44343 9.14345 7 9.60698 7 10.5546V33.447C7 34.3149 7.34317 34.9399 7.98801 34.9999L20.8957 21.9708L20.8959 21.971Z" fill="#00D3FF"/>
<path d="M64.162 26.7072C61.8119 26.7072 59.8702 28.4975 59.8702 30.9523C59.8702 33.3869 61.7915 35.1973 64.1622 35.1973C66.5327 35.1973 68.4539 33.407 68.4539 30.9523C68.4539 28.4975 66.5327 26.7072 64.162 26.7072ZM64.162 33.5081C62.8742 33.5081 61.7508 32.4414 61.7508 30.9333C61.7508 29.4043 62.8751 28.3585 64.162 28.3585C65.449 28.3585 66.5732 29.4043 66.5732 30.9333C66.5732 32.4414 65.449 33.5081 64.162 33.5081ZM54.8222 26.7072C52.4515 26.7072 50.5301 28.4975 50.5301 30.9523C50.5301 33.3869 52.4515 35.1973 54.8222 35.1973C57.1926 35.1973 59.114 33.407 59.114 30.9523C59.114 28.4975 57.1926 26.7072 54.8219 26.7072H54.8222ZM54.8222 33.5081C53.5341 33.5081 52.4109 32.4414 52.4109 30.9333C52.4109 29.4043 53.5352 28.3585 54.8222 28.3585C56.11 28.3585 57.2334 29.4043 57.2334 30.9333C57.2334 32.4414 56.1293 33.5081 54.8222 33.5081ZM43.7245 28.0151V29.8054H48.0569C47.9338 30.8113 47.5874 31.5556 47.0761 32.059C46.4428 32.6824 45.4617 33.3669 43.7245 33.3669C41.0468 33.3669 38.9833 31.2345 38.9833 28.5987C38.9833 25.9628 41.0479 23.7901 43.7245 23.7901C45.1751 23.7901 46.2181 24.3536 46.9946 25.0782L48.2816 23.8101C47.198 22.7845 45.7475 22 43.7245 22C40.0658 22 37 24.957 37 28.5586C37 32.1603 40.0658 35.1173 43.7245 35.1173C45.7068 35.1173 47.1788 34.4739 48.3639 33.266C49.5696 32.0791 49.9375 30.4088 49.9375 29.061C49.9375 28.6387 49.897 28.2563 49.835 27.9342L43.7245 28.0151ZM89.1366 29.4032C88.7888 28.4574 87.6858 26.7072 85.4778 26.7072C83.27 26.7072 81.4514 28.4176 81.4514 30.9523C81.4514 33.3259 83.27 35.1973 85.6823 35.1973C87.6442 35.1973 88.7685 34.0104 89.2382 33.3259L87.7876 32.3604C87.2967 33.0649 86.643 33.527 85.6823 33.527C84.7216 33.527 84.0476 33.1047 83.6178 32.2392L89.3196 29.8856L89.1366 29.4032ZM83.332 30.8322C83.2915 29.202 84.6201 28.3574 85.5593 28.3574C86.3156 28.3574 86.9288 28.7196 87.1532 29.2631L83.332 30.8322ZM78.6926 34.916H80.5732V22.4822H78.6926V34.916ZM75.6277 27.6529H75.5667C75.1377 27.1496 74.3408 26.7072 73.3181 26.7072C71.1721 26.7072 69.2306 28.5786 69.2306 30.9523C69.2306 33.3259 71.1925 35.1775 73.3181 35.1775C74.3397 35.1775 75.1368 34.7349 75.5667 34.2115H75.6277V34.8151C75.6277 36.4453 74.7483 37.3097 73.3385 37.3097C72.1939 37.3097 71.4782 36.4851 71.1925 35.8007L69.558 36.4851C70.0275 37.6119 71.2748 39 73.3385 39C75.5454 39 77.4057 37.7122 77.4057 34.5939V26.9685H75.6277V27.6529ZM73.4817 33.5081C72.1939 33.5081 71.1112 32.4414 71.1112 30.9534C71.1112 29.4653 72.1948 28.3784 73.4817 28.3784C74.7494 28.3784 75.771 29.4653 75.771 30.9534C75.7701 32.4214 74.7483 33.5081 73.4817 33.5081ZM97.9042 22.4824H93.4081V34.916H95.2887V30.2077H97.9042C99.9892 30.2077 102.032 28.7185 102.032 26.3451C102.032 23.9714 99.9892 22.4822 97.9042 22.4822V22.4824ZM97.9651 28.4786H95.3079V24.2124H97.9651C99.3547 24.2124 100.172 25.3592 100.172 26.3448C100.153 27.3106 99.3559 28.4786 97.9651 28.4786ZM109.534 26.6872C108.185 26.6872 106.774 27.2707 106.202 28.5987L107.858 29.2831C108.226 28.5987 108.88 28.3775 109.575 28.3775C110.556 28.3775 111.537 28.9608 111.557 29.9865V30.1077C111.21 29.9065 110.495 29.6243 109.596 29.6243C107.797 29.6243 105.977 30.6101 105.977 32.4214C105.977 34.0914 107.449 35.1574 109.084 35.1574C110.352 35.1574 111.046 34.5939 111.475 33.9304H111.536V34.8962H113.355V30.1275C113.334 27.9349 111.679 26.687 109.534 26.687V26.6872ZM109.309 33.4881C108.696 33.4881 107.837 33.1858 107.837 32.4423C107.837 31.4766 108.899 31.1144 109.819 31.1144C110.636 31.1144 111.025 31.2955 111.536 31.5367C111.393 32.6835 110.392 33.4881 109.309 33.4881ZM119.916 26.9696L117.769 32.3412H117.708L115.481 26.9694H113.458L116.81 34.4937L114.909 38.6989H116.871L122 26.9694H119.915L119.916 26.9696ZM103.075 34.916H104.956V22.4822H103.075V34.916Z" fill="white"/>
<path d="M40.552 14L39.224 11.72H38.344V14H37.616V8.424H39.416C39.8373 8.424 40.192 8.496 40.48 8.64C40.7733 8.784 40.992 8.97867 41.136 9.224C41.28 9.46933 41.352 9.74933 41.352 10.064C41.352 10.448 41.24 10.7867 41.016 11.08C40.7973 11.3733 40.4667 11.568 40.024 11.664L41.424 14H40.552ZM38.344 11.136H39.416C39.8107 11.136 40.1067 11.04 40.304 10.848C40.5013 10.6507 40.6 10.3893 40.6 10.064C40.6 9.73333 40.5013 9.47733 40.304 9.296C40.112 9.11467 39.816 9.024 39.416 9.024H38.344V11.136ZM43.3712 9.016V10.88H45.4032V11.48H43.3712V13.4H45.6432V14H42.6432V8.416H45.6432V9.016H43.3712ZM51.5128 8.424L49.4087 14H48.5687L46.4647 8.424H47.2407L48.9927 13.232L50.7448 8.424H51.5128ZM53.199 8.424V14H52.471V8.424H53.199ZM55.3277 9.016V10.88H57.3597V11.48H55.3277V13.4H57.5997V14H54.5997V8.416H57.5997V9.016H55.3277ZM65.8693 8.424L64.2533 14H63.4373L62.1413 9.512L60.7973 14L59.9893 14.008L58.4293 8.424H59.2053L60.4213 13.152L61.7653 8.424H62.5813L63.8613 13.136L65.0853 8.424H65.8693ZM69.8308 8.424V11.952C69.8308 12.448 69.9508 12.816 70.1908 13.056C70.4361 13.296 70.7748 13.416 71.2068 13.416C71.6335 13.416 71.9668 13.296 72.2068 13.056C72.4521 12.816 72.5748 12.448 72.5748 11.952V8.424H73.3028V11.944C73.3028 12.408 73.2095 12.8 73.0228 13.12C72.8361 13.4347 72.5828 13.6693 72.2628 13.824C71.9481 13.9787 71.5935 14.056 71.1988 14.056C70.8041 14.056 70.4468 13.9787 70.1268 13.824C69.8121 13.6693 69.5615 13.4347 69.3748 13.12C69.1935 12.8 69.1028 12.408 69.1028 11.944V8.424H69.8308ZM76.4452 14.056C76.0772 14.056 75.7466 13.992 75.4532 13.864C75.1652 13.7307 74.9386 13.5493 74.7732 13.32C74.6079 13.0853 74.5226 12.816 74.5172 12.512H75.2932C75.3199 12.7733 75.4266 12.9947 75.6132 13.176C75.8052 13.352 76.0826 13.44 76.4452 13.44C76.7919 13.44 77.0639 13.3547 77.2612 13.184C77.4639 13.008 77.5652 12.784 77.5652 12.512C77.5652 12.2987 77.5066 12.1253 77.3892 11.992C77.2719 11.8587 77.1252 11.7573 76.9492 11.688C76.7732 11.6187 76.5359 11.544 76.2372 11.464C75.8692 11.368 75.5732 11.272 75.3492 11.176C75.1306 11.08 74.9412 10.9307 74.7812 10.728C74.6266 10.52 74.5492 10.2427 74.5492 9.896C74.5492 9.592 74.6266 9.32267 74.7812 9.088C74.9359 8.85333 75.1519 8.672 75.4292 8.544C75.7119 8.416 76.0346 8.352 76.3972 8.352C76.9199 8.352 77.3466 8.48267 77.6772 8.744C78.0132 9.00533 78.2026 9.352 78.2452 9.784H77.4452C77.4186 9.57067 77.3066 9.384 77.1092 9.224C76.9119 9.05867 76.6506 8.976 76.3252 8.976C76.0212 8.976 75.7732 9.056 75.5812 9.216C75.3892 9.37067 75.2932 9.58933 75.2932 9.872C75.2932 10.0747 75.3492 10.24 75.4612 10.368C75.5786 10.496 75.7199 10.5947 75.8852 10.664C76.0559 10.728 76.2932 10.8027 76.5972 10.888C76.9652 10.9893 77.2612 11.0907 77.4852 11.192C77.7092 11.288 77.9012 11.44 78.0612 11.648C78.2212 11.8507 78.3012 12.128 78.3012 12.48C78.3012 12.752 78.2292 13.008 78.0852 13.248C77.9412 13.488 77.7279 13.6827 77.4452 13.832C77.1626 13.9813 76.8292 14.056 76.4452 14.056ZM84.3534 14.056C83.836 14.056 83.364 13.936 82.9374 13.696C82.5107 13.4507 82.172 13.112 81.9214 12.68C81.676 12.2427 81.5534 11.752 81.5534 11.208C81.5534 10.664 81.676 10.176 81.9214 9.744C82.172 9.30667 82.5107 8.968 82.9374 8.728C83.364 8.48267 83.836 8.36 84.3534 8.36C84.876 8.36 85.3507 8.48267 85.7774 8.728C86.204 8.968 86.54 9.304 86.7854 9.736C87.0307 10.168 87.1534 10.6587 87.1534 11.208C87.1534 11.7573 87.0307 12.248 86.7854 12.68C86.54 13.112 86.204 13.4507 85.7774 13.696C85.3507 13.936 84.876 14.056 84.3534 14.056ZM84.3534 13.424C84.7427 13.424 85.092 13.3333 85.4014 13.152C85.716 12.9707 85.9614 12.712 86.1374 12.376C86.3187 12.04 86.4094 11.6507 86.4094 11.208C86.4094 10.76 86.3187 10.3707 86.1374 10.04C85.9614 9.704 85.7187 9.44533 85.4094 9.264C85.1 9.08267 84.748 8.992 84.3534 8.992C83.9587 8.992 83.6067 9.08267 83.2974 9.264C82.988 9.44533 82.7427 9.704 82.5614 10.04C82.3854 10.3707 82.2974 10.76 82.2974 11.208C82.2974 11.6507 82.3854 12.04 82.5614 12.376C82.7427 12.712 82.988 12.9707 83.2974 13.152C83.612 13.3333 83.964 13.424 84.3534 13.424ZM92.6584 14H91.9304L89.0024 9.56V14H88.2744V8.416H89.0024L91.9304 12.848V8.416H92.6584V14Z" fill="white"/>
</svg>
