<svg width="51" height="55" viewBox="0 0 51 55" fill="none" xmlns="http://www.w3.org/2000/svg">
<path d="M22.4584 7.03231C22.7731 6.44589 23.2409 5.95576 23.812 5.61407C24.3832 5.27239 25.0364 5.09194 25.702 5.09194C26.3676 5.09194 27.0207 5.27239 27.5919 5.61407C28.163 5.95576 28.6308 6.44589 28.9455 7.03231L32.3275 13.3325C32.8691 14.3414 31.8988 15.4936 30.8124 15.1315C30.2564 14.9464 29.6496 14.9898 29.1255 15.2521C28.6014 15.5143 28.203 15.974 28.0179 16.5299C27.8328 17.0859 27.8762 17.6926 28.1385 18.2165C28.4009 18.7405 28.8606 19.1388 29.4167 19.3239L38.2507 22.268C38.5536 22.3689 38.8748 22.4029 39.1922 22.3677C39.5096 22.3326 39.8156 22.229 40.089 22.0641C40.3625 21.8993 40.597 21.6771 40.7763 21.413C40.9556 21.1488 41.0754 20.8489 41.1276 20.5339L42.5999 11.7016C42.6475 11.4155 42.6382 11.1229 42.5727 10.8403C42.5071 10.5578 42.3865 10.291 42.2178 10.055C42.0491 9.81912 41.8356 9.61872 41.5894 9.4653C41.3432 9.31188 41.0692 9.20844 40.7831 9.16088C40.4969 9.11333 40.2042 9.12259 39.9216 9.18814C39.639 9.2537 39.3721 9.37425 39.1362 9.54293C38.9002 9.71161 38.6998 9.9251 38.5463 10.1712C38.3929 10.4174 38.2894 10.6913 38.2418 10.9774C38.0751 11.9798 36.7331 12.2019 36.2523 11.3066L32.8354 4.94494C29.7818 -0.743042 21.6251 -0.743042 18.5714 4.94494L13.4595 14.4573C13.1957 14.9718 13.1443 15.5692 13.3163 16.1212C13.4883 16.6732 13.87 17.1357 14.3793 17.4094C14.8887 17.6831 15.4851 17.7462 16.0404 17.585C16.5958 17.4239 17.0657 17.0514 17.3494 16.5476L22.4584 7.03231ZM46.1321 39.0434C46.1327 39.0434 46.1332 39.0427 46.1328 39.0421L40.5063 28.5595C40.3622 28.3037 40.2707 28.0217 40.2369 27.73C40.2032 27.4384 40.228 27.1429 40.3098 26.8609C40.3917 26.579 40.5289 26.3162 40.7136 26.0879C40.8982 25.8596 41.1266 25.6704 41.3853 25.5314C41.6439 25.3924 41.9277 25.3064 42.22 25.2784C42.5123 25.2503 42.8073 25.2809 43.0877 25.3682C43.368 25.4555 43.6282 25.5979 43.8528 25.7869C44.0775 25.976 44.2622 26.2079 44.3962 26.4692L50.0264 36.9531C52.921 42.3467 49.0134 48.8767 42.8915 48.8767H35.5045C34.3984 48.8767 33.8441 50.2138 34.6258 50.9964C34.8366 51.2002 35.0047 51.4439 35.1204 51.7134C35.236 51.9828 35.2968 52.2726 35.2992 52.5658C35.3016 52.859 35.2456 53.1497 35.1344 53.421C35.0232 53.6923 34.8591 53.9388 34.6517 54.146C34.4442 54.3532 34.1975 54.5171 33.9261 54.628C33.6546 54.7389 33.3638 54.7946 33.0705 54.7919C32.7773 54.7892 32.4875 54.7282 32.2181 54.6123C31.9487 54.4965 31.7051 54.3282 31.5015 54.1172L25.6121 48.229C25.1986 47.815 24.9663 47.2538 24.9663 46.6686C24.9663 46.0835 25.1986 45.5223 25.6121 45.1082L31.5015 39.2201C31.7037 39.0031 31.9475 38.8291 32.2184 38.7084C32.4893 38.5878 32.7817 38.5229 33.0783 38.5176C33.3748 38.5124 33.6694 38.5669 33.9444 38.678C34.2194 38.789 34.4692 38.9543 34.6789 39.164C34.8886 39.3737 35.0539 39.6234 35.165 39.8984C35.2761 40.1733 35.3306 40.4678 35.3254 40.7643C35.3202 41.0608 35.2553 41.3532 35.1346 41.624C35.0139 41.8949 34.8398 42.1387 34.6228 42.3408C33.8405 43.123 34.3945 44.4605 35.5007 44.4605H42.8915C43.5271 44.4595 44.1516 44.294 44.7042 43.98C45.2569 43.666 45.7187 43.2143 46.0449 42.6688C46.3711 42.1233 46.5504 41.5027 46.5654 40.8674C46.5804 40.2326 46.4308 39.6046 46.1313 39.0447C46.131 39.0441 46.1314 39.0434 46.1321 39.0434ZM17.5997 44.4591C17.5997 44.4599 17.6004 44.4605 17.6012 44.4605C18.1864 44.4609 18.7475 44.6935 19.1613 45.1073C19.5755 45.5214 19.8082 46.083 19.8082 46.6686C19.8082 47.2542 19.5755 47.8159 19.1613 48.23C18.7472 48.6441 18.1854 48.8767 17.5997 48.8767H8.51245C2.38754 48.8767 -1.51709 42.3467 1.37752 36.9531L4.83384 30.517C5.54659 29.1898 4.27023 27.674 2.84102 28.1503C2.29152 28.3145 1.69967 28.2586 1.19068 27.9943C0.681688 27.73 0.295487 27.2782 0.113777 26.7343C-0.0679331 26.1904 -0.0308985 25.5972 0.217046 25.0801C0.46499 24.5631 0.904396 24.1627 1.4423 23.9638L10.2763 21.0167C10.5514 20.9249 10.842 20.8881 11.1313 20.9085C11.4207 20.9289 11.7032 21.0062 11.9627 21.1357C12.2222 21.2653 12.4536 21.4448 12.6437 21.6638C12.8339 21.8828 12.979 22.1371 13.0708 22.4122L16.0155 31.2445C16.1073 31.5196 16.1441 31.8101 16.1236 32.0994C16.1032 32.3886 16.026 32.6711 15.8963 32.9305C15.7667 33.1899 15.5873 33.4213 15.3682 33.6114C15.1492 33.8015 14.8948 33.9466 14.6197 34.0385C14.3446 34.1303 14.054 34.167 13.7647 34.1466C13.4754 34.1262 13.1929 34.0489 12.9334 33.9194C12.6739 33.7898 12.4425 33.6104 12.2523 33.3914C12.0622 33.1724 11.917 32.918 11.8252 32.643C11.3728 31.2872 9.5189 31.1286 8.84275 32.3877L5.27037 39.0405C4.97024 39.601 4.82045 40.2296 4.8356 40.8652C4.85075 41.5008 5.03033 42.1216 5.35683 42.6671C5.68333 43.2127 6.14562 43.6643 6.69865 43.9781C7.25168 44.2919 7.87658 44.4571 8.51245 44.4576H17.5982C17.599 44.4576 17.5997 44.4583 17.5997 44.4591Z" fill="#699BF7"/>
</svg>
