<svg width="1080" height="970" viewBox="0 0 1080 970" fill="none" xmlns="http://www.w3.org/2000/svg">
<path d="M453.354 0.433707C190.193 -9.56641 -20.4139 155.767 -99.441 247.934L-184 797.434C-72.5718 690.934 225.044 520.434 524.083 690.434C823.121 860.434 1085.04 566.267 1172.5 514.934V21.9335C867.851 214.433 710.765 10.2154 453.354 0.433707Z" fill="#EAFBFF"/>
<path d="M453.354 172.434C190.193 162.434 -20.4139 327.767 -99.441 419.934L-184 969.434C-72.5718 862.934 225.044 692.434 524.083 862.434C823.121 1032.43 1085.04 738.267 1172.5 686.934V193.933C867.851 386.433 710.765 182.215 453.354 172.434Z" fill="#F1FCFF"/>
<path d="M453.354 127.434C190.193 117.434 -20.4139 282.767 -99.441 374.934L-184 924.434C-72.5718 817.934 225.044 647.434 524.083 817.434C823.121 987.434 1085.04 693.267 1172.5 641.934V148.933C867.851 341.433 710.765 137.215 453.354 127.434Z" fill="#D8F8FF"/>
<g filter="url(#filter0_d_724_134527)">
<path d="M492.873 723.845V858.317H607.342V723.845H492.873ZM594.645 816.822C594.833 819.561 595.941 821.95 596.823 824.455C596.908 824.697 596.994 825.048 597.08 825.465C595.808 829.616 592.156 832.614 587.856 832.614C587.801 832.614 587.762 832.614 587.708 832.605H587.7C585.085 832.564 582.713 831.411 580.988 829.566C579.232 827.687 578.148 825.09 578.148 822.217V781.164C578.148 777.549 579.872 774.375 582.471 772.505C583.977 771.436 585.78 770.793 587.708 770.768H587.715C587.77 770.759 587.809 770.759 587.864 770.759C590.548 770.759 592.983 771.92 594.731 773.799C595.582 774.718 596.284 775.82 596.776 777.022C596.589 777.774 596.417 778.392 596.308 778.776C594.872 783.528 593.951 787.244 595.426 792.288C596.885 797.298 598.274 798.434 597.08 803.987C596.144 808.288 594.325 812.188 594.645 816.822Z" fill="#AADDF9"/>
<path d="M585.292 829.566C583.175 830.935 580.464 831.929 577.417 832.363C578.45 832.505 579.521 832.589 580.618 832.605H580.631C580.722 832.614 580.812 832.614 580.915 832.614C585.356 832.614 589.371 831.453 592.276 829.566C595.181 827.687 596.988 825.081 596.988 822.209V781.148C596.988 777.373 593.864 774.058 589.204 772.238C586.776 771.286 583.936 770.751 580.902 770.751C580.799 770.751 580.722 770.751 580.618 770.751H580.606C579.508 770.759 578.437 770.843 577.404 770.993C584.595 772.029 589.978 776.179 589.978 781.148V822.209C590.004 825.081 588.197 827.687 585.292 829.566Z" fill="#4A7DAF"/>
<g opacity="0.4">
<path d="M543.705 807.871C534.124 832.364 511.52 844.631 492.874 835.679V749.341C503.376 741.549 516.076 739.554 527.248 745.324C546.056 755.028 553.416 783.028 543.705 807.871Z" fill="#AADDF9"/>
</g>
<path d="M615 745.216C615 748.18 612.974 750.669 610.252 751.312C609.801 751.412 609.334 751.471 608.858 751.471H491.353C490.878 751.471 490.41 751.412 489.967 751.312C487.245 750.669 485.211 748.189 485.211 745.216C485.211 743.487 485.892 741.917 487.015 740.79C487.811 739.98 488.836 739.387 489.967 739.12C490.41 739.02 490.878 738.961 491.353 738.961H608.85C609.325 738.961 609.793 739.02 610.244 739.12C612.966 739.763 615 742.251 615 745.216Z" fill="#AADDF9"/>
<path d="M607.311 853.108V862.628C607.311 862.937 607.303 863.246 607.303 863.555C607.257 865.743 607.07 867.872 606.734 869.943C606.547 871.129 606.305 872.298 606.032 873.442C605.845 874.211 605.635 874.962 605.409 875.697H494.977C494.751 874.954 494.548 874.202 494.353 873.442C494.08 872.323 493.846 871.179 493.659 870.019C493.332 868.031 493.137 865.985 493.082 863.889C493.066 863.472 493.066 863.054 493.066 862.637V853.117H607.311V853.108Z" fill="#98C9EA"/>
<path d="M586.846 901.066H512.982C502.639 901.066 492 892.281 493.152 878.311C493.277 876.749 493.557 875.129 494.001 873.434H605.835C606.294 875.204 606.582 876.908 606.699 878.528C607.718 892.373 597.126 901.066 586.846 901.066Z" fill="#98C9EA"/>
<g opacity="0.2">
<path d="M614.105 857.769C614.105 855.138 612.505 852.892 610.241 851.982V751.313C612.965 750.67 615 748.181 615 745.217C615 742.244 612.965 739.764 610.241 739.121V728.891C610.618 728.799 610.979 728.682 611.324 728.515C611.447 728.474 611.562 728.415 611.668 728.348C611.693 728.34 611.701 728.323 611.718 728.323C611.849 728.256 611.972 728.181 612.087 728.106C612.276 727.981 612.456 727.856 612.628 727.714C612.719 727.647 612.801 727.572 612.891 727.497C612.924 727.472 612.948 727.446 612.981 727.413C613.072 727.338 613.145 727.254 613.227 727.171C613.26 727.137 613.301 727.104 613.334 727.071C613.424 726.962 613.523 726.854 613.613 726.737C613.621 726.72 613.629 726.712 613.638 726.703C613.728 726.595 613.802 726.486 613.884 726.361C613.949 726.269 613.999 726.194 614.04 726.102C614.114 726.002 614.171 725.893 614.228 725.785C614.31 725.643 614.376 725.501 614.442 725.359C614.516 725.208 614.573 725.058 614.622 724.908C614.671 724.758 614.721 724.607 614.77 724.449C614.811 724.29 614.852 724.131 614.877 723.973C614.901 723.814 614.934 723.639 614.95 723.48H589.581C589.572 723.597 589.564 723.714 589.556 723.831C589.417 725.609 588.26 722.837 588.12 724.532C588.005 725.993 551.444 726.511 522.964 727.171C518.058 727.279 513.389 727.396 509.188 727.522C497.841 727.872 489.907 728.29 489.874 728.883C489.874 729.167 496.905 729.935 507.203 730.937C512.643 731.472 518.985 732.056 525.705 732.674C553.897 735.271 588.481 738.328 588.44 738.946C588.169 743.113 587.817 747.296 587.357 751.455C587.267 752.257 565.589 751.881 542.697 751.455C540.228 751.405 537.75 751.363 535.28 751.305C532.08 751.246 528.905 751.188 525.803 751.129C518.846 751.004 512.265 750.904 506.686 750.854C496.717 750.762 489.931 750.837 489.866 751.288V751.296C489.866 751.881 496.676 752.557 506.686 753.275C512.273 753.693 518.854 754.102 525.803 754.528C530.103 754.787 534.542 755.054 538.972 755.313C563.054 756.749 586.914 758.177 586.742 759.263C586.258 762.311 584.748 769.192 584.116 772.223C584.1 772.315 584.083 772.39 584.067 772.474C582.844 778.37 581.351 784.215 579.521 789.985C579.406 790.353 579.3 790.712 579.177 791.071C578.799 792.249 578.217 793.359 578.003 794.578C571.956 829.543 547.44 843.464 525.812 848.833C520.109 850.245 514.604 851.063 509.697 851.522C508.671 851.614 507.662 851.689 506.694 851.756C496.758 852.424 489.874 851.648 489.874 851.648C488.676 851.898 487.626 852.499 486.789 853.343C485.689 854.462 485 856.023 485 857.744C485 860.792 487.166 863.339 490.021 863.856C490.079 865.961 490.284 868.007 490.62 869.986C489.939 870.22 489.324 870.554 488.807 870.955C487.732 871.806 487.059 872.959 487.059 874.245C487.059 875.982 488.274 877.493 490.087 878.278C488.873 892.249 500.089 901.034 510.993 901.034H588.867C599.714 901.034 610.873 892.333 609.798 878.504C611.915 877.786 613.391 876.149 613.391 874.236C613.391 872.266 611.816 870.579 609.609 869.902C609.962 867.84 610.167 865.702 610.208 863.522C612.489 862.654 614.105 860.408 614.105 857.769ZM583.64 781.159C583.64 776.19 587.054 772.04 591.632 771.004C590.984 770.854 590.303 770.77 589.597 770.762C589.655 770.754 589.696 770.754 589.753 770.754C592.575 770.754 595.135 771.914 596.973 773.793C597.868 774.712 598.606 775.814 599.123 777.017C598.926 777.768 598.746 778.386 598.631 778.77C597.121 783.522 596.153 787.238 597.704 792.282C599.238 797.292 600.698 798.428 599.443 803.981C598.458 808.274 596.547 812.182 596.891 816.817C597.088 819.556 598.253 821.944 599.18 824.449C599.271 824.691 599.361 825.042 599.451 825.46C598.114 829.61 594.274 832.608 589.753 832.608C589.696 832.608 589.655 832.608 589.597 832.599C590.303 832.591 590.984 832.508 591.632 832.357C589.696 831.923 587.972 830.938 586.627 829.56C584.781 827.681 583.64 825.084 583.64 822.211V781.159Z" fill="#4A7DAF"/>
</g>
<g opacity="0.4">
<path d="M524.531 742.41C524.531 743.387 524.229 744.172 523.854 744.172H499.773C499.398 744.172 499.096 743.379 499.096 742.41C499.096 741.433 499.401 740.648 499.773 740.648H523.854C524.226 740.648 524.531 741.441 524.531 742.41Z" fill="#AADDF9"/>
</g>
<path d="M607.103 719.678C607.103 719.678 603.465 720.797 587.767 721.574C582.648 721.825 576.26 722.042 568.298 722.167C563.405 722.242 557.92 722.284 551.774 722.284C505.364 722.284 493.109 719.678 493.109 719.678C493.156 718.601 493.553 717.566 494.247 716.555C499.459 708.847 520.891 703.211 521.951 703.002C533.956 700.73 539.075 692.463 541.241 685.382C542.261 682.058 542.627 678.993 542.76 676.939C542.838 676.931 542.923 676.931 543.001 676.931H559.019C559.151 676.931 559.284 676.939 559.416 676.947C559.549 678.275 559.782 680.004 560.195 681.958C560.413 683.002 560.678 684.104 561.013 685.24C563.164 692.597 567.916 701.257 578.426 702.994C578.862 703.069 582.991 704.138 587.977 705.933C594.701 708.363 603.005 712.121 605.989 716.547C606.659 717.566 607.057 718.601 607.103 719.678Z" fill="#AADDF9"/>
<g opacity="0.2">
<path d="M607.104 719.679C607.104 719.679 603.71 720.798 589.064 721.575C584.289 721.825 578.33 722.042 570.902 722.167C571.374 720.422 571.607 718.552 571.548 716.556C571.534 716.005 571.49 715.453 571.432 714.886C570.814 709.065 565.603 705.533 562.82 700.798C559.811 695.662 558.88 691.462 558.662 685.8C558.626 684.806 558.611 683.771 558.611 682.668L563.328 681.967C563.532 683.011 563.779 684.113 564.091 685.249C566.097 692.606 570.531 701.265 580.336 703.002C580.743 703.078 584.595 704.146 589.246 705.942C595.518 708.372 603.266 712.13 606.05 716.556C606.689 717.566 607.06 718.602 607.104 719.679Z" fill="#4A7DAF"/>
</g>
<path d="M532.582 681.365C532.582 683.035 533.939 684.488 535.931 685.24C536.86 685.591 537.923 685.791 539.06 685.791H564.19C565.168 685.791 566.109 685.641 566.94 685.374C569.152 684.664 570.668 683.136 570.668 681.357C570.668 680.138 569.947 679.027 568.773 678.225C567.686 677.482 566.207 676.998 564.569 676.931C564.447 676.923 564.312 676.923 564.19 676.923H539.06C538.852 676.923 538.644 676.931 538.437 676.939C535.149 677.173 532.582 679.069 532.582 681.365Z" fill="#AADDF9"/>
<path d="M615.001 722.801C615.001 725.766 612.975 728.254 610.253 728.897C609.802 728.998 609.335 729.056 608.859 729.056H491.354C490.879 729.056 490.411 728.998 489.968 728.897C487.246 728.254 485.212 725.774 485.212 722.801C485.212 721.073 485.893 719.503 487.016 718.375C488.115 717.256 489.632 716.563 491.305 716.547H608.908C612.278 716.58 615.001 719.369 615.001 722.801Z" fill="#AADDF9"/>
<g opacity="0.4">
<path d="M524.532 722.283C524.532 723.261 524.23 724.045 523.855 724.045H499.774C499.399 724.045 499.097 723.252 499.097 722.283C499.097 721.306 499.402 720.521 499.774 720.521H523.855C524.227 720.521 524.532 721.306 524.532 722.283Z" fill="#AADDF9"/>
</g>
<g opacity="0.4">
<path d="M527.76 705.348C525.77 706.809 523.785 707.01 521.85 708.287C520.033 709.49 518.898 711.786 517.476 714.116L517.649 714.467C517.792 714.333 524.475 717.598 531.124 712.73C534.237 710.459 535.402 698.868 535.991 693.306C533.863 698.926 531.15 702.851 527.76 705.348Z" fill="#AADDF9"/>
</g>
<g opacity="0.4">
<path d="M559.724 680.062C559.724 680.83 558.747 681.448 557.532 681.448H539.4C538.185 681.448 537.208 680.822 537.208 680.062C537.208 679.294 538.185 678.676 539.4 678.676H557.532C558.747 678.676 559.724 679.294 559.724 680.062Z" fill="#AADDF9"/>
</g>
<path d="M613.56 857.768C613.56 860.406 611.95 862.653 609.687 863.555C609.009 863.83 608.258 863.981 607.482 863.981H491.117C490.749 863.981 490.382 863.947 490.031 863.88C487.196 863.354 485.039 860.816 485.039 857.759C485.039 856.047 485.725 854.486 486.82 853.358C487.645 852.515 488.699 851.922 489.892 851.663C490.292 851.588 490.7 851.538 491.125 851.538H607.49C608.282 851.538 609.034 851.697 609.728 851.98C611.967 852.891 613.56 855.137 613.56 857.768Z" fill="#AADDF9"/>
<path d="M612.423 874.277C612.423 876.181 610.972 877.826 608.893 878.536C608.176 878.786 607.386 878.92 606.548 878.92H494.207C493.159 878.92 492.168 878.703 491.314 878.31C489.541 877.517 488.34 876.006 488.34 874.269C488.34 872.983 489.001 871.822 490.056 870.97C490.564 870.569 491.169 870.244 491.838 870.01C492.563 869.751 493.361 869.617 494.207 869.617H606.548C607.305 869.617 608.039 869.734 608.7 869.943C610.884 870.619 612.423 872.306 612.423 874.277Z" fill="#AADDF9"/>
<g opacity="0.4">
<path d="M524.525 855.521C524.525 856.498 524.223 857.283 523.847 857.283H499.767C499.391 857.283 499.09 856.49 499.09 855.521C499.09 854.544 499.395 853.759 499.767 853.759H523.847C524.22 853.751 524.525 854.544 524.525 855.521Z" fill="#AADDF9"/>
</g>
<g opacity="0.4">
<path d="M526.173 873.242C526.173 874.219 525.868 875.004 525.492 875.004H501.402C501.027 875.004 500.725 874.21 500.725 873.242C500.725 872.265 501.03 871.479 501.402 871.479H525.492C525.868 871.479 526.173 872.265 526.173 873.242Z" fill="#AADDF9"/>
</g>
<g opacity="0.4">
<path d="M511.096 871.012C511.096 876.382 513.079 880.741 515.52 880.741C517.962 880.741 519.944 876.382 519.944 871.012V734.101C519.944 728.732 517.962 724.372 515.52 724.372C513.079 724.372 511.096 728.732 511.096 734.101V871.012Z" fill="#AADDF9"/>
</g>
<path d="M530.883 667.786V672.988C530.883 674.767 531.763 676.446 533.313 677.907C536.316 680.771 541.889 682.834 548.439 683.285C549.361 683.352 550.297 683.394 551.247 683.394C556.875 683.394 561.973 682.224 565.633 680.346C567.043 679.627 568.244 678.809 569.18 677.907C570.73 676.446 571.61 674.767 571.61 672.988V667.786C571.61 666.366 571.066 665.022 570.046 663.786C566.987 660.028 559.725 657.381 551.247 657.381C549.794 657.381 548.37 657.464 547.001 657.615C543.09 658.032 539.584 659.034 536.861 660.429C535.003 661.381 533.481 662.525 532.447 663.786C531.428 665.022 530.883 666.375 530.883 667.786Z" fill="#AADDF9"/>
<path d="M532.812 660.279C532.812 661.79 533.997 663.101 535.77 663.794C536.621 664.137 537.623 664.329 538.682 664.329H563.84C564.899 664.329 565.9 664.137 566.752 663.794C568.524 663.101 569.709 661.79 569.709 660.279C569.709 659.16 569.053 658.149 567.995 657.414C566.936 656.679 565.463 656.229 563.84 656.229H538.682C535.448 656.229 532.812 658.041 532.812 660.279Z" fill="#AADDF9"/>
<path d="M532.812 681.657C532.812 683.895 535.448 685.707 538.682 685.707H563.84C567.085 685.707 569.709 683.895 569.709 681.657C569.709 680.538 569.053 679.528 567.995 678.793C567.442 678.409 566.775 678.108 566.038 677.907C565.359 677.715 564.611 677.615 563.84 677.615H538.682C537.899 677.615 537.162 677.715 536.483 677.907C534.331 678.509 532.812 679.962 532.812 681.657Z" fill="#AADDF9"/>
<g opacity="0.3">
<path d="M532.833 681.657C532.833 683.895 533.203 685.707 533.657 685.707H535.143C535.085 684.788 535.071 683.995 535.097 683.293C535.187 680.746 535.801 679.402 536.796 677.907C536.386 677.974 536.034 677.874 535.735 677.615C534.694 676.721 534.276 673.882 534.265 668.947C534.258 665.581 534.654 664.671 535.263 664.32C535.78 664.02 536.446 664.12 537.15 663.452C536.011 663.009 535.231 660.571 534.93 657.615C534.883 657.164 534.848 656.705 534.824 656.229H533.656C533.202 656.229 532.832 658.032 532.832 660.27C532.832 661.782 532.998 663.093 533.247 663.786C533.13 665.014 533.066 666.366 533.066 667.786V672.989C533.066 674.767 533.168 676.446 533.347 677.907C533.046 678.508 532.833 679.961 532.833 681.657Z" fill="#4A7DAF"/>
</g>
</g>
<defs>
<filter id="filter0_d_724_134527" x="469" y="644.229" width="162.001" height="276.838" filterUnits="userSpaceOnUse" color-interpolation-filters="sRGB">
<feFlood flood-opacity="0" result="BackgroundImageFix"/>

</filter>
</defs>
</svg>
