<svg width="1440" height="970" viewBox="0 0 1440 970" fill="none" xmlns="http://www.w3.org/2000/svg">
<path d="M622.5 0.433707C289.5 -9.56641 23 155.767 -77 247.934L-184 797.434C-43 690.934 333.6 520.434 712 690.434C1090.4 860.434 1421.83 566.267 1532.5 514.934V21.9335C1147 214.433 948.226 10.2154 622.5 0.433707Z" fill="#EAFBFF"/>
<path d="M622.5 172.434C289.5 162.434 23 327.767 -77 419.934L-184 969.434C-43 862.934 333.6 692.434 712 862.434C1090.4 1032.43 1421.83 738.267 1532.5 686.934V193.933C1147 386.433 948.226 182.215 622.5 172.434Z" fill="#F1FCFF"/>
<path d="M622.5 127.434C289.5 117.434 23 282.767 -77 374.934L-184 924.434C-43 817.934 333.6 647.434 712 817.434C1090.4 987.434 1421.83 693.267 1532.5 641.934V148.933C1147 341.433 948.226 137.215 622.5 127.434Z" fill="#D8F8FF"/>
</svg>