<svg width="390" height="1109" viewBox="0 0 390 1109" fill="none" xmlns="http://www.w3.org/2000/svg">
<path d="M97.9126 0.47976C-172.911 -10.5822 -389.65 172.307 -470.979 274.26L-558 882.108C-443.327 764.3 -137.045 575.695 170.701 763.747C478.448 951.798 747.997 626.396 838 569.611V24.2625C524.479 237.203 362.82 11.3001 97.9126 0.47976Z" fill="#EAFBFF"/>
<path d="M97.9126 127.692C-172.911 115.38 -389.65 318.947 -470.979 432.427L-558 1109C-443.327 977.872 -137.045 767.943 170.701 977.256C478.448 1186.57 747.997 824.376 838 761.171V154.164C524.479 391.18 362.82 139.736 97.9126 127.692Z" fill="#F1FCFF"/>
<path d="M97.9126 57.3113C-172.911 44.9987 -389.65 248.566 -470.979 362.046L-558 1038.62C-443.327 907.491 -137.045 697.562 170.701 906.875C478.448 1116.19 747.997 753.995 838 690.79V83.783C524.479 320.799 362.82 69.355 97.9126 57.3113Z" fill="#D8F8FF"/>
</svg>
