<svg width="19" height="27" viewBox="0 0 19 27" fill="none" xmlns="http://www.w3.org/2000/svg">
<path fill-rule="evenodd" clip-rule="evenodd" d="M9.62746 26.7968C14.6599 26.7968 18.7246 22.7321 18.7246 17.6997C18.7246 12.6672 15.1761 6.77447 9.62746 -7.95298e-07C3.75625 7.16158 0.53031 12.6887 0.53031 17.6997C0.53031 22.7106 4.59499 26.7968 9.62746 26.7968Z" fill="#A3A3A3"/>
<path fill-rule="evenodd" clip-rule="evenodd" d="M9.62774 21.7213C13.4343 21.7213 16.5312 18.6459 16.5312 14.8393C16.5312 11.0327 13.843 6.55937 9.62774 1.41937C5.17594 6.83895 2.72423 11.0327 2.72423 14.8393C2.72423 18.6459 5.82113 21.7213 9.62774 21.7213Z" fill="#C3C3C3"/>
<path fill-rule="evenodd" clip-rule="evenodd" d="M9.6273 15.377C12.079 15.377 14.0791 13.3769 14.0791 10.9252C14.0791 8.47349 12.3371 5.57014 9.62731 2.25818C6.76697 5.7637 5.17551 8.45198 5.17551 10.9252C5.17551 13.3769 7.17559 15.377 9.6273 15.377Z" fill="#DBDBDB"/>
</svg>
