<svg width="40" height="63" viewBox="0 0 40 63" fill="none" xmlns="http://www.w3.org/2000/svg">
<path d="M14.2633 12.2143C11.0537 12.2143 8.44968 9.62784 8.44968 6.4399C8.44968 3.25197 11.0537 0.665527 14.2633 0.665527C17.473 0.665527 20.077 3.25197 20.077 6.4399C20.077 9.62784 17.473 12.2143 14.2633 12.2143ZM2.81769 30.1509L5.63974 28.7314L6.81458 25.1946C8.59502 19.8292 13.5609 16.0759 19.1929 16.0639C23.5531 16.0518 25.9634 17.2789 30.4932 19.0954C33.1093 20.142 35.2531 22.127 36.5127 24.6532L37.3242 26.2893C38.269 28.19 37.5059 30.4998 35.6044 31.4502C33.7149 32.4005 31.4137 31.6306 30.4568 29.7299L29.6453 28.0938C29.2214 27.2517 28.5189 26.5901 27.6469 26.2412L24.4009 24.942L26.2419 32.2441C26.8717 34.7464 26.1935 37.405 24.4373 39.3177L17.1823 47.1853C16.3102 48.1357 15.6925 49.2785 15.3776 50.5176L13.1612 59.3356C12.6404 61.3927 10.5329 62.6558 8.46179 62.1386C6.39067 61.6213 5.11893 59.5281 5.63974 57.4709L8.32856 46.7643C8.64347 45.5252 9.26117 44.3703 10.1332 43.432L15.6441 37.4531L13.5609 29.1885L12.8947 31.1735C12.2528 33.1103 10.872 34.7103 9.05527 35.6246L6.23322 37.0441C4.34378 37.9945 2.04253 37.2245 1.0857 35.3238C0.153091 33.4351 0.916134 31.1013 2.81769 30.1509ZM30.5416 47.0771C30.9292 48.0515 31.5106 48.9297 32.2615 49.6635L38.3174 55.6905C39.8314 57.1942 39.8314 59.6363 38.3174 61.1401C36.8034 62.6438 34.3568 62.6438 32.8429 61.1401L25.6484 53.9943C24.9096 53.2605 24.3283 52.3823 23.9286 51.4078L22.2935 47.3417C28.9913 40.0877 26.9807 42.3132 28.0345 40.8816L30.5416 47.0771Z" fill="#303E61"/>
</svg>
