<svg width="78" height="102" viewBox="0 0 78 102" fill="none" xmlns="http://www.w3.org/2000/svg">
<path d="M14.6884 29.3762C16.5277 29.3762 18.0188 27.882 18.0188 26.0387C18.0188 24.1955 16.5277 22.7013 14.6884 22.7013C12.849 22.7013 11.3579 24.1955 11.3579 26.0387C11.3579 27.882 12.849 29.3762 14.6884 29.3762Z" fill="#8FDAFF"/>
<path d="M13.4772 26.0388C13.4772 26.6456 13.1745 27.1008 12.7203 27.1008C12.2661 27.1008 11.9634 26.6456 11.9634 26.0388C11.9634 25.432 12.2661 24.9769 12.7203 24.9769C13.1745 24.9769 13.4772 25.432 13.4772 26.0388Z" fill="white"/>
<path d="M15.4451 46.9734C16.532 46.9734 17.4131 46.0905 17.4131 45.0013C17.4131 43.9121 16.532 43.0292 15.4451 43.0292C14.3582 43.0292 13.4771 43.9121 13.4771 45.0013C13.4771 46.0905 14.3582 46.9734 15.4451 46.9734Z" fill="#8FDAFF"/>
<path d="M14.6881 45.0016C14.6881 45.305 14.5367 45.6084 14.2339 45.6084C13.9312 45.6084 13.7798 45.305 13.7798 45.0016C13.7798 44.6982 13.9312 44.3948 14.2339 44.3948C14.5367 44.3948 14.6881 44.6982 14.6881 45.0016Z" fill="white"/>
<path d="M67.5215 32.8652C67.5215 33.9271 66.6131 34.8373 65.5535 34.8373C64.4938 34.8373 63.5854 33.9271 63.5854 32.8652C63.5854 31.8033 64.4938 30.8931 65.5535 30.8931C66.6131 30.8931 67.5215 31.955 67.5215 32.8652Z" fill="#8FDAFF"/>
<path d="M64.7965 32.8652C64.7965 33.1686 64.6451 33.472 64.3423 33.472C64.0396 33.472 63.8882 33.1686 63.8882 32.8652C63.8882 32.5618 64.0396 32.2584 64.3423 32.2584C64.6451 32.2584 64.7965 32.5618 64.7965 32.8652Z" fill="white"/>
<path opacity="0.7" d="M0.00390625 0.70459L1.21499 16.785L7.42176 101.738H69.7923L75.9991 16.785L77.2102 0.70459H0.00390625Z" fill="#8FDAFF"/>
<path d="M4.87939 19.026L10.632 98.2143C29.101 90.3258 48.0241 90.6292 67.4013 98.2143L73.154 19.026H4.87939Z" fill="#34B1ED"/>
<path d="M60.9166 88.6316C60.9166 89.9969 59.8569 91.0588 58.4944 91.0588C57.132 91.0588 56.0723 89.9969 56.0723 88.6316C56.0723 87.2663 57.132 86.2043 58.4944 86.2043C59.8569 86.2043 60.9166 87.2663 60.9166 88.6316Z" fill="#8FDAFF"/>
<path d="M56.9805 89.2383C57.315 89.2383 57.5861 88.8987 57.5861 88.4798C57.5861 88.0609 57.315 87.7213 56.9805 87.7213C56.6461 87.7213 56.375 88.0609 56.375 88.4798C56.375 88.8987 56.6461 89.2383 56.9805 89.2383Z" fill="white"/>
<path d="M21.9127 83.7458C21.9127 85.1111 20.853 86.1731 19.4905 86.1731C18.1281 86.1731 17.0684 85.1111 17.0684 83.7458C17.0684 82.3805 18.1281 81.3186 19.4905 81.3186C20.853 81.3186 21.9127 82.3805 21.9127 83.7458Z" fill="#8FDAFF"/>
<path d="M18.4308 83.5944C18.4308 84.0496 18.128 84.353 17.8253 84.353C17.5225 84.353 17.2197 84.0496 17.2197 83.5944C17.2197 83.1393 17.5225 82.8359 17.8253 82.8359C18.2794 82.8359 18.4308 83.1393 18.4308 83.5944Z" fill="white"/>
<path d="M45.8738 34.686C47.2115 34.686 48.296 33.5993 48.296 32.2588C48.296 30.9182 47.2115 29.8315 45.8738 29.8315C44.5361 29.8315 43.4517 30.9182 43.4517 32.2588C43.4517 33.5993 44.5361 34.686 45.8738 34.686Z" fill="#8FDAFF"/>
<path d="M44.9655 32.2586C44.9655 32.7137 44.6627 33.0171 44.3599 33.0171C44.0572 33.0171 43.7544 32.7137 43.7544 32.2586C43.7544 31.8035 44.0572 31.5001 44.3599 31.5001C44.6627 31.3484 44.9655 31.8035 44.9655 32.2586Z" fill="white"/>
<path d="M58.5899 25.1285C58.5899 26.4938 57.5302 27.5558 56.1678 27.5558C54.8053 27.5558 53.7456 26.4938 53.7456 25.1285C53.7456 23.7632 54.8053 22.7013 56.1678 22.7013C57.5302 22.7013 58.5899 23.7632 58.5899 25.1285Z" fill="#8FDAFF"/>
<path d="M55.1081 24.977C55.1081 25.4321 54.8053 25.7355 54.5025 25.7355C54.1997 25.7355 53.897 25.4321 53.897 24.977C53.897 24.5219 54.1997 24.2185 54.5025 24.2185C54.9567 24.2185 55.1081 24.5219 55.1081 24.977Z" fill="white"/>
<path d="M17.0372 25.1174C17.0372 26.4827 15.9775 27.5446 14.615 27.5446C13.2526 27.5446 12.1929 26.4827 12.1929 25.1174C12.1929 23.7521 13.2526 22.6902 14.615 22.6902C15.9775 22.6902 17.0372 23.7521 17.0372 25.1174Z" fill="#8FDAFF"/>
<path d="M13.7067 25.1174C13.7067 25.5725 13.4039 25.8759 13.1011 25.8759C12.7984 25.8759 12.4956 25.5725 12.4956 25.1174C12.4956 24.6623 12.7984 24.3589 13.1011 24.3589C13.4039 24.2072 13.7067 24.6623 13.7067 25.1174Z" fill="white"/>
<path d="M22.2231 36.8765C22.2231 37.9385 21.3148 38.8487 20.2551 38.8487C19.1954 38.8487 18.2871 37.9385 18.2871 36.8765C18.2871 35.8146 19.1954 34.9044 20.2551 34.9044C21.4662 34.9044 22.2231 35.8146 22.2231 36.8765Z" fill="#8FDAFF"/>
<path d="M19.6495 36.8765C19.6495 37.1799 19.4981 37.4833 19.1954 37.4833C18.8926 37.4833 18.7412 37.1799 18.7412 36.8765C18.7412 36.5731 18.8926 36.2697 19.1954 36.2697C19.4981 36.118 19.6495 36.4214 19.6495 36.8765Z" fill="white"/>
<path d="M69.7593 31.9909C69.7593 33.0528 68.8509 33.963 67.7912 33.963C66.7316 33.963 65.8232 33.0528 65.8232 31.9909C65.8232 30.929 66.7316 30.0188 67.7912 30.0188C68.8509 30.0188 69.7593 30.929 69.7593 31.9909Z" fill="#8FDAFF"/>
<path d="M67.1857 31.8392C67.1857 32.1426 67.0343 32.446 66.7315 32.446C66.4287 32.446 66.2773 32.1426 66.2773 31.8392C66.2773 31.5358 66.4287 31.2324 66.7315 31.2324C66.8829 31.2324 67.1857 31.5358 67.1857 31.8392Z" fill="white"/>
</svg>
