<svg width="344" height="346" viewBox="0 0 344 346" fill="none" xmlns="http://www.w3.org/2000/svg">
<g filter="url(#filter0_d_724_131655)">
<path d="M171.986 337.532C264.762 337.532 339.972 262.164 339.972 169.194C339.972 76.2236 264.762 0.856201 171.986 0.856201C79.2099 0.856201 4 76.2236 4 169.194C4 262.164 79.2099 337.532 171.986 337.532Z" fill="url(#paint0_linear_724_131655)"/>
<path d="M78.8966 255.281C78.8966 258.11 76.605 260.434 73.7544 260.434C70.9319 260.434 68.6123 258.138 68.6123 255.281C68.6123 252.425 70.9039 250.128 73.7544 250.128C76.605 250.128 78.8966 252.425 78.8966 255.281Z" fill="url(#paint1_radial_724_131655)"/>
<path d="M73.7828 252.732C74.8448 252.732 75.8229 253.068 76.6334 253.629C76.9967 253.881 77.4438 253.461 77.2202 253.096C76.4936 251.948 75.264 251.192 73.8108 251.192C72.3576 251.192 71.1 251.948 70.4013 253.096C70.1777 253.461 70.6249 253.881 70.9882 253.629C71.7427 253.068 72.7209 252.732 73.7828 252.732Z" fill="#FFFFFD"/>
<path d="M73.7823 257.662C72.4409 257.662 71.1833 257.158 70.1773 256.29C69.786 255.954 69.255 256.458 69.5065 256.934C70.3449 258.614 71.9379 259.762 73.7823 259.762C75.6268 259.762 77.1918 258.614 78.0582 256.934C78.3097 256.458 77.7787 255.954 77.3874 256.29C76.3534 257.158 75.1238 257.662 73.7823 257.662Z" fill="#FFFFFD"/>
<path d="M273.068 275.333C273.068 278.161 270.777 280.486 267.926 280.486C265.104 280.486 262.784 278.189 262.784 275.333C262.784 272.504 265.076 270.18 267.926 270.18C270.777 270.208 273.068 272.504 273.068 275.333Z" fill="url(#paint2_radial_724_131655)"/>
<path d="M267.955 272.812C269.017 272.812 269.995 273.148 270.805 273.708C271.169 273.96 271.616 273.54 271.392 273.176C270.693 272.028 269.436 271.272 267.983 271.272C266.529 271.272 265.272 272.028 264.573 273.176C264.35 273.54 264.797 273.96 265.16 273.708C265.915 273.148 266.893 272.812 267.955 272.812Z" fill="#FFFFFD"/>
<path d="M267.954 277.741C266.613 277.741 265.355 277.237 264.349 276.369C263.958 276.033 263.427 276.537 263.678 277.013C264.517 278.694 266.11 279.842 267.954 279.842C269.799 279.842 271.364 278.694 272.23 277.013C272.482 276.537 271.951 276.033 271.559 276.369C270.553 277.237 269.296 277.741 267.954 277.741Z" fill="#FFFFFD"/>
<path d="M141.357 28.6652C144.197 28.6652 146.499 26.3582 146.499 23.5123C146.499 20.6664 144.197 18.3594 141.357 18.3594C138.517 18.3594 136.215 20.6664 136.215 23.5123C136.215 26.3582 138.517 28.6652 141.357 28.6652Z" fill="url(#paint3_radial_724_131655)"/>
<path d="M141.357 20.9919C142.419 20.9919 143.397 21.328 144.208 21.8881C144.571 22.1401 145.018 21.7201 144.794 21.356C144.068 20.2078 142.838 19.4517 141.385 19.4517C139.932 19.4517 138.674 20.2078 137.976 21.356C137.752 21.7201 138.199 22.1401 138.562 21.8881C139.317 21.328 140.295 20.9919 141.357 20.9919Z" fill="#FFFFFD"/>
<path d="M141.357 25.9206C140.015 25.9206 138.758 25.4165 137.751 24.5483C137.36 24.2123 136.829 24.7164 137.081 25.1925C137.919 26.8728 139.512 28.021 141.357 28.021C143.201 28.021 144.766 26.8728 145.632 25.1925C145.884 24.7164 145.353 24.2123 144.962 24.5483C143.956 25.4165 142.698 25.9206 141.357 25.9206Z" fill="#FFFFFD"/>
<path d="M46.5626 113.044C46.5626 115.873 44.271 118.197 41.4205 118.197C38.5699 118.197 36.2783 115.901 36.2783 113.044C36.2783 110.216 38.5699 107.891 41.4205 107.891C44.271 107.891 46.5626 110.216 46.5626 113.044Z" fill="url(#paint4_radial_724_131655)"/>
<path d="M41.4205 110.524C42.4825 110.524 43.4606 110.86 44.2711 111.42C44.6344 111.672 45.0815 111.252 44.8579 110.888C44.1313 109.74 42.9017 108.983 41.4485 108.983C39.9952 108.983 38.7377 109.74 38.039 110.888C37.8154 111.252 38.2626 111.672 38.6259 111.42C39.3804 110.86 40.3586 110.524 41.4205 110.524Z" fill="#FFFFFD"/>
<path d="M41.42 115.452C40.0786 115.452 38.821 114.948 37.815 114.08C37.4237 113.744 36.8927 114.248 37.1442 114.724C37.9826 116.404 39.5756 117.553 41.42 117.553C43.2645 117.553 44.8295 116.404 45.6959 114.724C45.9474 114.248 45.4164 113.744 45.0251 114.08C44.0191 114.948 42.7615 115.452 41.42 115.452Z" fill="#FFFFFD"/>
<path d="M205.661 257.606C205.661 260.434 203.37 262.759 200.519 262.759C197.696 262.759 195.377 260.462 195.377 257.606C195.377 254.777 197.669 252.453 200.519 252.453C203.342 252.453 205.661 254.777 205.661 257.606Z" fill="url(#paint5_radial_724_131655)"/>
<path d="M200.519 255.085C201.581 255.085 202.559 255.421 203.37 255.981C203.733 256.233 204.18 255.813 203.957 255.449C203.258 254.301 202 253.545 200.547 253.545C199.094 253.545 197.836 254.301 197.138 255.449C196.914 255.813 197.361 256.233 197.725 255.981C198.479 255.421 199.457 255.085 200.519 255.085Z" fill="#FFFFFD"/>
<path d="M200.519 260.015C199.177 260.015 197.92 259.51 196.914 258.642C196.522 258.306 195.991 258.81 196.243 259.286C197.081 260.967 198.674 262.115 200.519 262.115C202.363 262.115 203.928 260.967 204.794 259.286C205.046 258.81 204.515 258.306 204.124 258.642C203.118 259.51 201.86 260.015 200.519 260.015Z" fill="#FFFFFD"/>
<path d="M147.813 231.421C147.813 233.437 146.164 235.09 144.152 235.09C142.14 235.09 140.491 233.437 140.491 231.421C140.491 229.405 142.14 227.752 144.152 227.752C146.164 227.752 147.813 229.405 147.813 231.421Z" fill="url(#paint6_radial_724_131655)"/>
<path d="M144.152 229.629C144.906 229.629 145.605 229.881 146.164 230.273C146.415 230.441 146.723 230.161 146.583 229.881C146.08 229.069 145.186 228.537 144.152 228.537C143.118 228.537 142.223 229.069 141.72 229.881C141.553 230.133 141.888 230.441 142.14 230.273C142.699 229.881 143.397 229.629 144.152 229.629Z" fill="#FFFFFD"/>
<path d="M144.152 233.129C143.202 233.129 142.307 232.765 141.581 232.149C141.301 231.897 140.938 232.261 141.106 232.597C141.72 233.801 142.838 234.614 144.152 234.614C145.465 234.614 146.583 233.801 147.198 232.597C147.366 232.261 147.002 231.897 146.723 232.149C145.996 232.765 145.13 233.129 144.152 233.129Z" fill="#FFFFFD"/>
<path d="M95.0773 146.846C95.0773 148.862 93.4285 150.515 91.4164 150.515C89.4042 150.515 87.7554 148.862 87.7554 146.846C87.7554 144.83 89.4042 143.177 91.4164 143.177C93.4564 143.177 95.0773 144.802 95.0773 146.846Z" fill="url(#paint7_radial_724_131655)"/>
<path d="M91.4164 145.026C92.171 145.026 92.8696 145.278 93.4286 145.67C93.6801 145.838 93.9875 145.558 93.8478 145.306C93.3447 144.494 92.4504 143.961 91.4164 143.961C90.3824 143.961 89.4881 144.494 88.9851 145.306C88.8174 145.558 89.1528 145.866 89.4043 145.67C89.9632 145.278 90.6619 145.026 91.4164 145.026Z" fill="#FFFFFD"/>
<path d="M91.4163 148.554C90.4662 148.554 89.5719 148.19 88.8453 147.574C88.5658 147.322 88.2025 147.686 88.3702 148.022C88.985 149.226 90.1029 150.038 91.4163 150.038C92.7298 150.038 93.8477 149.226 94.4625 148.022C94.6302 147.686 94.2669 147.322 93.9874 147.574C93.2608 148.19 92.3945 148.554 91.4163 148.554Z" fill="#FFFFFD"/>
<path d="M154.855 63.0273C154.855 65.0436 153.206 66.6959 151.194 66.6959C149.182 66.6959 147.533 65.0436 147.533 63.0273C147.533 61.0109 149.182 59.3586 151.194 59.3586C153.206 59.3586 154.855 61.0109 154.855 63.0273Z" fill="url(#paint8_radial_724_131655)"/>
<path d="M151.194 61.235C151.949 61.235 152.647 61.4871 153.206 61.8791C153.458 62.0472 153.765 61.7671 153.626 61.4871C153.123 60.6749 152.228 60.1428 151.194 60.1428C150.16 60.1428 149.266 60.6749 148.763 61.4871C148.595 61.7391 148.931 62.0472 149.182 61.8791C149.741 61.4591 150.44 61.235 151.194 61.235Z" fill="#FFFFFD"/>
<path d="M151.194 64.7358C150.244 64.7358 149.35 64.3717 148.623 63.7556C148.344 63.5036 147.98 63.8676 148.148 64.2037C148.763 65.4079 149.881 66.2201 151.194 66.2201C152.508 66.2201 153.626 65.4079 154.24 64.2037C154.408 63.8676 154.045 63.5036 153.765 63.7556C153.039 64.3717 152.144 64.7358 151.194 64.7358Z" fill="#FFFFFD"/>
<path d="M40.4426 159.56C40.4426 161.577 38.7937 163.229 36.7816 163.229C34.7694 163.229 33.1206 161.577 33.1206 159.56C33.1206 157.544 34.7694 155.892 36.7816 155.892C38.7937 155.892 40.4426 157.516 40.4426 159.56Z" fill="url(#paint9_radial_724_131655)"/>
<path d="M36.7816 157.74C37.5362 157.74 38.2349 157.992 38.7938 158.384C39.0453 158.552 39.3527 158.272 39.213 158.02C38.71 157.208 37.8157 156.676 36.7816 156.676C35.7476 156.676 34.8533 157.208 34.3503 158.02C34.1826 158.272 34.518 158.58 34.7695 158.384C35.3284 157.992 36.0271 157.74 36.7816 157.74Z" fill="#FFFFFD"/>
<path d="M36.7816 161.269C35.8314 161.269 34.9371 160.905 34.2105 160.289C33.931 160.037 33.5677 160.401 33.7354 160.737C34.3502 161.941 35.4681 162.753 36.7816 162.753C38.0951 162.753 39.2129 161.941 39.8277 160.737C39.9954 160.401 39.6321 160.037 39.3526 160.289C38.626 160.905 37.7318 161.269 36.7816 161.269Z" fill="#FFFFFD"/>
<path d="M152.592 168.382C152.592 169.922 151.334 171.182 149.797 171.182C148.26 171.182 147.002 169.922 147.002 168.382C147.002 166.842 148.26 165.581 149.797 165.581C151.334 165.581 152.592 166.842 152.592 168.382Z" fill="url(#paint10_radial_724_131655)"/>
<path d="M149.769 167.009C150.356 167.009 150.887 167.205 151.306 167.513C151.502 167.654 151.753 167.429 151.614 167.233C151.222 166.617 150.524 166.197 149.741 166.197C148.959 166.197 148.26 166.617 147.869 167.233C147.757 167.429 147.981 167.654 148.176 167.513C148.651 167.205 149.21 167.009 149.769 167.009Z" fill="#FFFFFD"/>
<path d="M149.769 169.698C149.042 169.698 148.343 169.418 147.812 168.942C147.589 168.746 147.309 169.026 147.449 169.306C147.924 170.23 148.791 170.846 149.769 170.846C150.775 170.846 151.641 170.23 152.088 169.306C152.228 169.026 151.949 168.774 151.725 168.942C151.194 169.418 150.523 169.698 149.769 169.698Z" fill="#FFFFFD"/>
<path d="M132.414 87.8676C132.414 89.4079 131.156 90.6681 129.619 90.6681C128.082 90.6681 126.824 89.4079 126.824 87.8676C126.824 86.3273 128.082 85.0671 129.619 85.0671C131.156 85.0391 132.414 86.2993 132.414 87.8676Z" fill="url(#paint11_radial_724_131655)"/>
<path d="M129.619 86.4674C130.206 86.4674 130.737 86.6634 131.156 86.9715C131.351 87.1115 131.603 86.8875 131.463 86.6915C131.072 86.0753 130.373 85.6553 129.591 85.6553C128.808 85.6553 128.11 86.0753 127.718 86.6915C127.607 86.8875 127.83 87.1115 128.026 86.9715C128.501 86.6634 129.032 86.4674 129.619 86.4674Z" fill="#FFFFFD"/>
<path d="M129.619 89.1559C128.892 89.1559 128.194 88.8758 127.663 88.3997C127.439 88.2037 127.16 88.4838 127.299 88.7638C127.774 89.688 128.641 90.3041 129.619 90.3041C130.625 90.3041 131.491 89.688 131.938 88.7638C132.078 88.4838 131.799 88.2317 131.575 88.3997C131.044 88.8758 130.345 89.1559 129.619 89.1559Z" fill="#FFFFFD"/>
<path d="M156.839 109.544C156.839 111.084 155.581 112.344 154.044 112.344C152.507 112.344 151.25 111.084 151.25 109.544C151.25 108.003 152.507 106.743 154.044 106.743C155.581 106.743 156.839 108.003 156.839 109.544Z" fill="url(#paint12_radial_724_131655)"/>
<path d="M154.045 108.171C154.631 108.171 155.162 108.367 155.582 108.675C155.777 108.815 156.029 108.591 155.889 108.395C155.498 107.779 154.799 107.359 154.017 107.359C153.234 107.359 152.535 107.779 152.144 108.395C152.032 108.591 152.256 108.815 152.452 108.675C152.927 108.339 153.458 108.171 154.045 108.171Z" fill="#FFFFFD"/>
<path d="M154.044 110.86C153.317 110.86 152.619 110.58 152.088 110.104C151.864 109.908 151.585 110.188 151.725 110.468C152.2 111.392 153.066 112.008 154.044 112.008C155.05 112.008 155.916 111.392 156.364 110.468C156.503 110.188 156.224 109.936 156 110.104C155.441 110.58 154.771 110.86 154.044 110.86Z" fill="#FFFFFD"/>
<path d="M206.78 222.908C206.78 224.448 205.522 225.708 203.985 225.708C202.448 225.708 201.19 224.448 201.19 222.908C201.19 221.367 202.448 220.107 203.985 220.107C205.522 220.107 206.78 221.367 206.78 222.908Z" fill="url(#paint13_radial_724_131655)"/>
<path d="M203.985 221.535C204.572 221.535 205.103 221.731 205.522 222.039C205.718 222.179 205.969 221.955 205.829 221.759C205.438 221.143 204.74 220.723 203.957 220.723C203.175 220.723 202.476 221.143 202.085 221.759C201.973 221.955 202.196 222.179 202.392 222.039C202.867 221.703 203.398 221.535 203.985 221.535Z" fill="#FFFFFD"/>
<path d="M203.985 224.224C203.258 224.224 202.56 223.943 202.029 223.467C201.805 223.271 201.526 223.551 201.665 223.831C202.141 224.756 203.007 225.372 203.985 225.372C204.991 225.372 205.857 224.756 206.305 223.831C206.444 223.551 206.165 223.299 205.941 223.467C205.41 223.943 204.712 224.224 203.985 224.224Z" fill="#FFFFFD"/>
<path d="M129.675 286.675C131.218 286.675 132.47 285.421 132.47 283.874C132.47 282.328 131.218 281.074 129.675 281.074C128.132 281.074 126.88 282.328 126.88 283.874C126.88 285.421 128.132 286.675 129.675 286.675Z" fill="url(#paint14_radial_724_131655)"/>
<path d="M129.675 282.474C130.262 282.474 130.793 282.67 131.212 282.978C131.408 283.118 131.659 282.894 131.519 282.698C131.128 282.082 130.457 281.662 129.647 281.662C128.864 281.662 128.166 282.082 127.775 282.698C127.663 282.894 127.886 283.118 128.082 282.978C128.585 282.67 129.116 282.474 129.675 282.474Z" fill="#FFFFFD"/>
<path d="M129.675 285.162C128.948 285.162 128.25 284.882 127.719 284.406C127.495 284.21 127.216 284.49 127.355 284.77C127.83 285.695 128.697 286.311 129.675 286.311C130.681 286.311 131.547 285.695 131.994 284.77C132.134 284.49 131.855 284.238 131.631 284.406C131.1 284.882 130.43 285.162 129.675 285.162Z" fill="#FFFFFD"/>
<path d="M244.367 298.633C244.367 300.173 243.11 301.434 241.572 301.434C240.035 301.434 238.778 300.173 238.778 298.633C238.778 297.093 240.035 295.833 241.572 295.833C243.11 295.833 244.367 297.093 244.367 298.633Z" fill="url(#paint15_radial_724_131655)"/>
<path d="M241.545 297.261C242.131 297.261 242.662 297.457 243.082 297.765C243.277 297.905 243.529 297.681 243.389 297.485C242.998 296.869 242.299 296.448 241.517 296.448C240.734 296.448 240.035 296.869 239.644 297.485C239.532 297.681 239.756 297.905 239.952 297.765C240.455 297.457 240.986 297.261 241.545 297.261Z" fill="#FFFFFD"/>
<path d="M241.544 299.949C240.817 299.949 240.119 299.669 239.588 299.193C239.364 298.997 239.085 299.277 239.225 299.557C239.7 300.481 240.566 301.097 241.544 301.097C242.55 301.097 243.417 300.481 243.864 299.557C244.003 299.277 243.724 299.025 243.5 299.193C242.969 299.669 242.299 299.949 241.544 299.949Z" fill="#FFFFFD"/>
<path d="M34.2104 199.832C34.2104 201.372 32.9528 202.632 31.4157 202.632C29.8787 202.632 28.6211 201.372 28.6211 199.832C28.6211 198.291 29.8787 197.031 31.4157 197.031C32.9528 197.031 34.2104 198.291 34.2104 199.832Z" fill="url(#paint16_radial_724_131655)"/>
<path d="M31.3878 198.459C31.9747 198.459 32.5056 198.655 32.9248 198.963C33.1205 199.103 33.372 198.879 33.2323 198.683C32.841 198.067 32.1423 197.647 31.3598 197.647C30.5773 197.647 29.8787 198.067 29.4874 198.683C29.3756 198.879 29.5992 199.103 29.7948 198.963C30.2979 198.627 30.8289 198.459 31.3878 198.459Z" fill="#FFFFFD"/>
<path d="M31.3873 201.148C30.6607 201.148 29.9621 200.868 29.4311 200.391C29.2075 200.195 28.9281 200.475 29.0678 200.755C29.5429 201.68 30.4092 202.296 31.3873 202.296C32.3934 202.296 33.2598 201.68 33.7069 200.755C33.8466 200.475 33.5672 200.223 33.3436 200.391C32.8126 200.868 32.1419 201.148 31.3873 201.148Z" fill="#FFFFFD"/>
<path d="M63.2748 84.7591C63.2748 85.8233 62.4364 86.6634 61.3745 86.6634C60.3125 86.6634 59.4741 85.8233 59.4741 84.7591C59.4741 83.6949 60.3125 82.8547 61.3745 82.8547C62.4085 82.8547 63.2748 83.6949 63.2748 84.7591Z" fill="url(#paint17_radial_724_131655)"/>
<path d="M61.3747 83.835C61.7659 83.835 62.1292 83.947 62.4366 84.1711C62.5764 84.2551 62.7441 84.1151 62.6602 83.975C62.4087 83.555 61.9336 83.2749 61.4026 83.2749C60.8716 83.2749 60.3966 83.555 60.145 83.975C60.0612 84.1151 60.2289 84.2551 60.3686 84.1711C60.6201 83.947 60.9834 83.835 61.3747 83.835Z" fill="#FFFFFD"/>
<path d="M61.3744 85.655C60.8713 85.655 60.4242 85.459 60.0329 85.1509C59.8932 85.0389 59.6976 85.207 59.7814 85.403C60.0888 86.0191 60.6757 86.4392 61.3464 86.4392C62.0171 86.4392 62.604 86.0191 62.9114 85.403C62.9953 85.235 62.7996 85.0389 62.6599 85.1509C62.3245 85.459 61.8774 85.655 61.3744 85.655Z" fill="#FFFFFD"/>
<path d="M151.613 313.896C151.613 314.96 150.774 315.8 149.712 315.8C148.65 315.8 147.812 314.96 147.812 313.896C147.812 312.832 148.65 311.991 149.712 311.991C150.774 311.991 151.613 312.86 151.613 313.896Z" fill="url(#paint18_radial_724_131655)"/>
<path d="M149.712 312.971C150.103 312.971 150.467 313.083 150.774 313.307C150.914 313.391 151.081 313.251 150.998 313.111C150.746 312.691 150.271 312.411 149.74 312.411C149.209 312.411 148.734 312.691 148.482 313.111C148.399 313.251 148.566 313.391 148.706 313.307C148.958 313.083 149.321 312.971 149.712 312.971Z" fill="#FFFFFD"/>
<path d="M149.712 314.792C149.209 314.792 148.762 314.596 148.371 314.288C148.231 314.176 148.035 314.344 148.119 314.54C148.427 315.156 149.014 315.576 149.684 315.576C150.355 315.576 150.942 315.156 151.249 314.54C151.333 314.372 151.138 314.176 150.998 314.288C150.69 314.596 150.215 314.792 149.712 314.792Z" fill="#FFFFFD"/>
<path d="M104.636 302.05C104.636 303.114 103.797 303.954 102.735 303.954C101.673 303.954 100.835 303.114 100.835 302.05C100.835 300.986 101.673 300.146 102.735 300.146C103.769 300.146 104.636 300.986 104.636 302.05Z" fill="url(#paint19_radial_724_131655)"/>
<path d="M102.736 301.097C103.127 301.097 103.49 301.209 103.797 301.434C103.937 301.518 104.105 301.378 104.021 301.237C103.77 300.817 103.294 300.537 102.763 300.537C102.232 300.537 101.757 300.817 101.506 301.237C101.422 301.378 101.59 301.518 101.729 301.434C101.981 301.237 102.344 301.097 102.736 301.097Z" fill="#FFFFFD"/>
<path d="M102.735 302.918C102.232 302.918 101.785 302.722 101.394 302.414C101.254 302.302 101.058 302.47 101.142 302.666C101.45 303.282 102.037 303.702 102.707 303.702C103.378 303.702 103.965 303.282 104.272 302.666C104.356 302.498 104.16 302.302 104.021 302.414C103.685 302.75 103.238 302.918 102.735 302.918Z" fill="#FFFFFD"/>
<path d="M58.831 193.446C58.831 194.51 57.9926 195.35 56.9306 195.35C55.8687 195.35 55.0303 194.51 55.0303 193.446C55.0303 192.382 55.8687 191.542 56.9306 191.542C57.9646 191.542 58.831 192.382 58.831 193.446Z" fill="url(#paint20_radial_724_131655)"/>
<path d="M56.9303 192.522C57.3216 192.522 57.6849 192.634 57.9923 192.858C58.132 192.942 58.2997 192.802 58.2159 192.662C57.9644 192.242 57.4893 191.962 56.9583 191.962C56.4273 191.962 55.9522 192.242 55.7007 192.662C55.6169 192.802 55.7845 192.942 55.9243 192.858C56.1758 192.634 56.5391 192.522 56.9303 192.522Z" fill="#FFFFFD"/>
<path d="M56.9305 194.342C56.4275 194.342 55.9803 194.146 55.5891 193.838C55.4493 193.726 55.2537 193.894 55.3376 194.09C55.645 194.706 56.2319 195.126 56.9026 195.126C57.5733 195.126 58.1602 194.706 58.4676 194.09C58.5514 193.922 58.3558 193.726 58.216 193.838C57.8807 194.146 57.4335 194.342 56.9305 194.342Z" fill="#FFFFFD"/>
<path d="M188.083 197.563C188.083 198.627 187.245 199.468 186.183 199.468C185.121 199.468 184.283 198.627 184.283 197.563C184.283 196.499 185.121 195.659 186.183 195.659C187.245 195.659 188.083 196.499 188.083 197.563Z" fill="url(#paint21_radial_724_131655)"/>
<path d="M186.183 196.611C186.574 196.611 186.937 196.723 187.245 196.947C187.384 197.031 187.552 196.891 187.468 196.751C187.217 196.331 186.742 196.051 186.211 196.051C185.68 196.051 185.205 196.331 184.953 196.751C184.869 196.891 185.037 197.031 185.177 196.947C185.428 196.751 185.792 196.611 186.183 196.611Z" fill="#FFFFFD"/>
<path d="M186.183 198.431C185.68 198.431 185.233 198.235 184.842 197.927C184.702 197.815 184.506 197.983 184.59 198.179C184.897 198.795 185.484 199.215 186.155 199.215C186.826 199.215 187.413 198.795 187.72 198.179C187.804 198.011 187.608 197.815 187.468 197.927C187.133 198.263 186.686 198.431 186.183 198.431Z" fill="#FFFFFD"/>
<path d="M59.3066 141.413C59.3066 142.477 58.4682 143.317 57.4062 143.317C56.3443 143.317 55.5059 142.477 55.5059 141.413C55.5059 140.349 56.3443 139.509 57.4062 139.509C58.4402 139.509 59.3066 140.349 59.3066 141.413Z" fill="url(#paint22_radial_724_131655)"/>
<path d="M57.4059 140.461C57.7972 140.461 58.1605 140.573 58.4679 140.797C58.6076 140.881 58.7753 140.741 58.6915 140.601C58.4399 140.181 57.9649 139.901 57.4339 139.901C56.9029 139.901 56.4278 140.181 56.1763 140.601C56.0924 140.741 56.2601 140.881 56.3999 140.797C56.6514 140.601 57.0147 140.461 57.4059 140.461Z" fill="#FFFFFD"/>
<path d="M57.4061 142.281C56.9031 142.281 56.4559 142.085 56.0647 141.777C55.9249 141.665 55.7293 141.833 55.8132 142.029C56.1206 142.645 56.7074 143.065 57.3782 143.065C58.0489 143.065 58.6357 142.645 58.9432 142.029C59.027 141.861 58.8314 141.665 58.6916 141.777C58.3563 142.113 57.9091 142.281 57.4061 142.281Z" fill="#FFFFFD"/>
<path d="M155.246 207.505C155.246 208.569 154.408 209.409 153.346 209.409C152.284 209.409 151.445 208.569 151.445 207.505C151.445 206.469 152.284 205.601 153.346 205.601C154.408 205.629 155.246 206.469 155.246 207.505Z" fill="url(#paint23_radial_724_131655)"/>
<path d="M153.346 206.58C153.737 206.58 154.1 206.692 154.408 206.916C154.548 207 154.715 206.86 154.631 206.72C154.38 206.3 153.905 206.02 153.374 206.02C152.843 206.02 152.368 206.3 152.116 206.72C152.032 206.86 152.2 207 152.34 206.916C152.591 206.72 152.955 206.58 153.346 206.58Z" fill="#FFFFFD"/>
<path d="M153.346 208.401C152.843 208.401 152.395 208.205 152.004 207.897C151.864 207.785 151.669 207.953 151.753 208.149C152.06 208.765 152.647 209.185 153.318 209.185C153.988 209.185 154.575 208.765 154.883 208.149C154.966 207.981 154.771 207.785 154.631 207.897C154.324 208.205 153.849 208.401 153.346 208.401Z" fill="#FFFFFD"/>
<path d="M162.037 281.578C162.037 282.642 161.199 283.482 160.137 283.482C159.075 283.482 158.236 282.642 158.236 281.578C158.236 280.542 159.075 279.674 160.137 279.674C161.199 279.674 162.037 280.542 162.037 281.578Z" fill="url(#paint24_radial_724_131655)"/>
<path d="M160.165 280.654C160.556 280.654 160.919 280.766 161.227 280.99C161.366 281.074 161.534 280.934 161.45 280.794C161.199 280.374 160.724 280.094 160.193 280.094C159.662 280.094 159.187 280.374 158.935 280.794C158.851 280.934 159.019 281.074 159.159 280.99C159.41 280.766 159.746 280.654 160.165 280.654Z" fill="#FFFFFD"/>
<path d="M160.164 282.474C159.661 282.474 159.214 282.278 158.823 281.97C158.683 281.858 158.488 282.026 158.571 282.222C158.879 282.838 159.466 283.258 160.136 283.258C160.807 283.258 161.394 282.838 161.701 282.222C161.785 282.054 161.59 281.858 161.45 281.97C161.115 282.278 160.639 282.474 160.164 282.474Z" fill="#FFFFFD"/>
<path d="M219.467 287.235C219.467 288.299 218.629 289.139 217.567 289.139C216.505 289.139 215.667 288.299 215.667 287.235C215.667 286.171 216.505 285.331 217.567 285.331C218.629 285.331 219.467 286.171 219.467 287.235Z" fill="url(#paint25_radial_724_131655)"/>
<path d="M217.567 286.283C217.958 286.283 218.321 286.395 218.629 286.619C218.768 286.703 218.936 286.563 218.852 286.423C218.601 286.002 218.125 285.722 217.595 285.722C217.064 285.722 216.588 286.002 216.337 286.423C216.253 286.563 216.421 286.703 216.56 286.619C216.812 286.423 217.175 286.283 217.567 286.283Z" fill="#FFFFFD"/>
<path d="M217.567 288.103C217.064 288.103 216.617 287.907 216.225 287.599C216.086 287.487 215.89 287.655 215.974 287.851C216.281 288.467 216.868 288.887 217.539 288.887C218.21 288.887 218.796 288.467 219.104 287.851C219.188 287.683 218.992 287.487 218.852 287.599C218.545 287.935 218.07 288.103 217.567 288.103Z" fill="#FFFFFD"/>
<path d="M246.938 237.722C247.988 237.722 248.839 236.869 248.839 235.818C248.839 234.766 247.988 233.913 246.938 233.913C245.889 233.913 245.038 234.766 245.038 235.818C245.038 236.869 245.889 237.722 246.938 237.722Z" fill="url(#paint26_radial_724_131655)"/>
<path d="M246.938 234.893C247.329 234.893 247.693 235.005 248 235.229C248.14 235.313 248.308 235.173 248.224 235.033C247.972 234.613 247.497 234.333 246.966 234.333C246.435 234.333 245.96 234.613 245.709 235.033C245.625 235.173 245.792 235.313 245.932 235.229C246.184 235.005 246.547 234.893 246.938 234.893Z" fill="#FFFFFD"/>
<path d="M246.938 236.714C246.435 236.714 245.988 236.518 245.597 236.21C245.457 236.098 245.262 236.266 245.345 236.462C245.653 237.078 246.24 237.498 246.91 237.498C247.581 237.498 248.168 237.078 248.475 236.462C248.559 236.294 248.364 236.098 248.224 236.21C247.889 236.518 247.441 236.714 246.938 236.714Z" fill="#FFFFFD"/>
<path d="M46.9819 243.575C46.9819 244.639 46.1435 245.479 45.0815 245.479C44.0195 245.479 43.1812 244.639 43.1812 243.575C43.1812 242.511 44.0195 241.671 45.0815 241.671C46.1435 241.671 46.9819 242.539 46.9819 243.575Z" fill="url(#paint27_radial_724_131655)"/>
<path d="M45.0817 242.651C45.473 242.651 45.8363 242.763 46.1437 242.987C46.2834 243.071 46.4511 242.931 46.3672 242.791C46.1157 242.371 45.6406 242.091 45.1097 242.091C44.5787 242.091 44.1036 242.371 43.8521 242.791C43.7682 242.931 43.9359 243.071 44.0756 242.987C44.3272 242.763 44.6905 242.651 45.0817 242.651Z" fill="#FFFFFD"/>
<path d="M45.0814 244.471C44.5784 244.471 44.1312 244.275 43.74 243.967C43.6002 243.855 43.4046 244.023 43.4884 244.219C43.7959 244.835 44.3827 245.255 45.0534 245.255C45.7242 245.255 46.311 244.835 46.6184 244.219C46.7023 244.051 46.5067 243.855 46.3669 243.967C46.0595 244.275 45.5844 244.471 45.0814 244.471Z" fill="#FFFFFD"/>
<path d="M95.3574 271.832C95.3574 272.897 94.519 273.737 93.457 273.737C92.395 273.737 91.5566 272.897 91.5566 271.832C91.5566 270.768 92.395 269.928 93.457 269.928C94.519 269.928 95.3574 270.796 95.3574 271.832Z" fill="url(#paint28_radial_724_131655)"/>
<path d="M93.4567 270.908C93.848 270.908 94.2113 271.02 94.5187 271.244C94.6584 271.328 94.8261 271.188 94.7422 271.048C94.4907 270.628 94.0156 270.348 93.4847 270.348C92.9537 270.348 92.4786 270.628 92.2271 271.048C92.1432 271.188 92.3109 271.328 92.4506 271.244C92.7022 271.02 93.0655 270.908 93.4567 270.908Z" fill="#FFFFFD"/>
<path d="M93.4569 272.728C92.9538 272.728 92.5067 272.532 92.1155 272.224C91.9757 272.112 91.7801 272.28 91.8639 272.476C92.1713 273.092 92.7582 273.512 93.4289 273.512C94.0996 273.512 94.6865 273.092 94.9939 272.476C95.0778 272.308 94.8822 272.112 94.7424 272.224C94.435 272.532 93.9599 272.728 93.4569 272.728Z" fill="#FFFFFD"/>
<path d="M293.609 268.052C294.658 268.052 295.509 267.199 295.509 266.147C295.509 265.096 294.658 264.243 293.609 264.243C292.559 264.243 291.708 265.096 291.708 266.147C291.708 267.199 292.559 268.052 293.609 268.052Z" fill="url(#paint29_radial_724_131655)"/>
<path d="M293.609 265.195C294 265.195 294.363 265.307 294.671 265.531C294.81 265.615 294.978 265.475 294.894 265.335C294.643 264.915 294.167 264.635 293.637 264.635C293.106 264.635 292.63 264.915 292.379 265.335C292.295 265.475 292.463 265.615 292.602 265.531C292.854 265.335 293.217 265.195 293.609 265.195Z" fill="#FFFFFD"/>
<path d="M293.609 267.043C293.106 267.043 292.659 266.847 292.267 266.539C292.128 266.427 291.932 266.595 292.016 266.791C292.323 267.407 292.91 267.827 293.581 267.827C294.252 267.827 294.838 267.407 295.146 266.791C295.23 266.623 295.034 266.427 294.894 266.539C294.587 266.847 294.112 267.043 293.609 267.043Z" fill="#FFFFFD"/>
<path d="M162.037 248.42C162.037 249.484 161.199 250.324 160.137 250.324C159.075 250.324 158.236 249.484 158.236 248.42C158.236 247.356 159.075 246.516 160.137 246.516C161.199 246.516 162.037 247.356 162.037 248.42Z" fill="url(#paint30_radial_724_131655)"/>
<path d="M160.165 247.467C160.556 247.467 160.919 247.579 161.227 247.803C161.366 247.887 161.534 247.747 161.45 247.607C161.199 247.187 160.724 246.907 160.193 246.907C159.662 246.907 159.187 247.187 158.935 247.607C158.851 247.747 159.019 247.887 159.159 247.803C159.41 247.607 159.746 247.467 160.165 247.467Z" fill="#FFFFFD"/>
<path d="M160.164 249.288C159.661 249.288 159.214 249.092 158.823 248.784C158.683 248.672 158.488 248.84 158.571 249.036C158.879 249.652 159.466 250.072 160.136 250.072C160.807 250.072 161.394 249.652 161.701 249.036C161.785 248.868 161.59 248.672 161.45 248.784C161.115 249.12 160.639 249.288 160.164 249.288Z" fill="#FFFFFD"/>
<path d="M99.6889 113.044C99.6889 114.108 98.8505 114.948 97.7885 114.948C96.7266 114.948 95.8882 114.108 95.8882 113.044C95.8882 111.98 96.7266 111.14 97.7885 111.14C98.8226 111.14 99.6889 112.008 99.6889 113.044Z" fill="url(#paint31_radial_724_131655)"/>
<path d="M97.7887 112.12C98.18 112.12 98.5433 112.232 98.8507 112.456C98.9904 112.54 99.1581 112.4 99.0743 112.26C98.8228 111.84 98.3477 111.56 97.8167 111.56C97.2857 111.56 96.8106 111.84 96.5591 112.26C96.4753 112.4 96.6429 112.54 96.7827 112.456C97.0342 112.232 97.3975 112.12 97.7887 112.12Z" fill="#FFFFFD"/>
<path d="M97.7884 113.94C97.2854 113.94 96.8382 113.744 96.447 113.436C96.3073 113.324 96.1116 113.492 96.1955 113.688C96.5029 114.304 97.0898 114.724 97.7605 114.724C98.4312 114.724 99.0181 114.304 99.3255 113.688C99.4093 113.52 99.2137 113.324 99.074 113.436C98.7386 113.744 98.2915 113.94 97.7884 113.94Z" fill="#FFFFFD"/>
<path d="M116.401 54.71C116.401 55.7742 115.562 56.6143 114.5 56.6143C113.438 56.6143 112.6 55.7742 112.6 54.71C112.6 53.6458 113.438 52.8057 114.5 52.8057C115.562 52.8057 116.401 53.6458 116.401 54.71Z" fill="url(#paint32_radial_724_131655)"/>
<path d="M114.501 53.7578C114.892 53.7578 115.255 53.8699 115.563 54.0939C115.702 54.1779 115.87 54.0379 115.786 53.8979C115.535 53.4778 115.06 53.1978 114.529 53.1978C113.998 53.1978 113.523 53.4778 113.271 53.8979C113.187 54.0379 113.355 54.1779 113.495 54.0939C113.746 53.8979 114.109 53.7578 114.501 53.7578Z" fill="#FFFFFD"/>
<path d="M114.5 55.5781C113.997 55.5781 113.55 55.3821 113.159 55.074C113.019 54.962 112.824 55.1301 112.907 55.3261C113.215 55.9422 113.802 56.3623 114.472 56.3623C115.143 56.3623 115.73 55.9422 116.037 55.3261C116.121 55.1581 115.926 54.962 115.786 55.074C115.478 55.4101 115.003 55.5781 114.5 55.5781Z" fill="#FFFFFD"/>
<path d="M137.389 135.868C137.389 136.932 136.55 137.773 135.488 137.773C134.426 137.773 133.588 136.932 133.588 135.868C133.588 134.804 134.426 133.964 135.488 133.964C136.522 133.964 137.389 134.832 137.389 135.868Z" fill="url(#paint33_radial_724_131655)"/>
<path d="M135.488 134.944C135.88 134.944 136.243 135.056 136.55 135.28C136.69 135.364 136.858 135.224 136.774 135.084C136.522 134.664 136.047 134.384 135.516 134.384C134.985 134.384 134.51 134.664 134.259 135.084C134.175 135.224 134.343 135.364 134.482 135.28C134.734 135.056 135.097 134.944 135.488 134.944Z" fill="#FFFFFD"/>
<path d="M135.488 136.764C134.985 136.764 134.538 136.568 134.147 136.26C134.007 136.148 133.811 136.316 133.895 136.512C134.203 137.128 134.789 137.549 135.46 137.549C136.131 137.549 136.718 137.128 137.025 136.512C137.109 136.344 136.913 136.148 136.774 136.26C136.438 136.568 135.991 136.764 135.488 136.764Z" fill="#FFFFFD"/>
<path d="M108.939 89.0718C108.939 90.136 108.101 90.9762 107.039 90.9762C105.977 90.9762 105.138 90.136 105.138 89.0718C105.138 88.0076 105.977 87.1675 107.039 87.1675C108.101 87.1675 108.939 88.0356 108.939 89.0718Z" fill="url(#paint34_radial_724_131655)"/>
<path d="M107.039 88.1477C107.43 88.1477 107.793 88.2598 108.101 88.4838C108.24 88.5678 108.408 88.4278 108.324 88.2878C108.073 87.8677 107.598 87.5876 107.067 87.5876C106.536 87.5876 106.061 87.8677 105.809 88.2878C105.725 88.4278 105.893 88.5678 106.033 88.4838C106.284 88.2598 106.647 88.1477 107.039 88.1477Z" fill="#FFFFFD"/>
<path d="M107.038 89.968C106.535 89.968 106.088 89.772 105.697 89.4639C105.557 89.3519 105.362 89.5199 105.445 89.716C105.753 90.3321 106.34 90.7522 107.01 90.7522C107.681 90.7522 108.268 90.3321 108.575 89.716C108.659 89.548 108.464 89.3519 108.324 89.4639C107.989 89.772 107.541 89.968 107.038 89.968Z" fill="#FFFFFD"/>
<path d="M113.495 29.6734C113.495 30.7376 112.656 31.5777 111.594 31.5777C110.532 31.5777 109.694 30.7376 109.694 29.6734C109.694 28.6092 110.532 27.769 111.594 27.769C112.628 27.769 113.495 28.6372 113.495 29.6734Z" fill="url(#paint35_radial_724_131655)"/>
<path d="M111.594 28.7493C111.985 28.7493 112.348 28.8613 112.656 29.0854C112.796 29.1694 112.963 29.0294 112.879 28.8893C112.628 28.4693 112.153 28.1892 111.622 28.1892C111.091 28.1892 110.616 28.4693 110.364 28.8893C110.28 29.0294 110.448 29.1694 110.588 29.0854C110.839 28.8613 111.203 28.7493 111.594 28.7493Z" fill="#FFFFFD"/>
<path d="M111.594 30.5693C111.091 30.5693 110.644 30.3733 110.253 30.0653C110.113 29.9532 109.917 30.1213 110.001 30.3173C110.309 30.9334 110.895 31.3535 111.566 31.3535C112.237 31.3535 112.824 30.9334 113.131 30.3173C113.215 30.1493 113.019 29.9532 112.88 30.0653C112.544 30.3733 112.097 30.5693 111.594 30.5693Z" fill="#FFFFFD"/>
<path d="M199.961 314.68C199.961 316.668 198.34 318.292 196.356 318.292C194.371 318.292 192.75 316.668 192.75 314.68C192.75 312.691 194.371 311.067 196.356 311.067C198.34 311.067 199.961 312.691 199.961 314.68Z" fill="url(#paint36_radial_724_131655)"/>
<path d="M196.356 312.916C197.11 312.916 197.781 313.14 198.34 313.56C198.591 313.728 198.899 313.448 198.731 313.196C198.228 312.384 197.362 311.852 196.328 311.852C195.322 311.852 194.427 312.384 193.924 313.196C193.757 313.448 194.092 313.756 194.315 313.56C194.93 313.14 195.601 312.916 196.356 312.916Z" fill="#FFFFFD"/>
<path d="M196.356 316.36C195.406 316.36 194.54 315.996 193.841 315.408C193.561 315.184 193.198 315.52 193.366 315.856C193.953 317.032 195.071 317.844 196.356 317.844C197.642 317.844 198.759 317.06 199.346 315.856C199.514 315.52 199.151 315.156 198.871 315.408C198.173 315.996 197.306 316.36 196.356 316.36Z" fill="#FFFFFD"/>
<path d="M85.6321 58.7144C85.6321 60.7028 84.0112 62.3271 82.027 62.3271C80.0428 62.3271 78.4219 60.7028 78.4219 58.7144C78.4219 56.7261 80.0428 55.1018 82.027 55.1018C84.0112 55.1018 85.6321 56.6981 85.6321 58.7144Z" fill="url(#paint37_radial_724_131655)"/>
<path d="M82.027 56.9223C82.7815 56.9223 83.4522 57.1464 84.0111 57.5665C84.2627 57.7345 84.5701 57.4544 84.4024 57.2024C83.8994 56.3903 83.033 55.8582 81.999 55.8582C80.9929 55.8582 80.0986 56.3903 79.5956 57.2024C79.4279 57.4544 79.7633 57.7625 79.9869 57.5665C80.6017 57.1744 81.3003 56.9223 82.027 56.9223Z" fill="#FFFFFD"/>
<path d="M82.0274 60.3948C81.0773 60.3948 80.2109 60.0307 79.5123 59.4426C79.2328 59.2186 78.8695 59.5546 79.0372 59.8907C79.624 61.0669 80.7419 61.8791 82.0274 61.8791C83.313 61.8791 84.4308 61.0949 85.0177 59.8907C85.1854 59.5546 84.8221 59.1906 84.5426 59.4426C83.844 60.0307 82.9776 60.3948 82.0274 60.3948Z" fill="#FFFFFD"/>
<path d="M172.573 0.884277C265.076 1.19233 340 76.4416 340 169.222C340 203.304 329.912 235.006 312.529 261.498L172.573 174.039V0.884277Z" fill="url(#paint38_linear_724_131655)"/>
<path d="M282.822 42.6956C317.867 73.557 339.972 118.785 339.972 169.194C339.972 203.276 329.884 234.977 312.501 261.47L172.573 174.039L282.822 42.6956Z" fill="#E9EAEA"/>
<path d="M337.178 199.971C333.042 222.347 324.518 243.155 312.501 261.47L172.573 174.039L337.178 199.971Z" fill="#BCBFBF"/>
<path d="M64.5875 189.441L59.6689 160.316H62.0164L65.8172 183.98L70.2048 160.764H72.4405L76.8839 184.008L80.4331 160.316H82.7248L78.0577 189.441H75.9338L71.3506 165.385L66.7953 189.441H64.5875Z" fill="white"/>
<path d="M89.5156 189.777C88.3139 189.777 87.3078 189.329 86.5253 188.433C85.7428 187.537 85.3516 186.417 85.3516 185.101C85.3516 184.4 85.4075 183.784 85.5192 183.252C85.631 182.72 85.8546 182.188 86.162 181.712C86.4974 181.236 86.8327 180.816 87.224 180.424C87.5873 180.06 88.1462 179.668 88.8449 179.248C89.5435 178.827 90.2422 178.463 90.9408 178.099C91.6395 177.735 92.5617 177.315 93.6796 176.811V175.327C93.6796 173.423 93.5119 172.106 93.1486 171.378C92.7853 170.65 92.1146 170.286 91.1085 170.286C89.2082 170.286 88.258 171.462 88.258 173.843V174.599L85.6869 174.515C85.6869 174.179 85.6869 173.955 85.7149 173.871C85.7987 171.91 86.3017 170.482 87.224 169.614C88.1462 168.746 89.5156 168.298 91.2762 168.298C93.0927 168.298 94.4062 168.858 95.1608 169.922C95.9153 171.014 96.3066 172.75 96.3066 175.159V185.297C96.3066 186.977 96.3625 188.349 96.5022 189.413H94.1826L93.7914 186.529C93.484 187.453 92.953 188.209 92.1984 188.825C91.4439 189.469 90.5496 189.777 89.5156 189.777ZM90.3819 187.509C91.0806 187.509 91.7233 187.257 92.3102 186.781C92.8971 186.305 93.3722 185.717 93.7075 185.045V178.547C93.6516 178.575 93.5399 178.631 93.3722 178.715C92.8133 179.023 92.3661 179.248 92.0587 179.416C91.7513 179.584 91.388 179.78 90.9688 180.032C90.5496 180.284 90.2142 180.48 90.0186 180.648C89.823 180.816 89.5715 181.012 89.292 181.236C89.0125 181.46 88.8169 181.684 88.7051 181.908C88.5933 182.104 88.4536 182.356 88.3418 182.636C88.2021 182.916 88.1183 183.196 88.0903 183.476C88.0344 183.784 88.0344 184.12 88.0344 184.456C88.0344 185.465 88.258 186.249 88.7051 186.725C89.1243 187.257 89.6833 187.509 90.3819 187.509Z" fill="white"/>
<path d="M105.026 189.693C103.629 189.693 102.65 189.301 102.119 188.517C101.588 187.733 101.309 186.585 101.309 185.101V170.37H98.8218V168.606H101.309V162.165H103.936V168.606H107.373V170.37H103.936V184.849C103.936 185.913 104.048 186.613 104.299 187.033C104.551 187.425 105.026 187.621 105.78 187.621C106.256 187.621 106.731 187.565 107.234 187.481V189.469C106.451 189.637 105.725 189.693 105.026 189.693Z" fill="white"/>
<path d="M115.338 189.777C113.354 189.777 111.928 189.161 111.062 187.929C110.196 186.697 109.749 184.597 109.749 181.628V176.363C109.749 174.347 109.944 172.722 110.363 171.546C110.783 170.342 111.369 169.53 112.18 169.054C112.962 168.578 114.024 168.326 115.338 168.326C116.204 168.326 116.959 168.438 117.574 168.662C118.188 168.886 118.691 169.222 119.111 169.642C119.53 170.062 119.837 170.622 120.089 171.35C120.312 172.078 120.48 172.862 120.592 173.731C120.676 174.599 120.731 175.663 120.731 176.895L120.704 178.772H112.375V181.88C112.375 184.036 112.571 185.549 112.99 186.445C113.41 187.341 114.192 187.789 115.31 187.789C116.232 187.789 116.903 187.509 117.406 186.921C117.881 186.333 118.132 185.297 118.132 183.756V182.328H120.704V183.476C120.704 185.493 120.284 187.061 119.446 188.125C118.608 189.217 117.238 189.777 115.338 189.777ZM112.375 177.259H118.16V175.551C118.16 174.823 118.132 174.207 118.105 173.731C118.077 173.255 117.993 172.778 117.881 172.302C117.769 171.826 117.629 171.462 117.406 171.182C117.21 170.902 116.931 170.706 116.595 170.538C116.232 170.37 115.841 170.286 115.338 170.286C114.22 170.286 113.465 170.678 113.018 171.434C112.571 172.218 112.348 173.675 112.348 175.831V177.259H112.375Z" fill="white"/>
<path d="M124.448 189.441V168.634H127.075V171.49C127.69 170.426 128.445 169.67 129.283 169.166C130.121 168.662 130.988 168.41 131.854 168.41C132.05 168.41 132.217 168.41 132.301 168.438V171.294C131.938 171.154 131.519 171.07 131.044 171.07C129.367 171.07 128.053 171.882 127.075 173.507V189.469H124.448V189.441Z" fill="white"/>
<path d="M74.2012 231.197C69.7577 231.197 67.522 228.145 67.522 222.068V210.446C67.522 204.425 69.7577 201.4 74.2012 201.4C76.3531 201.4 77.9739 201.96 79.0639 203.08C80.1258 204.201 80.6847 205.909 80.7127 208.149C80.7127 208.177 80.7127 208.261 80.7127 208.429C80.7127 208.597 80.7127 208.709 80.7127 208.709H78.1416C78.1416 206.861 77.8622 205.545 77.2753 204.761C76.6884 203.977 75.7103 203.585 74.313 203.585C71.5463 203.585 70.1769 205.685 70.1769 209.858V215.347C70.6799 214.871 71.3506 214.478 72.189 214.142C73.0274 213.806 73.9217 213.638 74.8719 213.638C77.1914 213.638 78.8123 214.31 79.7346 215.655C80.6568 216.999 81.1319 219.239 81.1319 222.32C81.048 228.229 78.7564 231.197 74.2012 231.197ZM74.2012 228.985C75.6544 228.985 76.6884 228.509 77.3871 227.529C78.0578 226.549 78.3931 224.98 78.3931 222.824C78.3931 221.956 78.3652 221.2 78.3372 220.612C78.3093 220.023 78.2255 219.435 78.1416 218.847C78.0578 218.259 77.8901 217.783 77.7224 217.419C77.5268 217.055 77.2753 216.747 76.9679 216.439C76.6605 216.159 76.2692 215.935 75.8221 215.823C75.3749 215.711 74.816 215.627 74.2012 215.627C73.4466 215.627 72.6641 215.795 71.9096 216.159C71.155 216.495 70.5681 216.887 70.1489 217.307V222.348C70.1489 224.672 70.4843 226.353 71.1271 227.389C71.7419 228.481 72.7759 228.985 74.2012 228.985Z" fill="white"/>
<path d="M91.584 231.169C89.3204 231.169 87.6715 230.525 86.6655 229.209C85.6594 227.892 85.1284 225.932 85.1284 223.328H87.7554C87.7554 225.204 88.0628 226.632 88.6497 227.612C89.2365 228.593 90.2426 229.069 91.6958 229.069C93.2608 229.069 94.3228 228.481 94.8817 227.304C95.4407 226.128 95.7201 224.224 95.7201 221.647C95.7201 218.987 95.4127 217.111 94.8258 216.018C94.239 214.926 93.2049 214.394 91.7517 214.394C90.2147 214.394 88.9571 215.206 88.0069 216.831H85.7991V201.736H97.0615L97.0056 204.2H88.1187L87.979 214.31C89.013 213.022 90.4662 212.378 92.3945 212.378C94.4625 212.378 95.9716 213.134 96.8939 214.674C97.8161 216.214 98.2912 218.427 98.2912 221.367C98.2912 224.644 97.7602 227.108 96.7262 228.761C95.6642 230.329 93.9595 231.169 91.584 231.169Z" fill="white"/>
<path d="M105.808 216.298C102.902 216.298 101.42 214.45 101.42 210.697V206.665C101.42 204.872 101.756 203.528 102.454 202.576C103.153 201.624 104.243 201.148 105.808 201.148C107.345 201.148 108.463 201.624 109.162 202.548C109.86 203.472 110.196 204.816 110.196 206.581V210.781C110.196 214.45 108.714 216.298 105.808 216.298ZM105.808 214.282C106.563 214.282 107.066 213.974 107.373 213.386C107.68 212.77 107.82 211.93 107.82 210.837V206.553C107.82 205.488 107.68 204.648 107.373 204.088C107.094 203.5 106.563 203.22 105.808 203.22C105.053 203.22 104.522 203.5 104.243 204.088C103.964 204.676 103.824 205.516 103.824 206.581V210.865C103.824 211.958 103.964 212.798 104.271 213.414C104.55 213.974 105.081 214.282 105.808 214.282ZM107.345 230.833L116.511 201.428H118.831L109.693 230.833H107.345ZM120.34 231.029C117.406 231.029 115.953 229.153 115.953 225.428V221.395C115.953 219.603 116.288 218.259 116.987 217.307C117.685 216.354 118.803 215.878 120.34 215.878C121.877 215.878 122.995 216.354 123.694 217.279C124.392 218.203 124.728 219.547 124.728 221.311V225.54C124.728 229.209 123.275 231.029 120.34 231.029ZM118.775 228.116C119.055 228.733 119.586 229.013 120.34 229.013C121.095 229.013 121.598 228.705 121.877 228.088C122.157 227.472 122.324 226.632 122.324 225.512V221.255C122.324 220.163 122.185 219.351 121.877 218.763C121.598 218.175 121.067 217.895 120.34 217.895C119.586 217.895 119.055 218.175 118.775 218.763C118.496 219.351 118.356 220.191 118.356 221.255V225.54C118.356 226.66 118.496 227.5 118.775 228.116Z" fill="white"/>
<path d="M185.54 56.194V34.4622H190.71C191.66 34.4622 192.471 34.6022 193.141 34.8822C193.812 35.1623 194.343 35.5544 194.734 36.0584C195.126 36.5905 195.405 37.1786 195.573 37.8508C195.74 38.5229 195.824 39.307 195.824 40.2032C195.824 41.0153 195.74 41.7434 195.545 42.4156C195.349 43.0877 195.07 43.6758 194.679 44.2079C194.287 44.74 193.756 45.16 193.086 45.4401C192.415 45.7481 191.632 45.8882 190.738 45.8882H187.58V56.194H185.54ZM187.58 44.4039H190.179C191.521 44.4039 192.443 44.0959 193.03 43.4797C193.589 42.8636 193.868 41.7714 193.868 40.2592C193.868 38.5789 193.617 37.4587 193.114 36.8706C192.61 36.2825 191.632 36.0024 190.207 36.0024H187.58V44.4039Z" fill="#282F39"/>
<path d="M198.2 56.194V40.6793H200.156V42.8076C200.631 42.0235 201.162 41.4354 201.805 41.0713C202.448 40.6793 203.062 40.5112 203.705 40.5112C203.845 40.5112 203.985 40.5112 204.041 40.5392V42.6676C203.761 42.5556 203.454 42.4996 203.09 42.4996C201.833 42.4996 200.855 43.1157 200.128 44.3199V56.25H198.2V56.194Z" fill="#282F39"/>
<path d="M211.81 56.082C211.279 56.3341 210.608 56.4741 209.825 56.4741C209.043 56.4741 208.372 56.3341 207.841 56.082C207.31 55.83 206.891 55.4379 206.584 54.9338C206.276 54.4297 206.053 53.8136 205.913 53.1135C205.773 52.4134 205.717 51.5732 205.717 50.593V46.2803C205.717 44.2919 206.025 42.8357 206.64 41.8835C207.254 40.9313 208.316 40.4272 209.853 40.4272C211.39 40.4272 212.452 40.9033 213.067 41.8555C213.682 42.8077 213.961 44.2919 213.961 46.2803V50.593C213.961 51.5732 213.906 52.4134 213.766 53.1135C213.626 53.8136 213.403 54.4297 213.095 54.9338C212.76 55.4379 212.341 55.83 211.81 56.082ZM209.825 54.9618C210.217 54.9618 210.552 54.9058 210.804 54.7378C211.083 54.5977 211.279 54.4017 211.446 54.1777C211.586 53.9536 211.726 53.6456 211.782 53.2535C211.865 52.8614 211.921 52.4694 211.921 52.1053C211.949 51.7412 211.949 51.2652 211.949 50.6771V46.1683C211.949 45.5802 211.949 45.1041 211.921 44.74C211.893 44.3759 211.865 43.9839 211.782 43.5918C211.698 43.1997 211.586 42.8917 211.446 42.6676C211.307 42.4436 211.083 42.2756 210.804 42.1075C210.524 41.9675 210.189 41.8835 209.825 41.8835C209.49 41.8835 209.211 41.9395 208.959 42.0235C208.708 42.1075 208.512 42.2476 208.372 42.4436C208.205 42.6396 208.093 42.8357 207.981 43.0597C207.897 43.2837 207.813 43.5638 207.757 43.9279C207.701 44.2919 207.674 44.628 207.674 44.936C207.674 45.2441 207.646 45.6642 207.646 46.1403V50.6491C207.646 51.1251 207.646 51.5172 207.674 51.8533C207.674 52.1613 207.729 52.5254 207.757 52.8614C207.813 53.2255 207.869 53.5056 207.981 53.7296C208.065 53.9536 208.205 54.1777 208.372 54.3737C208.54 54.5697 208.735 54.7098 208.959 54.7938C209.211 54.9338 209.49 54.9618 209.825 54.9618Z" fill="#282F39"/>
<path d="M220.277 56.39C219.215 56.39 218.517 56.1099 218.098 55.5218C217.706 54.9337 217.483 54.0936 217.483 52.9734V41.9955H215.61V40.6792H217.483V35.8904H219.439V40.6792H222.01V41.9955H219.439V52.8054C219.439 53.5895 219.523 54.1216 219.718 54.4296C219.914 54.7097 220.277 54.8777 220.836 54.8777C221.2 54.8777 221.563 54.8497 221.926 54.7657V56.25C221.339 56.334 220.78 56.39 220.277 56.39Z" fill="#282F39"/>
<path d="M227.962 56.4461C226.481 56.4461 225.419 55.998 224.776 55.0738C224.134 54.1497 223.798 52.5814 223.798 50.369V46.4483C223.798 44.936 223.938 43.7318 224.273 42.8357C224.581 41.9395 225.028 41.3234 225.615 40.9593C226.202 40.5953 227.012 40.4272 227.99 40.4272C228.633 40.4272 229.192 40.5113 229.667 40.6793C230.142 40.8473 230.505 41.0994 230.813 41.4074C231.12 41.7155 231.372 42.1636 231.539 42.6956C231.707 43.2277 231.847 43.8158 231.903 44.488C231.959 45.1321 232.015 45.9162 232.015 46.8404V48.2406H225.783V50.565C225.783 52.1613 225.922 53.3095 226.258 53.9816C226.565 54.6538 227.152 54.9898 227.99 54.9898C228.661 54.9898 229.192 54.7658 229.555 54.3457C229.919 53.9256 230.114 53.1415 230.114 51.9933V50.9291H232.043V51.7973C232.043 53.3095 231.735 54.4577 231.092 55.2699C230.394 56.054 229.388 56.4461 227.962 56.4461ZM225.755 47.1204H230.058V45.8322C230.058 45.3001 230.058 44.852 230.03 44.488C230.002 44.1239 229.947 43.7598 229.863 43.4238C229.779 43.0597 229.667 42.7797 229.527 42.5836C229.388 42.3876 229.164 42.2196 228.913 42.1075C228.661 41.9955 228.326 41.9115 227.962 41.9115C227.152 41.9115 226.565 42.1916 226.23 42.7797C225.894 43.3678 225.755 44.46 225.755 46.0842V47.1204Z" fill="#282F39"/>
<path d="M234.837 38.5508V35.8623H236.793V38.5508H234.837ZM234.837 56.1939V40.6792H236.793V56.1939H234.837Z" fill="#282F39"/>
<path d="M240.063 56.1941V40.6794H242.02V42.3036C243.166 41.0714 244.395 40.4553 245.737 40.4553C246.491 40.4553 247.078 40.7354 247.497 41.3235C247.916 41.8836 248.112 42.7237 248.112 43.7599V56.2221H246.156V44.18C246.156 43.3958 246.044 42.8357 245.792 42.4997C245.569 42.1636 245.178 41.9956 244.675 41.9956C243.836 41.9956 242.942 42.4717 242.02 43.4238V56.2221H240.063V56.1941Z" fill="#282F39"/>
<path d="M200.268 87.1117V67.9843C199.989 68.4044 198.871 68.8805 196.915 69.4126V67.8163C197.557 67.6483 198.2 67.3402 198.927 66.9202C199.653 66.5001 200.212 65.968 200.659 65.3799H202.224V87.1397H200.268V87.1117Z" fill="#282F39"/>
<path d="M212.705 87.3914C209.379 87.3914 207.702 85.123 207.702 80.5862V71.9047C207.702 67.3959 209.351 65.1555 212.705 65.1555C214.325 65.1555 215.527 65.5756 216.338 66.4157C217.12 67.2559 217.539 68.5161 217.567 70.1964C217.567 70.1964 217.567 70.2804 217.567 70.3924C217.567 70.5325 217.567 70.5885 217.567 70.6165H215.639C215.639 69.2442 215.415 68.2361 214.968 67.648C214.521 67.0599 213.794 66.7518 212.76 66.7518C210.692 66.7518 209.686 68.3201 209.686 71.4286V75.5454C210.05 75.1813 210.553 74.9012 211.168 74.6492C211.782 74.3972 212.453 74.2571 213.18 74.2571C214.912 74.2571 216.114 74.7612 216.813 75.7694C217.511 76.7776 217.847 78.4299 217.847 80.7543C217.819 85.1791 216.114 87.3914 212.705 87.3914ZM212.705 85.7391C213.767 85.7391 214.577 85.3751 215.08 84.647C215.583 83.9188 215.835 82.7426 215.835 81.1183C215.835 80.4742 215.835 79.9141 215.807 79.466C215.779 79.018 215.723 78.5979 215.667 78.1498C215.583 77.7017 215.499 77.3657 215.359 77.0856C215.22 76.8056 215.024 76.5815 214.801 76.3575C214.577 76.1335 214.298 75.9934 213.962 75.9094C213.627 75.8254 213.236 75.7694 212.76 75.7694C212.174 75.7694 211.615 75.9094 211.056 76.1615C210.497 76.4135 210.05 76.7216 209.742 77.0016V80.7543C209.742 82.4906 209.994 83.7508 210.469 84.5069C210.888 85.3471 211.671 85.7391 212.705 85.7391Z" fill="#282F39"/>
<path d="M223.408 76.2456C221.228 76.2456 220.138 74.8454 220.138 72.0729V69.0484C220.138 67.7041 220.39 66.696 220.893 65.9958C221.396 65.2957 222.234 64.9316 223.38 64.9316C224.526 64.9316 225.364 65.2677 225.867 65.9678C226.37 66.6679 226.622 67.6481 226.622 68.9644V72.1009C226.678 74.8734 225.588 76.2456 223.408 76.2456ZM223.408 74.7614C223.967 74.7614 224.358 74.5373 224.582 74.0893C224.805 73.6412 224.917 72.9971 224.917 72.1849V68.9924C224.917 68.2082 224.805 67.5921 224.582 67.144C224.358 66.696 223.967 66.4999 223.408 66.4999C222.849 66.4999 222.458 66.724 222.234 67.144C222.011 67.5921 221.927 68.2082 221.927 69.0204V72.2129C221.927 73.0251 222.039 73.6412 222.262 74.1173C222.458 74.5373 222.849 74.7614 223.408 74.7614ZM224.554 87.1116L231.401 65.1837H233.133L226.314 87.1116H224.554ZM234.251 87.2516C232.071 87.2516 230.981 85.8513 230.981 83.0788V80.0543C230.981 78.7381 231.233 77.7019 231.736 77.0018C232.239 76.3017 233.077 75.9376 234.223 75.9376C235.369 75.9376 236.207 76.2736 236.71 76.9738C237.213 77.6739 237.493 78.6541 237.493 79.9703V83.1069C237.521 85.8793 236.431 87.2516 234.251 87.2516ZM233.077 85.0672C233.301 85.5153 233.692 85.7393 234.251 85.7393C234.81 85.7393 235.201 85.5153 235.397 85.0672C235.621 84.6191 235.732 83.975 235.732 83.1629V79.9703C235.732 79.1582 235.621 78.542 235.397 78.122C235.173 77.7019 234.782 77.4779 234.251 77.4779C233.692 77.4779 233.301 77.7019 233.077 78.15C232.854 78.5981 232.77 79.2142 232.77 79.9983V83.1909C232.77 84.003 232.882 84.6191 233.077 85.0672Z" fill="#282F39"/>
<path d="M264.237 123.91V102.15H272.034V103.69H266.277V111.868H271.056V113.38H266.277V123.91H264.237Z" fill="#282F39"/>
<path d="M276.813 124.162C275.919 124.162 275.164 123.826 274.577 123.154C273.99 122.482 273.711 121.67 273.711 120.662C273.711 120.157 273.739 119.681 273.851 119.289C273.934 118.869 274.102 118.505 274.354 118.141C274.577 117.777 274.857 117.469 275.136 117.189C275.416 116.909 275.807 116.629 276.338 116.321C276.869 116.013 277.372 115.733 277.903 115.453C278.434 115.201 279.105 114.864 279.943 114.5V113.38C279.943 111.952 279.803 110.972 279.552 110.44C279.272 109.908 278.769 109.628 278.043 109.628C276.617 109.628 275.919 110.524 275.919 112.288V112.848L273.99 112.792C273.99 112.54 273.99 112.372 273.99 112.316C274.046 110.86 274.438 109.796 275.136 109.123C275.835 108.451 276.841 108.143 278.154 108.143C279.524 108.143 280.474 108.535 281.061 109.376C281.648 110.188 281.927 111.504 281.927 113.296V120.858C281.927 122.118 281.983 123.126 282.067 123.938H280.334L280.055 121.782C279.831 122.454 279.412 123.042 278.853 123.49C278.266 123.938 277.595 124.162 276.813 124.162ZM277.456 122.482C277.987 122.482 278.462 122.314 278.881 121.95C279.328 121.586 279.664 121.166 279.915 120.662V115.817C279.859 115.845 279.775 115.901 279.664 115.957C279.244 116.181 278.909 116.349 278.685 116.489C278.462 116.601 278.182 116.769 277.875 116.937C277.568 117.105 277.316 117.273 277.148 117.385C277.009 117.497 276.813 117.665 276.617 117.833C276.422 118.001 276.254 118.169 276.17 118.337C276.086 118.477 275.975 118.673 275.891 118.869C275.807 119.065 275.723 119.289 275.695 119.513C275.667 119.737 275.639 119.989 275.639 120.269C275.639 121.026 275.807 121.586 276.142 121.978C276.506 122.286 276.953 122.482 277.456 122.482Z" fill="#282F39"/>
<path d="M288.383 124.106C287.321 124.106 286.622 123.826 286.203 123.238C285.812 122.65 285.588 121.81 285.588 120.689V109.684H283.716V108.395H285.588V103.606H287.544V108.395H290.116V109.712H287.544V120.521C287.544 121.306 287.628 121.838 287.824 122.146C288.02 122.426 288.383 122.594 288.942 122.594C289.305 122.594 289.668 122.566 290.032 122.482V123.966C289.445 124.05 288.914 124.106 288.383 124.106Z" fill="#282F39"/>
<path d="M260.325 154.8V135.672C260.045 136.092 258.927 136.568 256.971 137.101V135.504C257.614 135.336 258.257 135.028 258.983 134.608C259.71 134.188 260.269 133.656 260.716 133.068H262.281V154.828H260.325V154.8Z" fill="#282F39"/>
<path d="M272.481 155.08C269.1 155.08 267.395 153.035 267.395 148.975C267.395 148.247 267.451 147.603 267.591 147.014C267.73 146.426 267.87 145.95 268.066 145.586C268.233 145.222 268.485 144.886 268.792 144.578C269.1 144.27 269.379 144.046 269.603 143.878C269.854 143.71 270.134 143.57 270.497 143.374C268.569 142.59 267.619 140.881 267.619 138.277C267.619 136.597 268.01 135.252 268.792 134.272C269.575 133.292 270.804 132.816 272.481 132.816C274.158 132.816 275.388 133.32 276.17 134.3C276.953 135.28 277.344 136.625 277.344 138.333C277.344 140.909 276.394 142.59 274.438 143.374C274.801 143.542 275.08 143.738 275.332 143.878C275.583 144.018 275.835 144.27 276.142 144.578C276.45 144.886 276.701 145.222 276.869 145.586C277.064 145.95 277.204 146.426 277.344 147.014C277.484 147.603 277.54 148.247 277.54 148.975C277.568 153.035 275.863 155.08 272.481 155.08ZM270.106 152.391C270.637 153.12 271.419 153.484 272.481 153.484C273.543 153.484 274.354 153.119 274.857 152.363C275.388 151.635 275.639 150.487 275.639 148.947C275.639 146.006 274.577 144.466 272.481 144.298C270.357 144.466 269.295 146.034 269.295 148.947C269.295 150.515 269.575 151.663 270.106 152.391ZM272.481 142.506C274.438 142.422 275.416 140.993 275.416 138.277C275.416 135.7 274.438 134.412 272.481 134.412C270.525 134.412 269.547 135.7 269.547 138.277C269.547 140.993 270.525 142.422 272.481 142.506Z" fill="#282F39"/>
<path d="M283.269 143.962C281.089 143.962 279.999 142.561 279.999 139.789V136.764C279.999 135.42 280.251 134.412 280.754 133.712C281.257 133.012 282.095 132.648 283.241 132.648C284.387 132.648 285.225 132.984 285.728 133.684C286.231 134.384 286.483 135.364 286.483 136.68V139.817C286.538 142.589 285.449 143.962 283.269 143.962ZM283.269 142.449C283.828 142.449 284.219 142.225 284.442 141.777C284.666 141.329 284.778 140.685 284.778 139.873V136.68C284.778 135.896 284.666 135.28 284.442 134.832C284.219 134.384 283.828 134.188 283.269 134.188C282.71 134.188 282.319 134.412 282.095 134.832C281.871 135.28 281.788 135.896 281.788 136.708V139.901C281.788 140.713 281.899 141.329 282.123 141.805C282.347 142.225 282.738 142.449 283.269 142.449ZM284.442 154.8L291.289 132.872H293.022L286.203 154.8H284.442ZM294.14 154.968C291.96 154.968 290.87 153.567 290.87 150.795V147.77C290.87 146.454 291.122 145.418 291.625 144.718C292.128 144.018 292.966 143.654 294.112 143.654C295.258 143.654 296.096 143.99 296.599 144.69C297.102 145.39 297.382 146.37 297.382 147.686V150.823C297.41 153.595 296.32 154.968 294.14 154.968ZM292.966 152.783C293.19 153.231 293.581 153.455 294.14 153.455C294.699 153.455 295.09 153.231 295.286 152.783C295.509 152.335 295.621 151.691 295.621 150.879V147.686C295.621 146.874 295.509 146.258 295.286 145.838C295.062 145.418 294.671 145.194 294.14 145.194C293.581 145.194 293.19 145.418 292.966 145.866C292.743 146.314 292.659 146.93 292.659 147.714V150.907C292.631 151.691 292.743 152.335 292.966 152.783Z" fill="#282F39"/>
<path d="M256.077 219.435L256.524 201.624H258.145L261.666 217.082L265.215 201.624H266.892L267.339 219.435H265.942L265.606 205.236L262.225 219.435H261.163L257.809 205.264L257.474 219.435H256.077Z" fill="#282F39"/>
<path d="M270.134 204.956V202.771H271.755V204.956H270.134ZM270.134 219.434V206.692H271.727V219.406H270.134V219.434Z" fill="#282F39"/>
<path d="M274.41 219.435V206.692H276.003V208.009C276.925 207 277.959 206.496 279.049 206.496C279.664 206.496 280.167 206.72 280.502 207.196C280.837 207.673 281.005 208.345 281.005 209.213V219.435H279.412V209.577C279.412 208.933 279.328 208.485 279.105 208.205C278.909 207.925 278.602 207.785 278.182 207.785C277.484 207.785 276.757 208.177 276.003 208.961V219.435H274.41Z" fill="#282F39"/>
<path d="M286.538 219.631C285.336 219.631 284.442 219.267 283.911 218.51C283.38 217.754 283.101 216.466 283.101 214.646V211.425C283.101 210.193 283.212 209.213 283.492 208.485C283.743 207.757 284.107 207.252 284.61 206.944C285.085 206.664 285.755 206.496 286.538 206.496C287.069 206.496 287.516 206.552 287.907 206.692C288.271 206.832 288.606 207.028 288.858 207.28C289.109 207.533 289.305 207.897 289.444 208.317C289.584 208.765 289.696 209.241 289.752 209.773C289.808 210.305 289.836 210.949 289.836 211.705L289.808 212.853H284.721V214.758C284.721 216.074 284.833 216.998 285.113 217.558C285.364 218.09 285.839 218.37 286.538 218.37C287.097 218.37 287.516 218.202 287.824 217.838C288.131 217.474 288.271 216.83 288.271 215.906V215.038H289.836V215.738C289.836 216.97 289.584 217.922 289.081 218.594C288.55 219.295 287.712 219.631 286.538 219.631ZM284.721 211.985H288.243V210.921C288.243 210.473 288.243 210.109 288.215 209.801C288.187 209.493 288.159 209.213 288.075 208.933C288.019 208.653 287.907 208.401 287.796 208.261C287.684 208.093 287.516 207.953 287.293 207.869C287.069 207.757 286.817 207.729 286.538 207.729C285.867 207.729 285.392 207.953 285.113 208.429C284.833 208.905 284.721 209.801 284.721 211.117V211.985Z" fill="#282F39"/>
<path d="M292.127 219.435V206.692H293.72V208.429C294.112 207.785 294.559 207.309 295.062 207C295.593 206.692 296.096 206.524 296.627 206.524C296.767 206.524 296.85 206.524 296.906 206.552V208.289C296.683 208.205 296.431 208.149 296.152 208.149C295.118 208.149 294.307 208.653 293.72 209.633V219.407H292.127V219.435Z" fill="#282F39"/>
<path d="M300.707 219.631C299.953 219.631 299.366 219.351 298.891 218.819C298.416 218.258 298.164 217.586 298.164 216.774C298.164 216.354 298.192 215.99 298.276 215.654C298.332 215.318 298.471 215.01 298.667 214.702C298.863 214.422 299.086 214.142 299.31 213.918C299.533 213.694 299.869 213.442 300.288 213.19C300.707 212.937 301.154 212.685 301.574 212.489C301.993 212.265 302.552 212.013 303.25 211.705V210.781C303.25 209.605 303.139 208.793 302.915 208.373C302.691 207.925 302.272 207.701 301.685 207.701C300.512 207.701 299.925 208.429 299.925 209.885V210.361L298.332 210.305C298.332 210.109 298.332 209.969 298.332 209.913C298.388 208.709 298.695 207.841 299.254 207.308C299.813 206.776 300.651 206.496 301.741 206.496C302.859 206.496 303.642 206.832 304.117 207.505C304.592 208.177 304.815 209.241 304.815 210.697V216.886C304.815 217.922 304.843 218.763 304.927 219.407H303.502L303.278 217.642C303.083 218.202 302.747 218.678 302.3 219.043C301.853 219.407 301.322 219.631 300.707 219.631ZM301.21 218.258C301.629 218.258 302.021 218.118 302.384 217.81C302.747 217.502 303.027 217.166 303.222 216.746V212.769C303.194 212.797 303.111 212.825 303.027 212.881C302.691 213.077 302.412 213.218 302.216 213.302C302.021 213.414 301.797 213.526 301.546 213.666C301.294 213.806 301.098 213.946 300.959 214.03C300.847 214.142 300.679 214.254 300.512 214.394C300.344 214.534 300.232 214.674 300.148 214.786C300.064 214.898 300.009 215.066 299.925 215.234C299.841 215.402 299.785 215.57 299.757 215.766C299.729 215.962 299.729 216.158 299.729 216.382C299.729 216.998 299.869 217.474 300.148 217.782C300.456 218.09 300.791 218.258 301.21 218.258Z" fill="#282F39"/>
<path d="M307.415 219.435V201.624H309.035V219.435H307.415Z" fill="#282F39"/>
<path d="M294.559 242.455C293.162 242.455 292.156 242.063 291.541 241.251C290.926 240.439 290.619 239.262 290.619 237.638H292.212C292.212 238.786 292.407 239.655 292.771 240.271C293.134 240.859 293.749 241.167 294.615 241.167C295.565 241.167 296.208 240.803 296.571 240.075C296.907 239.346 297.102 238.198 297.102 236.602C297.102 234.978 296.935 233.83 296.571 233.157C296.208 232.485 295.565 232.149 294.671 232.149C293.721 232.149 292.966 232.653 292.379 233.633H291.038V224.392H297.941L297.913 225.904H292.463L292.379 232.093C292.994 231.309 293.916 230.917 295.09 230.917C296.348 230.917 297.27 231.393 297.857 232.317C298.416 233.241 298.695 234.614 298.695 236.406C298.695 238.394 298.388 239.907 297.745 240.915C297.046 241.951 296.012 242.455 294.559 242.455Z" fill="#282F39"/>
<path d="M303.251 233.353C301.462 233.353 300.568 232.205 300.568 229.937V227.472C300.568 226.38 300.763 225.54 301.211 224.98C301.63 224.392 302.301 224.112 303.251 224.112C304.201 224.112 304.872 224.392 305.291 224.952C305.71 225.512 305.934 226.352 305.934 227.416V229.993C305.934 232.233 305.039 233.353 303.251 233.353ZM303.251 232.121C303.698 232.121 304.033 231.925 304.201 231.561C304.397 231.197 304.48 230.665 304.48 229.993V227.36C304.48 226.716 304.397 226.212 304.229 225.848C304.061 225.484 303.726 225.316 303.279 225.316C302.832 225.316 302.496 225.484 302.328 225.848C302.161 226.212 302.077 226.716 302.077 227.36V229.965C302.077 230.637 302.161 231.141 302.356 231.505C302.496 231.953 302.804 232.121 303.251 232.121ZM304.201 242.259L309.818 224.28H311.243L305.654 242.259H304.201ZM312.138 242.371C310.349 242.371 309.455 241.223 309.455 238.926V236.462C309.455 235.37 309.678 234.529 310.098 233.969C310.517 233.381 311.215 233.101 312.138 233.101C313.088 233.101 313.759 233.381 314.178 233.941C314.597 234.501 314.821 235.342 314.821 236.406V238.982C314.821 241.251 313.926 242.371 312.138 242.371ZM311.188 240.578C311.355 240.943 311.691 241.139 312.138 241.139C312.585 241.139 312.92 240.943 313.088 240.578C313.256 240.214 313.367 239.682 313.367 239.01V236.406C313.367 235.734 313.283 235.23 313.088 234.893C312.92 234.529 312.585 234.361 312.138 234.361C311.663 234.361 311.355 234.529 311.188 234.893C311.02 235.258 310.936 235.762 310.936 236.406V239.01C310.908 239.71 311.02 240.214 311.188 240.578Z" fill="#282F39"/>
</g>
<defs>
<filter id="filter0_d_724_131655" x="0" y="0.856201" width="344" height="344.676" filterUnits="userSpaceOnUse" color-interpolation-filters="sRGB">
<feFlood flood-opacity="0" result="BackgroundImageFix"/>
<feColorMatrix in="SourceAlpha" type="matrix" values="0 0 0 0 0 0 0 0 0 0 0 0 0 0 0 0 0 0 127 0" result="hardAlpha"/>
<feOffset dy="4"/>
<feGaussianBlur stdDeviation="2"/>
<feComposite in2="hardAlpha" operator="out"/>
<feColorMatrix type="matrix" values="0 0 0 0 0 0 0 0 0 0 0 0 0 0 0 0 0 0 0.25 0"/>
<feBlend mode="normal" in2="BackgroundImageFix" result="effect1_dropShadow_724_131655"/>
<feBlend mode="normal" in="SourceGraphic" in2="effect1_dropShadow_724_131655" result="shape"/>
</filter>
<linearGradient id="paint0_linear_724_131655" x1="171.996" y1="-8.62599" x2="171.996" y2="376.845" gradientUnits="userSpaceOnUse">
<stop stop-color="#25AAE2"/>
<stop offset="0.2043" stop-color="#25BCE2"/>
<stop offset="0.3871" stop-color="#25AAE2"/>
<stop offset="1" stop-color="#0072B9"/>
</linearGradient>
<radialGradient id="paint1_radial_724_131655" cx="0" cy="0" r="1" gradientUnits="userSpaceOnUse" gradientTransform="translate(73.7698 255.267) scale(5.13432 5.14507)">
<stop stop-color="#25AAE2"/>
<stop offset="0.1345" stop-color="#2AACE3"/>
<stop offset="0.2911" stop-color="#38B2E5"/>
<stop offset="0.4586" stop-color="#4FBCE9"/>
<stop offset="0.6339" stop-color="#70C9EE"/>
<stop offset="0.8152" stop-color="#9ADBF4"/>
<stop offset="1" stop-color="#CDF0FC"/>
</radialGradient>
<radialGradient id="paint2_radial_724_131655" cx="0" cy="0" r="1" gradientUnits="userSpaceOnUse" gradientTransform="translate(267.948 275.34) scale(5.13432 5.14507)">
<stop stop-color="#25AAE2"/>
<stop offset="0.1345" stop-color="#2AACE3"/>
<stop offset="0.2911" stop-color="#38B2E5"/>
<stop offset="0.4586" stop-color="#4FBCE9"/>
<stop offset="0.6339" stop-color="#70C9EE"/>
<stop offset="0.8152" stop-color="#9ADBF4"/>
<stop offset="1" stop-color="#CDF0FC"/>
</radialGradient>
<radialGradient id="paint3_radial_724_131655" cx="0" cy="0" r="1" gradientUnits="userSpaceOnUse" gradientTransform="translate(141.352 23.5179) scale(5.1346 5.14535)">
<stop stop-color="#25AAE2"/>
<stop offset="0.1345" stop-color="#2AACE3"/>
<stop offset="0.2911" stop-color="#38B2E5"/>
<stop offset="0.4586" stop-color="#4FBCE9"/>
<stop offset="0.6339" stop-color="#70C9EE"/>
<stop offset="0.8152" stop-color="#9ADBF4"/>
<stop offset="1" stop-color="#CDF0FC"/>
</radialGradient>
<radialGradient id="paint4_radial_724_131655" cx="0" cy="0" r="1" gradientUnits="userSpaceOnUse" gradientTransform="translate(41.4177 113.05) scale(5.13432 5.14507)">
<stop stop-color="#25AAE2"/>
<stop offset="0.1345" stop-color="#2AACE3"/>
<stop offset="0.2911" stop-color="#38B2E5"/>
<stop offset="0.4586" stop-color="#4FBCE9"/>
<stop offset="0.6339" stop-color="#70C9EE"/>
<stop offset="0.8152" stop-color="#9ADBF4"/>
<stop offset="1" stop-color="#CDF0FC"/>
</radialGradient>
<radialGradient id="paint5_radial_724_131655" cx="0" cy="0" r="1" gradientUnits="userSpaceOnUse" gradientTransform="translate(200.517 257.612) scale(5.13432 5.14507)">
<stop stop-color="#25AAE2"/>
<stop offset="0.1345" stop-color="#2AACE3"/>
<stop offset="0.2911" stop-color="#38B2E5"/>
<stop offset="0.4586" stop-color="#4FBCE9"/>
<stop offset="0.6339" stop-color="#70C9EE"/>
<stop offset="0.8152" stop-color="#9ADBF4"/>
<stop offset="1" stop-color="#CDF0FC"/>
</radialGradient>
<radialGradient id="paint6_radial_724_131655" cx="0" cy="0" r="1" gradientUnits="userSpaceOnUse" gradientTransform="translate(144.154 231.429) scale(3.65651 3.66417)">
<stop stop-color="#25AAE2"/>
<stop offset="0.1345" stop-color="#2AACE3"/>
<stop offset="0.2911" stop-color="#38B2E5"/>
<stop offset="0.4586" stop-color="#4FBCE9"/>
<stop offset="0.6339" stop-color="#70C9EE"/>
<stop offset="0.8152" stop-color="#9ADBF4"/>
<stop offset="1" stop-color="#CDF0FC"/>
</radialGradient>
<radialGradient id="paint7_radial_724_131655" cx="0" cy="0" r="1" gradientUnits="userSpaceOnUse" gradientTransform="translate(91.4253 146.834) scale(3.65651 3.66416)">
<stop stop-color="#25AAE2"/>
<stop offset="0.1345" stop-color="#2AACE3"/>
<stop offset="0.2911" stop-color="#38B2E5"/>
<stop offset="0.4586" stop-color="#4FBCE9"/>
<stop offset="0.6339" stop-color="#70C9EE"/>
<stop offset="0.8152" stop-color="#9ADBF4"/>
<stop offset="1" stop-color="#CDF0FC"/>
</radialGradient>
<radialGradient id="paint8_radial_724_131655" cx="0" cy="0" r="1" gradientUnits="userSpaceOnUse" gradientTransform="translate(151.194 63.0276) scale(3.65679 3.66445)">
<stop stop-color="#25AAE2"/>
<stop offset="0.1345" stop-color="#2AACE3"/>
<stop offset="0.2911" stop-color="#38B2E5"/>
<stop offset="0.4586" stop-color="#4FBCE9"/>
<stop offset="0.6339" stop-color="#70C9EE"/>
<stop offset="0.8152" stop-color="#9ADBF4"/>
<stop offset="1" stop-color="#CDF0FC"/>
</radialGradient>
<radialGradient id="paint9_radial_724_131655" cx="0" cy="0" r="1" gradientUnits="userSpaceOnUse" gradientTransform="translate(36.7782 159.548) scale(3.65651 3.66416)">
<stop stop-color="#25AAE2"/>
<stop offset="0.1345" stop-color="#2AACE3"/>
<stop offset="0.2911" stop-color="#38B2E5"/>
<stop offset="0.4586" stop-color="#4FBCE9"/>
<stop offset="0.6339" stop-color="#70C9EE"/>
<stop offset="0.8152" stop-color="#9ADBF4"/>
<stop offset="1" stop-color="#CDF0FC"/>
</radialGradient>
<radialGradient id="paint10_radial_724_131655" cx="0" cy="0" r="1" gradientUnits="userSpaceOnUse" gradientTransform="translate(149.777 168.391) scale(2.8047 2.81058)">
<stop stop-color="#25AAE2"/>
<stop offset="0.1345" stop-color="#2AACE3"/>
<stop offset="0.2911" stop-color="#38B2E5"/>
<stop offset="0.4586" stop-color="#4FBCE9"/>
<stop offset="0.6339" stop-color="#70C9EE"/>
<stop offset="0.8152" stop-color="#9ADBF4"/>
<stop offset="1" stop-color="#CDF0FC"/>
</radialGradient>
<radialGradient id="paint11_radial_724_131655" cx="0" cy="0" r="1" gradientUnits="userSpaceOnUse" gradientTransform="translate(129.617 87.8544) scale(2.8047 2.81058)">
<stop stop-color="#25AAE2"/>
<stop offset="0.1345" stop-color="#2AACE3"/>
<stop offset="0.2911" stop-color="#38B2E5"/>
<stop offset="0.4586" stop-color="#4FBCE9"/>
<stop offset="0.6339" stop-color="#70C9EE"/>
<stop offset="0.8152" stop-color="#9ADBF4"/>
<stop offset="1" stop-color="#CDF0FC"/>
</radialGradient>
<radialGradient id="paint12_radial_724_131655" cx="0" cy="0" r="1" gradientUnits="userSpaceOnUse" gradientTransform="translate(154.032 109.543) scale(2.80498 2.81086)">
<stop stop-color="#25AAE2"/>
<stop offset="0.1345" stop-color="#2AACE3"/>
<stop offset="0.2911" stop-color="#38B2E5"/>
<stop offset="0.4586" stop-color="#4FBCE9"/>
<stop offset="0.6339" stop-color="#70C9EE"/>
<stop offset="0.8152" stop-color="#9ADBF4"/>
<stop offset="1" stop-color="#CDF0FC"/>
</radialGradient>
<radialGradient id="paint13_radial_724_131655" cx="0" cy="0" r="1" gradientUnits="userSpaceOnUse" gradientTransform="translate(203.986 222.911) scale(2.8047 2.81058)">
<stop stop-color="#25AAE2"/>
<stop offset="0.1345" stop-color="#2AACE3"/>
<stop offset="0.2911" stop-color="#38B2E5"/>
<stop offset="0.4586" stop-color="#4FBCE9"/>
<stop offset="0.6339" stop-color="#70C9EE"/>
<stop offset="0.8152" stop-color="#9ADBF4"/>
<stop offset="1" stop-color="#CDF0FC"/>
</radialGradient>
<radialGradient id="paint14_radial_724_131655" cx="0" cy="0" r="1" gradientUnits="userSpaceOnUse" gradientTransform="translate(129.686 283.862) scale(2.8047 2.81058)">
<stop stop-color="#25AAE2"/>
<stop offset="0.1345" stop-color="#2AACE3"/>
<stop offset="0.2911" stop-color="#38B2E5"/>
<stop offset="0.4586" stop-color="#4FBCE9"/>
<stop offset="0.6339" stop-color="#70C9EE"/>
<stop offset="0.8152" stop-color="#9ADBF4"/>
<stop offset="1" stop-color="#CDF0FC"/>
</radialGradient>
<radialGradient id="paint15_radial_724_131655" cx="0" cy="0" r="1" gradientUnits="userSpaceOnUse" gradientTransform="translate(241.558 298.64) scale(2.8047 2.81058)">
<stop stop-color="#25AAE2"/>
<stop offset="0.1345" stop-color="#2AACE3"/>
<stop offset="0.2911" stop-color="#38B2E5"/>
<stop offset="0.4586" stop-color="#4FBCE9"/>
<stop offset="0.6339" stop-color="#70C9EE"/>
<stop offset="0.8152" stop-color="#9ADBF4"/>
<stop offset="1" stop-color="#CDF0FC"/>
</radialGradient>
<radialGradient id="paint16_radial_724_131655" cx="0" cy="0" r="1" gradientUnits="userSpaceOnUse" gradientTransform="translate(31.4012 199.831) scale(2.80498 2.81086)">
<stop stop-color="#25AAE2"/>
<stop offset="0.1345" stop-color="#2AACE3"/>
<stop offset="0.2911" stop-color="#38B2E5"/>
<stop offset="0.4586" stop-color="#4FBCE9"/>
<stop offset="0.6339" stop-color="#70C9EE"/>
<stop offset="0.8152" stop-color="#9ADBF4"/>
<stop offset="1" stop-color="#CDF0FC"/>
</radialGradient>
<radialGradient id="paint17_radial_724_131655" cx="0" cy="0" r="1" gradientUnits="userSpaceOnUse" gradientTransform="translate(61.3669 84.756) scale(1.8984 1.90237)">
<stop stop-color="#25AAE2"/>
<stop offset="0.1345" stop-color="#2AACE3"/>
<stop offset="0.2911" stop-color="#38B2E5"/>
<stop offset="0.4586" stop-color="#4FBCE9"/>
<stop offset="0.6339" stop-color="#70C9EE"/>
<stop offset="0.8152" stop-color="#9ADBF4"/>
<stop offset="1" stop-color="#CDF0FC"/>
</radialGradient>
<radialGradient id="paint18_radial_724_131655" cx="0" cy="0" r="1" gradientUnits="userSpaceOnUse" gradientTransform="translate(149.719 313.903) scale(1.89812 1.9021)">
<stop stop-color="#25AAE2"/>
<stop offset="0.1345" stop-color="#2AACE3"/>
<stop offset="0.2911" stop-color="#38B2E5"/>
<stop offset="0.4586" stop-color="#4FBCE9"/>
<stop offset="0.6339" stop-color="#70C9EE"/>
<stop offset="0.8152" stop-color="#9ADBF4"/>
<stop offset="1" stop-color="#CDF0FC"/>
</radialGradient>
<radialGradient id="paint19_radial_724_131655" cx="0" cy="0" r="1" gradientUnits="userSpaceOnUse" gradientTransform="translate(102.729 302.041) scale(1.89812 1.9021)">
<stop stop-color="#25AAE2"/>
<stop offset="0.1345" stop-color="#2AACE3"/>
<stop offset="0.2911" stop-color="#38B2E5"/>
<stop offset="0.4586" stop-color="#4FBCE9"/>
<stop offset="0.6339" stop-color="#70C9EE"/>
<stop offset="0.8152" stop-color="#9ADBF4"/>
<stop offset="1" stop-color="#CDF0FC"/>
</radialGradient>
<radialGradient id="paint20_radial_724_131655" cx="0" cy="0" r="1" gradientUnits="userSpaceOnUse" gradientTransform="translate(56.9217 193.444) scale(1.89812 1.9021)">
<stop stop-color="#25AAE2"/>
<stop offset="0.1345" stop-color="#2AACE3"/>
<stop offset="0.2911" stop-color="#38B2E5"/>
<stop offset="0.4586" stop-color="#4FBCE9"/>
<stop offset="0.6339" stop-color="#70C9EE"/>
<stop offset="0.8152" stop-color="#9ADBF4"/>
<stop offset="1" stop-color="#CDF0FC"/>
</radialGradient>
<radialGradient id="paint21_radial_724_131655" cx="0" cy="0" r="1" gradientUnits="userSpaceOnUse" gradientTransform="translate(186.175 197.553) scale(1.8984 1.90238)">
<stop stop-color="#25AAE2"/>
<stop offset="0.1345" stop-color="#2AACE3"/>
<stop offset="0.2911" stop-color="#38B2E5"/>
<stop offset="0.4586" stop-color="#4FBCE9"/>
<stop offset="0.6339" stop-color="#70C9EE"/>
<stop offset="0.8152" stop-color="#9ADBF4"/>
<stop offset="1" stop-color="#CDF0FC"/>
</radialGradient>
<radialGradient id="paint22_radial_724_131655" cx="0" cy="0" r="1" gradientUnits="userSpaceOnUse" gradientTransform="translate(57.3967 141.402) scale(1.89812 1.9021)">
<stop stop-color="#25AAE2"/>
<stop offset="0.1345" stop-color="#2AACE3"/>
<stop offset="0.2911" stop-color="#38B2E5"/>
<stop offset="0.4586" stop-color="#4FBCE9"/>
<stop offset="0.6339" stop-color="#70C9EE"/>
<stop offset="0.8152" stop-color="#9ADBF4"/>
<stop offset="1" stop-color="#CDF0FC"/>
</radialGradient>
<radialGradient id="paint23_radial_724_131655" cx="0" cy="0" r="1" gradientUnits="userSpaceOnUse" gradientTransform="translate(153.358 207.519) scale(1.89812 1.9021)">
<stop stop-color="#25AAE2"/>
<stop offset="0.1345" stop-color="#2AACE3"/>
<stop offset="0.2911" stop-color="#38B2E5"/>
<stop offset="0.4586" stop-color="#4FBCE9"/>
<stop offset="0.6339" stop-color="#70C9EE"/>
<stop offset="0.8152" stop-color="#9ADBF4"/>
<stop offset="1" stop-color="#CDF0FC"/>
</radialGradient>
<radialGradient id="paint24_radial_724_131655" cx="0" cy="0" r="1" gradientUnits="userSpaceOnUse" gradientTransform="translate(160.151 281.584) scale(1.89812 1.9021)">
<stop stop-color="#25AAE2"/>
<stop offset="0.1345" stop-color="#2AACE3"/>
<stop offset="0.2911" stop-color="#38B2E5"/>
<stop offset="0.4586" stop-color="#4FBCE9"/>
<stop offset="0.6339" stop-color="#70C9EE"/>
<stop offset="0.8152" stop-color="#9ADBF4"/>
<stop offset="1" stop-color="#CDF0FC"/>
</radialGradient>
<radialGradient id="paint25_radial_724_131655" cx="0" cy="0" r="1" gradientUnits="userSpaceOnUse" gradientTransform="translate(217.575 287.228) scale(1.89812 1.9021)">
<stop stop-color="#25AAE2"/>
<stop offset="0.1345" stop-color="#2AACE3"/>
<stop offset="0.2911" stop-color="#38B2E5"/>
<stop offset="0.4586" stop-color="#4FBCE9"/>
<stop offset="0.6339" stop-color="#70C9EE"/>
<stop offset="0.8152" stop-color="#9ADBF4"/>
<stop offset="1" stop-color="#CDF0FC"/>
</radialGradient>
<radialGradient id="paint26_radial_724_131655" cx="0" cy="0" r="1" gradientUnits="userSpaceOnUse" gradientTransform="translate(246.935 235.818) scale(1.89812 1.9021)">
<stop stop-color="#25AAE2"/>
<stop offset="0.1345" stop-color="#2AACE3"/>
<stop offset="0.2911" stop-color="#38B2E5"/>
<stop offset="0.4586" stop-color="#4FBCE9"/>
<stop offset="0.6339" stop-color="#70C9EE"/>
<stop offset="0.8152" stop-color="#9ADBF4"/>
<stop offset="1" stop-color="#CDF0FC"/>
</radialGradient>
<radialGradient id="paint27_radial_724_131655" cx="0" cy="0" r="1" gradientUnits="userSpaceOnUse" gradientTransform="translate(45.0863 243.577) scale(1.89812 1.9021)">
<stop stop-color="#25AAE2"/>
<stop offset="0.1345" stop-color="#2AACE3"/>
<stop offset="0.2911" stop-color="#38B2E5"/>
<stop offset="0.4586" stop-color="#4FBCE9"/>
<stop offset="0.6339" stop-color="#70C9EE"/>
<stop offset="0.8152" stop-color="#9ADBF4"/>
<stop offset="1" stop-color="#CDF0FC"/>
</radialGradient>
<radialGradient id="paint28_radial_724_131655" cx="0" cy="0" r="1" gradientUnits="userSpaceOnUse" gradientTransform="translate(93.4659 271.833) scale(1.89812 1.9021)">
<stop stop-color="#25AAE2"/>
<stop offset="0.1345" stop-color="#2AACE3"/>
<stop offset="0.2911" stop-color="#38B2E5"/>
<stop offset="0.4586" stop-color="#4FBCE9"/>
<stop offset="0.6339" stop-color="#70C9EE"/>
<stop offset="0.8152" stop-color="#9ADBF4"/>
<stop offset="1" stop-color="#CDF0FC"/>
</radialGradient>
<radialGradient id="paint29_radial_724_131655" cx="0" cy="0" r="1" gradientUnits="userSpaceOnUse" gradientTransform="translate(293.616 266.142) scale(1.89812 1.9021)">
<stop stop-color="#25AAE2"/>
<stop offset="0.1345" stop-color="#2AACE3"/>
<stop offset="0.2911" stop-color="#38B2E5"/>
<stop offset="0.4586" stop-color="#4FBCE9"/>
<stop offset="0.6339" stop-color="#70C9EE"/>
<stop offset="0.8152" stop-color="#9ADBF4"/>
<stop offset="1" stop-color="#CDF0FC"/>
</radialGradient>
<radialGradient id="paint30_radial_724_131655" cx="0" cy="0" r="1" gradientUnits="userSpaceOnUse" gradientTransform="translate(160.151 248.414) scale(1.89812 1.9021)">
<stop stop-color="#25AAE2"/>
<stop offset="0.1345" stop-color="#2AACE3"/>
<stop offset="0.2911" stop-color="#38B2E5"/>
<stop offset="0.4586" stop-color="#4FBCE9"/>
<stop offset="0.6339" stop-color="#70C9EE"/>
<stop offset="0.8152" stop-color="#9ADBF4"/>
<stop offset="1" stop-color="#CDF0FC"/>
</radialGradient>
<radialGradient id="paint31_radial_724_131655" cx="0" cy="0" r="1" gradientUnits="userSpaceOnUse" gradientTransform="translate(97.7785 113.05) scale(1.89812 1.9021)">
<stop stop-color="#25AAE2"/>
<stop offset="0.1345" stop-color="#2AACE3"/>
<stop offset="0.2911" stop-color="#38B2E5"/>
<stop offset="0.4586" stop-color="#4FBCE9"/>
<stop offset="0.6339" stop-color="#70C9EE"/>
<stop offset="0.8152" stop-color="#9ADBF4"/>
<stop offset="1" stop-color="#CDF0FC"/>
</radialGradient>
<radialGradient id="paint32_radial_724_131655" cx="0" cy="0" r="1" gradientUnits="userSpaceOnUse" gradientTransform="translate(114.51 54.7022) scale(1.89812 1.9021)">
<stop stop-color="#25AAE2"/>
<stop offset="0.1345" stop-color="#2AACE3"/>
<stop offset="0.2911" stop-color="#38B2E5"/>
<stop offset="0.4586" stop-color="#4FBCE9"/>
<stop offset="0.6339" stop-color="#70C9EE"/>
<stop offset="0.8152" stop-color="#9ADBF4"/>
<stop offset="1" stop-color="#CDF0FC"/>
</radialGradient>
<radialGradient id="paint33_radial_724_131655" cx="0" cy="0" r="1" gradientUnits="userSpaceOnUse" gradientTransform="translate(135.485 135.869) scale(1.89812 1.9021)">
<stop stop-color="#25AAE2"/>
<stop offset="0.1345" stop-color="#2AACE3"/>
<stop offset="0.2911" stop-color="#38B2E5"/>
<stop offset="0.4586" stop-color="#4FBCE9"/>
<stop offset="0.6339" stop-color="#70C9EE"/>
<stop offset="0.8152" stop-color="#9ADBF4"/>
<stop offset="1" stop-color="#CDF0FC"/>
</radialGradient>
<radialGradient id="paint34_radial_724_131655" cx="0" cy="0" r="1" gradientUnits="userSpaceOnUse" gradientTransform="translate(107.041 89.0777) scale(1.89812 1.9021)">
<stop stop-color="#25AAE2"/>
<stop offset="0.1345" stop-color="#2AACE3"/>
<stop offset="0.2911" stop-color="#38B2E5"/>
<stop offset="0.4586" stop-color="#4FBCE9"/>
<stop offset="0.6339" stop-color="#70C9EE"/>
<stop offset="0.8152" stop-color="#9ADBF4"/>
<stop offset="1" stop-color="#CDF0FC"/>
</radialGradient>
<radialGradient id="paint35_radial_724_131655" cx="0" cy="0" r="1" gradientUnits="userSpaceOnUse" gradientTransform="translate(111.591 29.6795) scale(1.89812 1.9021)">
<stop stop-color="#25AAE2"/>
<stop offset="0.1345" stop-color="#2AACE3"/>
<stop offset="0.2911" stop-color="#38B2E5"/>
<stop offset="0.4586" stop-color="#4FBCE9"/>
<stop offset="0.6339" stop-color="#70C9EE"/>
<stop offset="0.8152" stop-color="#9ADBF4"/>
<stop offset="1" stop-color="#CDF0FC"/>
</radialGradient>
<radialGradient id="paint36_radial_724_131655" cx="0" cy="0" r="1" gradientUnits="userSpaceOnUse" gradientTransform="translate(196.354 314.678) scale(3.60146 3.609)">
<stop stop-color="#25AAE2"/>
<stop offset="0.1345" stop-color="#2AACE3"/>
<stop offset="0.2911" stop-color="#38B2E5"/>
<stop offset="0.4586" stop-color="#4FBCE9"/>
<stop offset="0.6339" stop-color="#70C9EE"/>
<stop offset="0.8152" stop-color="#9ADBF4"/>
<stop offset="1" stop-color="#CDF0FC"/>
</radialGradient>
<radialGradient id="paint37_radial_724_131655" cx="0" cy="0" r="1" gradientUnits="userSpaceOnUse" gradientTransform="translate(82.0345 58.7058) scale(3.60174 3.60928)">
<stop stop-color="#25AAE2"/>
<stop offset="0.1345" stop-color="#2AACE3"/>
<stop offset="0.2911" stop-color="#38B2E5"/>
<stop offset="0.4586" stop-color="#4FBCE9"/>
<stop offset="0.6339" stop-color="#70C9EE"/>
<stop offset="0.8152" stop-color="#9ADBF4"/>
<stop offset="1" stop-color="#CDF0FC"/>
</radialGradient>
<linearGradient id="paint38_linear_724_131655" x1="127.401" y1="-78.4268" x2="365.149" y2="340.084" gradientUnits="userSpaceOnUse">
<stop stop-color="#E9EAEA"/>
<stop offset="0.6738" stop-color="#CACBCD"/>
<stop offset="1" stop-color="#ACAEB1"/>
</linearGradient>
</defs>
</svg>
