<svg width="399" height="407" viewBox="0 0 399 407" fill="none" xmlns="http://www.w3.org/2000/svg">
<path d="M268.77 212.082C262.301 213.658 255.582 214.985 253.426 215.4L251.933 227.841C252.348 227.841 252.68 227.841 252.845 227.841C253.675 227.841 270.594 222.284 270.594 222.284C278.722 219.049 287.431 215.898 288.758 215.4L287.099 207.687C286.685 208.35 273.248 210.838 268.77 212.082Z" fill="#FFC3B5"/>
<path d="M221.246 122.342C217.347 123.918 213.615 121.015 204.824 126.489C194.207 133.041 199.267 138.764 189.729 136.94C166.672 132.71 151.66 151.454 157.134 166.798C166.174 192.509 184.918 193.836 196.115 191.679C209.634 189.108 211.791 176.667 217.265 174.096C222.738 171.608 228.212 181.478 237.668 174.511C264.872 154.606 266.696 136.276 248.947 129.724C241.317 127.07 240.57 114.38 221.246 122.342Z" fill="black"/>
<path d="M304.102 103.432C357.1 110.399 399.482 121.015 398.653 127.153C403.131 93.2307 363.818 60.0551 310.737 53.0882C257.739 46.1213 211.127 67.9343 206.649 101.773C207.478 95.7189 251.104 96.4654 304.102 103.432Z" fill="#62BDF3"/>
<path d="M247.952 219.298C247.952 219.298 243.722 206.028 243.556 204.452C243.39 202.959 245.049 193.587 245.049 193.587L243.971 175.091C243.971 175.091 259.563 211.004 260.558 218.552L247.952 219.298Z" fill="#FFC3B5"/>
<path d="M191.47 369.169L185.333 374.809C184.503 375.472 182.181 376.799 181.518 377.546C179.029 380.117 195.12 386.586 193.627 382.937C193.461 382.605 193.212 379.702 194.041 378.707C195.203 377.214 197.442 375.141 197.442 375.141L191.47 369.169Z" fill="#FFC3B5"/>
<path d="M193.627 382.854C193.627 382.854 190.144 381.029 188.568 379.868C186.992 378.707 186.826 375.307 185.417 374.726C183.841 374.145 177.288 380.864 177.288 380.864C177.288 380.864 190.061 394.714 196.779 399.359C198.189 400.354 199.931 400.022 200.594 400.022C202.917 400.188 197.36 390.153 193.627 382.854Z" fill="#3797DB"/>
<path d="M268.77 380.117C268.77 380.117 270.678 389.323 270.678 389.406C270.761 390.65 270.843 393.636 271.092 394.714C272.171 398.696 287.68 386.669 283.284 386.006C282.87 385.923 280.879 385.176 280.216 383.932C279.054 381.776 277.893 377.878 277.893 377.878L268.77 380.117Z" fill="#FFC3B5"/>
<path d="M283.202 385.923C283.202 385.923 279.386 388.245 277.396 389.075C275.405 389.904 271.673 387.499 270.346 388.66C268.936 389.821 271.258 400.437 271.258 400.437C271.258 400.437 297.799 393.387 303.522 389.738C305.761 388.245 292.325 386.503 283.202 385.923Z" fill="#3797DB"/>
<path d="M254.421 253.469L270.926 319.323L281.376 383.103L268.438 384.845C268.438 384.845 250.191 336.076 249.694 330.437C249.196 324.797 239.99 298.588 239.99 298.588L254.421 253.469Z" fill="#92BB6D"/>
<path d="M216.021 245.839C216.021 245.839 217.265 308.955 216.27 314.844C215.274 320.733 187.656 370.745 187.656 370.745L196.945 380.864C196.945 380.864 236.424 335.081 238.165 331.017C240.902 324.714 254.339 253.303 254.339 253.303L216.021 245.839Z" fill="#9ED16F"/>
<path d="M227.632 171.359C227.632 171.359 215.938 170.613 211.376 175.672C206.731 180.731 221.577 220.459 222.49 226.846C223.319 233.232 215.606 246.005 215.606 246.005C215.606 246.005 247.703 261.017 255.582 255.874C255.582 255.874 254.338 204.618 253.509 200.056C252.68 195.495 245.713 176.916 243.971 175.092C242.229 173.184 227.632 171.359 227.632 171.359Z" fill="#3797DB"/>
<path d="M229.871 155.186C229.871 155.186 229.788 155.518 229.705 156.181C229.125 159.084 227.051 168.622 225.641 171.276C223.9 174.428 231.53 184.547 238.911 183.385C241.068 183.054 237.087 174.096 237.253 173.101C237.584 171.276 238.165 168.788 238.663 166.3C238.994 164.89 239.243 163.397 239.492 162.07C240.239 158.172 240.902 155.02 240.902 155.02L229.871 155.186Z" fill="#FFC3B5"/>
<path d="M229.622 156.181C229.705 155.601 229.788 155.186 229.788 155.186L240.819 154.937C240.819 154.937 240.155 158.089 239.409 161.987C239.16 163.314 238.828 164.807 238.58 166.217C236.838 165.968 235.096 165.139 233.354 163.646C231.447 161.987 230.12 159.997 229.373 157.84C229.456 157.177 229.539 156.596 229.622 156.181Z" fill="#E69886"/>
<path d="M237.254 130.802C237.254 130.802 232.029 130.222 228.794 134.286C225.56 138.35 221.993 151.039 230.121 157.923C238.249 164.807 246.211 157.011 247.373 148.717C248.534 140.589 249.031 130.553 237.254 130.802Z" fill="#FFC3B5"/>
<path d="M249.776 148.717C248.781 150.542 247.205 151.537 246.127 150.956C245.132 150.376 245.049 148.468 246.044 146.643C247.039 144.819 248.615 143.823 249.693 144.404C250.689 144.902 250.772 146.892 249.776 148.717Z" fill="#FFC3B5"/>
<path d="M237.834 129.475C237.834 129.475 230.867 141.501 225.891 142.082C220.914 142.662 220.251 149.049 220.251 149.049C220.251 149.049 221.992 134.286 226.969 131.466C231.945 128.563 237.834 129.475 237.834 129.475Z" fill="black"/>
<path d="M227.218 145.068C227.633 147.224 226.804 149.132 225.394 149.463C223.984 149.712 222.491 148.219 222.159 146.063C221.744 143.906 222.574 141.999 223.984 141.667C225.394 141.335 226.804 142.994 227.218 145.068Z" fill="#FFC3B5"/>
<path d="M353.202 123.421C354.197 121.762 355.358 120.186 356.519 118.61C357.681 117.034 358.925 115.541 360.169 114.048C361.413 112.556 362.74 111.146 364.067 109.653C365.394 108.243 366.804 106.833 368.214 105.589C367.219 107.247 366.057 108.823 364.896 110.399C363.735 111.975 362.491 113.468 361.247 114.961C360.003 116.454 358.676 117.864 357.349 119.357C356.105 120.684 354.695 122.094 353.202 123.421Z" fill="white"/>
<path d="M210.464 162.402C210.464 162.402 196.364 137.023 192.964 131.631C189.563 126.24 180.606 104.842 180.274 104.013C179.942 103.183 186.411 93.0648 185.002 92.6501C183.592 92.3183 181.933 97.9582 180.44 97.2947C178.864 96.6312 174.385 82.9462 173.556 83.6097C171.897 84.8538 175.961 92.0695 175.132 92.5672C174.219 92.9819 171.565 84.605 169.907 84.8538C168.165 85.1026 173.141 92.5672 172.726 93.2307C172.229 93.8942 167.087 86.8444 166.091 88.3373C165.594 89.1667 170.819 94.4748 169.824 94.9724C168.828 95.47 164.101 92.0695 163.603 93.0648C163.106 94.0601 167.916 95.3871 169.409 98.0411C170.819 100.695 173.307 101.856 174.302 106.833C175.298 111.809 176.873 129.641 182.099 138.598C187.324 147.556 198.852 167.295 198.852 167.295L210.464 162.402Z" fill="#FFC3B5"/>
<path d="M206.566 154.191C206.566 154.191 222.158 171.028 224.48 177.829C226.803 184.63 222.241 194.333 215.938 194.748C209.634 195.163 195.535 164.807 195.535 164.807L206.566 154.191Z" fill="#3797DB"/>
<path d="M287.017 208.267L288.51 215.566C289.754 215.317 292.906 214.57 294.564 214.239L292.242 204.452L292.325 204.037C292.325 203.954 292.408 203.871 292.408 203.705C292.574 203.208 292.989 202.71 293.155 202.461C293.486 202.13 293.818 201.632 294.067 201.3C294.399 200.968 293.818 199.559 293.403 199.144C292.989 198.729 291.993 200.72 291.579 201.217C290.252 202.71 287.432 207.355 286.934 208.101L287.017 208.267Z" fill="#FFC3B5"/>
<path d="M305.43 103.598C312.977 104.593 320.276 105.672 327.326 106.75C325.501 89.7473 321.437 68.7637 318.368 54.1664C316.295 53.8347 314.221 53.5029 312.065 53.1711C309.991 52.9223 307.835 52.6735 305.762 52.5076C298.961 65.8608 289.671 85.0198 283.451 101.027C290.501 101.773 297.882 102.603 305.43 103.598Z" fill="#3799D3"/>
<path d="M253.012 98.4558C271.259 67.5195 299.458 53.8345 303.024 52.1758C291.993 51.3464 281.294 51.6781 271.341 53.171C245.382 66.1095 228.047 84.3561 217.597 98.4558C225.476 97.6264 237.834 97.6264 253.012 98.4558Z" fill="#3799D3"/>
<path d="M356.271 112.058C370.951 115.044 382.812 118.195 390.442 121.015C383.973 104.676 371.947 82.7803 350.383 63.6213C341.093 59.6403 330.892 56.4886 320.027 54.4151C323.013 56.9862 346.733 77.4722 356.271 112.058Z" fill="#3799D3"/>
<path d="M304.102 103.349C251.104 96.3823 207.478 95.6358 206.648 101.69C205.819 107.745 248.201 118.361 301.199 125.411C354.197 132.378 397.823 133.124 398.653 127.07C399.482 120.932 357.1 110.316 304.102 103.349Z" fill="black"/>
<path d="M306.018 103.755L290.721 219.611L293.023 219.915L308.32 104.059L306.018 103.755Z" fill="#002E5E"/>
<path d="M297.549 227.592C302.36 228.173 306.673 224.689 307.336 219.962L307.668 217.639C307.834 216.395 306.921 215.234 305.677 215.068C304.433 214.902 303.272 215.815 303.106 217.059L302.775 219.381C302.443 221.62 300.452 223.279 298.213 223.03C295.891 222.782 294.232 220.708 294.564 218.386L296.471 203.706C296.554 203.042 296.139 202.544 295.476 202.461L293.154 202.13C292.49 202.047 291.91 202.461 291.91 203.125L290.002 217.805C289.338 222.533 292.739 227.011 297.549 227.592Z" fill="#293241"/>
<path d="M298.712 211.668C298.96 211.17 299.126 210.672 299.209 210.092C299.292 209.511 299.375 208.765 299.292 208.433C299.209 208.267 299.375 207.852 299.458 207.438C299.458 207.272 299.541 207.189 299.541 207.023C299.541 206.608 299.458 206.194 299.292 205.862C299.126 205.53 299.126 205.115 299.126 204.452C299.126 203.954 299.043 203.457 298.795 203.042C298.546 202.627 297.468 202.71 297.219 202.876C295.975 203.457 291.745 204.286 291.828 206.608C291.911 208.599 292.242 210.755 292.076 211.585C291.828 212.663 293.155 213.492 294.067 213.741C295.892 214.239 297.633 214.073 298.712 211.668Z" fill="#FFC3B5"/>
<path d="M243.971 141.92C244.013 142.383 243.676 142.804 243.2 142.846C242.737 142.888 242.316 142.551 242.274 142.075C242.232 141.612 242.568 141.191 243.045 141.149C243.508 141.121 243.929 141.457 243.971 141.92Z" fill="#333333"/>
<path d="M240.927 140.209C241.193 139.831 241.572 139.55 241.993 139.354C242.414 139.157 242.891 139.059 243.368 139.087C243.845 139.115 244.322 139.242 244.714 139.508C244.925 139.62 245.079 139.788 245.262 139.929C245.416 140.097 245.556 140.279 245.682 140.462C245.472 140.378 245.276 140.265 245.093 140.181L244.799 140.055C244.757 140.041 244.7 140.013 244.658 139.999L244.518 139.957C244.139 139.802 243.747 139.746 243.354 139.718C242.961 139.69 242.568 139.732 242.161 139.831C241.755 139.915 241.348 140.041 240.927 140.209Z" fill="#282828"/>
<path d="M235.181 141.92C235.223 142.383 234.886 142.804 234.409 142.846C233.946 142.888 233.526 142.551 233.483 142.074C233.441 141.612 233.778 141.191 234.255 141.149C234.718 141.121 235.139 141.457 235.181 141.92Z" fill="#333333"/>
<path d="M232.138 140.209C232.404 139.831 232.783 139.55 233.204 139.354C233.625 139.157 234.102 139.059 234.579 139.087C235.056 139.115 235.533 139.242 235.925 139.508C236.136 139.62 236.29 139.788 236.472 139.929C236.627 140.097 236.767 140.279 236.893 140.462C236.683 140.378 236.486 140.265 236.304 140.181L236.01 140.055C235.967 140.041 235.911 140.013 235.869 139.999L235.729 139.957C235.35 139.802 234.957 139.746 234.565 139.718C234.172 139.69 233.779 139.732 233.372 139.831C232.966 139.915 232.559 140.041 232.138 140.209Z" fill="#282828"/>
<path d="M241.916 151.769C241.562 153.164 239.988 154.186 238.114 154.149C236.239 154.112 234.7 153.033 234.382 151.639L241.916 151.769Z" fill="white"/>
<path d="M238.95 142.703C239.312 143.284 239.611 143.882 239.894 144.495C240.177 145.109 240.413 145.754 240.602 146.398C240.696 146.729 240.775 147.059 240.791 147.436C240.791 147.531 240.791 147.625 240.775 147.719C240.775 147.767 240.759 147.83 240.743 147.877C240.728 147.94 240.712 147.987 240.665 148.034C240.649 148.065 240.618 148.097 240.602 148.113L240.555 148.16C240.523 148.191 240.492 148.223 240.444 148.254C240.366 148.301 240.303 148.364 240.224 148.396C239.925 148.584 239.611 148.71 239.28 148.82C238.95 148.93 238.635 149.025 238.289 149.072C238.903 148.789 239.516 148.49 240.035 148.113C240.098 148.065 240.161 148.018 240.224 147.971L240.303 147.892L240.35 147.861C240.35 147.845 240.35 147.845 240.366 147.845C240.413 147.782 240.413 147.609 240.397 147.468C240.366 147.153 240.287 146.839 240.193 146.524C240.02 145.895 239.8 145.25 239.579 144.621C239.375 143.992 239.155 143.347 238.95 142.703Z" fill="#D19369"/>
<path d="M59.1279 358.234C55.9982 350.097 52.9521 341.96 50.7405 333.531C43.9388 307.534 45.5662 288.548 45.8166 279.451C45.8583 278.241 43.9388 277.908 43.7719 279.159C43.1877 283.457 43.0625 287.797 43.0208 292.095C42.9791 299.397 43.3964 306.7 44.3561 314.002C39.3487 315.296 34.6335 313.335 30.7527 309.83C24.0763 303.779 21.6978 295.725 20.6546 286.754C20.5294 285.836 20.5294 284.96 19.7783 284.459C19.6113 284 18.9437 283.833 18.7768 284.542C17.7336 285.627 18.2343 287.839 18.4012 289.216C20.6128 308.244 32.1298 317.466 41.4351 317.382C42.4366 317.382 43.6885 317.341 44.8151 317.007C45.4828 321.555 46.3591 326.062 47.4023 330.568C49.4052 339.081 52.2427 347.301 55.3306 355.48C65.9295 383.354 69.3095 397.584 72.3139 405.637C72.7729 407.265 75.1514 406.597 74.7342 404.928C74.5673 404.385 66.3051 376.928 59.1279 358.234Z" fill="black"/>
<path d="M101.607 285.001C101.524 284.417 101.148 284 101.023 283.457C100.856 282.706 99.6462 282.623 99.521 283.457C99.4376 283.916 99.1872 284.208 99.1038 284.667C98.7699 286.211 99.5628 294.891 97.5181 308.16C96.9756 311.707 96.3914 315.212 95.223 318.551C93.3453 323.975 89.8819 329.859 85.5839 333.573C85.4587 325.811 84.9997 318.05 84.0399 310.33C83.4975 305.698 82.7881 301.108 81.9118 296.518C81.4945 294.307 81.0355 292.053 80.5765 289.842C80.0758 287.505 79.575 285.293 78.4901 283.207C78.1563 282.581 77.1965 282.873 77.1965 283.583C77.1965 285.627 77.6138 287.547 78.0311 289.55C78.4484 291.553 78.8656 293.556 79.2412 295.558C81.9952 310.414 83.0384 323.6 83.0384 338.497C78.4901 332.78 74.5259 325.895 71.5632 319.135C68.0163 311.04 65.6378 302.318 64.6364 293.472C64.3443 291.01 64.1773 288.506 64.1356 286.003C64.0939 284.709 64.0939 283.416 64.0522 282.122C64.0522 281.454 63.8018 279.451 62.6751 280.036C61.6319 280.578 61.7571 281.788 61.6737 282.831C61.5902 284 61.5902 285.126 61.5902 286.253C61.6319 288.465 61.7154 290.676 61.924 292.846C63.3845 308.745 69.3934 324.476 78.4901 337.328C79.8671 339.29 81.3276 341.376 82.9967 343.087C82.6212 368.541 78.8239 400.672 78.7822 403.259C78.7822 403.843 78.9074 404.385 78.9908 404.97C79.1577 406.138 80.6599 405.846 80.9938 404.97C81.578 403.3 81.5362 402.633 82.3708 393.369C83.9147 376.803 85.6673 338.914 85.6673 337.37C91.0502 333.489 94.8892 327.48 97.3929 321.263C98.7282 317.966 99.4793 314.545 100.064 310.998C101.983 298.98 101.941 286.962 101.607 285.001Z" fill="black"/>
<path d="M64.47 264.221C64.6787 262.385 64.7621 260.507 64.7621 258.587C64.7621 237.306 51.576 220.072 35.3021 220.072C19.0281 220.072 5.84204 237.306 5.84204 258.587C5.84204 260.507 5.96723 262.385 6.13414 264.221H64.47Z" fill="#155F36"/>
<path d="M97.8111 254.748C98.0197 252.161 98.1032 249.532 98.1032 246.82C98.1032 216.818 84.9171 192.49 68.6431 192.49C52.3692 192.49 39.1831 216.818 39.1831 246.82C39.1831 249.491 39.3083 252.161 39.4752 254.748H97.8111Z" fill="#3C9665"/>
<path d="M39.8498 288.047C39.5994 285.46 39.4742 282.831 39.4742 280.119C39.4742 250.117 56.2072 225.789 76.8209 225.789C97.4346 225.789 114.168 250.117 114.168 280.119C114.168 282.79 114.042 285.46 113.792 288.047H39.8498Z" fill="#3C9665"/>
<path d="M68.5593 225.789C58.2524 225.789 49.0305 233.509 42.9382 245.61C39.8503 244.483 36.5538 243.899 33.1321 243.899C14.8552 243.899 0 261.133 0 282.414C0 284.334 0.125184 286.211 0.333825 288.047H101.316C101.566 285.46 101.65 282.831 101.65 280.119C101.691 250.117 86.8362 225.789 68.5593 225.789Z" fill="#3C9665"/>
<path d="M327.107 26.0367C327.98 22.1724 331.47 19.2431 335.584 19.2431C336.332 19.2431 337.08 19.3677 337.765 19.5547C339.822 15.1918 344.247 12.1378 349.421 12.1378C350.729 12.1378 352.038 12.3247 353.222 12.6987C355.965 8.0865 361.013 5.03247 366.81 5.03247C373.666 5.03247 379.462 9.39537 381.706 15.4411C383.264 14.5685 385.072 14.0699 387.004 14.0699C392.987 14.0699 397.849 18.9314 397.849 24.9148C397.849 25.2888 397.849 25.6004 397.786 25.9744H327.107V26.0367Z" fill="#96D1E8"/>
<path d="M6.29053 147.103C7.28776 142.678 11.2144 139.437 15.9512 139.437C16.8238 139.437 17.6341 139.562 18.4443 139.749C20.7504 134.762 25.7989 131.335 31.6577 131.335C33.1535 131.335 34.6494 131.584 36.0206 132.02C39.1369 126.785 44.871 123.294 51.4154 123.294C59.2062 123.294 65.8129 128.218 68.306 135.136C70.0512 134.139 72.108 133.578 74.2894 133.578C81.0831 133.578 86.6302 139.125 86.6302 145.919C86.6302 146.293 86.6302 146.729 86.5679 147.103H6.29053Z" fill="#96D1E8"/>
<path d="M115.489 9.875C106.563 9.875 99.3555 17.1081 99.3555 26.0085C99.3555 34.9345 106.589 42.142 115.489 42.142C124.415 42.142 131.622 34.9089 131.622 26.0085C131.648 17.1081 124.415 9.875 115.489 9.875Z" fill="#FFE458"/>
<path d="M115.489 9.875C106.563 9.875 99.3551 17.1081 99.3551 26.0085C99.3551 34.9345 106.588 42.142 115.489 42.142C124.415 42.142 131.622 34.9089 131.622 26.0085C131.648 17.1081 124.415 9.875 115.489 9.875ZM114.924 41.0904C106.588 41.0904 99.8424 34.3446 99.8424 26.0085C99.8424 17.6724 106.588 10.9266 114.924 10.9266C123.26 10.9266 130.006 17.6724 130.006 26.0085C130.006 34.3446 123.26 41.0904 114.924 41.0904Z" fill="#FFE458"/>
<path d="M117.258 4.53995C117.258 5.43768 116.591 6.18152 115.745 6.18152C114.898 6.18152 114.231 5.43768 114.231 4.53995V1.64156C114.231 0.743834 114.898 0 115.745 0C116.591 0 117.258 0.743834 117.258 1.64156V4.53995Z" fill="#FFE458"/>
<path d="M117.258 48.6827C117.258 49.5804 116.591 50.3242 115.745 50.3242C114.898 50.3242 114.231 49.5804 114.231 48.6827V45.7843C114.231 44.8865 114.898 44.1427 115.745 44.1427C116.591 44.1427 117.258 44.8865 117.258 45.7843V48.6827Z" fill="#FFE458"/>
<path d="M136.367 26.6754C135.47 26.6754 134.726 26.0086 134.726 25.1621C134.726 24.3157 135.47 23.6488 136.367 23.6488H139.266C140.164 23.6488 140.907 24.3157 140.907 25.1621C140.907 26.0086 140.164 26.6754 139.266 26.6754H136.367Z" fill="#FFE458"/>
<path d="M92.2243 26.6754C91.3266 26.6754 90.5828 26.0086 90.5828 25.1621C90.5828 24.3157 91.3266 23.6488 92.2243 23.6488H95.1227C96.0204 23.6488 96.7643 24.3157 96.7643 25.1621C96.7643 26.0086 96.0204 26.6754 95.1227 26.6754H92.2243Z" fill="#FFE458"/>
<path d="M131.391 11.6449C130.749 12.2861 129.749 12.3118 129.159 11.7218C128.569 11.1319 128.595 10.1316 129.236 9.49033L131.288 7.43838C131.929 6.79714 132.93 6.74584 133.52 7.36143C134.109 7.95137 134.058 8.95169 133.443 9.59293L131.391 11.6449Z" fill="#FFE458"/>
<path d="M100.176 42.8602C99.5346 43.5015 98.5342 43.5528 97.9443 42.9372C97.3544 42.3472 97.4057 41.3469 98.0212 40.7057L100.073 38.6537C100.714 38.0125 101.715 37.9612 102.305 38.5768C102.895 39.1667 102.869 40.167 102.228 40.8083L100.176 42.8602Z" fill="#FFE458"/>
<path d="M129.262 40.834C128.621 40.1928 128.595 39.1924 129.185 38.6025C129.775 38.0126 130.775 38.0639 131.416 38.6794L133.468 40.7314C134.11 41.3726 134.161 42.373 133.545 42.9629C132.955 43.5528 131.955 43.5272 131.314 42.886L129.262 40.834Z" fill="#FFE458"/>
<path d="M98.0463 9.59291C97.405 8.95167 97.3794 7.95135 97.9693 7.36141C98.5592 6.77147 99.5596 6.82277 100.201 7.43836L102.253 9.49031C102.894 10.1315 102.945 11.1319 102.33 11.7218C101.74 12.3118 100.739 12.2861 100.098 11.6449L98.0463 9.59291Z" fill="#FFE458"/>
<mask id="mask0_724_138948" style="mask-type:alpha" maskUnits="userSpaceOnUse" x="100" y="11" width="25" height="17">
<path d="M105.153 14.7485C108.128 11.6962 115.823 9.64423 121.287 12.6965C126.724 15.7488 124.929 21.5456 116.182 21.2121C107.436 20.8787 102.152 24.0592 101.485 26.7781C100.793 29.5226 97.7918 22.3151 105.153 14.7485Z" fill="url(#paint0_radial_724_138948)"/>
</mask>
<g mask="url(#mask0_724_138948)">
<path d="M105.152 14.7485C108.128 11.6962 115.823 9.64423 121.286 12.6965C126.724 15.7488 124.928 21.5456 116.182 21.2121C107.435 20.8787 102.151 24.0592 101.485 26.7781C100.792 29.5226 97.791 22.3151 105.152 14.7485Z" fill="#FFE458"/>
</g>
<path d="M155.586 51.3581C154.838 48.1171 151.971 45.7487 148.543 45.7487C147.92 45.7487 147.297 45.811 146.736 45.998C145.053 42.383 141.376 39.8276 137.075 39.8276C135.953 39.8276 134.894 40.0146 133.896 40.3262C131.59 36.5243 127.414 33.9689 122.615 33.9689C116.943 33.9689 112.082 37.5838 110.274 42.6323C108.966 41.8844 107.47 41.5105 105.912 41.5105C100.925 41.5105 96.8741 45.5617 96.8741 50.5479C96.8741 50.8595 96.8741 51.1088 96.9365 51.4205H155.586V51.3581Z" fill="#96D1E8"/>
<defs>
<radialGradient id="paint0_radial_724_138948" cx="0" cy="0" r="1" gradientUnits="userSpaceOnUse" gradientTransform="translate(111.861 12.6565) scale(16.7938)">
<stop offset="0.2627" stop-color="white"/>
<stop offset="0.7268" stop-color="white"/>
<stop offset="0.9716"/>
</radialGradient>
</defs>
</svg>
