<svg width="438" height="366" viewBox="0 0 438 366" fill="none" xmlns="http://www.w3.org/2000/svg">
<path d="M406.232 365.865L431.883 65.3427C431.883 53.1922 418.923 43.2018 402.992 43.2018H325.094C297.418 18.7658 263.801 5.40027 227.62 5.40027C191.438 5.40027 157.822 18.7658 130.146 43.3368H52.3826C36.3169 43.3368 5.40063 53.1922 5.40063 65.3427L31.0517 365.865H406.232Z" fill="#D7E9FF"/>
<path d="M334.274 103.144C336.164 106.924 336.299 111.11 334.679 114.755C332.924 118.805 329.279 121.505 324.689 122.315L268.392 132.305C265.556 132.845 262.721 133.115 260.156 133.115C253.271 133.115 251.651 131.36 251.111 130.415C241.93 119.21 233.155 113.675 224.515 113.675C215.874 113.675 207.099 119.21 197.919 130.415C197.379 131.36 195.759 133.115 188.873 133.115C186.308 133.115 183.473 132.845 180.638 132.305L124.341 122.315C119.75 121.505 116.105 118.805 114.35 114.755C112.865 111.11 112.865 106.924 114.755 103.144V103.009C140.406 58.1874 180.368 32.5363 224.38 32.5363C268.662 32.5363 308.488 58.1874 334.274 103.144ZM330.899 112.595C331.844 110.435 331.844 107.734 330.629 105.304C328.874 102.334 328.334 100.174 326.444 97.474C324.824 98.554 324.824 98.554 324.014 98.824L297.958 109.624C297.688 109.759 297.418 109.759 297.283 109.759C296.473 109.759 295.663 109.219 295.393 108.274C294.988 107.059 295.528 105.709 296.608 105.304L322.664 94.5039C323.069 94.3689 323.069 94.2338 323.474 94.3689C320.774 90.4537 318.344 86.8085 315.508 83.1634C315.373 83.5684 315.238 83.8384 314.833 84.1084L295.933 95.5839C295.663 95.7189 295.528 95.8539 295.258 95.8539C294.718 95.8539 294.313 95.5839 294.043 95.0439C293.773 94.3689 293.908 93.4238 294.583 93.0188L313.483 81.4083C313.618 81.2733 313.753 81.2733 313.888 81.2733C311.188 78.0332 308.353 74.9281 305.383 72.0929C305.248 72.2279 305.113 72.498 304.978 72.633L284.187 90.1837C283.782 90.4537 283.377 90.5887 282.972 90.5887C282.297 90.5887 281.757 90.3187 281.352 89.6437C280.677 88.5636 280.812 87.2136 281.757 86.4035L302.413 68.9878C299.443 66.2877 296.473 63.7226 293.368 61.2925C293.368 61.4275 293.233 61.5625 293.233 61.5625L279.057 77.7632C278.787 78.0332 278.382 78.1682 278.112 78.1682C277.842 78.1682 277.437 78.0332 277.167 77.7632C276.627 77.2231 276.627 76.1431 277.167 75.6031L291.207 59.5374C288.102 57.2423 284.997 55.0822 281.757 53.1922C281.757 53.3272 281.622 53.4622 281.622 53.4622L267.176 75.8731C266.771 76.5481 266.096 76.8181 265.556 76.8181C265.151 76.8181 264.746 76.6831 264.341 76.4131C263.396 75.7381 263.261 74.253 263.936 73.173L278.247 50.8971C275.007 49.007 271.632 47.3869 268.257 45.9019C268.257 46.0369 268.257 46.1719 268.122 46.1719L259.346 65.4777C259.076 66.0177 258.671 66.2877 258.131 66.2877C257.861 66.2877 257.726 66.2877 257.456 66.1527C256.781 65.7477 256.511 64.8026 256.916 63.9926L265.691 44.6868C262.316 43.3368 258.806 42.1217 255.296 41.0417C255.296 41.1767 255.296 41.3117 255.161 41.4467L247.736 66.8277C247.466 67.7728 246.656 68.4478 245.846 68.4478C245.576 68.4478 245.441 68.4478 245.171 68.3128C244.091 67.9078 243.55 66.6927 243.821 65.3427L251.246 39.9616C251.246 39.9616 251.246 39.9616 251.246 39.8266C247.736 38.8816 244.091 38.2065 240.445 37.6665C240.445 37.8015 240.445 37.9365 240.445 38.0715L237.475 58.9974C237.34 59.8074 236.8 60.3475 236.125 60.3475C235.99 60.3475 235.99 60.3475 235.855 60.3475C235.045 60.2125 234.64 59.4024 234.775 58.5924L237.745 37.6665C237.745 37.5315 237.745 37.5315 237.88 37.3965C234.235 36.9915 230.59 36.7215 226.945 36.5865C226.945 36.7215 226.945 36.8565 226.945 36.8565V63.1826C226.945 64.5326 226 65.4777 224.92 65.4777C223.705 65.4777 222.895 64.3976 222.895 63.1826V37.5315C222.895 37.3965 222.895 37.2615 222.895 37.2615C219.25 37.3965 215.604 37.5315 211.959 38.0715C211.959 38.2065 211.959 38.2065 212.094 38.3416L215.064 59.2674C215.199 60.0774 214.659 60.8875 213.849 61.0225C213.849 61.0225 213.714 61.0225 213.579 61.0225C212.904 61.0225 212.364 60.4825 212.229 59.6724L209.259 38.7466C209.259 38.6116 209.259 38.4766 209.259 38.3416C205.614 38.8816 201.969 39.5566 198.459 40.5016L205.884 65.8827C206.289 67.0977 205.614 68.4478 204.534 68.8528C204.264 68.9878 204.129 68.9878 203.859 68.9878C202.914 68.9878 202.239 68.3128 201.834 67.3677L194.408 41.9867C194.408 41.8517 194.408 41.7167 194.408 41.5817C190.898 42.6617 187.388 43.8768 184.013 45.2268L192.788 64.5326C193.058 65.3427 192.788 66.2877 192.248 66.6927C191.978 66.8277 191.843 66.8277 191.573 66.8277C191.033 66.8277 190.628 66.5577 190.358 66.0177L181.448 46.7119C181.448 46.5769 181.448 46.4419 181.448 46.4419C178.073 47.9269 174.698 49.547 171.458 51.4371L185.768 73.713C186.443 74.793 186.173 76.1431 185.363 76.9531C184.958 77.2231 184.553 77.3582 184.148 77.3582C183.473 77.3582 182.798 77.0881 182.528 76.4131L167.947 54.0022C167.947 53.8672 167.812 53.7322 167.812 53.7322C164.572 55.6223 161.467 57.7824 158.362 60.0774L172.403 76.1431C172.943 76.8181 172.943 77.7632 172.403 78.3032C172.133 78.5732 171.863 78.7082 171.458 78.7082C171.053 78.7082 170.783 78.5732 170.513 78.3032L156.202 62.1025C156.202 61.9675 156.067 61.9675 156.067 61.8325C152.962 64.2626 149.992 66.8277 147.022 69.5278L167.677 86.9436C168.622 87.7536 168.757 89.1036 168.082 90.1837C167.677 90.8587 167.002 91.1287 166.462 91.1287C166.057 91.1287 165.652 90.9937 165.247 90.7237L144.456 73.173C144.321 73.038 144.186 72.768 144.051 72.633C141.081 75.6031 138.246 78.5732 135.546 81.8133C135.681 81.8133 135.816 81.8133 135.951 81.9483L154.852 93.5588C155.527 93.9638 155.797 94.9089 155.392 95.5839C155.122 96.1239 154.717 96.3939 154.177 96.3939C153.907 96.3939 153.772 96.3939 153.502 96.1239L134.601 84.6484C134.196 84.3784 134.061 84.1084 133.926 83.7034C130.956 87.2136 127.986 90.8587 125.421 94.7739C125.826 94.6389 126.366 94.7739 126.771 94.9089L152.827 105.709C153.907 106.114 154.447 107.464 154.042 108.679C153.772 109.624 152.962 110.164 152.152 110.164C151.882 110.164 151.747 110.164 151.477 110.029L125.421 99.229C124.206 98.554 124.206 98.554 122.991 98.014C121.235 100.849 120.155 102.469 118.4 105.439C117.185 107.869 117.185 110.435 118.13 112.73C119.345 115.43 121.776 117.185 125.016 117.86L181.313 127.715C183.878 128.255 186.578 128.39 188.873 128.39C192.383 128.39 194.003 127.85 194.543 127.58L194.678 127.31C204.804 114.89 214.524 108.949 224.515 108.949C234.505 108.949 244.226 114.89 254.351 127.31L254.486 127.58C254.891 127.85 256.646 128.39 260.156 128.39C262.451 128.39 265.151 128.12 267.716 127.715L324.014 117.86C327.254 117.185 329.819 115.295 330.899 112.595Z" fill="#639A9F"/>
<path d="M330.764 105.439C331.979 107.869 331.979 110.434 331.034 112.73C329.819 115.43 327.389 117.185 324.149 117.86L267.851 127.715C265.286 128.255 262.586 128.39 260.291 128.39C256.781 128.39 255.161 127.85 254.621 127.58L254.486 127.31C244.36 114.89 234.64 108.949 224.649 108.949C214.659 108.949 204.939 114.89 194.813 127.31L194.678 127.58C194.273 127.85 192.653 128.39 189.008 128.39C186.713 128.39 184.013 128.12 181.448 127.715L125.15 117.86C121.91 117.32 119.345 115.43 118.265 112.73C117.32 110.569 117.455 107.869 118.535 105.439C120.155 102.469 121.235 100.849 123.125 98.014C124.475 98.554 124.475 98.554 125.15 98.824L151.207 109.624C151.477 109.759 151.747 109.759 151.882 109.759C152.692 109.759 153.502 109.219 153.772 108.274C154.177 107.059 153.637 105.709 152.557 105.304L126.5 94.5038C126.095 94.3688 125.42 94.2338 125.15 94.3688C127.851 90.4537 130.821 86.8085 133.656 83.2984C133.791 83.7034 133.926 83.9734 134.331 84.2434L153.232 95.7189C153.502 95.8539 153.637 95.9889 153.907 95.9889C154.447 95.9889 154.852 95.7189 155.122 95.1789C155.527 94.5038 155.257 93.5588 154.582 93.1538L135.681 81.5433C135.546 81.4083 135.411 81.4083 135.276 81.4083C137.976 78.1681 140.811 75.063 143.781 72.2279C143.916 72.3629 144.051 72.6329 144.186 72.7679L164.977 90.3187C165.382 90.5887 165.787 90.7237 166.192 90.7237C166.867 90.7237 167.407 90.4537 167.812 89.7786C168.487 88.6986 168.352 87.3485 167.407 86.5385L146.751 69.1228C149.721 66.4227 152.692 63.8576 155.797 61.4275C155.797 61.5625 155.932 61.5625 155.932 61.6975L170.242 77.8981C170.512 78.1682 170.782 78.3032 171.187 78.3032C171.592 78.3032 171.862 78.1682 172.132 77.8981C172.672 77.3581 172.672 76.2781 172.132 75.738L158.092 59.6724C161.197 57.3773 164.302 55.2172 167.542 53.3271C167.542 53.4621 167.677 53.5971 167.677 53.5971L182.258 76.1431C182.663 76.8181 183.338 77.0881 183.878 77.0881C184.283 77.0881 184.688 76.9531 185.093 76.6831C186.038 76.0081 186.173 74.523 185.498 73.443L171.187 51.167C174.427 49.412 177.803 47.6569 181.178 46.1718C181.178 46.3068 181.178 46.4419 181.178 46.4419L190.088 65.7476C190.358 66.2877 190.763 66.5577 191.303 66.5577C191.573 66.5577 191.708 66.5577 191.978 66.4227C192.653 66.0177 192.923 65.0726 192.518 64.2626L183.743 44.9568C187.118 43.6067 190.628 42.3917 194.138 41.3116C194.138 41.4466 194.138 41.5817 194.138 41.7167L201.564 67.0977C201.834 68.0427 202.644 68.7178 203.589 68.7178C203.859 68.7178 203.994 68.7178 204.264 68.5828C205.344 68.1777 205.884 66.8277 205.614 65.6126L198.323 40.5016C201.834 39.5566 205.479 38.8815 209.124 38.3415C209.124 38.4765 209.124 38.6115 209.124 38.7465L212.094 59.6724C212.229 60.4824 212.769 61.0224 213.444 61.0224C213.579 61.0224 213.579 61.0224 213.714 61.0224C214.524 60.8874 214.929 60.0774 214.929 59.2674L211.959 38.3415C211.959 38.2065 211.959 38.2065 211.824 38.0715C215.469 37.6665 219.114 37.3965 222.759 37.2615C222.759 37.3965 222.759 37.5315 222.759 37.5315V63.8576C222.759 65.2076 223.704 66.1527 224.785 66.1527C225.865 66.1527 226.81 65.0726 226.81 63.8576V37.5315C226.81 37.3965 226.81 37.2615 226.81 37.2615C230.455 37.3965 234.1 37.5315 237.745 38.0715C237.745 38.2065 237.61 38.2065 237.61 38.3415L234.64 59.2674C234.505 60.0774 235.045 60.8874 235.72 61.0224C235.72 61.0224 235.855 61.0224 235.99 61.0224C236.665 61.0224 237.205 60.4824 237.34 59.6724L240.31 38.7465C240.31 38.6115 240.31 38.4765 240.31 38.3415C243.955 38.8815 247.6 39.5566 251.111 40.5016C251.111 40.5016 251.111 40.5016 251.111 40.6366L243.685 66.0177C243.28 67.2327 243.955 68.5828 245.035 68.9878C245.305 69.1228 245.44 69.1228 245.71 69.1228C246.52 69.1228 247.33 68.4478 247.6 67.5027L255.026 42.1217C255.026 41.9867 255.026 41.8517 255.161 41.7167C258.671 42.7967 262.181 44.0117 265.556 45.3618L256.511 64.3976C256.106 65.2076 256.376 66.1527 257.051 66.5577C257.186 66.6927 257.456 66.6927 257.726 66.6927C258.266 66.6927 258.671 66.4227 258.941 65.8826L267.716 46.5769C267.716 46.4419 267.716 46.3068 267.851 46.3068C271.226 47.7919 274.602 49.412 277.842 51.302L263.531 73.578C262.856 74.658 262.991 76.0081 263.936 76.8181C264.341 77.0881 264.746 77.2231 265.151 77.2231C265.826 77.2231 266.366 76.9531 266.771 76.2781L281.217 53.8672C281.352 53.7322 281.352 53.5971 281.352 53.5971C284.592 55.4872 287.697 57.6473 290.802 59.9424L276.762 76.0081C276.222 76.6831 276.222 77.6281 276.762 78.1682C277.032 78.4382 277.302 78.5732 277.707 78.5732C278.112 78.5732 278.382 78.4382 278.652 78.1682L292.827 61.9675C292.962 61.8325 292.962 61.8325 292.962 61.6975C296.067 64.1276 299.038 66.6927 302.008 69.3928L281.352 86.8085C280.407 87.6185 280.272 88.9686 280.947 90.0486C281.352 90.7237 281.892 90.9937 282.567 90.9937C282.972 90.9937 283.377 90.8587 283.782 90.5887L304.573 73.0379C304.708 72.9029 304.843 72.6329 304.978 72.4979C307.948 75.468 310.783 78.4382 313.483 81.6783C313.348 81.6783 313.213 81.6783 313.078 81.8133L294.177 93.4238C293.502 93.8288 293.232 94.7738 293.637 95.4489C293.907 95.9889 294.312 96.2589 294.852 96.2589C295.122 96.2589 295.257 96.2589 295.527 95.9889L314.428 84.5134C314.833 84.2434 314.968 83.9734 315.103 83.5684C318.073 87.0785 320.368 90.7237 323.069 94.7738C322.664 94.6388 322.664 94.7738 322.258 94.9088L296.202 105.709C295.122 106.114 294.582 107.464 294.987 108.679C295.257 109.624 296.067 110.164 296.877 110.164C297.147 110.164 297.417 110.164 297.552 110.029L323.609 99.229C324.419 98.959 324.419 98.959 326.039 97.879C328.469 100.309 329.009 102.469 330.764 105.439Z" fill="white"/>
<path d="M56.0277 277.301C65.8831 301.062 88.429 356.28 88.429 356.28L89.7791 356.415C87.754 359.655 85.5939 362.76 83.4338 365.865H182.798L182.933 364.38C174.698 353.309 161.737 297.012 164.302 255.295C164.977 243.55 164.032 232.885 163.087 224.379C163.087 224.109 163.087 223.839 162.952 223.704C162.817 222.759 162.682 221.949 162.682 221.139C162.412 218.979 162.007 216.954 161.467 215.064C156.202 194.543 150.397 190.223 146.211 178.477C142.026 166.597 140.001 142.296 129.741 135.816C121.1 130.415 103.145 130.415 101.93 147.021C101.66 149.991 101.93 153.501 102.875 157.686C101.93 153.366 97.6094 140.541 85.8639 143.376C78.8436 144.996 76.4135 149.586 76.0085 153.771C75.6035 157.281 76.6835 161.062 78.3036 164.572C76.5485 160.927 74.7935 157.011 70.0683 156.606C59.8079 155.661 59.4028 165.382 61.2929 171.997C61.9679 174.022 62.778 176.047 63.858 178.072C62.913 176.182 59.1328 174.292 57.2428 174.292C44.5522 174.832 45.7673 188.063 49.9525 196.163C50.6275 197.513 51.3025 199.133 51.9775 200.753C53.0576 203.453 54.1376 206.423 55.2177 209.394C53.4626 206.153 51.3025 203.588 48.4674 203.858C37.1269 205.073 46.3073 229.239 47.6574 238.15C50.2225 253.405 48.4674 259.211 56.0277 277.301Z" fill="#FFE1CC"/>
<path d="M79.384 166.462C79.249 166.192 79.114 165.787 78.844 165.517C79.114 165.787 79.249 166.192 79.384 166.462Z" fill="#FFE1CC"/>
<path d="M172.267 338.459C174.832 347.774 178.343 356.55 183.068 364.515L172.267 338.459Z" fill="#FFE1CC"/>
<path d="M48.7379 203.858C48.7379 203.858 48.6029 203.858 48.3329 203.993C48.0629 203.993 47.7929 204.128 47.3878 204.263C46.9828 204.398 46.4428 204.668 46.0378 204.938C45.4978 205.343 45.0927 205.748 44.6877 206.423C44.2827 207.098 44.0127 207.773 43.8777 208.584C43.7427 209.394 43.6077 210.339 43.6077 211.284C43.6077 213.174 43.8777 215.199 44.1477 217.224C44.4177 219.249 44.9577 221.274 45.3628 223.164C45.7678 225.054 46.1728 226.809 46.4428 228.429C46.7128 229.914 46.9828 231.264 46.9828 232.21C47.1178 233.155 47.1178 233.695 47.1178 233.695C47.1178 233.695 46.9828 233.155 46.7128 232.345C46.4428 231.399 46.0378 230.184 45.6328 228.699C44.6877 225.729 43.4727 221.679 42.7977 217.494C42.6626 216.414 42.5276 215.334 42.3926 214.389C42.2576 213.309 42.2576 212.364 42.3926 211.284C42.3926 210.339 42.6626 209.259 42.9327 208.449C43.2027 207.503 43.6077 206.693 44.1477 206.018C44.6877 205.343 45.2278 204.938 45.9028 204.533C46.4428 204.263 46.9828 203.993 47.5228 203.993C47.9279 203.858 48.3329 203.858 48.6029 203.858C48.6029 203.858 48.7379 203.858 48.7379 203.858Z" fill="#E8A289"/>
<path d="M59.5378 222.219C59.5378 222.219 58.3228 218.979 56.5677 213.984C56.1627 212.769 55.6226 211.419 55.0826 210.069C54.5426 208.584 54.0026 207.234 53.3275 205.613C52.7875 204.128 52.1125 202.508 51.4375 200.888C50.7624 199.268 49.9524 197.783 49.2774 196.163C48.4673 194.678 47.9273 192.788 47.3873 191.168C46.9823 189.413 46.7123 187.793 46.5773 186.038C46.5773 184.418 46.5773 182.663 47.1173 181.177C47.2523 180.367 47.6573 179.692 47.9273 179.017C48.0623 178.747 48.3323 178.342 48.4674 178.072C48.6024 177.802 48.8724 177.532 49.1424 177.262C49.4124 176.992 49.5474 176.722 49.8174 176.587C50.0874 176.317 50.3574 176.182 50.6274 176.047C50.8974 175.912 51.1675 175.642 51.4375 175.507C51.7075 175.372 51.9775 175.237 52.2475 175.237C53.1925 174.697 54.1376 174.697 54.9476 174.427C55.7576 174.292 56.2977 174.292 56.7027 174.292C57.1077 174.292 57.3777 174.292 57.3777 174.292C57.3777 174.292 57.1077 174.292 56.7027 174.427C56.2977 174.562 55.7576 174.562 54.9476 174.697C54.2726 174.967 53.3275 175.102 52.3825 175.642C52.1125 175.777 51.9775 175.912 51.7075 176.047C51.4375 176.182 51.3025 176.452 51.0325 176.587C50.7624 176.722 50.4924 176.857 50.3574 177.127C50.2224 177.397 49.9524 177.532 49.8174 177.802C49.5474 178.072 49.4124 178.342 49.2774 178.612C49.1424 178.882 49.0074 179.152 48.7374 179.422C48.4673 180.097 48.1973 180.637 48.0623 181.447C47.6573 182.798 47.6573 184.418 47.7923 186.038C47.9273 187.658 48.1973 189.278 48.7374 190.898C49.2774 192.518 49.8174 194.003 50.6274 195.623C51.3025 197.243 52.1125 198.863 52.7875 200.348C53.4626 201.968 54.0026 203.588 54.5426 205.208C55.0826 206.694 55.6226 208.314 56.0277 209.664C56.4327 211.149 56.8377 212.499 57.2427 213.714C57.6477 214.929 57.9177 216.144 58.1877 217.224C58.4578 218.304 58.7278 219.114 58.8628 219.924C59.2678 221.274 59.5378 222.219 59.5378 222.219Z" fill="#E8A289"/>
<path d="M73.4434 204.128C73.4434 204.128 73.1734 203.318 72.4983 201.833C71.9583 200.348 71.1483 198.323 70.2032 195.893C69.2582 193.463 68.1782 190.628 67.0981 187.523C66.5581 186.038 66.0181 184.418 65.343 182.797C64.668 181.177 63.993 179.557 63.318 178.072L62.2379 175.642C61.8329 174.832 61.5629 174.022 61.2929 173.212C61.1579 172.807 61.0229 172.402 60.8879 171.997C60.7528 171.592 60.6178 171.187 60.6178 170.782C60.4828 169.972 60.3478 169.027 60.2128 168.217C60.0778 166.597 60.0778 164.842 60.4828 163.357C60.7528 161.872 61.2929 160.387 62.2379 159.306C63.0479 158.226 64.128 157.551 65.208 157.146C66.2881 156.741 67.2331 156.606 67.9081 156.606C68.7182 156.471 69.2582 156.606 69.6632 156.606C70.0682 156.606 70.3382 156.606 70.3382 156.606C70.3382 156.606 70.0682 156.606 69.6632 156.606C69.2582 156.606 68.5832 156.606 67.9081 156.741C67.0981 156.876 66.2881 157.011 65.343 157.416C64.398 157.821 63.453 158.631 62.7779 159.577C61.2929 161.602 61.0229 164.707 61.4279 167.947C61.5629 168.757 61.6979 169.567 61.8329 170.377C61.9679 170.782 62.1029 171.187 62.1029 171.592C62.2379 171.997 62.3729 172.402 62.5079 172.807C62.7779 173.617 63.0479 174.427 63.453 175.237L64.533 177.667C65.208 179.287 65.8831 180.907 66.5581 182.527C67.2331 184.148 67.7731 185.768 68.3132 187.253C69.3932 190.358 70.3382 193.328 71.0133 195.758C72.4983 200.618 73.4434 204.128 73.4434 204.128Z" fill="#E8A289"/>
<path d="M88.6992 192.518C88.6992 192.518 88.2942 191.303 87.4842 189.278C86.8091 187.118 85.5941 184.148 84.379 180.502C84.109 179.557 83.704 178.612 83.434 177.667C83.029 176.722 82.624 175.777 82.2189 174.697C81.8139 173.617 81.4089 172.672 81.0039 171.592C80.5989 170.512 80.0589 169.567 79.5188 168.487C79.1138 167.407 78.5738 166.327 78.0338 165.247C77.4938 164.167 76.9537 162.952 76.5487 161.737C75.7387 159.307 75.1987 156.741 75.3337 154.041C75.4687 153.366 75.6037 152.826 75.6037 152.151C75.8737 151.476 76.0087 150.801 76.2787 150.261C76.8187 149.046 77.4938 147.831 78.4388 146.886C80.3289 144.996 82.624 143.646 85.0541 143.106C85.3241 142.971 85.5941 142.971 85.9991 142.836L86.8091 142.701C87.3492 142.566 87.8892 142.566 88.5642 142.566C89.7793 142.566 90.9943 142.701 92.0743 142.971C94.2344 143.646 96.1245 144.861 97.4746 146.346C98.8246 147.696 99.7697 149.316 100.445 150.666C101.12 152.016 101.66 153.366 101.93 154.446C102.335 155.526 102.47 156.336 102.605 157.011C102.74 157.551 102.74 157.956 102.74 157.956C102.74 157.956 102.605 157.686 102.47 157.011C102.335 156.471 102.065 155.661 101.66 154.581C100.85 152.556 99.4996 149.586 96.7995 146.886C95.4495 145.536 93.6944 144.456 91.6693 143.916C90.5893 143.646 89.5092 143.511 88.5642 143.646C88.0242 143.646 87.4842 143.781 86.9441 143.781L86.1341 143.916C85.8641 143.916 85.5941 144.051 85.3241 144.186C84.7841 144.321 84.244 144.591 83.704 144.726C83.164 144.996 82.624 145.266 82.0839 145.536C81.1389 146.076 80.0589 146.886 79.3838 147.696C78.5738 148.506 77.8988 149.586 77.4938 150.666C77.2237 151.206 77.0887 151.746 76.9537 152.286C76.8187 152.826 76.6837 153.636 76.6837 154.176C76.4137 156.606 76.9537 159.037 77.7638 161.332C78.1688 162.547 78.5738 163.627 79.1138 164.707C79.6538 165.787 80.1939 166.867 80.5989 168.082C81.1389 169.162 81.5439 170.242 81.9489 171.322C82.354 172.402 82.759 173.482 83.029 174.427C83.434 175.507 83.704 176.452 84.109 177.397C84.514 178.342 84.649 179.287 85.0541 180.232C86.1341 183.878 87.0791 186.983 87.6192 189.143C88.4292 191.303 88.6992 192.518 88.6992 192.518Z" fill="#E8A289"/>
<path d="M129.876 135.951C129.876 135.951 129.336 135.681 128.391 135.276C127.986 135.006 127.31 134.871 126.77 134.601C126.095 134.33 125.42 134.195 124.61 133.925C123.8 133.655 122.855 133.655 121.91 133.385C120.965 133.385 120.02 133.115 118.94 133.25C118.4 133.25 117.86 133.25 117.32 133.25C116.78 133.25 116.24 133.385 115.7 133.385C115.16 133.385 114.62 133.52 114.08 133.655L113.405 133.925L112.595 134.195C111.515 134.466 110.57 135.006 109.625 135.411C108.815 135.951 107.735 136.491 107.06 137.166C106.25 137.841 105.71 138.651 105.035 139.326C104.495 140.136 104.09 140.946 103.685 141.621C103.415 142.431 103.144 143.106 102.874 143.781C102.604 144.456 102.604 144.996 102.469 145.536C102.199 146.481 102.064 147.021 102.064 147.021C102.064 147.021 102.064 146.481 102.199 145.401C102.199 144.861 102.199 144.321 102.469 143.646C102.604 142.971 102.739 142.161 103.009 141.351C103.415 140.541 103.685 139.596 104.225 138.786C104.495 138.381 104.765 137.976 105.17 137.436C105.44 137.031 105.845 136.626 106.25 136.221C107.06 135.411 108.005 134.736 108.95 134.195C110.03 133.655 111.11 133.115 112.19 132.845L113 132.575L113.81 132.44C114.35 132.305 115.025 132.17 115.565 132.17C116.78 132.035 117.86 132.035 118.94 132.17C120.02 132.17 121.1 132.44 122.045 132.575C122.99 132.845 123.935 132.98 124.745 133.385C125.555 133.655 126.365 133.925 126.905 134.33C127.581 134.601 128.121 134.871 128.526 135.141C129.471 135.546 129.876 135.951 129.876 135.951Z" fill="#E8A289"/>
<path d="M129.876 135.951C129.876 135.951 129.336 135.681 128.391 135.276C127.986 135.006 127.31 134.871 126.77 134.601C126.095 134.33 125.42 134.195 124.61 133.925C123.8 133.655 122.855 133.655 121.91 133.385C120.965 133.385 120.02 133.115 118.94 133.25C118.4 133.25 117.86 133.25 117.32 133.25C116.78 133.25 116.24 133.385 115.7 133.385C115.16 133.385 114.62 133.52 114.08 133.655L113.405 133.925L112.595 134.195C111.515 134.466 110.57 135.006 109.625 135.411C108.815 135.951 107.735 136.491 107.06 137.166C106.25 137.841 105.71 138.651 105.035 139.326C104.495 140.136 104.09 140.946 103.685 141.621C103.415 142.431 103.144 143.106 102.874 143.781C102.604 144.456 102.604 144.996 102.469 145.536C102.199 146.481 102.064 147.021 102.064 147.021C102.064 147.021 102.064 146.481 102.199 145.401C102.199 144.861 102.199 144.321 102.469 143.646C102.604 142.971 102.739 142.161 103.009 141.351C103.415 140.541 103.685 139.596 104.225 138.786C104.495 138.381 104.765 137.976 105.17 137.436C105.44 137.031 105.845 136.626 106.25 136.221C107.06 135.411 108.005 134.736 108.95 134.195C110.03 133.655 111.11 133.115 112.19 132.845L113 132.575L113.81 132.44C114.35 132.305 115.025 132.17 115.565 132.17C116.78 132.035 117.86 132.035 118.94 132.17C120.02 132.17 121.1 132.44 122.045 132.575C122.99 132.845 123.935 132.98 124.745 133.385C125.555 133.655 126.365 133.925 126.905 134.33C127.581 134.601 128.121 134.871 128.526 135.141C129.471 135.546 129.876 135.951 129.876 135.951Z" fill="#E8A289"/>
<path d="M112.595 193.868C112.595 193.868 112.46 193.598 112.19 193.058C111.92 192.518 111.65 191.573 111.245 190.493C110.84 189.413 110.435 188.063 109.895 186.578C109.49 185.093 108.95 183.338 108.41 181.447C107.87 179.557 107.195 177.532 106.655 175.237C106.115 173.077 105.575 170.647 104.9 168.352C104.36 165.922 103.685 163.492 103.145 160.927C102.875 159.712 102.47 158.361 102.335 157.011L101.93 155.121C101.795 154.446 101.795 153.771 101.66 153.096C101.525 152.421 101.525 151.746 101.525 151.071C101.525 150.396 101.39 149.721 101.525 149.046L101.66 147.021C101.795 146.346 101.795 145.671 101.93 145.131L102.065 144.186L102.335 143.241C102.605 142.566 102.74 141.891 103.01 141.351C103.28 140.811 103.55 140.136 103.955 139.596C104.225 139.056 104.765 138.516 105.035 137.976C106.655 135.951 108.815 134.601 110.975 133.655C113.135 132.845 115.431 132.575 117.456 132.44C118.401 132.44 119.481 132.44 120.291 132.575C121.236 132.71 122.046 132.845 122.856 132.98C124.476 133.385 125.826 133.79 126.906 134.196C127.446 134.466 127.851 134.601 128.256 134.871C128.661 135.141 128.931 135.276 129.201 135.411C129.741 135.681 130.011 135.951 130.011 135.951C130.011 135.951 129.741 135.816 129.201 135.546C128.931 135.411 128.526 135.276 128.121 135.006C127.716 134.871 127.176 134.601 126.636 134.466C125.556 134.06 124.206 133.655 122.586 133.385C120.966 133.115 119.211 132.98 117.321 133.115C115.431 133.25 113.27 133.655 111.245 134.466C109.22 135.276 107.33 136.761 105.845 138.516C105.575 139.056 105.17 139.461 104.765 140.001C104.495 140.541 104.225 141.081 103.955 141.621C103.685 142.161 103.55 142.836 103.415 143.376L103.145 144.186L103.01 145.131C102.875 145.806 102.875 146.481 102.74 147.021V148.911C102.74 149.586 102.74 150.261 102.875 150.801C102.875 151.476 103.01 152.151 103.01 152.691C103.145 153.366 103.145 153.906 103.28 154.581L103.685 156.471C103.82 157.686 104.225 159.037 104.495 160.252C105.035 162.817 105.575 165.247 106.115 167.677C106.655 170.107 107.195 172.402 107.6 174.697C108.14 176.857 108.68 179.017 109.085 180.907C109.49 182.797 110.03 184.553 110.3 186.173C110.705 187.658 111.11 189.008 111.38 190.223C111.65 191.303 111.92 192.248 112.19 192.788C112.46 193.598 112.595 193.868 112.595 193.868Z" fill="#E8A289"/>
<path d="M161.872 366H183.878C183.608 365.46 183.338 365.055 183.068 364.515C154.987 315.913 169.028 244.495 161.602 215.199C160.792 211.824 159.847 208.854 159.037 206.288C161.062 216.144 159.307 231.534 159.037 245.845C158.497 287.292 150.532 334.679 154.987 349.124C157.012 355.74 159.442 361.275 161.872 366Z" fill="url(#paint0_linear_724_138724)"/>
<path d="M129.336 140.946L130.281 146.346C131.226 151.746 127.446 156.741 122.046 157.551C116.646 158.362 111.381 154.716 110.571 149.316L109.625 143.916C112.596 140.001 125.286 138.111 129.336 140.946Z" fill="#EB996E"/>
<path d="M95.9892 149.586L96.6642 153.366C97.3392 157.011 94.7741 160.522 90.994 161.062C87.2138 161.602 83.7037 159.172 83.0287 155.391L82.3536 151.611C84.3787 148.911 93.1541 147.561 95.9892 149.586Z" fill="#EB996E"/>
<path d="M74.7942 161.197L75.1993 163.897C75.6043 166.597 73.7142 169.162 71.0141 169.567C68.314 169.972 65.6139 168.082 65.2088 165.382L64.8038 162.682C66.2889 160.792 72.6342 159.712 74.7942 161.197Z" fill="#EB996E"/>
<path d="M61.9683 179.152L62.3733 181.852C62.7783 184.553 60.8883 187.118 58.1882 187.523C55.488 187.928 52.7879 186.038 52.3829 183.338L51.9779 180.637C53.463 178.747 59.9432 177.802 61.9683 179.152Z" fill="#EB996E"/>
<path d="M53.4633 208.584L53.7333 210.474C54.0033 212.364 52.6532 214.254 50.7632 214.524C48.8731 214.794 46.983 213.579 46.578 211.554L46.308 209.664C47.388 208.314 51.9782 207.638 53.4633 208.584Z" fill="#EB996E"/>
<path d="M85.9991 321.988C86.6741 324.013 87.3491 326.308 88.0242 328.738C88.6992 331.168 89.2392 333.734 89.6442 336.299C90.0493 338.999 90.3193 341.699 90.3193 344.534C90.3193 347.369 90.0493 350.204 89.2392 352.904C88.5642 355.604 87.0791 358.17 85.7291 360.6C84.649 362.355 83.569 364.245 82.489 365.865H83.704C84.784 364.245 85.7291 362.76 86.8091 361.14C87.6192 359.925 88.2942 358.71 88.9692 357.36C89.6442 356.01 90.1843 354.659 90.5893 353.174C91.3993 350.339 91.8043 347.369 91.8043 344.399C91.8043 341.429 91.5343 338.594 91.1293 335.894C90.5893 333.194 90.0493 330.628 89.3742 328.198C88.6992 325.768 87.8892 323.608 87.0791 321.448C85.4591 317.398 83.839 314.158 82.624 311.863C81.4089 309.568 80.5989 308.353 80.5989 308.353C80.5989 308.353 81.2739 309.703 82.2189 311.998C83.164 314.563 84.514 317.803 85.9991 321.988Z" fill="#E2906D"/>
<path d="M142.431 366C146.886 322.528 155.662 232.074 153.637 206.288C150.937 171.997 54.5426 238.015 54.5426 238.015C87.2139 279.056 91.6691 335.354 96.7993 366H142.431Z" fill="url(#paint1_linear_724_138724)"/>
<path d="M381.256 277.301C371.401 301.062 348.855 356.28 348.855 356.28L347.505 356.415C349.53 359.655 351.69 362.76 353.85 365.865H254.486L254.351 364.38C262.586 353.309 276.762 310.108 272.982 255.295C272.172 243.55 273.252 232.885 274.197 224.379C274.197 224.109 274.197 223.839 274.332 223.704C274.467 222.759 274.602 221.949 274.602 221.139C274.872 218.979 275.277 216.954 275.817 215.064C281.082 194.543 286.887 190.223 291.072 178.477C295.258 166.597 297.283 142.296 307.543 135.816C316.183 130.415 334.139 130.415 335.354 147.021C335.624 149.991 335.354 153.501 334.409 157.686C335.354 153.366 339.674 140.541 351.42 143.376C358.44 144.996 360.87 149.586 361.275 153.771C361.68 157.281 360.6 161.062 358.98 164.572C360.735 160.927 362.49 157.011 367.216 156.606C377.476 155.661 377.881 165.382 375.991 171.997C375.316 174.022 374.506 176.047 373.426 178.072C374.371 176.182 378.151 174.292 380.041 174.292C392.732 174.832 391.517 188.063 387.331 196.163C386.656 197.513 385.981 199.133 385.306 200.753C384.226 203.453 383.146 206.423 382.066 209.394C383.821 206.153 385.981 203.588 388.816 203.858C400.157 205.073 390.977 229.239 389.626 238.15C387.061 253.405 388.816 259.211 381.256 277.301Z" fill="#FFE1CC"/>
<path d="M358.306 165.517C358.171 165.922 358.036 166.192 357.766 166.462C358.036 166.192 358.171 165.787 358.306 165.517Z" fill="#FFE1CC"/>
<path d="M264.881 338.459C262.316 347.774 258.806 356.55 254.081 364.515L264.881 338.459Z" fill="#FFE1CC"/>
<path d="M388.546 203.858C388.546 203.858 388.681 203.858 388.951 203.993C389.222 203.993 389.491 204.128 389.897 204.263C390.302 204.398 390.842 204.668 391.247 204.938C391.787 205.343 392.192 205.748 392.597 206.423C393.002 207.098 393.272 207.773 393.407 208.584C393.542 209.394 393.677 210.339 393.677 211.284C393.677 213.174 393.407 215.199 393.137 217.224C392.867 219.249 392.327 221.274 391.922 223.164C391.517 225.054 391.112 226.809 390.842 228.429C390.572 229.914 390.302 231.264 390.302 232.21C390.167 233.155 390.167 233.695 390.167 233.695C390.167 233.695 390.302 233.155 390.572 232.345C390.842 231.399 391.247 230.184 391.652 228.699C392.597 225.729 393.812 221.679 394.487 217.494C394.622 216.414 394.757 215.334 394.892 214.389C395.027 213.309 395.027 212.364 394.892 211.284C394.892 210.339 394.622 209.259 394.352 208.449C394.082 207.503 393.677 206.693 393.137 206.018C392.597 205.343 392.057 204.938 391.382 204.533C390.842 204.263 390.302 203.993 389.762 203.993C389.357 203.858 388.951 203.858 388.681 203.858C388.681 203.858 388.546 203.858 388.546 203.858Z" fill="#E8A289"/>
<path d="M377.746 222.219C377.746 222.219 378.961 218.979 380.716 213.984C381.121 212.769 381.661 211.419 382.201 210.069C382.741 208.584 383.281 207.233 383.956 205.613C384.496 204.128 385.171 202.508 385.846 200.888C386.521 199.268 387.331 197.783 388.006 196.163C388.816 194.678 389.356 192.788 389.896 191.168C390.301 189.413 390.571 187.793 390.706 186.038C390.706 184.418 390.706 182.662 390.166 181.177C390.031 180.367 389.626 179.692 389.356 179.017C389.221 178.747 388.951 178.342 388.816 178.072C388.681 177.802 388.411 177.532 388.141 177.262C387.871 176.992 387.736 176.722 387.466 176.587C387.196 176.317 386.926 176.182 386.656 176.047C386.386 175.912 386.116 175.642 385.846 175.507C385.576 175.372 385.306 175.237 385.036 175.237C384.091 174.697 383.146 174.697 382.336 174.427C381.526 174.292 380.986 174.292 380.581 174.292C380.176 174.292 379.906 174.292 379.906 174.292C379.906 174.292 380.176 174.292 380.581 174.427C380.986 174.562 381.526 174.562 382.336 174.697C383.011 174.967 383.956 175.102 384.901 175.642C385.171 175.777 385.306 175.912 385.576 176.047C385.846 176.182 385.981 176.452 386.251 176.587C386.521 176.722 386.791 176.857 386.926 177.127C387.061 177.397 387.331 177.532 387.466 177.802C387.736 178.072 387.871 178.342 388.006 178.612C388.141 178.882 388.276 179.152 388.546 179.422C388.816 180.097 389.086 180.637 389.221 181.447C389.626 182.797 389.626 184.418 389.491 186.038C389.356 187.658 389.086 189.278 388.546 190.898C388.006 192.518 387.466 194.003 386.656 195.623C385.981 197.243 385.171 198.863 384.496 200.348C383.821 201.968 383.281 203.588 382.741 205.208C382.201 206.693 381.661 208.314 381.256 209.664C380.851 211.149 380.446 212.499 380.041 213.714C379.636 214.929 379.366 216.144 379.096 217.224C378.826 218.304 378.556 219.114 378.421 219.924C377.881 221.274 377.746 222.219 377.746 222.219Z" fill="#E8A289"/>
<path d="M363.841 204.128C363.841 204.128 364.111 203.318 364.786 201.833C365.326 200.348 366.136 198.323 367.081 195.893C368.026 193.463 369.106 190.628 370.186 187.523C370.726 186.038 371.266 184.417 371.941 182.797C372.616 181.177 373.291 179.557 373.966 178.072L375.046 175.642C375.451 174.832 375.721 174.022 375.991 173.212C376.126 172.807 376.261 172.402 376.396 171.997C376.531 171.592 376.666 171.187 376.666 170.782C376.801 169.972 376.936 169.027 377.071 168.217C377.206 166.597 377.206 164.842 376.801 163.357C376.531 161.872 375.991 160.386 375.046 159.306C374.236 158.226 373.156 157.551 372.076 157.146C370.996 156.741 370.051 156.606 369.376 156.606C368.566 156.471 368.026 156.606 367.621 156.606C367.216 156.606 366.946 156.606 366.946 156.606C366.946 156.606 367.216 156.606 367.621 156.606C368.026 156.606 368.701 156.606 369.376 156.741C370.186 156.876 370.996 157.011 371.941 157.416C372.886 157.821 373.831 158.631 374.506 159.576C375.991 161.602 376.261 164.707 375.856 167.947C375.721 168.757 375.586 169.567 375.451 170.377C375.316 170.782 375.181 171.187 375.181 171.592C375.046 171.997 374.911 172.402 374.776 172.807C374.506 173.617 374.236 174.427 373.831 175.237L372.751 177.667C372.076 179.287 371.401 180.907 370.726 182.527C370.051 184.147 369.511 185.768 368.971 187.253C367.891 190.358 366.946 193.328 366.271 195.758C364.786 200.618 363.841 204.128 363.841 204.128Z" fill="#E8A289"/>
<path d="M348.45 192.518C348.45 192.518 348.855 191.303 349.665 189.278C350.34 187.118 351.555 184.147 352.77 180.502C353.04 179.557 353.445 178.612 353.715 177.667C354.12 176.722 354.525 175.777 354.931 174.697C355.336 173.617 355.741 172.672 356.146 171.592C356.551 170.512 357.091 169.567 357.631 168.487C358.036 167.407 358.576 166.327 359.116 165.247C359.656 164.167 360.196 162.952 360.601 161.737C361.411 159.306 361.951 156.741 361.816 154.041C361.681 153.366 361.546 152.826 361.546 152.151C361.276 151.476 361.141 150.801 360.871 150.261C360.331 149.046 359.656 147.831 358.711 146.886C356.956 144.996 354.525 143.646 352.095 143.106C351.825 142.971 351.555 142.971 351.15 142.836L350.34 142.701C349.8 142.566 349.26 142.566 348.585 142.566C347.37 142.566 346.155 142.701 345.075 142.971C342.915 143.646 341.025 144.861 339.675 146.346C338.325 147.696 337.38 149.316 336.705 150.666C336.03 152.016 335.49 153.366 335.22 154.446C334.815 155.526 334.68 156.336 334.545 157.011C334.41 157.551 334.41 157.956 334.41 157.956C334.41 157.956 334.545 157.686 334.68 157.011C334.815 156.471 335.085 155.661 335.49 154.581C336.3 152.556 337.65 149.586 340.35 146.886C341.7 145.536 343.455 144.456 345.48 143.916C346.56 143.646 347.64 143.511 348.585 143.646C349.125 143.646 349.665 143.781 350.205 143.781L351.015 143.916C351.285 143.916 351.555 144.051 351.825 144.186C352.365 144.321 352.905 144.591 353.445 144.726C353.985 144.996 354.525 145.266 355.066 145.536C356.011 146.076 357.091 146.886 357.766 147.696C358.576 148.506 359.251 149.586 359.656 150.666C359.926 151.206 360.061 151.746 360.196 152.286C360.331 152.826 360.466 153.636 360.466 154.176C360.736 156.606 360.196 159.036 359.386 161.332C358.981 162.547 358.576 163.627 358.036 164.707C357.496 165.787 356.956 166.867 356.551 168.082C356.011 169.162 355.606 170.242 355.201 171.322C354.796 172.402 354.39 173.482 354.12 174.427C353.715 175.507 353.445 176.452 353.04 177.397C352.635 178.342 352.5 179.287 352.095 180.232C351.015 183.877 350.07 186.983 349.53 189.143C348.855 191.303 348.45 192.518 348.45 192.518Z" fill="#E8A289"/>
<path d="M307.273 135.951C307.273 135.951 307.813 135.681 308.758 135.276C309.163 135.006 309.838 134.871 310.378 134.6C311.053 134.33 311.728 134.195 312.539 133.925C313.349 133.655 314.294 133.655 315.239 133.385C316.184 133.385 317.129 133.115 318.209 133.25C318.749 133.25 319.289 133.25 319.829 133.25C320.369 133.25 320.909 133.385 321.449 133.385C321.989 133.385 322.529 133.52 323.069 133.655L323.879 133.79L324.689 134.06C325.769 134.33 326.714 134.871 327.659 135.276C328.469 135.816 329.549 136.356 330.224 137.031C331.034 137.706 331.574 138.516 332.249 139.191C332.789 140.001 333.194 140.811 333.599 141.486C333.869 142.296 334.139 142.971 334.409 143.646C334.679 144.321 334.679 144.861 334.814 145.401C335.084 146.346 335.219 146.886 335.219 146.886C335.219 146.886 335.219 146.346 335.084 145.266C335.084 144.726 335.084 144.186 334.814 143.511C334.679 142.836 334.544 142.026 334.274 141.216C333.869 140.406 333.599 139.461 333.059 138.651C332.789 138.246 332.519 137.841 332.114 137.301C331.844 136.896 331.439 136.491 331.034 136.086C330.224 135.276 329.279 134.601 328.334 134.06C327.254 133.52 326.174 132.98 325.094 132.71L324.284 132.44L323.474 132.305C322.934 132.17 322.394 132.035 321.719 132.035C320.504 131.9 319.424 131.9 318.344 132.035C317.264 132.035 316.184 132.305 315.239 132.44C314.294 132.71 313.349 132.845 312.539 133.25C311.728 133.52 310.918 133.79 310.378 134.195C309.703 134.465 309.163 134.736 308.758 135.006C307.813 135.546 307.273 135.951 307.273 135.951Z" fill="#E8A289"/>
<path d="M307.273 135.951C307.273 135.951 307.813 135.681 308.758 135.276C309.163 135.006 309.838 134.871 310.378 134.6C311.053 134.33 311.728 134.195 312.539 133.925C313.349 133.655 314.294 133.655 315.239 133.385C316.184 133.385 317.129 133.115 318.209 133.25C318.749 133.25 319.289 133.25 319.829 133.25C320.369 133.25 320.909 133.385 321.449 133.385C321.989 133.385 322.529 133.52 323.069 133.655L323.879 133.79L324.689 134.06C325.769 134.33 326.714 134.871 327.659 135.276C328.469 135.816 329.549 136.356 330.224 137.031C331.034 137.706 331.574 138.516 332.249 139.191C332.789 140.001 333.194 140.811 333.599 141.486C333.869 142.296 334.139 142.971 334.409 143.646C334.679 144.321 334.679 144.861 334.814 145.401C335.084 146.346 335.219 146.886 335.219 146.886C335.219 146.886 335.219 146.346 335.084 145.266C335.084 144.726 335.084 144.186 334.814 143.511C334.679 142.836 334.544 142.026 334.274 141.216C333.869 140.406 333.599 139.461 333.059 138.651C332.789 138.246 332.519 137.841 332.114 137.301C331.844 136.896 331.439 136.491 331.034 136.086C330.224 135.276 329.279 134.601 328.334 134.06C327.254 133.52 326.174 132.98 325.094 132.71L324.284 132.44L323.474 132.305C322.934 132.17 322.394 132.035 321.719 132.035C320.504 131.9 319.424 131.9 318.344 132.035C317.264 132.035 316.184 132.305 315.239 132.44C314.294 132.71 313.349 132.845 312.539 133.25C311.728 133.52 310.918 133.79 310.378 134.195C309.703 134.465 309.163 134.736 308.758 135.006C307.813 135.546 307.273 135.951 307.273 135.951Z" fill="#E8A289"/>
<path d="M324.689 193.868C324.689 193.868 324.824 193.598 325.094 193.058C325.364 192.518 325.634 191.573 326.039 190.493C326.444 189.413 326.849 188.063 327.389 186.578C327.794 185.093 328.334 183.337 328.874 181.447C329.414 179.557 330.089 177.532 330.629 175.237C331.17 173.077 331.71 170.647 332.385 168.352C332.925 165.922 333.6 163.492 334.14 160.927C334.41 159.711 334.815 158.361 334.95 157.011L335.355 155.121C335.49 154.446 335.49 153.771 335.625 153.096C335.76 152.421 335.76 151.746 335.76 151.071C335.76 150.396 335.895 149.721 335.76 149.046L335.625 147.021C335.49 146.346 335.49 145.671 335.355 145.131L335.22 144.186L334.95 143.241C334.68 142.566 334.545 141.891 334.275 141.351C334.005 140.811 333.735 140.136 333.33 139.596C333.06 139.056 332.52 138.516 332.25 137.976C330.63 135.951 328.469 134.6 326.309 133.655C324.149 132.845 321.854 132.575 319.829 132.44C318.884 132.44 317.804 132.44 316.994 132.575C316.049 132.71 315.239 132.845 314.429 132.98C312.809 133.385 311.459 133.79 310.379 134.195C309.839 134.465 309.434 134.6 309.029 134.87C308.624 135.14 308.354 135.275 308.084 135.41C307.544 135.681 307.274 135.951 307.274 135.951C307.274 135.951 307.544 135.816 308.084 135.546C308.354 135.41 308.759 135.275 309.164 135.005C309.569 134.87 310.109 134.6 310.649 134.465C311.729 134.06 313.079 133.655 314.699 133.385C316.319 133.115 318.074 132.98 319.964 133.115C321.854 133.25 324.014 133.655 326.039 134.465C328.064 135.275 329.954 136.761 331.44 138.516C331.71 139.056 332.115 139.461 332.52 140.001C332.79 140.541 333.06 141.081 333.33 141.621C333.6 142.161 333.735 142.836 333.87 143.376L334.14 144.186L334.275 145.131C334.41 145.806 334.41 146.481 334.545 147.021V148.911C334.545 149.586 334.545 150.261 334.41 150.801C334.41 151.476 334.275 152.151 334.275 152.691C334.14 153.366 334.14 153.906 334.005 154.581L333.6 156.471C333.465 157.686 333.06 159.036 332.79 160.252C332.25 162.817 331.71 165.247 331.17 167.677C330.63 170.107 330.089 172.402 329.684 174.697C329.144 176.857 328.604 179.017 328.199 180.907C327.794 182.797 327.254 184.552 326.984 186.173C326.579 187.658 326.174 189.008 325.904 190.223C325.634 191.303 325.364 192.248 325.094 192.788C324.689 193.598 324.689 193.868 324.689 193.868Z" fill="#E8A289"/>
<path d="M275.412 366H253.406C253.676 365.46 253.946 365.055 254.216 364.515C282.297 315.913 268.256 244.495 275.682 215.199C276.492 211.824 277.437 208.854 278.247 206.288C276.222 216.144 277.977 231.534 278.247 245.845C278.787 287.292 286.752 334.679 282.297 349.124C280.137 355.74 277.707 361.275 275.412 366Z" fill="url(#paint2_linear_724_138724)"/>
<path d="M307.813 140.946L306.868 146.346C305.923 151.746 309.703 156.741 315.104 157.551C320.504 158.361 325.769 154.716 326.579 149.316L327.524 143.916C324.689 140.001 311.863 138.111 307.813 140.946Z" fill="#EB996E"/>
<path d="M341.16 149.586L340.485 153.366C339.81 157.011 342.375 160.522 346.155 161.062C349.935 161.602 353.445 159.171 354.12 155.391L354.795 151.611C352.77 148.911 343.995 147.561 341.16 149.586Z" fill="#EB996E"/>
<path d="M362.49 161.197L362.085 163.897C361.68 166.597 363.57 169.162 366.27 169.567C368.97 169.972 371.671 168.082 372.076 165.382L372.481 162.682C370.996 160.792 364.515 159.711 362.49 161.197Z" fill="#EB996E"/>
<path d="M375.181 179.152L374.776 181.852C374.371 184.552 376.261 187.118 378.961 187.523C381.661 187.928 384.361 186.038 384.767 183.337L385.172 180.637C383.686 178.747 377.341 177.802 375.181 179.152Z" fill="#EB996E"/>
<path d="M383.821 208.583L383.551 210.474C383.281 212.364 384.631 214.254 386.521 214.524C388.412 214.794 390.302 213.579 390.707 211.554L390.977 209.664C389.897 208.313 385.306 207.638 383.821 208.583Z" fill="#EB996E"/>
<path d="M351.285 321.988C350.61 324.013 349.935 326.308 349.26 328.738C348.585 331.168 348.045 333.734 347.64 336.299C347.235 338.999 346.965 341.699 346.965 344.534C346.965 347.369 347.235 350.204 348.045 352.904C348.72 355.604 350.205 358.17 351.555 360.6C352.635 362.355 353.715 364.245 354.795 365.865H353.715C352.635 364.245 351.69 362.76 350.61 361.14C349.8 359.925 349.125 358.71 348.45 357.36C347.775 356.01 347.235 354.659 346.83 353.174C346.02 350.339 345.615 347.369 345.615 344.399C345.615 341.429 345.885 338.594 346.29 335.894C346.83 333.194 347.37 330.628 348.045 328.198C348.72 325.768 349.53 323.608 350.34 321.448C351.96 317.398 353.58 314.158 354.795 311.863C356.01 309.568 356.82 308.353 356.82 308.353C356.82 308.353 356.145 309.703 355.2 311.998C354.12 314.563 352.635 317.803 351.285 321.988Z" fill="#E2906D"/>
<path d="M294.718 366C290.263 322.528 281.487 232.074 283.513 206.288C286.213 171.997 382.607 238.015 382.607 238.015C349.935 279.056 345.48 335.354 340.35 366H294.718Z" fill="url(#paint3_linear_724_138724)"/>
<path d="M402.856 37.9366H384.901H380.716H327.118C298.362 13.0955 264.071 0 227.619 0C191.168 0 156.876 13.0955 128.12 37.9366H127.445H110.165H76.1431H52.3821H34.2914C15.3906 37.9366 0 50.2221 0 65.3427V65.7477L3.10513 102.739L25.651 365.865H26.5961H36.4515L13.2305 93.5588L10.8004 65.2077C10.9354 56.1623 21.4659 48.737 34.2914 48.737H52.2471H73.983H114.215H132.305L133.79 47.3869C160.792 23.491 193.193 10.8004 227.619 10.8004C257.186 10.8004 285.267 20.1158 309.703 37.9366C310.648 38.6116 311.593 39.2866 312.403 39.9616C313.483 40.7717 314.563 41.5817 315.643 42.5267C316.183 42.9318 316.588 43.3368 317.128 43.7418C318.613 44.9568 319.963 46.1719 321.313 47.3869L322.798 48.737H384.766H386.521H402.721C415.547 48.737 426.077 56.1623 426.212 65.2077L418.922 150.801L400.696 365.865H410.552C410.822 365.865 411.227 365.865 411.497 365.865L428.778 163.897L434.583 95.9889L437.148 65.8827V65.4777C437.283 50.2221 421.892 37.9366 402.856 37.9366Z" fill="#40BFEF"/>
<defs>
<linearGradient id="paint0_linear_724_138724" x1="153.643" y1="286.115" x2="194.464" y2="286.115" gradientUnits="userSpaceOnUse">
<stop stop-color="#FFE1CC"/>
<stop offset="1" stop-color="#EACBA9"/>
</linearGradient>
<linearGradient id="paint1_linear_724_138724" x1="78.4287" y1="227.041" x2="142.039" y2="304.987" gradientUnits="userSpaceOnUse">
<stop stop-color="#FFE1CC"/>
<stop offset="1" stop-color="#FFEDE1"/>
</linearGradient>
<linearGradient id="paint2_linear_724_138724" x1="283.579" y1="286.115" x2="242.758" y2="286.115" gradientUnits="userSpaceOnUse">
<stop stop-color="#FFE1CC"/>
<stop offset="1" stop-color="#EACBA9"/>
</linearGradient>
<linearGradient id="paint3_linear_724_138724" x1="358.794" y1="227.041" x2="295.183" y2="304.987" gradientUnits="userSpaceOnUse">
<stop stop-color="#FFE1CC"/>
<stop offset="1" stop-color="#FFEDE1"/>
</linearGradient>
</defs>
</svg>
