<svg width="26" height="26" viewBox="0 0 26 26" fill="none" xmlns="http://www.w3.org/2000/svg">
<path d="M21.666 4.33398C22.2126 4.33381 22.7391 4.54026 23.1399 4.91194C23.5408 5.28362 23.7863 5.79307 23.8273 6.33815L23.8327 6.50065V19.5007C23.8329 20.0473 23.6264 20.5738 23.2547 20.9746C22.883 21.3754 22.3736 21.6209 21.8285 21.6619L21.666 21.6673H4.33268C3.78606 21.6675 3.25957 21.461 2.85876 21.0894C2.45794 20.7177 2.21243 20.2082 2.17143 19.6632L2.16602 19.5007V6.50065C2.16584 5.95403 2.37229 5.42754 2.74397 5.02672C3.11565 4.62591 3.6251 4.3804 4.17018 4.3394L4.33268 4.33398H21.666ZM21.666 8.03248L14.1477 15.5508C13.843 15.8551 13.43 16.0261 12.9993 16.0261C12.5687 16.0261 12.1557 15.8551 11.851 15.5508L4.33268 8.03248V19.5007H21.666V8.03248ZM20.1342 6.50065H5.86452L12.9993 13.6355L20.1342 6.50065Z" fill="#335ACF"/>
</svg>
