<svg width="20" height="20" viewBox="0 0 20 20" fill="none" xmlns="http://www.w3.org/2000/svg">
<path d="M8.80486 7.19355V8.4558H7.88086V9.99855H8.80486V14.5846H10.7042V9.99855H11.9784C11.9784 9.99855 12.0984 9.2588 12.1562 8.44939H10.7115V7.39522C10.7115 7.23664 10.9187 7.02489 11.124 7.02489H12.158V5.41797H10.7509C8.75811 5.41797 8.80486 6.96255 8.80486 7.19355Z" fill="#335ACF"/>
<path d="M4.50065 2.66732C4.01442 2.66732 3.54811 2.86047 3.20429 3.20429C2.86047 3.54811 2.66732 4.01442 2.66732 4.50065V15.5007C2.66732 15.9869 2.86047 16.4532 3.20429 16.797C3.54811 17.1408 4.01442 17.334 4.50065 17.334H15.5007C15.9869 17.334 16.4532 17.1408 16.797 16.797C17.1408 16.4532 17.334 15.9869 17.334 15.5007V4.50065C17.334 4.01442 17.1408 3.54811 16.797 3.20429C16.4532 2.86047 15.9869 2.66732 15.5007 2.66732H4.50065ZM4.50065 0.833984H15.5007C16.4731 0.833984 17.4057 1.22029 18.0934 1.90793C18.781 2.59556 19.1673 3.52819 19.1673 4.50065V15.5007C19.1673 16.4731 18.781 17.4057 18.0934 18.0934C17.4057 18.781 16.4731 19.1673 15.5007 19.1673H4.50065C3.52819 19.1673 2.59556 18.781 1.90793 18.0934C1.22029 17.4057 0.833984 16.4731 0.833984 15.5007V4.50065C0.833984 3.52819 1.22029 2.59556 1.90793 1.90793C2.59556 1.22029 3.52819 0.833984 4.50065 0.833984Z" fill="#335ACF"/>
</svg>
