<svg width="20" height="20" viewBox="0 0 20 20" fill="none" xmlns="http://www.w3.org/2000/svg">
<path d="M14.5846 7.20208C14.2473 7.34874 13.8852 7.44958 13.5048 7.49358C13.8935 7.26441 14.1905 6.90141 14.3316 6.46966C13.9613 6.6855 13.5572 6.83736 13.1363 6.91883C12.9593 6.73327 12.7463 6.58572 12.5104 6.48517C12.2744 6.38462 12.0205 6.33318 11.7641 6.33399C10.7255 6.33399 9.88397 7.16358 9.88397 8.18566C9.88397 8.33049 9.90047 8.47166 9.93255 8.60733C9.1876 8.57195 8.4582 8.38168 7.7909 8.04866C7.12359 7.71564 6.53303 7.24718 6.05689 6.67316C5.88965 6.95467 5.8016 7.27614 5.80205 7.60358C5.80205 8.24524 6.1348 8.81358 6.63897 9.14449C6.34054 9.13514 6.04851 9.05569 5.78647 8.91258V8.93549C5.7893 9.36583 5.9412 9.78189 6.21631 10.1128C6.49142 10.4437 6.87272 10.6691 7.2953 10.7505C7.01788 10.8238 6.7276 10.8345 6.44555 10.7817C6.5685 11.1519 6.80367 11.4746 7.11841 11.7051C7.43314 11.9356 7.81183 12.0623 8.20189 12.0677C7.53268 12.5834 6.71105 12.862 5.86622 12.8597C5.71497 12.8597 5.56555 12.8506 5.41797 12.8341C6.28007 13.3798 7.27968 13.6688 8.29997 13.6673C11.7595 13.6673 13.6506 10.8458 13.6506 8.39833L13.6441 8.15816C14.0129 7.899 14.3316 7.57506 14.5846 7.20208Z" fill="#335ACF"/>
<path d="M4.50065 2.66732C4.01442 2.66732 3.54811 2.86047 3.20429 3.20429C2.86047 3.54811 2.66732 4.01442 2.66732 4.50065V15.5007C2.66732 15.9869 2.86047 16.4532 3.20429 16.797C3.54811 17.1408 4.01442 17.334 4.50065 17.334H15.5007C15.9869 17.334 16.4532 17.1408 16.797 16.797C17.1408 16.4532 17.334 15.9869 17.334 15.5007V4.50065C17.334 4.01442 17.1408 3.54811 16.797 3.20429C16.4532 2.86047 15.9869 2.66732 15.5007 2.66732H4.50065ZM4.50065 0.833984H15.5007C16.4731 0.833984 17.4057 1.22029 18.0934 1.90793C18.781 2.59556 19.1673 3.52819 19.1673 4.50065V15.5007C19.1673 16.4731 18.781 17.4057 18.0934 18.0934C17.4057 18.781 16.4731 19.1673 15.5007 19.1673H4.50065C3.52819 19.1673 2.59556 18.781 1.90793 18.0934C1.22029 17.4057 0.833984 16.4731 0.833984 15.5007V4.50065C0.833984 3.52819 1.22029 2.59556 1.90793 1.90793C2.59556 1.22029 3.52819 0.833984 4.50065 0.833984Z" fill="#335ACF"/>
</svg>
